<?xml version="1.0" encoding="utf-8"?>
<!-- Generator: Adobe Illustrator 22.1.0, SVG Export Plug-In . SVG Version: 6.00 Build 0)  -->
<svg version="1.1" id="Layer_1" xmlns="http://www.w3.org/2000/svg" xmlns:xlink="http://www.w3.org/1999/xlink" x="0px" y="0px"
	 viewBox="0 0 432 576" style="enable-background:new 0 0 432 576;" xml:space="preserve">
<style type="text/css">
	.st0{fill:url(#SVGID_1_);}
	.st1{fill:url(#SVGID_2_);}
	.st2{fill:url(#SVGID_3_);}
	.st3{fill:url(#SVGID_4_);}
	.st4{fill:url(#SVGID_5_);}
	.st5{fill:url(#SVGID_6_);}
	.st6{fill:url(#SVGID_7_);}
	.st7{fill:url(#SVGID_8_);}
	.st8{fill:url(#SVGID_9_);}
	.st9{fill:#231F20;}
	.st10{fill:url(#SVGID_10_);}
	.st11{fill:url(#SVGID_11_);}
	.st12{fill:url(#SVGID_12_);}
	.st13{fill:url(#SVGID_13_);}
	.st14{fill:url(#SVGID_14_);}
</style>
<g id="Head_and_Neck">
	
		<linearGradient id="SVGID_1_" gradientUnits="userSpaceOnUse" x1="179.5171" y1="437.8399" x2="218.7773" y2="437.8399" gradientTransform="matrix(1.192524e-03 -1 -1 -1.192524e-03 505.776 504.4017)">
		<stop  offset="7.317073e-03" style="stop-color:#AAAAAA"/>
		<stop  offset="0.2244" style="stop-color:#AEAEAE"/>
		<stop  offset="0.4431" style="stop-color:#BABABA"/>
		<stop  offset="0.6625" style="stop-color:#CECECE"/>
		<stop  offset="0.8813" style="stop-color:#EAEAEA"/>
		<stop  offset="0.9317" style="stop-color:#F2F2F2"/>
	</linearGradient>
	<path class="st0" d="M65.4,314.7c-0.6-0.2-3.4-1.6-7.3-1.4c-1.9,0.2-3.6,0.8-7,2.2c-0.8,0.3-1.7,0.7-3.3,1.4
		c-1.5,0.6-2.6,1-3.4,1.2c3.6-11.1,8.5-18.6,12.2-23.2c6.2-7.8,11-10.2,12-9.5c1,0.6,0.2,2.8,1.9,4.4c0.3,0.2,0.9,0.7,4.3,1.6
		c2.6,0.6,3.9,1.1,4.3,1.1c3.8,0.3,7.1-3.1,8.6-5c1.3,1.6,3.1,4.2,3.9,7.8c1.7,7.2-1.6,13.2-5.3,19.8c-2.8,5.1-5.3,9.5-8.4,9.4
		c-1.4-0.1-3.6-2-8-6C67.5,316.1,66.9,315.4,65.4,314.7z"/>
	
		<linearGradient id="SVGID_2_" gradientUnits="userSpaceOnUse" x1="196.1253" y1="447.3228" x2="229.0019" y2="474.9096" gradientTransform="matrix(1.192524e-03 -1 -1 -1.192524e-03 505.776 504.4017)">
		<stop  offset="7.317073e-03" style="stop-color:#B0B0AE"/>
		<stop  offset="0.8137" style="stop-color:#E9E9E9"/>
		<stop  offset="0.9317" style="stop-color:#F2F2F2"/>
	</linearGradient>
	<path class="st1" d="M20.8,289.6c-1.1,6.2-0.1,11.1,0.1,12.3c1,4.3,2.2,9.6,7,13.3c5,3.8,10.7,3.5,12.3,3.4
		c1.9-0.1,6.9-0.5,10.7-4.3c2.7-2.7,3.8-6.1,4.2-7.5c0.6-1.8,0.7-3.4,0.8-4.5c1.3,0.2,3.5,0.3,5.7-0.7c2.4-1.1,3.6-3.1,5.4-6.3
		c1.3-2.3,2.1-5.1,3.9-10.9c0.9-2.9,1.3-4.6,0.4-6.2c-0.6-1.2-1.7-1.8-2.6-2.3c-1.9-1.1-2.9-0.8-6.5-1.5c-4.4-0.8-5-0.6-6.1-1.2
		c-1.5-0.8-1.7-1.6-2.7-1.6c-1.1,0-1.5,0.9-4,2.6c-1.5,1-2.3,1.5-3.2,1.4c-1.5-0.1-1.8-1.2-3.4-1.9c-0.6-0.2-1.5-0.5-5.8,0.6
		c-3.6,1-5.5,1.5-7.8,2.8c-1.6,1-3.5,1.9-5,3.8C21.9,283.8,21.3,286.9,20.8,289.6z"/>
	
		<linearGradient id="SVGID_3_" gradientUnits="userSpaceOnUse" x1="232.7894" y1="452.0761" x2="232.7894" y2="452.0761" gradientTransform="matrix(1.192524e-03 -1 -1 -1.192524e-03 505.776 504.4017)">
		<stop  offset="7.317073e-03" style="stop-color:#AAAAAA"/>
		<stop  offset="0.9317" style="stop-color:#F2F2F2"/>
	</linearGradient>
	<path class="st2" d="M54,271.1"/>
	
		<linearGradient id="SVGID_4_" gradientUnits="userSpaceOnUse" x1="190.1603" y1="445.4557" x2="190.1603" y2="445.4557" gradientTransform="matrix(1.192524e-03 -1 -1 -1.192524e-03 505.776 504.4017)">
		<stop  offset="7.317073e-03" style="stop-color:#AAAAAA"/>
		<stop  offset="0.9317" style="stop-color:#F2F2F2"/>
	</linearGradient>
	<path class="st3" d="M60.5,313.7"/>
</g>
<g id="Foot">
	
		<linearGradient id="SVGID_5_" gradientUnits="userSpaceOnUse" x1="523.2131" y1="78.2522" x2="523.2131" y2="112.285" gradientTransform="matrix(0.9993 3.758225e-02 3.758225e-02 -0.9993 -149.9872 379.0642)">
		<stop  offset="0" style="stop-color:#ABABAB"/>
		<stop  offset="0.3463" style="stop-color:#D3D6D6"/>
		<stop  offset="1" style="stop-color:#C5C8C9"/>
	</linearGradient>
	<path class="st4" d="M356.7,289.2c-0.4,1.8-1.1,4.3-2.5,6.9c-1.2,2.4-2.7,4.2-3.8,5.5c-2,3.8-2.4,7-2.6,9c-0.2,3.3,0.6,4.5,0.9,4.9
		c0.5,0.7,1.4,1.7,5.4,2.7c5.9,1.5,10.9,1.1,12.2,0.9c3.4-0.4,3.2-0.8,5.7-0.9c4-0.2,5.2,1,10,2c8.4,1.8,10.2-0.7,17.2,0.2
		c0.7,0.1,2.5,0.4,3.9-0.7c0.8-0.6,1.5-1.7,1.3-2.7c-0.3-1.6-3.2-2.2-5.9-2.9c0,0-6.6-1.6-12.8-4.1c-3.8-1.5-8.3-3.5-11.7-8
		c-1.8-2.4-2.6-4.5-2.8-5.2c-1.6-4.7-0.7-8.9-0.2-10.8C366.2,287.2,361.5,288.3,356.7,289.2z"/>
</g>
<g id="Calves">
	
		<linearGradient id="SVGID_6_" gradientUnits="userSpaceOnUse" x1="301.4905" y1="189.2789" x2="269.7802" y2="189.2789" gradientTransform="matrix(0.2774 -0.9608 -0.9608 -0.2774 425.1353 606.5381)">
		<stop  offset="0" style="stop-color:#ABABAB"/>
		<stop  offset="0.3463" style="stop-color:#D3D6D6"/>
		<stop  offset="0.8171" style="stop-color:#BDC2C7"/>
		<stop  offset="1" style="stop-color:#ABABAB"/>
	</linearGradient>
	<path class="st5" d="M278.7,277.8c7.6,7.1,14.7,10.1,20,11.4c5,1.3,4.8,0.2,21.6,1.4c0,0,10.5,0.7,22.7,2.3c7.7,1,5.8,1,12.6,1.9
		c0.3,0,2.1,0.3,3.1,0.6c1.6,0.4,3.9,1.1,6.7,3.3c0.6-0.3,3.9-1.6,5.3-5.1c1.3-3.2,0.5-6.8-1.8-9.6c-1.4-0.5-3.4-1.2-6-2
		c-7.8-2.5-12.7-3.9-14.7-4.7c-3.7-1.3-9.2-3.3-22-8.7c-14.1-6-14.5-6.5-21.9-9.5c-5.7-2.3-14.4-5.6-25.4-8.8
		C278.7,259.6,278.7,268.7,278.7,277.8z"/>
	
		<linearGradient id="SVGID_7_" gradientUnits="userSpaceOnUse" x1="210.016" y1="117.6437" x2="210.016" y2="117.6437" gradientTransform="matrix(0.2774 -0.9608 -0.9608 -0.2774 444.3573 539.957)">
		<stop  offset="0" style="stop-color:#ABABAB"/>
		<stop  offset="0.3463" style="stop-color:#D3D6D6"/>
		<stop  offset="0.8171" style="stop-color:#BDC2C7"/>
		<stop  offset="1" style="stop-color:#ABABAB"/>
	</linearGradient>
	<path class="st6" d="M389.6,305.6"/>
	
		<linearGradient id="SVGID_8_" gradientUnits="userSpaceOnUse" x1="231.815" y1="244.4007" x2="231.815" y2="244.4007" gradientTransform="matrix(0.2774 -0.9608 -0.9608 -0.2774 444.3573 539.957)">
		<stop  offset="0" style="stop-color:#ABABAB"/>
		<stop  offset="0.3463" style="stop-color:#D3D6D6"/>
		<stop  offset="0.8171" style="stop-color:#BDC2C7"/>
		<stop  offset="1" style="stop-color:#ABABAB"/>
	</linearGradient>
	<path class="st7" d="M273.8,249.4"/>
</g>
<g id="Thigh">
	
		<linearGradient id="SVGID_9_" gradientUnits="userSpaceOnUse" x1="52.2718" y1="250.1353" x2="15.5351" y2="250.1353" gradientTransform="matrix(1.192524e-03 -1 -1 -1.192524e-03 506.0243 296.2667)">
		<stop  offset="0" style="stop-color:#ABABAB"/>
		<stop  offset="0.3463" style="stop-color:#D3D6D6"/>
		<stop  offset="0.8171" style="stop-color:#BDC2C7"/>
		<stop  offset="1" style="stop-color:#ABABAB"/>
	</linearGradient>
	<path class="st8" d="M224.8,277.7c0.3,0.2,0.6,0.5,1,0.6c5.6,3.1,10.5,2.4,23.3,0.8c1.9-0.2,6.8-0.8,16.6-1.9
		c2.2-0.2,5-0.6,6.9-0.8c4.8-0.6,8.6-1,11.2-1.3c0.8-0.2,2-0.6,3.2-1.3c0.6-0.3,3.2-1.9,4.7-4.5c2.8-5-0.7-11.2-1.8-13.2
		c-0.9-1.6-2.3-4.1-5.2-5.9c-2.2-1.4-3.8-1.5-9.8-1.9c-11.1-1-16.7-1.8-19.8-2.3c-2.6-0.4-1.9-0.3-4.7-0.8
		c-14.7-2.2-19-1.6-22.8,0.5c-0.6,0.3-1.1,0.6-1.6,1C217.4,252.9,216.9,271.3,224.8,277.7z"/>
	<path class="st9" d="M164.6,287.2c1,0.1,2.6,0.2,4.4,0.7c2.5,0.6,4.2,1.6,5.2,2.1c3.4,1.7,6.5,2.1,9.7,2.6c6.8,1,12.2-0.1,14.5-0.7
		c4.7-1,8.1-2.7,10.1-3.6c2.6-1.2,4.7-2.5,6.3-3.5c1.4-0.3,3.5-0.7,6.1-1.1c6.5-1,10.6-1.2,15.3-1.6c3.5-0.3,8.6-0.9,14.9-2
		c0.4-1.4,1-3.4,1.5-5.8c0.9-4.6,2.4-11.5,0.7-19.6c-0.6-2.6-1.6-6.4-3.9-10.7c-7.7-1.2-14-2-18.4-2.5c-3.7-0.4-7.2-0.8-14.1-1.6
		c-6.3-0.7-6.5-0.8-8.7-1.1c-7-0.8-12.1-0.7-21.8-0.8c-7.9-0.1-14.8,0.1-20.2,0.4C165.4,254.7,165,270.9,164.6,287.2z"/>
</g>
<g id="Chest">
	<path class="st9" d="M76.3,326.3c0.8-1.8,2.1-5,1.8-9c-0.2-3.1-1.2-5.3-2.4-7.8c-1.3-2.8-3.6-6.9-7.8-11.3
		c4.3-6.1,8.5-11.1,11.9-15.1c2.8-3.2,4.2-4.8,6.2-6.5c1.2-1,7-6,16.8-9.9c2.1-0.9,2.5-0.9,4.3-1.4c1.3-0.4,2.3-0.7,5-1.6
		c8.4-2.8,11.3-3.6,15.1-5.1c4.4-1.6,7.4-3.2,14.7-6.8c7.5-3.8,16.5-8.5,26.9-13.9c3.7,4.7,8,11.2,11.7,19.4
		c4.9,10.9,6.7,20.8,7.5,27.8c-2.2,0.3-5.5,0.8-9.4,1.8c-11.4,3-19.8,8-26.8,12.3c-0.6,0.4-3.9,2.5-10.5,6.7
		c-2.8,1.8-6.4,4.2-11.3,7.2c-7.1,4.5-10.2,6.4-14.8,8.7c-6.9,3.3-12.1,5.9-19.2,6.8C92.3,329,85.2,329.2,76.3,326.3z"/>
</g>
<g id="Bicep">
	
		<linearGradient id="SVGID_10_" gradientUnits="userSpaceOnUse" x1="177.0561" y1="413.9208" x2="221.6034" y2="360.8314" gradientTransform="matrix(2.467183e-02 -0.9997 -0.9997 -2.467183e-02 504.093 514.6319)">
		<stop  offset="0" style="stop-color:#D3D6D6"/>
		<stop  offset="0.6073" style="stop-color:#BDC2C7"/>
		<stop  offset="0.878" style="stop-color:#9C9C9C"/>
	</linearGradient>
	<path class="st10" d="M77.5,301.8c0.4,1.3,1,3.1,2,5.3c1.1,2.3,1.9,4,3.4,5.5c1.7,1.7,3.3,2.5,5.2,3.5c2.9,1.4,5.5,1.9,7.3,2.4
		c0.9,0.2,2.2,0.4,4.4,0.7c0,0,1.8,0.2,3.6,0.2c5.4,0.2,10.3-0.8,18.2-0.9c1,0,2,0,4,0c7.1,0.1,12.2,0.3,13.6,0.4
		c4.2,0.2,11,0.2,22-1c1-0.6,2.5-1.7,3.5-3.5c2.1-3.9,0.8-8.8-1.3-11.6c-2.7-3.7-7-4.5-15.7-6c-4.8-0.9-8.6-1.1-12.9-1.2
		c-10.7-0.4-10.6,0.5-16.8-0.3c-4.8-0.5-4.5-1-14-2.4c-5.5-0.9-8.2-1.5-11.4-1.4c-3.4,0.2-10.1,0.6-13.5,5.4
		C78.1,298.6,77.7,300.4,77.5,301.8z"/>
</g>
<g id="Tricep">
	
		<linearGradient id="SVGID_11_" gradientUnits="userSpaceOnUse" x1="218.3355" y1="302.9706" x2="185.3357" y2="360.128" gradientTransform="matrix(2.182113e-02 -0.9998 -0.9998 -2.182113e-02 504.3216 513.5266)">
		<stop  offset="0" style="stop-color:#D3D6D6"/>
		<stop  offset="0.6073" style="stop-color:#BDC2C7"/>
		<stop  offset="0.878" style="stop-color:#ABABAB"/>
	</linearGradient>
	<path class="st11" d="M151.4,317.2c3.8,1.3,7,0.9,9.9,0.7c7.1-0.8,14.3-0.8,21.4-1.4c6.7-0.6,5.7-0.4,15.3-1.2
		c4.9-0.4,9.9-0.8,14.7-1.3c2.2-1.3,3.5-3.7,3.2-6.2c-0.2-2.8-2.4-5.3-5.3-5.9c-11.5,0-20.7-0.9-27-1.8c-5.6-0.7-10-1.3-14.9-1.7
		c-9.8-0.8-8.9-0.3-12.5-1.1c-2.7-0.2-5.6-0.4-8.6-0.7c-2.4-0.2-4.8-0.6-7-0.9c-0.4,0.9-0.9,2.3-1.1,4c-0.7,6.4,3.5,11.2,4.7,12.4
		C145.5,313.4,147.7,315.9,151.4,317.2z"/>
</g>
<g id="Hand">
	
		<linearGradient id="SVGID_12_" gradientUnits="userSpaceOnUse" x1="288.3655" y1="296.9093" x2="310.844" y2="270.1205" gradientTransform="matrix(7.503915e-02 0.9972 -0.9972 7.503915e-02 487.0704 -7.3968)">
		<stop  offset="0" style="stop-color:#D3D6D6"/>
		<stop  offset="0.6073" style="stop-color:#BDC2C7"/>
	</linearGradient>
	<path class="st12" d="M209.9,306.2c3.3,0.2,6.1,0,7.9-0.2c1.9-0.2,5.2-0.9,8.6-1.7c2.7-0.6,3.1-0.8,4.3-0.7c1.9,0.1,2.3,0.7,6.2,2
		c2.7,0.9,2.8,0.7,4.4,1.4c2,0.9,1.9,1.2,4.2,2.3c2.3,1.1,3.8,1.4,3.8,2c0,0.6-1.2,1-1.3,1c-1.4,0.5-2.7-0.2-2.8-0.3
		c-0.8-0.2-2-0.6-3.5-1.3c-0.8-0.3-0.9-0.4-1.4-0.6c-1.3-0.5-2.1-0.4-4.1-0.6c-3-0.2-2.9-0.4-3.6-0.2c-1.6,0.5-2.9,2.4-2.9,2.4
		c-1.5,0.8-2.8,1.6-4.3,2.3c-1.3-0.2-3.2-0.5-5.6-0.5c-1.9-0.1-3.3,0.1-6.9,0.3c-3.1,0.2-5.9,0.5-7.9,0.7
		C206.5,311.9,208.2,309.1,209.9,306.2z"/>
	
		<linearGradient id="SVGID_13_" gradientUnits="userSpaceOnUse" x1="284.5177" y1="294.2395" x2="307.644" y2="266.6787" gradientTransform="matrix(6.537479e-02 0.9979 -0.9979 6.537479e-02 489.2359 -3.9135)">
		<stop  offset="0" style="stop-color:#D3D6D6"/>
		<stop  offset="0.6073" style="stop-color:#BDC2C7"/>
	</linearGradient>
	<path class="st13" d="M212.5,303.3c3.3,0.2,6.1,0.1,7.9-0.2c1.9-0.2,5.2-0.8,8.6-1.6c2.7-0.6,3.1-0.8,4.3-0.7
		c1.9,0.1,2.3,0.7,6.1,2.1c2.7,1,2.8,0.7,4.4,1.5c2,0.9,1.9,1.3,4.2,2.3c2.3,1.1,3.8,1.4,3.7,2c0,0.6-1.2,1-1.3,1
		c-1.5,0.5-2.7-0.3-2.8-0.4c-0.8-0.2-2-0.6-3.5-1.4c-0.8-0.4-0.9-0.5-1.4-0.6c-2.1-0.8-4.1-0.6-4.1-0.6c-0.6,0.1-1.1,0.2-1.9,0.4
		c-1.1,0.3-1.1,0.4-2.3,0.8c-1.5,0.5-1.9,0.4-2.4,1c-0.1,0.1-0.6,0.7-0.4,1.2c0.1,0.3,0.6,0.7,3.1,0.8c1.5,0.1,2.8,0.1,5.2,0.1
		c0.8,0,1.9,0.1,2.8,0.8c0.2,0.2,0.6,0.5,0.6,0.8c-0.1,0.5-1,0.7-3.6,1.1c-1.5,0.2-2.8,0.4-5.8,0.6c-2.7,0.2-3.3,0.2-4.1,0.2
		c-1.1-0.1-2.1-0.2-3.3-0.5c-0.9-0.2-1.7-0.4-2.3-0.6c-1.4-0.4-2.4-0.7-3.1-1c-0.3-0.2-0.6-0.2-0.6-0.2c-3.2-1.1-9-1.4-9-1.4
		c-1.5-0.1-3.5-0.1-5.7,0C207.8,308.6,210.1,305.9,212.5,303.3z"/>
	
		<linearGradient id="SVGID_14_" gradientUnits="userSpaceOnUse" x1="291.9669" y1="304.2015" x2="315.8521" y2="275.7362" gradientTransform="matrix(0.1775 0.9841 -0.9841 0.1775 457.6431 -42.8459)">
		<stop  offset="0" style="stop-color:#D3D6D6"/>
		<stop  offset="0.6073" style="stop-color:#BDC2C7"/>
	</linearGradient>
	<path class="st14" d="M208.2,301.8c2.7,0.2,5.8,0.2,9.4-0.3c3.3-0.4,6.1-1.1,8.6-1.8c0,0,1.6-0.8,3.5-1.1c0.2,0,0.4-0.1,0.7-0.1
		c1.9-0.1,2.3,0.5,6.4,1.4c2.8,0.6,2.8,0.4,4.4,1c2.1,0.6,2,1.1,4.4,1.9c2.5,0.9,3.9,1,4,1.6c0.1,0.6-1.1,1.1-1.2,1.1
		c-1.4,0.6-2.7,0-2.8-0.1c-0.8-0.2-2.1-0.5-3.6-1c-0.8-0.2-0.9-0.3-1.5-0.5c-1.3-0.3-2.1-0.2-4.2-0.1c-3.1,0.1-3-0.1-3.6,0.2
		c-1.5,0.6-2.7,2.7-2.7,2.7c-1.5,3-10,4.7-11.3,4.9c-3.3,0.6-4.8,0.4-7.4,0.6c-1.2,0.1-1.5,0.2-2.3,0.4c-0.5,0.1-0.8,0.2-1.5,0.2
		c-0.5,0.1-1.1,0.2-1.9,0.2C206.4,309.2,207.3,305.5,208.2,301.8z"/>
</g>
</svg>
