<?xml version="1.0" encoding="utf-8"?>
<!-- Generator: Adobe Illustrator 22.1.0, SVG Export Plug-In . SVG Version: 6.00 Build 0)  -->
<svg version="1.1" id="Layer_1" xmlns="http://www.w3.org/2000/svg" xmlns:xlink="http://www.w3.org/1999/xlink" x="0px" y="0px"
	 viewBox="0 0 432 576" style="enable-background:new 0 0 432 576;" xml:space="preserve">
<style type="text/css">
	.st0{fill:url(#SVGID_1_);}
	.st1{fill:url(#SVGID_2_);}
	.st2{fill:url(#SVGID_3_);}
	.st3{fill:url(#SVGID_4_);}
	.st4{fill:url(#SVGID_5_);}
	.st5{fill:url(#SVGID_6_);}
	.st6{fill:url(#SVGID_7_);}
	.st7{fill:url(#SVGID_8_);}
	.st8{fill:url(#SVGID_9_);}
	.st9{fill:#231F20;}
	.st10{fill:url(#SVGID_10_);}
	.st11{fill:url(#SVGID_11_);}
	.st12{fill:url(#SVGID_12_);}
	.st13{fill:url(#SVGID_13_);}
	.st14{fill:url(#SVGID_14_);}
</style>
<g id="Head_and_Neck">
	
		<linearGradient id="SVGID_1_" gradientUnits="userSpaceOnUse" x1="187.4078" y1="391.1956" x2="226.6681" y2="391.1956" gradientTransform="matrix(-0.4571 -0.8894 -0.8894 0.4571 569.8542 322.334)">
		<stop  offset="7.317073e-03" style="stop-color:#AAAAAA"/>
		<stop  offset="0.2244" style="stop-color:#AEAEAE"/>
		<stop  offset="0.4431" style="stop-color:#BABABA"/>
		<stop  offset="0.6625" style="stop-color:#CECECE"/>
		<stop  offset="0.8813" style="stop-color:#EAEAEA"/>
		<stop  offset="0.9317" style="stop-color:#F2F2F2"/>
	</linearGradient>
	<path class="st0" d="M129.4,327.1c-0.6,0-3.8,0.1-7.1,2.1c-1.6,1-2.8,2.3-5.3,5.1c-0.6,0.7-1.2,1.4-2.3,2.7c-1,1.2-1.9,2-2.5,2.6
		c-1.9-11.5-0.9-20.4,0.2-26.3c1.9-9.8,5.1-14.1,6.3-13.9c1.2,0.1,1.4,2.4,3.7,3.1c0.4,0.1,1.1,0.2,4.5-0.5c2.6-0.6,3.9-0.8,4.3-1
		c3.5-1.4,4.9-6,5.4-8.4c1.9,0.8,4.6,2.3,7,5.2c4.8,5.6,4.6,12.4,4.4,20c-0.2,5.8-0.3,10.9-3.2,12.2c-1.3,0.6-4.1-0.2-9.8-1.7
		C131.9,327.4,131.1,327.1,129.4,327.1z"/>
	
		<linearGradient id="SVGID_2_" gradientUnits="userSpaceOnUse" x1="204.016" y1="400.6785" x2="236.8927" y2="428.2653" gradientTransform="matrix(-0.4571 -0.8894 -0.8894 0.4571 569.8542 322.334)">
		<stop  offset="7.317073e-03" style="stop-color:#B0B0AE"/>
		<stop  offset="0.8137" style="stop-color:#E9E9E9"/>
		<stop  offset="0.9317" style="stop-color:#F2F2F2"/>
	</linearGradient>
	<path class="st1" d="M78.2,325.3c1.8,6,5,9.9,5.8,10.8c2.8,3.4,6.3,7.5,12.3,8.6c6.2,1.1,11.1-1.8,12.5-2.6c1.6-0.9,6-3.6,7.6-8.7
		c1.2-3.7,0.6-7.2,0.3-8.6c-0.3-1.8-0.9-3.3-1.3-4.4c1.2-0.4,3.2-1.3,4.7-3.2c1.6-2.1,1.7-4.4,1.9-8.1c0.1-2.6-0.5-5.5-1.5-11.5
		c-0.5-3-1-4.7-2.5-5.7c-1.1-0.8-2.3-0.8-3.3-0.8c-2.1-0.1-3,0.6-6.4,1.7c-4.3,1.3-4.7,1.8-5.9,1.7c-1.7-0.1-2.2-0.7-3.1-0.2
		c-1,0.5-1,1.5-2.4,4.1c-0.9,1.6-1.4,2.4-2.2,2.8c-1.3,0.6-2.1-0.3-3.9-0.1c-0.6,0-1.6,0.3-4.9,3.2c-2.8,2.5-4.2,3.9-5.7,6.1
		c-1,1.6-2.2,3.2-2.7,5.7C76.6,319.6,77.4,322.6,78.2,325.3z"/>
	
		<linearGradient id="SVGID_3_" gradientUnits="userSpaceOnUse" x1="240.6802" y1="405.4318" x2="240.6802" y2="405.4318" gradientTransform="matrix(-0.4571 -0.8894 -0.8894 0.4571 569.8542 322.334)">
		<stop  offset="7.317073e-03" style="stop-color:#AAAAAA"/>
		<stop  offset="0.9317" style="stop-color:#F2F2F2"/>
	</linearGradient>
	<path class="st2" d="M99.2,293.6"/>
	
		<linearGradient id="SVGID_4_" gradientUnits="userSpaceOnUse" x1="198.0511" y1="398.8114" x2="198.0511" y2="398.8114" gradientTransform="matrix(-0.4571 -0.8894 -0.8894 0.4571 569.8542 322.334)">
		<stop  offset="7.317073e-03" style="stop-color:#AAAAAA"/>
		<stop  offset="0.9317" style="stop-color:#F2F2F2"/>
	</linearGradient>
	<path class="st3" d="M124.6,328.5"/>
</g>
<g id="Foot">
	
		<linearGradient id="SVGID_5_" gradientUnits="userSpaceOnUse" x1="474.2769" y1="65.404" x2="474.2769" y2="99.4368" gradientTransform="matrix(0.9993 3.758225e-02 3.758225e-02 -0.9993 -149.9872 379.0642)">
		<stop  offset="0" style="stop-color:#ABABAB"/>
		<stop  offset="0.3463" style="stop-color:#D3D6D6"/>
		<stop  offset="1" style="stop-color:#C5C8C9"/>
	</linearGradient>
	<path class="st4" d="M307.3,300.2c-0.4,1.8-1.1,4.3-2.5,6.9c-1.2,2.4-2.7,4.2-3.8,5.5c-2,3.8-2.4,7-2.6,9c-0.2,3.3,0.6,4.5,0.9,4.9
		c0.5,0.7,1.4,1.7,5.4,2.7c5.9,1.5,10.9,1.1,12.2,0.9c3.4-0.4,3.2-0.8,5.7-0.9c4-0.2,5.2,1,10,2c8.4,1.8,10.2-0.7,17.2,0.2
		c0.7,0.1,2.5,0.4,3.9-0.7c0.8-0.6,1.5-1.7,1.3-2.7c-0.3-1.6-3.2-2.2-5.9-2.9c0,0-6.6-1.6-12.8-4.1c-3.8-1.5-8.3-3.5-11.7-8
		c-1.8-2.4-2.6-4.5-2.8-5.2c-1.6-4.7-0.7-8.9-0.2-10.8C316.9,298.2,312.1,299.3,307.3,300.2z"/>
</g>
<g id="Calves">
	
		<linearGradient id="SVGID_6_" gradientUnits="userSpaceOnUse" x1="283.0153" y1="203.8079" x2="251.305" y2="203.8079" gradientTransform="matrix(1 -9.916894e-03 -9.916894e-03 -1 46.5807 465.6979)">
		<stop  offset="0" style="stop-color:#ABABAB"/>
		<stop  offset="0.3463" style="stop-color:#D3D6D6"/>
		<stop  offset="0.8171" style="stop-color:#BDC2C7"/>
		<stop  offset="1" style="stop-color:#ABABAB"/>
	</linearGradient>
	<path class="st5" d="M300.8,216.7c-4.6,9.3-5.4,17-5.2,22.4c0.2,5.2,1.2,4.7,4.8,21.1c0,0,2.3,10.2,4.3,22.4
		c1.3,7.7,0.7,5.9,1.8,12.6c0.1,0.2,0.3,2.1,0.4,3.1c0.1,1.6,0,4-1.2,7.4c0.4,0.5,2.6,3.3,6.4,3.6c3.4,0.3,6.7-1.5,8.7-4.5
		c0.1-1.5,0.1-3.6,0.2-6.3c0.2-8.2,0.1-13.2,0.3-15.4c0.2-4,0.5-9.8,2-23.6c1.7-15.3,2.1-15.8,2.8-23.7c0.6-6.1,1.2-15.4,1.1-26.8
		C318.3,211.6,309.5,214.2,300.8,216.7z"/>
	
		<linearGradient id="SVGID_7_" gradientUnits="userSpaceOnUse" x1="191.5408" y1="132.1727" x2="191.5408" y2="132.1727" gradientTransform="matrix(1 -9.916894e-03 -9.916894e-03 -1 115.8776 465.0107)">
		<stop  offset="0" style="stop-color:#ABABAB"/>
		<stop  offset="0.3463" style="stop-color:#D3D6D6"/>
		<stop  offset="0.8171" style="stop-color:#BDC2C7"/>
		<stop  offset="1" style="stop-color:#ABABAB"/>
	</linearGradient>
	<path class="st6" d="M306.1,330.9"/>
	
		<linearGradient id="SVGID_8_" gradientUnits="userSpaceOnUse" x1="213.3397" y1="258.9297" x2="213.3397" y2="258.9297" gradientTransform="matrix(1 -9.916894e-03 -9.916894e-03 -1 115.8776 465.0107)">
		<stop  offset="0" style="stop-color:#ABABAB"/>
		<stop  offset="0.3463" style="stop-color:#D3D6D6"/>
		<stop  offset="0.8171" style="stop-color:#BDC2C7"/>
		<stop  offset="1" style="stop-color:#ABABAB"/>
	</linearGradient>
	<path class="st7" d="M326.6,204"/>
</g>
<g id="Thigh">
	
		<linearGradient id="SVGID_9_" gradientUnits="userSpaceOnUse" x1="98.0393" y1="212.7085" x2="61.3026" y2="212.7085" gradientTransform="matrix(-0.2777 -0.9607 -0.9607 0.2777 521.1461 240.0247)">
		<stop  offset="0" style="stop-color:#ABABAB"/>
		<stop  offset="0.3463" style="stop-color:#D3D6D6"/>
		<stop  offset="0.8171" style="stop-color:#BDC2C7"/>
		<stop  offset="1" style="stop-color:#ABABAB"/>
	</linearGradient>
	<path class="st8" d="M269.1,246.3c0.4,0.1,0.8,0.3,1.1,0.4c6.2,1.4,10.7-0.7,22.5-5.8c1.7-0.7,6.3-2.7,15.4-6.5
		c2-0.8,4.7-1.9,6.4-2.7c4.4-1.9,8-3.3,10.4-4.4c0.7-0.5,1.8-1.1,2.7-2.1c0.5-0.5,2.6-2.8,3.2-5.6c1.2-5.6-3.8-10.6-5.5-12.2
		c-1.3-1.3-3.4-3.3-6.7-4.2c-2.5-0.7-4-0.3-10,0.9c-10.9,2.1-16.5,2.9-19.6,3.3c-2.6,0.3-1.9,0.2-4.7,0.5c-14.7,2-18.7,3.8-21.8,6.9
		c-0.5,0.5-0.9,0.8-1.3,1.4C255.2,224.5,259.8,242.3,269.1,246.3z"/>
	<path class="st9" d="M214,272.2c1-0.2,2.5-0.5,4.4-0.5c2.6-0.1,4.5,0.4,5.6,0.6c3.7,0.7,6.9,0.2,10-0.2c6.8-1,11.7-3.5,13.8-4.7
		c4.2-2.3,7-4.8,8.7-6.3c2.1-1.9,3.8-3.7,5.1-5.2c1.2-0.7,3.1-1.7,5.5-2.8c5.9-2.8,9.8-4.1,14.3-5.8c3.2-1.3,8-3.2,13.7-6.1
		c0-1.4,0-3.5-0.2-6c-0.4-4.7-1-11.7-4.8-19c-1.3-2.3-3.3-5.7-6.8-9.2c-7.8,1-14,1.9-18.4,2.7c-3.7,0.6-7.1,1.2-14,2.4
		c-6.3,1.1-6.5,1-8.7,1.4c-7,1.2-11.8,2.7-21.2,5.3c-7.6,2.1-14.1,4.3-19.3,6C205.7,240.7,209.8,256.4,214,272.2z"/>
</g>
<g id="Chest">
	<path class="st9" d="M138.7,329.2c0.4-1.9,1-5.4-0.2-9.2c-0.9-3-2.3-5-4-7.1c-1.9-2.4-5-6-10-9.3c2.9-6.9,5.8-12.7,8.3-17.3
		c2-3.7,3.1-5.6,4.7-7.7c0.9-1.3,5.5-7.3,14.3-13.3c1.9-1.3,2.2-1.4,3.9-2.3c1.2-0.7,2.1-1.2,4.5-2.6c7.6-4.6,10.2-6,13.7-8.2
		c3.9-2.6,6.6-4.7,12.9-9.9c6.5-5.3,14.2-11.9,23.2-19.5c4.6,3.8,10.3,9.1,15.6,16.4c7.1,9.6,11.1,18.9,13.4,25.5
		c-2.1,0.8-5.1,2-8.7,3.8c-10.5,5.4-17.6,12.1-23.5,17.8c-0.5,0.5-3.3,3.3-8.7,8.8c-2.3,2.4-5.3,5.5-9.5,9.5
		c-5.9,5.9-8.5,8.4-12.6,11.7c-6,4.8-10.5,8.4-17.2,10.8C155,328.3,148.1,330.1,138.7,329.2z"/>
</g>
<g id="Bicep">
	
		<linearGradient id="SVGID_10_" gradientUnits="userSpaceOnUse" x1="170.4493" y1="351.6246" x2="214.9966" y2="298.5351" gradientTransform="matrix(6.436563e-02 -0.9979 -0.9979 -6.436563e-02 495.8834 525.4871)">
		<stop  offset="0" style="stop-color:#D3D6D6"/>
		<stop  offset="0.6073" style="stop-color:#BDC2C7"/>
		<stop  offset="0.878" style="stop-color:#9C9C9C"/>
	</linearGradient>
	<path class="st10" d="M139.8,306.5c0.4,1.3,0.8,3.2,1.8,5.3c1,2.4,1.7,4,3.2,5.6c1.6,1.8,3.2,2.6,5.1,3.7c2.8,1.5,5.4,2.2,7.2,2.6
		c0.9,0.2,2.2,0.5,4.3,0.8c0,0,1.8,0.2,3.5,0.4c5.4,0.5,10.4-0.4,18.3-0.2c1,0,2,0.1,4,0.2c7.1,0.4,12.2,0.8,13.5,1
		c4.2,0.4,11,0.6,22.1-0.1c1-0.5,2.6-1.6,3.6-3.4c2.3-3.8,1.2-8.8-0.8-11.7c-2.6-3.8-6.8-4.8-15.4-6.6c-4.8-1.1-8.6-1.4-12.9-1.7
		c-10.6-0.8-10.6,0.1-16.8-0.9c-4.7-0.7-4.5-1.2-13.9-3c-5.4-1.1-8.2-1.9-11.3-1.8c-3.4,0-10.1,0.2-13.7,4.9
		C140.5,303.3,140,305.1,139.8,306.5z"/>
</g>
<g id="Tricep">
	
		<linearGradient id="SVGID_11_" gradientUnits="userSpaceOnUse" x1="211.5513" y1="240.6958" x2="178.5515" y2="297.8532" gradientTransform="matrix(6.152129e-02 -0.9981 -0.9981 -6.152129e-02 496.1557 524.3918)">
		<stop  offset="0" style="stop-color:#D3D6D6"/>
		<stop  offset="0.6073" style="stop-color:#BDC2C7"/>
		<stop  offset="0.878" style="stop-color:#ABABAB"/>
	</linearGradient>
	<path class="st11" d="M213.1,324.8c3.7,1.4,7,1.2,9.9,1.1c7.1-0.5,14.3-0.2,21.4-0.6c6.7-0.3,5.7-0.2,15.4-0.6
		c4.9-0.2,9.9-0.4,14.7-0.7c2.2-1.2,3.6-3.6,3.5-6.1c-0.1-2.8-2.2-5.3-5.1-6.1c-11.5-0.5-20.7-1.7-26.9-2.9c-5.5-1-10-1.7-14.8-2.3
		c-9.8-1.2-8.9-0.7-12.5-1.6c-2.7-0.3-5.5-0.6-8.5-1.1c-2.4-0.3-4.7-0.8-7-1.2c-0.4,0.9-1,2.2-1.2,4c-0.9,6.3,3.1,11.4,4.2,12.6
		C207.3,320.8,209.4,323.3,213.1,324.8z"/>
</g>
<g id="Hand">
	
		<linearGradient id="SVGID_12_" gradientUnits="userSpaceOnUse" x1="299.8497" y1="235.2407" x2="322.3281" y2="208.452" gradientTransform="matrix(3.536521e-02 0.9994 -0.9994 3.536521e-02 499.6125 3.1943)">
		<stop  offset="0" style="stop-color:#D3D6D6"/>
		<stop  offset="0.6073" style="stop-color:#BDC2C7"/>
	</linearGradient>
	<path class="st12" d="M272.2,314.9c3.3,0.4,6.1,0.2,7.9,0.1c1.9-0.2,5.3-0.7,8.7-1.3c2.7-0.5,3.2-0.7,4.3-0.6
		c1.9,0.2,2.3,0.8,6.1,2.3c2.7,1,2.8,0.8,4.3,1.5c2,1,1.9,1.3,4.1,2.5c2.3,1.2,3.7,1.5,3.7,2.2c0,0.6-1.2,0.9-1.3,1
		c-1.4,0.4-2.7-0.4-2.8-0.4c-0.8-0.3-2-0.7-3.4-1.4c-0.8-0.4-0.9-0.4-1.3-0.7c-1.3-0.5-2.1-0.5-4.1-0.7c-3-0.4-2.9-0.5-3.6-0.4
		c-1.6,0.4-3,2.3-3,2.3c-1.5,0.7-2.9,1.5-4.4,2.2c-1.3-0.3-3.2-0.6-5.5-0.7c-1.9-0.2-3.3-0.1-6.9,0c-3.2,0.1-5.9,0.2-7.9,0.4
		C268.6,320.4,270.4,317.6,272.2,314.9z"/>
	
		<linearGradient id="SVGID_13_" gradientUnits="userSpaceOnUse" x1="295.4037" y1="232.4631" x2="318.53" y2="204.9023" gradientTransform="matrix(2.568113e-02 0.9997 -0.9997 2.568113e-02 501.6379 6.7608)">
		<stop  offset="0" style="stop-color:#D3D6D6"/>
		<stop  offset="0.6073" style="stop-color:#BDC2C7"/>
	</linearGradient>
	<path class="st13" d="M274.9,312.1c3.3,0.4,6,0.3,7.9,0.2c1.9-0.2,5.3-0.6,8.7-1.3c2.7-0.5,3.2-0.7,4.3-0.6c1.9,0.2,2.3,0.8,6,2.3
		c2.7,1.1,2.8,0.8,4.3,1.6c2,1,1.9,1.4,4.1,2.5c2.3,1.2,3.7,1.5,3.6,2.2c0,0.6-1.2,0.9-1.3,1c-1.5,0.4-2.6-0.4-2.8-0.5
		c-0.8-0.3-2-0.7-3.4-1.5c-0.8-0.4-0.9-0.5-1.3-0.7c-2.1-0.9-4.1-0.7-4.1-0.7c-0.6,0.1-1.1,0.1-2,0.3c-1.1,0.3-1.1,0.4-2.3,0.7
		c-1.6,0.4-2,0.3-2.5,0.9c-0.1,0.1-0.6,0.7-0.5,1.2c0.1,0.3,0.5,0.7,3,0.9c1.5,0.1,2.8,0.2,5.2,0.3c0.8,0,1.9,0.2,2.8,0.9
		c0.2,0.2,0.5,0.5,0.5,0.8c-0.1,0.5-1,0.7-3.7,1c-1.5,0.2-2.8,0.3-5.8,0.4c-2.7,0.1-3.3,0.1-4.1,0.1c-1.1-0.1-2.1-0.3-3.3-0.6
		c-0.9-0.3-1.7-0.5-2.3-0.7c-1.4-0.5-2.4-0.8-3-1.1c-0.3-0.2-0.6-0.3-0.6-0.3c-3.2-1.3-9-1.7-9-1.7c-1.5-0.1-3.5-0.2-5.7-0.2
		C270,317.1,272.5,314.6,274.9,312.1z"/>
	
		<linearGradient id="SVGID_14_" gradientUnits="userSpaceOnUse" x1="309.753" y1="244.0462" x2="333.6382" y2="215.5809" gradientTransform="matrix(0.1383 0.9904 -0.9904 0.1383 471.6167 -33.3959)">
		<stop  offset="0" style="stop-color:#D3D6D6"/>
		<stop  offset="0.6073" style="stop-color:#BDC2C7"/>
	</linearGradient>
	<path class="st14" d="M270.7,310.4c2.7,0.3,5.8,0.4,9.5,0.1c3.3-0.3,6.2-0.9,8.6-1.5c0,0,1.6-0.7,3.5-1c0.2,0,0.4-0.1,0.7-0.1
		c1.9,0,2.3,0.6,6.3,1.6c2.8,0.8,2.8,0.5,4.4,1.1c2.1,0.7,2,1.1,4.4,2c2.5,1,3.8,1.1,3.9,1.8c0.1,0.6-1.2,1.1-1.3,1.1
		c-1.4,0.6-2.7-0.1-2.8-0.2c-0.8-0.2-2.1-0.6-3.5-1.1c-0.8-0.3-0.9-0.4-1.4-0.5c-1.3-0.4-2.1-0.2-4.2-0.3c-3.1,0-3-0.2-3.6,0
		c-1.6,0.6-2.8,2.6-2.8,2.6c-1.7,2.9-10.2,4.3-11.5,4.5c-3.3,0.5-4.9,0.2-7.4,0.3c-1.2,0-1.5,0.2-2.4,0.3c-0.5,0.1-0.8,0.1-1.5,0.2
		c-0.5,0.1-1.1,0.1-1.9,0.1C268.6,317.7,269.7,314,270.7,310.4z"/>
</g>
</svg>
