<?xml version="1.0" encoding="utf-8"?>
<!-- Generator: Adobe Illustrator 22.1.0, SVG Export Plug-In . SVG Version: 6.00 Build 0)  -->
<svg version="1.1" id="Layer_1" xmlns="http://www.w3.org/2000/svg" xmlns:xlink="http://www.w3.org/1999/xlink" x="0px" y="0px"
	 viewBox="0 0 432 576" style="enable-background:new 0 0 432 576;" xml:space="preserve">
<style type="text/css">
	.st0{fill:url(#SVGID_1_);}
	.st1{fill:url(#SVGID_2_);}
	.st2{fill:url(#SVGID_3_);}
	.st3{fill:url(#SVGID_4_);}
	.st4{fill:url(#SVGID_5_);}
	.st5{fill:url(#SVGID_6_);}
	.st6{fill:url(#SVGID_7_);}
	.st7{fill:url(#SVGID_8_);}
	.st8{fill:#1C170C;}
	.st9{fill:#1A1D0F;}
	.st10{fill:url(#SVGID_9_);}
	.st11{fill:url(#SVGID_10_);}
	.st12{fill:url(#SVGID_11_);}
	.st13{fill:url(#SVGID_12_);}
	.st14{fill:url(#SVGID_13_);}
</style>
<g id="Head_and_Neck">
	
		<linearGradient id="SVGID_1_" gradientUnits="userSpaceOnUse" x1="237.1248" y1="367.6328" x2="285.7522" y2="367.6328" gradientTransform="matrix(1 0 0 1 0 -214)">
		<stop  offset="7.317073e-03" style="stop-color:#AAAAAA"/>
		<stop  offset="0.2244" style="stop-color:#AEAEAE"/>
		<stop  offset="0.4431" style="stop-color:#BABABA"/>
		<stop  offset="0.6625" style="stop-color:#CECECE"/>
		<stop  offset="0.8813" style="stop-color:#EAEAEA"/>
		<stop  offset="0.9317" style="stop-color:#F2F2F2"/>
	</linearGradient>
	<path class="st0" d="M249.1,150.2c0.3-0.7,2-4.2,1.7-9c-0.2-2.3-1-4.4-2.7-8.7c-0.4-1-0.9-2.1-1.7-4.1c-0.7-1.8-1.2-3.2-1.5-4.2
		c13.7,4.4,23,10.5,28.8,15.1c9.7,7.7,12.6,13.6,11.8,14.8c-0.8,1.2-3.5,0.2-5.5,2.3c-0.3,0.4-0.9,1.1-2,5.3
		c-0.8,3.2-1.3,4.8-1.3,5.3c-0.4,4.7,3.9,8.8,6.2,10.7c-2,1.6-5.2,3.8-9.7,4.8c-8.9,2.1-16.3-2-24.5-6.5
		c-6.3-3.5-11.8-6.5-11.7-10.4c0.1-1.7,2.5-4.4,7.4-9.9C247.4,152.8,248.2,152.1,249.1,150.2z"/>
	
		<linearGradient id="SVGID_2_" gradientUnits="userSpaceOnUse" x1="257.6889" y1="355.8868" x2="298.4095" y2="321.718" gradientTransform="matrix(1 0 0 1 0 -214)">
		<stop  offset="7.317073e-03" style="stop-color:#B0B0AE"/>
		<stop  offset="0.8137" style="stop-color:#E9E9E9"/>
		<stop  offset="0.9317" style="stop-color:#F2F2F2"/>
	</linearGradient>
	<path class="st1" d="M280.1,94.9c-7.7-1.4-13.8-0.1-15.2,0.2c-5.3,1.2-11.9,2.7-16.5,8.7c-4.7,6.2-4.3,13.2-4.2,15.2
		c0.1,2.3,0.6,8.6,5.3,13.3c3.4,3.4,7.6,4.7,9.3,5.2c2.2,0.7,4.2,0.9,5.6,1c-0.2,1.6-0.4,4.3,0.9,7c1.4,3,3.9,4.4,7.8,6.7
		c2.8,1.6,6.3,2.6,13.5,4.8c3.6,1.1,5.7,1.6,7.7,0.5c1.5-0.8,2.2-2.1,2.8-3.2c1.3-2.3,1-3.6,1.8-8c1-5.5,0.7-6.2,1.5-7.5
		c1-1.8,2-2.1,2-3.3c0-1.4-1.1-1.9-3.2-5c-1.3-1.9-1.9-2.9-1.8-4c0.1-1.8,1.5-2.2,2.3-4.2c0.3-0.7,0.6-1.9-0.8-7.2
		c-1.2-4.5-1.9-6.8-3.5-9.7c-1.2-2-2.3-4.3-4.7-6.2C287.3,96.3,283.5,95.5,280.1,94.9z"/>
	
		<linearGradient id="SVGID_3_" gradientUnits="userSpaceOnUse" x1="303.1" y1="350" x2="303.1" y2="350" gradientTransform="matrix(1 0 0 1 0 -214)">
		<stop  offset="7.317073e-03" style="stop-color:#AAAAAA"/>
		<stop  offset="0.9317" style="stop-color:#F2F2F2"/>
	</linearGradient>
	<path class="st2" d="M303.1,136"/>
	
		<linearGradient id="SVGID_4_" gradientUnits="userSpaceOnUse" x1="250.3" y1="358.2" x2="250.3" y2="358.2" gradientTransform="matrix(1 0 0 1 0 -214)">
		<stop  offset="7.317073e-03" style="stop-color:#AAAAAA"/>
		<stop  offset="0.9317" style="stop-color:#F2F2F2"/>
	</linearGradient>
	<path class="st3" d="M250.3,144.2"/>
</g>
<g id="Foot">
	
		<linearGradient id="SVGID_5_" gradientUnits="userSpaceOnUse" x1="561.289" y1="577.6919" x2="561.289" y2="535.5391" gradientTransform="matrix(-1.831753e-02 0.9998 -0.9998 -1.831753e-02 704.897 -104.1358)">
		<stop  offset="0" style="stop-color:#ABABAB"/>
		<stop  offset="0.3463" style="stop-color:#D3D6D6"/>
		<stop  offset="1" style="stop-color:#C5C8C9"/>
	</linearGradient>
	<path class="st4" d="M155.4,422.1c-2.3-0.4-5.4-1.3-8.6-3c-3-1.5-5.2-3.2-6.9-4.6c-4.8-2.4-8.7-2.9-11.2-3c-4.1-0.2-5.5,0.8-6,1.2
		c-0.8,0.6-2,1.8-3.2,6.7c-1.7,7.4-1.1,13.5-0.9,15.1c0.5,4.2,1,3.9,1.3,7c0.3,5-1.1,6.5-2.2,12.5c-2,10.5,1.2,12.6,0.1,21.3
		c-0.1,0.9-0.5,3.1,0.9,4.8c0.8,0.9,2.2,1.8,3.4,1.6c2-0.5,2.7-4.1,3.4-7.3c0,0,1.9-8.3,4.8-15.9c1.8-4.8,4.1-10.3,9.6-14.6
		c2.9-2.2,5.6-3.3,6.4-3.6c5.8-2.1,11-1.1,13.4-0.6C158,433.8,156.6,428,155.4,422.1z"/>
</g>
<g id="Calves">
	
		<linearGradient id="SVGID_6_" gradientUnits="userSpaceOnUse" x1="304.5538" y1="488.0506" x2="265.2777" y2="488.0506" gradientTransform="matrix(-1.831753e-02 0.9998 -0.9998 -1.831753e-02 700.1727 153.7298)">
		<stop  offset="0" style="stop-color:#ABABAB"/>
		<stop  offset="0.3463" style="stop-color:#D3D6D6"/>
		<stop  offset="0.8171" style="stop-color:#BDC2C7"/>
		<stop  offset="1" style="stop-color:#ABABAB"/>
	</linearGradient>
	<path class="st5" d="M260,417.7c-11.4-6-20.9-7.3-27.6-7.2c-6.4,0.1-5.8,1.3-26.3,5.2c0,0-12.7,2.5-27.9,4.5
		c-9.5,1.3-7.3,0.7-15.6,1.8c-0.3,0.1-2.6,0.3-3.9,0.3c-2,0.1-5-0.1-9.1-1.8c-0.6,0.5-4.2,3.1-4.6,7.8c-0.5,4.2,1.6,8.3,5.3,10.9
		c1.8,0.1,4.5,0.3,7.8,0.4c10.2,0.5,16.4,0.6,19.1,0.8c4.9,0.4,12.1,1,29.1,3.3c18.9,2.6,19.4,3.2,29.2,4.3c7.6,0.9,19,2,33.2,2.3
		C265.8,439.5,262.9,428.6,260,417.7z"/>
	
		<linearGradient id="SVGID_7_" gradientUnits="userSpaceOnUse" x1="207.7888" y1="576.8124" x2="207.7888" y2="576.8124" gradientTransform="matrix(-1.831753e-02 0.9998 -0.9998 -1.831753e-02 698.9033 223.0185)">
		<stop  offset="0" style="stop-color:#ABABAB"/>
		<stop  offset="0.3463" style="stop-color:#D3D6D6"/>
		<stop  offset="0.8171" style="stop-color:#BDC2C7"/>
		<stop  offset="1" style="stop-color:#ABABAB"/>
	</linearGradient>
	<path class="st6" d="M118.4,420.2"/>
	
		<linearGradient id="SVGID_8_" gradientUnits="userSpaceOnUse" x1="234.8179" y1="419.7859" x2="234.8179" y2="419.7859" gradientTransform="matrix(-1.831753e-02 0.9998 -0.9998 -1.831753e-02 698.9033 223.0185)">
		<stop  offset="0" style="stop-color:#ABABAB"/>
		<stop  offset="0.3463" style="stop-color:#D3D6D6"/>
		<stop  offset="0.8171" style="stop-color:#BDC2C7"/>
		<stop  offset="1" style="stop-color:#ABABAB"/>
	</linearGradient>
	<path class="st7" d="M274.9,450.1"/>
</g>
<g id="Thigh">
	<path class="st8" d="M240.1,371.9c-0.3,0.4-0.6,0.8-0.8,1.2c-3.8,6.9-2.9,13-0.9,28.8c0.3,2.3,1,8.4,2.4,20.5
		c0.3,2.7,0.7,6.2,1,8.6c0.7,5.9,1.2,10.7,1.6,13.9c0.3,1,0.7,2.5,1.6,4c0.4,0.8,2.4,4,5.6,5.8c6.2,3.4,13.9-0.9,16.4-2.3
		c2-1.1,5.1-2.9,7.3-6.5c1.7-2.7,1.8-4.7,2.4-12.2c1.2-13.7,2.2-20.7,2.8-24.5c0.5-3.2,0.4-2.3,1-5.8c2.7-18.2,1.9-23.5-0.7-28.3
		c-0.4-0.7-0.7-1.3-1.2-2C270.8,362.8,248,362.2,240.1,371.9z"/>
	<path class="st8" d="M228.2,297.4c-0.1,1.3-0.3,3.2-0.9,5.4c-0.8,3.1-2,5.2-2.6,6.5c-2.1,4.2-2.6,8.1-3.2,12
		c-1.2,8.4,0.2,15.1,0.9,18c1.3,5.8,3.3,10,4.5,12.5c1.5,3.2,3.1,5.8,4.4,7.8c0.4,1.7,0.9,4.3,1.4,7.5c1.3,8,1.5,13.1,2,19
		c0.4,4.3,1.1,10.6,2.5,18.4c1.7,0.5,4.2,1.2,7.2,1.8c5.7,1.1,14.3,2.9,24.3,0.8c3.2-0.7,7.9-2,13.3-4.9c1.5-9.6,2.5-17.3,3.1-22.8
		c0.5-4.6,1-8.9,2-17.5c0.9-7.8,1-8.1,1.3-10.8c1-8.7,0.9-15,1-27c0.1-9.8-0.2-18.3-0.5-25C268.5,298.4,248.4,297.9,228.2,297.4z"/>
</g>
<g id="Chest">
	<path class="st9" d="M241.8,159.2c1.5,1.9,4.4,5.1,9,7c3.6,1.5,6.6,1.6,10,1.7c3.8,0.1,9.7-0.2,16.8-2.4
		c4.4,8.1,7.7,15.5,10.2,21.5c2,4.8,3,7.3,3.8,10.5c0.5,1.9,2.8,11,1.7,24.1c-0.2,2.8-0.4,3.2-0.8,5.5c-0.3,1.7-0.5,3-1,6.4
		c-1.5,10.9-2.2,14.5-2.7,19.6c-0.6,5.8-0.6,10-0.5,20.1c0.1,10.4,0.4,23,0.7,37.5c-7.3,1.5-16.8,2.8-27.9,2.3
		c-14.8-0.6-26.8-4-35-7c0.9-2.6,2.1-6.5,3.1-11.4c2.9-14.3,2-26.4,1.1-36.5c-0.1-0.9-0.6-5.7-1.7-15.3c-0.5-4.1-1.1-9.4-1.8-16.5
		c-1.1-10.3-1.5-14.8-1.5-21.2c0.1-9.5,0.1-16.7,3-25C230,175.5,233.6,167.4,241.8,159.2z"/>
</g>
<g id="Bicep">
	
		<linearGradient id="SVGID_9_" gradientUnits="userSpaceOnUse" x1="230.9157" y1="399.2883" x2="286.0915" y2="465.0444" gradientTransform="matrix(0.9997 2.347968e-02 -2.347968e-02 0.9997 5.8247 -213.3756)">
		<stop  offset="0" style="stop-color:#D3D6D6"/>
		<stop  offset="0.6073" style="stop-color:#BDC2C7"/>
		<stop  offset="0.878" style="stop-color:#9C9C9C"/>
	</linearGradient>
	<path class="st10" d="M259,169.9c-1.6,0.5-3.9,1.2-6.5,2.5c-2.9,1.4-4.9,2.3-6.8,4.2c-2.1,2.1-3.1,4.1-4.3,6.5
		c-1.7,3.6-2.4,6.8-2.9,9.1c-0.2,1.1-0.5,2.7-0.8,5.4c0,0-0.2,2.2-0.3,4.4c-0.3,6.7,1,12.8,1.2,22.6c0,1.3,0,2.5,0,5
		c-0.1,8.8-0.4,15.1-0.5,16.8c-0.3,5.2-0.2,13.6,1.3,27.3c0.7,1.2,2.1,3.1,4.4,4.3c4.8,2.6,10.9,1,14.4-1.6
		c4.6-3.4,5.6-8.7,7.4-19.4c1.1-6,1.3-10.7,1.5-16c0.5-13.2-0.6-13.1,0.3-20.8c0.6-5.9,1.2-5.6,3-17.3c1.1-6.8,1.9-10.2,1.7-14.1
		c-0.2-4.2-0.7-12.5-6.7-16.7C263,170.6,260.7,170.1,259,169.9z"/>
</g>
<g id="Tricep">
	
		<linearGradient id="SVGID_10_" gradientUnits="userSpaceOnUse" x1="281.6573" y1="537.0366" x2="240.784" y2="466.2419" gradientTransform="matrix(0.9998 2.062886e-02 -2.062886e-02 0.9998 4.9863 -213.4707)">
		<stop  offset="0" style="stop-color:#D3D6D6"/>
		<stop  offset="0.6073" style="stop-color:#BDC2C7"/>
		<stop  offset="0.878" style="stop-color:#ABABAB"/>
	</linearGradient>
	<path class="st11" d="M240.1,261.5c-1.6,4.7-1.1,8.7-0.8,12.3c1,8.8,1,17.7,1.8,26.5c0.7,8.3,0.5,7.1,1.5,19
		c0.5,6.1,1,12.2,1.6,18.2c1.6,2.7,4.6,4.3,7.7,4c3.5-0.3,6.5-3,7.3-6.6c0-14.3,1.1-25.7,2.2-33.4c0.9-6.9,1.6-12.4,2.1-18.4
		c1-12.2,0.4-11,1.3-15.5c0.2-3.4,0.5-6.9,0.9-10.6c0.3-3,0.7-5.9,1.1-8.7c-1.1-0.5-2.8-1.1-5-1.3c-7.9-0.8-13.9,4.4-15.4,5.8
		C244.7,254.1,241.7,256.9,240.1,261.5z"/>
</g>
<g id="Hand">
	
		<linearGradient id="SVGID_11_" gradientUnits="userSpaceOnUse" x1="66.1608" y1="558.3999" x2="94.0024" y2="591.5802" gradientTransform="matrix(-0.9971 7.622827e-02 7.622827e-02 0.9971 281.8175 -224.5452)">
		<stop  offset="0" style="stop-color:#D3D6D6"/>
		<stop  offset="0.6073" style="stop-color:#BDC2C7"/>
	</linearGradient>
	<path class="st12" d="M253.7,333.9c-0.3,4.1,0,7.5,0.3,9.8c0.3,2.4,1.1,6.5,2.1,10.7c0.8,3.3,1,3.9,0.9,5.3
		c-0.1,2.3-0.9,2.9-2.5,7.7c-1.1,3.4-0.9,3.5-1.7,5.4c-1.1,2.5-1.5,2.4-2.9,5.2c-1.4,2.9-1.7,4.7-2.5,4.7c-0.7,0-1.2-1.5-1.3-1.6
		c-0.6-1.7,0.3-3.3,0.4-3.5c0.3-1,0.8-2.5,1.6-4.3c0.4-1,0.5-1.1,0.8-1.7c0.6-1.6,0.5-2.6,0.7-5.1c0.3-3.7,0.5-3.6,0.3-4.5
		c-0.6-2-3-3.6-3-3.6c-1-1.8-2-3.5-2.9-5.3c0.3-1.6,0.6-4,0.6-6.9c0.1-2.4-0.1-4.1-0.4-8.5c-0.3-3.9-0.6-7.3-0.9-9.8
		C246.7,329.7,250.2,331.8,253.7,333.9z"/>
	
		<linearGradient id="SVGID_12_" gradientUnits="userSpaceOnUse" x1="59.9328" y1="560.1976" x2="88.5767" y2="594.3342" gradientTransform="matrix(-0.9978 6.656474e-02 6.656474e-02 0.9978 284.8941 -223.7151)">
		<stop  offset="0" style="stop-color:#D3D6D6"/>
		<stop  offset="0.6073" style="stop-color:#BDC2C7"/>
	</linearGradient>
	<path class="st13" d="M257.3,337.1c-0.3,4.1-0.1,7.5,0.2,9.8c0.3,2.4,1,6.5,2,10.7c0.7,3.3,1,3.9,0.9,5.3c-0.1,2.3-0.9,2.9-2.6,7.6
		c-1.2,3.4-0.9,3.5-1.8,5.4c-1.1,2.5-1.6,2.4-2.9,5.2c-1.4,2.9-1.7,4.7-2.5,4.6c-0.7,0-1.2-1.5-1.3-1.6c-0.6-1.8,0.4-3.3,0.5-3.5
		c0.3-1,0.8-2.5,1.7-4.3c0.5-1,0.6-1.1,0.8-1.7c1-2.6,0.7-5.1,0.7-5.1c-0.1-0.8-0.2-1.4-0.5-2.4c-0.4-1.4-0.5-1.3-1-2.8
		c-0.6-1.9-0.5-2.4-1.2-3c-0.1-0.1-0.9-0.7-1.5-0.5c-0.4,0.1-0.9,0.7-1,3.8c-0.1,1.9-0.1,3.5-0.1,6.4c0,1-0.1,2.4-1,3.5
		c-0.2,0.3-0.6,0.7-1,0.7c-0.6-0.1-0.9-1.2-1.4-4.5c-0.3-1.8-0.5-3.5-0.8-7.2c-0.3-3.3-0.3-4.1-0.3-5.1c0.1-1.4,0.3-2.6,0.6-4.1
		c0.3-1.1,0.5-2.1,0.7-2.9c0.5-1.7,0.9-3,1.2-3.8c0.2-0.4,0.3-0.7,0.3-0.8c1.4-4,1.7-11.2,1.7-11.2c0.1-1.9,0.1-4.3,0-7.1
		C250.8,331.3,254.1,334.2,257.3,337.1z"/>
	
		<linearGradient id="SVGID_13_" gradientUnits="userSpaceOnUse" x1="87.0093" y1="563.5192" x2="116.5932" y2="598.776" gradientTransform="matrix(-0.9839 0.1787 0.1787 0.9839 248.2132 -235.8527)">
		<stop  offset="0" style="stop-color:#D3D6D6"/>
		<stop  offset="0.6073" style="stop-color:#BDC2C7"/>
	</linearGradient>
	<path class="st14" d="M259.2,331.8c-0.2,3.3-0.2,7.2,0.4,11.7c0.5,4.1,1.4,7.6,2.3,10.6c0,0,1,2,1.4,4.3c0,0.3,0.1,0.5,0.1,0.9
		c0.1,2.3-0.6,2.9-1.7,7.9c-0.8,3.5-0.5,3.5-1.2,5.5c-0.8,2.6-1.3,2.5-2.3,5.5c-1.1,3.1-1.2,4.8-2,4.9c-0.7,0.1-1.4-1.4-1.4-1.5
		c-0.8-1.7,0-3.4,0.1-3.5c0.2-1,0.6-2.6,1.2-4.4c0.3-1,0.4-1.1,0.6-1.8c0.4-1.6,0.2-2.6,0.1-5.2c-0.1-3.8,0.1-3.7-0.2-4.5
		c-0.8-1.9-3.4-3.3-3.4-3.3c-3.7-1.9-5.8-12.4-6.1-14c-0.8-4.1-0.5-6-0.8-9.2c-0.1-1.5-0.3-1.9-0.5-2.9c-0.1-0.6-0.2-1-0.3-1.8
		c-0.1-0.6-0.2-1.4-0.2-2.3C250,329.6,254.6,330.7,259.2,331.8z"/>
</g>
</svg>
