<?xml version="1.0" encoding="utf-8"?>
<!-- Generator: Adobe Illustrator 22.1.0, SVG Export Plug-In . SVG Version: 6.00 Build 0)  -->
<svg version="1.1" id="Layer_1" xmlns="http://www.w3.org/2000/svg" xmlns:xlink="http://www.w3.org/1999/xlink" x="0px" y="0px"
	 viewBox="0 0 432 576" style="enable-background:new 0 0 432 576;" xml:space="preserve">
<style type="text/css">
	.st0{fill:url(#SVGID_1_);}
	.st1{fill:url(#SVGID_2_);}
	.st2{fill:url(#SVGID_3_);}
	.st3{fill:url(#SVGID_4_);}
	.st4{fill:url(#SVGID_5_);}
	.st5{fill:url(#SVGID_6_);}
	.st6{fill:url(#SVGID_7_);}
	.st7{fill:url(#SVGID_8_);}
	.st8{fill:#0F1D10;}
	.st9{fill:#1C1A0D;}
	.st10{fill:url(#SVGID_9_);}
	.st11{fill:url(#SVGID_10_);}
	.st12{fill:url(#SVGID_11_);}
	.st13{fill:url(#SVGID_12_);}
	.st14{fill:url(#SVGID_13_);}
</style>
<g id="Head_and_Neck">
	
		<linearGradient id="SVGID_1_" gradientUnits="userSpaceOnUse" x1="178.7571" y1="433.4069" x2="227.3845" y2="433.4069" gradientTransform="matrix(0.8654 -0.5011 0.5011 0.8654 -139.8787 -88.9729)">
		<stop  offset="7.317073e-03" style="stop-color:#AAAAAA"/>
		<stop  offset="0.2244" style="stop-color:#AEAEAE"/>
		<stop  offset="0.4431" style="stop-color:#BABABA"/>
		<stop  offset="0.6625" style="stop-color:#CECECE"/>
		<stop  offset="0.8813" style="stop-color:#EAEAEA"/>
		<stop  offset="0.9317" style="stop-color:#F2F2F2"/>
	</linearGradient>
	<path class="st0" d="M240.6,187.6c-0.1-0.8-0.4-4.6-3-8.6c-1.3-1.9-3.1-3.3-6.7-6.2c-0.8-0.7-1.8-1.4-3.5-2.7
		c-1.5-1.2-2.6-2.2-3.4-2.9c14.1-3.1,25.2-2.4,32.5-1.4c12.3,1.8,17.7,5.5,17.6,6.9s-2.9,1.9-3.6,4.7c-0.1,0.5-0.2,1.4,0.9,5.6
		c0.9,3.2,1.3,4.8,1.5,5.2c2,4.3,7.8,5.7,10.7,6.2c-0.9,2.4-2.6,5.9-6,9c-6.6,6.3-15.1,6.4-24.5,6.7c-7.2,0.1-13.5,0.3-15.3-3.1
		c-0.8-1.5,0-5.1,1.4-12.3C240.5,190.7,240.8,189.7,240.6,187.6z"/>
	
		<linearGradient id="SVGID_2_" gradientUnits="userSpaceOnUse" x1="199.3802" y1="421.7377" x2="240.1009" y2="387.569" gradientTransform="matrix(0.8654 -0.5011 0.5011 0.8654 -139.8787 -88.9729)">
		<stop  offset="7.317073e-03" style="stop-color:#B0B0AE"/>
		<stop  offset="0.8137" style="stop-color:#E9E9E9"/>
		<stop  offset="0.9317" style="stop-color:#F2F2F2"/>
	</linearGradient>
	<path class="st1" d="M239.8,124.2c-7.4,2.6-12,6.8-13.1,7.8c-4,3.7-8.9,8.3-9.9,15.8c-1,7.7,2.9,13.6,4,15.3
		c1.2,1.9,4.8,7.1,11.3,8.9c4.6,1.2,8.9,0.3,10.7-0.2c2.3-0.5,4.1-1.3,5.3-1.9c0.6,1.5,1.8,3.9,4.3,5.6c2.7,1.9,5.6,1.9,10.1,1.9
		c3.2,0,6.8-0.9,14.1-2.6c3.7-0.9,5.7-1.5,6.9-3.4c0.9-1.4,0.9-2.9,0.8-4.2c0-2.6-0.9-3.6-2.5-7.8c-1.9-5.3-2.5-5.7-2.5-7.2
		c0-2.1,0.7-2.8,0.1-3.9c-0.7-1.2-1.9-1.1-5.3-2.7c-2.1-1-3.1-1.6-3.6-2.6c-0.8-1.6,0.2-2.7-0.1-4.8c-0.1-0.8-0.4-1.9-4.3-5.8
		c-3.3-3.3-5.1-4.9-7.9-6.6c-2-1.1-4.1-2.6-7.2-3C246.7,121.8,243,123,239.8,124.2z"/>
	
		<linearGradient id="SVGID_3_" gradientUnits="userSpaceOnUse" x1="244.7708" y1="415.7933" x2="244.7708" y2="415.7933" gradientTransform="matrix(0.8654 -0.5011 0.5011 0.8654 -139.8787 -88.9729)">
		<stop  offset="7.317073e-03" style="stop-color:#AAAAAA"/>
		<stop  offset="0.9317" style="stop-color:#F2F2F2"/>
	</linearGradient>
	<path class="st2" d="M280.3,148.2"/>
	
		<linearGradient id="SVGID_4_" gradientUnits="userSpaceOnUse" x1="191.9342" y1="424.0249" x2="191.9342" y2="424.0249" gradientTransform="matrix(0.8654 -0.5011 0.5011 0.8654 -139.8787 -88.9729)">
		<stop  offset="7.317073e-03" style="stop-color:#AAAAAA"/>
		<stop  offset="0.9317" style="stop-color:#F2F2F2"/>
	</linearGradient>
	<path class="st3" d="M238.7,181.8"/>
</g>
<g id="Foot">
	
		<linearGradient id="SVGID_5_" gradientUnits="userSpaceOnUse" x1="561.289" y1="577.6919" x2="561.289" y2="535.5391" gradientTransform="matrix(-1.831753e-02 0.9998 -0.9998 -1.831753e-02 704.897 -104.1358)">
		<stop  offset="0" style="stop-color:#ABABAB"/>
		<stop  offset="0.3463" style="stop-color:#D3D6D6"/>
		<stop  offset="1" style="stop-color:#C5C8C9"/>
	</linearGradient>
	<path class="st4" d="M155.4,422.1c-2.3-0.4-5.4-1.3-8.6-3c-3-1.5-5.2-3.2-6.9-4.6c-4.8-2.4-8.7-2.9-11.2-3c-4.1-0.2-5.5,0.8-6,1.2
		c-0.8,0.6-2,1.8-3.2,6.7c-1.7,7.4-1.1,13.5-0.9,15.1c0.5,4.2,1,3.9,1.3,7c0.3,5-1.1,6.5-2.2,12.5c-2,10.5,1.2,12.6,0.1,21.3
		c-0.1,0.9-0.5,3.1,0.9,4.8c0.8,0.9,2.2,1.8,3.4,1.6c2-0.5,2.7-4.1,3.4-7.3c0,0,1.9-8.3,4.8-15.9c1.8-4.8,4.1-10.3,9.6-14.6
		c2.9-2.2,5.6-3.3,6.4-3.6c5.8-2.1,11-1.1,13.4-0.6C158,433.8,156.6,428,155.4,422.1z"/>
</g>
<g id="Calves">
	
		<linearGradient id="SVGID_6_" gradientUnits="userSpaceOnUse" x1="304.5538" y1="488.0506" x2="265.2777" y2="488.0506" gradientTransform="matrix(-1.831753e-02 0.9998 -0.9998 -1.831753e-02 700.1727 153.7298)">
		<stop  offset="0" style="stop-color:#ABABAB"/>
		<stop  offset="0.3463" style="stop-color:#D3D6D6"/>
		<stop  offset="0.8171" style="stop-color:#BDC2C7"/>
		<stop  offset="1" style="stop-color:#ABABAB"/>
	</linearGradient>
	<path class="st5" d="M260,417.7c-11.4-6-20.9-7.3-27.6-7.2c-6.4,0.1-5.8,1.3-26.3,5.2c0,0-12.7,2.5-27.9,4.5
		c-9.5,1.3-7.3,0.7-15.6,1.8c-0.3,0.1-2.6,0.3-3.9,0.3c-2,0.1-5-0.1-9.1-1.8c-0.6,0.5-4.2,3.1-4.6,7.8c-0.5,4.2,1.6,8.3,5.3,10.9
		c1.8,0.1,4.5,0.3,7.8,0.4c10.2,0.5,16.4,0.6,19.1,0.8c4.9,0.4,12.1,1,29.1,3.3c18.9,2.6,19.4,3.2,29.2,4.3c7.6,0.9,19,2,33.2,2.3
		C265.8,439.5,262.9,428.6,260,417.7z"/>
	
		<linearGradient id="SVGID_7_" gradientUnits="userSpaceOnUse" x1="207.7888" y1="576.8124" x2="207.7888" y2="576.8124" gradientTransform="matrix(-1.831753e-02 0.9998 -0.9998 -1.831753e-02 698.9033 223.0185)">
		<stop  offset="0" style="stop-color:#ABABAB"/>
		<stop  offset="0.3463" style="stop-color:#D3D6D6"/>
		<stop  offset="0.8171" style="stop-color:#BDC2C7"/>
		<stop  offset="1" style="stop-color:#ABABAB"/>
	</linearGradient>
	<path class="st6" d="M118.4,420.2"/>
	
		<linearGradient id="SVGID_8_" gradientUnits="userSpaceOnUse" x1="234.8179" y1="419.7859" x2="234.8179" y2="419.7859" gradientTransform="matrix(-1.831753e-02 0.9998 -0.9998 -1.831753e-02 698.9033 223.0185)">
		<stop  offset="0" style="stop-color:#ABABAB"/>
		<stop  offset="0.3463" style="stop-color:#D3D6D6"/>
		<stop  offset="0.8171" style="stop-color:#BDC2C7"/>
		<stop  offset="1" style="stop-color:#ABABAB"/>
	</linearGradient>
	<path class="st7" d="M274.9,450.1"/>
</g>
<g id="Thigh">
	<path class="st8" d="M265,366.2c-0.4,0.3-0.8,0.6-1.2,0.9c-5.9,5.2-7.1,11.3-10.4,26.9c-0.5,2.3-1.9,8.3-4.6,20.1
		c-0.6,2.6-1.4,6.1-1.9,8.4c-1.3,5.8-2.4,10.5-3.1,13.6c-0.1,1-0.2,2.6,0.2,4.3c0.1,0.9,0.9,4.6,3.3,7.3c4.7,5.3,13.4,3.8,16.2,3.3
		c2.3-0.4,5.8-1,9-3.7c2.5-2,3.3-3.8,6.3-10.7c5.7-12.5,9-18.8,10.8-22.2c1.5-2.9,1.1-2,2.9-5.1c8.6-16.3,9.6-21.5,8.8-26.9
		c-0.1-0.8-0.2-1.5-0.5-2.3C297,367.8,275.7,359.7,265,366.2z"/>
	<path class="st8" d="M278.6,292c-0.5,1.2-1.3,2.9-2.6,4.8c-1.8,2.7-3.6,4.2-4.6,5.3c-3.4,3.3-5.1,6.8-7,10.2
		c-3.9,7.5-4.8,14.3-5.1,17.3c-0.7,5.9-0.2,10.5,0.1,13.3c0.3,3.5,1,6.5,1.6,8.8c-0.2,1.7-0.6,4.4-1.2,7.5c-1.4,8-2.9,12.9-4.4,18.6
		c-1.1,4.2-2.5,10.4-3.8,18.2c1.4,1,3.6,2.5,6.2,4.1c5,2.9,12.5,7.5,22.6,8.8c3.3,0.4,8.1,0.7,14.2-0.2c4.6-8.6,8.1-15.5,10.5-20.5
		c2-4.2,3.9-8.1,7.7-15.8c3.4-7.1,3.6-7.3,4.8-9.8c3.8-7.9,5.8-13.8,9.9-25.1c3.4-9.2,5.9-17.3,7.9-23.7
		C316.2,306.3,297.5,299.2,278.6,292z"/>
</g>
<g id="Chest">
	<path class="st9" d="M237.2,196.9c2.1,1.1,6.1,2.9,11,2.9c3.9-0.1,6.7-1.2,9.9-2.4c3.5-1.4,8.8-4,14.5-8.9
		c7.3,5.7,13.2,11.2,17.9,15.7c3.7,3.6,5.7,5.5,7.7,8.1c1.2,1.5,6.9,9,11.1,21.4c0.9,2.6,0.9,3.1,1.4,5.4c0.4,1.7,0.7,3,1.6,6.3
		c3,10.6,3.7,14.2,5.3,19.1c1.8,5.6,3.4,9.4,7.5,18.6c4.2,9.5,9.5,21,15.5,34.1c-6.1,4.3-14.3,9.2-24.7,13.2
		c-13.8,5.3-26.2,7-34.9,7.5c-0.2-2.7-0.7-6.8-1.7-11.7c-3-14.3-8.6-25-13.5-33.9c-0.4-0.8-2.8-5-7.6-13.4
		c-2.1-3.6-4.7-8.2-8.2-14.4c-5.1-9-7.3-13-9.8-18.9c-3.7-8.8-6.5-15.4-7.2-24.1C232.8,216.6,232.9,207.7,237.2,196.9z"/>
</g>
<g id="Tricep">
	
		<linearGradient id="SVGID_9_" gradientUnits="userSpaceOnUse" x1="128.6555" y1="603.6425" x2="87.7822" y2="532.8478" gradientTransform="matrix(0.7064 -0.7078 0.7078 0.7064 -252.8486 -12.864)">
		<stop  offset="0" style="stop-color:#D3D6D6"/>
		<stop  offset="0.6073" style="stop-color:#BDC2C7"/>
		<stop  offset="0.878" style="stop-color:#ABABAB"/>
	</linearGradient>
	<path class="st10" d="M191.8,301.2c2.3,4.4,5.5,6.8,8.3,9.1c7,5.4,13.5,11.5,20.4,17c6.5,5.2,5.5,4.5,14.8,12.1
		c4.8,3.9,9.5,7.7,14.3,11.4c3.1,0.7,6.3-0.3,8.2-2.8c2.2-2.7,2.3-6.8,0.3-9.8c-10.3-9.9-17.8-18.6-22.6-24.7
		c-4.4-5.4-7.8-9.7-11.8-14.2c-8.1-9.2-7.7-7.9-10.3-11.7c-2.3-2.5-4.6-5.1-7-8c-2-2.3-3.8-4.6-5.5-6.8c-1.1,0.4-2.7,1.3-4.4,2.7
		c-6,5.2-6.4,13.1-6.5,15.1C189.6,292.8,189.6,296.9,191.8,301.2z"/>
</g>
<g id="Hand">
	
		<linearGradient id="SVGID_10_" gradientUnits="userSpaceOnUse" x1="157.2031" y1="617.0605" x2="185.0447" y2="650.2407" gradientTransform="matrix(0.7823 -0.6229 0.6229 0.7823 -259.4509 -34.8773)">
		<stop  offset="0" style="stop-color:#D3D6D6"/>
		<stop  offset="0.6073" style="stop-color:#BDC2C7"/>
	</linearGradient>
	<path class="st11" d="M252.6,332.7c1.5,2,3.6,4.7,6,7.8c2.8,3.4,3.8,4.8,5.5,6.5c2,2.1,3.8,3.7,5.1,4.6c0.6,1.9,1,3.9,1.5,5.9
		c0,0-0.7,2.8,0.3,4.7c0.5,0.8,0.5,0.6,3.3,3.1c1.8,1.7,2.5,2.5,4,3.3c0.6,0.2,0.8,0.2,1.7,0.7c1.8,0.8,3.2,1.5,4.1,2.1
		c0.2,0.1,2,0.6,2.7,2.3c0,0.1,0.6,1.6,0.1,2.1c-0.6,0.5-2-0.6-5-1.7c-2.9-1.1-3.2-0.8-5.7-1.8c-1.9-0.8-1.8-1.1-4.9-2.8
		c-4.4-2.4-5.4-2.3-7.1-3.9c-1-1-1.3-1.5-2.9-4.5c-2.1-3.8-4.3-7.3-5.7-9.3c-1.3-1.9-3.4-4.6-6.5-7.4
		C250.2,340.2,251.3,336.3,252.6,332.7z"/>
	
		<linearGradient id="SVGID_11_" gradientUnits="userSpaceOnUse" x1="150.52" y1="619.6229" x2="179.1639" y2="653.7595" gradientTransform="matrix(0.7763 -0.6304 0.6304 0.7763 -261.0957 -32.2147)">
		<stop  offset="0" style="stop-color:#D3D6D6"/>
		<stop  offset="0.6073" style="stop-color:#BDC2C7"/>
	</linearGradient>
	<path class="st12" d="M249.8,336.1c1.8,2.1,3.5,3.9,4.8,5.2c0,0,5.1,5.1,8.9,7c0.1,0.1,0.3,0.2,0.8,0.4c0.8,0.4,1.9,1.1,3.5,2
		c0.7,0.4,1.5,1,2.5,1.6c1.2,0.9,2.2,1.6,3.2,2.6c0.7,0.7,1.2,1.3,3.3,3.9c2.3,2.9,3.3,4.3,4.3,5.8c1.9,2.8,2.4,3.8,2,4.2
		c-0.3,0.3-0.9,0.3-1.2,0.2c-1.4-0.2-2.4-1.2-3.1-1.9c-2-2.1-3.1-3.3-4.4-4.6c-2.2-2.2-3-2.3-3.3-2.1c-0.6,0.3-0.8,1.2-0.8,1.4
		c-0.1,0.9,0.3,1.2,1.2,3c0.7,1.4,0.5,1.4,1.2,2.7c0.5,0.9,0.8,1.4,1.3,2.1c0,0,1.5,2,4,3.3c0.6,0.3,0.7,0.3,1.7,0.7
		c1.9,0.7,3.3,1.5,4.2,2c0.2,0.1,2,0.5,2.7,2.2c0,0.1,0.6,1.6,0.1,2.1c-0.5,0.6-2-0.5-5-1.7c-2.9-1.2-3.2-0.8-5.7-1.8
		c-2-0.8-1.8-1.1-5-2.7c-4.4-2.3-5.4-2.2-7.1-3.8c-1-1-1.2-1.6-2.9-4.5c-2.1-3.8-4.4-7.2-5.8-9.2c-1.3-1.9-3.5-4.5-6.5-7.3
		C249,344.7,249.4,340.3,249.8,336.1z"/>
	
		<linearGradient id="SVGID_12_" gradientUnits="userSpaceOnUse" x1="183.7261" y1="612.3859" x2="213.2962" y2="647.6262" gradientTransform="matrix(0.8424 -0.5388 0.5388 0.8424 -242.4875 -66.0816)">
		<stop  offset="0" style="stop-color:#D3D6D6"/>
		<stop  offset="0.6073" style="stop-color:#BDC2C7"/>
	</linearGradient>
	<path class="st13" d="M251.7,334.6c0.6,0.7,1.1,1.3,1.4,1.8c0.5,0.7,0.7,1,1,1.5c0.5,0.9,0.7,1.3,1.6,2.5c2,2.5,3.5,3.7,5.7,7.3
		c0.9,1.4,6.5,10.5,5.1,14.4c0,0-1,2.8-0.2,4.7c0.3,0.8,0.4,0.6,2.9,3.4c1.7,2,2.2,2.8,3.6,3.7c0.6,0.4,0.8,0.4,1.7,0.9
		c1.7,0.9,3,1.8,3.9,2.4c0.1,0,1.9,0.7,2.5,2.5c0.1,0.1,0.6,1.6,0,2.1c-0.7,0.5-1.9-0.7-4.8-2.2c-2.8-1.5-3.1-1.1-5.4-2.5
		c-1.9-1-1.7-1.2-4.6-3.2c-4.2-2.9-5.1-2.9-6.6-4.6c-0.3-0.3-0.3-0.5-0.5-0.7c-1.3-2-1.9-4.1-1.9-4.1c-1.4-2.8-3.1-6-5.5-9.3
		c-2.6-3.7-5.3-6.6-7.7-8.8C246.2,342.4,248.9,338.5,251.7,334.6z"/>
</g>
<g id="Bicep">
	
		<linearGradient id="SVGID_13_" gradientUnits="userSpaceOnUse" x1="258.4476" y1="389.0203" x2="313.6594" y2="454.8192" gradientTransform="matrix(0.798 0.6026 -0.6026 0.798 253.1982 -252.441)">
		<stop  offset="0" style="stop-color:#D3D6D6"/>
		<stop  offset="0.6073" style="stop-color:#BDC2C7"/>
		<stop  offset="0.878" style="stop-color:#9C9C9C"/>
	</linearGradient>
	<path class="st14" d="M263.2,215c-1.6-0.5-3.9-1.3-6.7-1.8c-3.2-0.6-5.3-1-8-0.6c-2.9,0.5-4.9,1.5-7.3,2.8
		c-3.5,1.9-5.9,4.1-7.7,5.7c-0.8,0.8-2,1.9-3.8,3.9c0,0-1.4,1.7-2.8,3.4c-4.2,5.3-6.7,11-12.2,19.1c-0.8,1.1-1.5,2-2.9,4.1
		c-5.2,7.1-9.1,12-10.2,13.3c-3.3,4-8.1,10.9-14.9,22.9c-0.1,1.4-0.1,3.7,1.1,6.1c2.4,4.9,8.3,7.2,12.6,7.1
		c5.7-0.1,9.6-3.8,17.3-11.4c4.4-4.2,7.3-7.9,10.6-12.1c8.1-10.4,7.2-11,12.4-16.7c3.9-4.4,4.2-3.8,12.5-12.3
		c4.9-4.9,7.5-7.2,9.6-10.5c2.3-3.5,6.7-10.6,4.3-17.5C266,217.9,264.4,216.1,263.2,215z"/>
</g>
</svg>
