<?xml version="1.0" encoding="utf-8"?>
<!-- Generator: Adobe Illustrator 22.1.0, SVG Export Plug-In . SVG Version: 6.00 Build 0)  -->
<svg version="1.1" id="Layer_1" xmlns="http://www.w3.org/2000/svg" xmlns:xlink="http://www.w3.org/1999/xlink" x="0px" y="0px"
	 viewBox="0 0 432 576" style="enable-background:new 0 0 432 576;" xml:space="preserve">
<style type="text/css">
	.st0{fill:url(#SVGID_1_);}
	.st1{fill:url(#SVGID_2_);}
	.st2{fill:url(#SVGID_3_);}
	.st3{fill:url(#SVGID_4_);}
	.st4{fill:url(#SVGID_5_);}
	.st5{fill:url(#SVGID_6_);}
	.st6{fill:url(#SVGID_7_);}
	.st7{fill:url(#SVGID_8_);}
	.st8{fill:url(#SVGID_9_);}
	.st9{fill:#1B180D;}
	.st10{fill:#0C1C10;}
	.st11{fill:url(#SVGID_10_);}
	.st12{fill:url(#SVGID_11_);}
	.st13{fill:url(#SVGID_12_);}
	.st14{fill:url(#SVGID_13_);}
	.st15{fill:url(#SVGID_14_);}
</style>
<g id="Head_and_Neck">
	
		<linearGradient id="SVGID_1_" gradientUnits="userSpaceOnUse" x1="88.3784" y1="468.6136" x2="137.0058" y2="468.6136" gradientTransform="matrix(0.4816 -0.8764 -0.8764 -0.4816 492.7781 530.1977)">
		<stop  offset="7.317073e-03" style="stop-color:#AAAAAA"/>
		<stop  offset="0.2244" style="stop-color:#AEAEAE"/>
		<stop  offset="0.4431" style="stop-color:#BABABA"/>
		<stop  offset="0.6625" style="stop-color:#CECECE"/>
		<stop  offset="0.8813" style="stop-color:#EAEAEA"/>
		<stop  offset="0.9317" style="stop-color:#F2F2F2"/>
	</linearGradient>
	<path class="st0" d="M127.4,214.9c-0.5-0.6-2.7-3.8-7.1-5.8c-2.1-0.9-4.3-1.2-8.9-1.8c-1.1-0.1-2.3-0.2-4.4-0.5
		c-1.9-0.3-3.4-0.5-4.4-0.7c10.5-9.9,20.3-15.1,27.1-18c11.4-4.8,18-4.5,18.7-3.2c0.7,1.3-1.5,3.2-0.6,5.9c0.2,0.5,0.5,1.3,3.7,4.3
		c2.4,2.2,3.6,3.5,4,3.7c3.9,2.6,9.6,0.8,12.4-0.3c0.4,2.5,0.8,6.4-0.5,10.8c-2.4,8.8-9.6,13.3-17.5,18.3
		c-6.1,3.8-11.4,7.2-14.7,5.2c-1.4-0.9-2.7-4.3-5.1-11.3C128.9,217.6,128.7,216.6,127.4,214.9z"/>
	
		<linearGradient id="SVGID_2_" gradientUnits="userSpaceOnUse" x1="108.9492" y1="480.359" x2="149.6699" y2="514.5278" gradientTransform="matrix(0.4816 -0.8764 -0.8764 -0.4816 492.7781 530.1977)">
		<stop  offset="7.317073e-03" style="stop-color:#B0B0AE"/>
		<stop  offset="0.8137" style="stop-color:#E9E9E9"/>
		<stop  offset="0.9317" style="stop-color:#F2F2F2"/>
	</linearGradient>
	<path class="st1" d="M93.9,161.1c-4.9,6.1-6.7,12-7.1,13.4c-1.5,5.2-3.4,11.7-0.3,18.7c3.2,7.1,9.5,10.1,11.3,11
		c2.1,1,7.8,3.6,14.2,1.8c4.6-1.3,7.8-4.4,9-5.6c1.7-1.6,2.8-3.2,3.6-4.4c1.3,0.9,3.6,2.4,6.6,2.6c3.3,0.2,5.7-1.3,9.6-3.6
		c2.8-1.7,5.3-4.3,10.7-9.5c2.7-2.6,4.1-4.2,4.1-6.5c0-1.7-0.8-2.9-1.5-4c-1.4-2.2-2.7-2.6-6.1-5.4c-4.3-3.5-5.1-3.6-5.9-4.9
		c-1.1-1.7-0.9-2.8-1.9-3.3c-1.2-0.7-2.2,0-5.9,0.4c-2.3,0.2-3.5,0.3-4.4-0.3c-1.5-1-1.2-2.4-2.6-4c-0.5-0.6-1.4-1.4-6.7-2.8
		c-4.5-1.1-6.9-1.6-10.2-1.6c-2.3,0.1-4.9-0.1-7.7,1.1C98.6,155.5,96,158.4,93.9,161.1z"/>
	
		<linearGradient id="SVGID_3_" gradientUnits="userSpaceOnUse" x1="154.361" y1="486.2464" x2="154.361" y2="486.2464" gradientTransform="matrix(0.4816 -0.8764 -0.8764 -0.4816 492.7781 530.1977)">
		<stop  offset="7.317073e-03" style="stop-color:#AAAAAA"/>
		<stop  offset="0.9317" style="stop-color:#F2F2F2"/>
	</linearGradient>
	<path class="st2" d="M141,160.7"/>
	
		<linearGradient id="SVGID_4_" gradientUnits="userSpaceOnUse" x1="101.561" y1="478.0464" x2="101.561" y2="478.0464" gradientTransform="matrix(0.4816 -0.8764 -0.8764 -0.4816 492.7781 530.1977)">
		<stop  offset="7.317073e-03" style="stop-color:#AAAAAA"/>
		<stop  offset="0.9317" style="stop-color:#F2F2F2"/>
	</linearGradient>
	<path class="st3" d="M122.7,211"/>
</g>
<g id="Foot">
	
		<linearGradient id="SVGID_5_" gradientUnits="userSpaceOnUse" x1="552.6855" y1="-3.3129" x2="552.6855" y2="38.8399" gradientTransform="matrix(-0.7541 0.6568 0.6568 0.7541 539.1263 52.6902)">
		<stop  offset="0" style="stop-color:#ABABAB"/>
		<stop  offset="0.3463" style="stop-color:#D3D6D6"/>
		<stop  offset="1" style="stop-color:#C5C8C9"/>
	</linearGradient>
	<path class="st4" d="M163.9,425.3c-1.2-2-2.6-4.9-3.6-8.4c-0.9-3.2-1.1-6-1.2-8.2c-1.4-5.1-3.7-8.4-5.3-10.4
		c-2.6-3.2-4.3-3.6-4.9-3.7c-1-0.2-2.7-0.3-7.2,2.1c-6.6,3.7-10.8,8.2-11.8,9.5c-2.8,3.2-2.2,3.4-4.4,5.7c-3.5,3.6-5.6,3.5-10.7,6.7
		c-9.1,5.5-8.6,9.3-15.7,14.4c-0.7,0.5-2.6,1.7-3,3.9c-0.2,1.2,0.1,2.8,1.1,3.5c1.7,1.2,4.8-0.7,7.7-2.4c0,0,7.4-4.2,15-7.1
		c4.7-1.9,10.4-3.9,17.3-2.7c3.6,0.7,6.2,1.9,6.9,2.3c5.5,2.9,8.2,7.4,9.4,9.6C157,435.1,160.4,430.2,163.9,425.3z"/>
</g>
<g id="Calves">
	
		<linearGradient id="SVGID_6_" gradientUnits="userSpaceOnUse" x1="288.1987" y1="105.946" x2="248.9226" y2="105.946" gradientTransform="matrix(-1.831753e-02 0.9998 0.9998 1.831753e-02 105.9399 159.2001)">
		<stop  offset="0" style="stop-color:#ABABAB"/>
		<stop  offset="0.3463" style="stop-color:#D3D6D6"/>
		<stop  offset="0.8171" style="stop-color:#BDC2C7"/>
		<stop  offset="1" style="stop-color:#ABABAB"/>
	</linearGradient>
	<path class="st5" d="M260,417.7c-11.4-6-20.9-7.3-27.6-7.2c-6.4,0.1-5.8,1.3-26.3,5.2c0,0-12.7,2.5-27.9,4.5
		c-9.5,1.3-7.3,0.7-15.6,1.8c-0.3,0.1-2.6,0.3-3.9,0.3c-2,0.1-5-0.1-9.1-1.8c-0.6,0.5-4.2,3.1-4.6,7.8c-0.5,4.2,1.6,8.3,5.3,10.9
		c1.8,0.1,4.5,0.3,7.8,0.4c10.2,0.5,16.4,0.6,19.1,0.8c4.9,0.4,12.1,1,29.1,3.3c18.9,2.6,19.4,3.2,29.2,4.3c7.6,0.9,19,2,33.2,2.3
		C265.8,439.5,262.9,428.6,260,417.7z"/>
	
		<linearGradient id="SVGID_7_" gradientUnits="userSpaceOnUse" x1="191.4336" y1="17.2193" x2="191.4336" y2="17.2193" gradientTransform="matrix(-1.831753e-02 0.9998 0.9998 1.831753e-02 104.6705 228.4888)">
		<stop  offset="0" style="stop-color:#ABABAB"/>
		<stop  offset="0.3463" style="stop-color:#D3D6D6"/>
		<stop  offset="0.8171" style="stop-color:#BDC2C7"/>
		<stop  offset="1" style="stop-color:#ABABAB"/>
	</linearGradient>
	<path class="st6" d="M118.4,420.2"/>
	
		<linearGradient id="SVGID_8_" gradientUnits="userSpaceOnUse" x1="218.4336" y1="174.2193" x2="218.4336" y2="174.2193" gradientTransform="matrix(-1.831753e-02 0.9998 0.9998 1.831753e-02 104.6705 228.4888)">
		<stop  offset="0" style="stop-color:#ABABAB"/>
		<stop  offset="0.3463" style="stop-color:#D3D6D6"/>
		<stop  offset="0.8171" style="stop-color:#BDC2C7"/>
		<stop  offset="1" style="stop-color:#ABABAB"/>
	</linearGradient>
	<path class="st7" d="M274.9,450.1"/>
</g>
<g id="Thigh">
	
		<linearGradient id="SVGID_9_" gradientUnits="userSpaceOnUse" x1="74.1055" y1="167.511" x2="28.6038" y2="167.511" gradientTransform="matrix(0.9619 -0.2733 -0.2733 -0.9619 264.9495 583.2076)">
		<stop  offset="0" style="stop-color:#ABABAB"/>
		<stop  offset="0.3463" style="stop-color:#D3D6D6"/>
		<stop  offset="0.8171" style="stop-color:#BDC2C7"/>
		<stop  offset="1" style="stop-color:#ABABAB"/>
	</linearGradient>
	<path class="st8" d="M239.4,376.2c-0.2,0.5-0.4,0.9-0.4,1.4c-1.8,7.7,0.8,13.3,7,27.9c0.9,2.1,3.3,7.8,7.9,19.1
		c1,2.5,2.4,5.8,3.3,8c2.3,5.5,4.1,10,5.3,12.9c0.6,0.9,1.4,2.2,2.6,3.4c0.6,0.7,3.4,3.2,7,4c6.9,1.6,13.1-4.7,15.1-6.7
		c1.6-1.6,4.1-4.2,5.2-8.2c0.9-3.1,0.4-5-1-12.4c-2.6-13.5-3.5-20.5-4-24.3c-0.4-3.2-0.2-2.3-0.6-5.9c-2.4-18.2-4.6-23.1-8.4-27
		c-0.6-0.6-1-1.1-1.7-1.6C266.4,359.1,244.3,364.7,239.4,376.2z"/>
	<path class="st9" d="M207.6,307.8c0.3,1.3,0.6,3.2,0.6,5.4c0.1,3.2-0.5,5.5-0.7,7c-0.9,4.6-0.3,8.5,0.2,12.4
		c1.1,8.4,4.3,14.5,5.8,17.1c2.8,5.2,5.9,8.7,7.7,10.8c2.3,2.7,4.6,4.7,6.4,6.3c0.8,1.5,2,3.9,3.4,6.8c3.4,7.3,5,12.2,7.1,17.7
		c1.6,4,4,9.9,7.4,17c1.8,0,4.4,0,7.4-0.2c5.8-0.5,14.5-1.1,23.6-5.9c2.9-1.5,7.1-4.1,11.5-8.3c-1.2-9.6-2.3-17.3-3.2-22.8
		c-0.8-4.6-1.5-8.8-2.9-17.4c-1.3-7.7-1.3-8.1-1.7-10.7c-1.4-8.6-3.2-14.7-6.4-26.2c-2.6-9.5-5.2-17.5-7.3-23.9
		C246.6,297.8,227.1,302.8,207.6,307.8z"/>
</g>
<g id="Chest">
	<path class="st10" d="M126.5,213c2.4,0.4,6.7,0.7,11.4-1c3.7-1.4,5.9-3.3,8.5-5.6c2.8-2.5,6.9-6.8,10.6-13.2
		c8.7,2.9,16.2,6.1,22.1,8.7c4.7,2.1,7.2,3.3,10,5.1c1.7,1,9.6,6.1,17.7,16.4c1.8,2.2,1.9,2.6,3.2,4.6c0.9,1.4,1.7,2.5,3.6,5.4
		c6.4,9,8.3,12.1,11.4,16.2c3.5,4.6,6.4,7.7,13.4,15c7.2,7.5,16,16.5,26.1,26.9c-4.3,6.1-10.3,13.5-18.8,20.7
		c-11.2,9.7-22.3,15.4-30.3,18.8c-1.1-2.5-2.9-6.2-5.5-10.4c-7.7-12.4-16.6-20.6-24.1-27.4c-0.7-0.6-4.3-3.8-11.7-10
		c-3.2-2.7-7.2-6.1-12.6-10.8c-7.8-6.8-11.2-9.8-15.6-14.4c-6.4-7-11.3-12.3-14.9-20.3C129.1,233,126.2,224.6,126.5,213z"/>
</g>
<g id="Tricep">
	
		<linearGradient id="SVGID_10_" gradientUnits="userSpaceOnUse" x1="207.2816" y1="248.9984" x2="166.4083" y2="319.7931" gradientTransform="matrix(0.9996 2.716964e-02 2.716964e-02 -0.9996 -37.022 619.4672)">
		<stop  offset="0" style="stop-color:#D3D6D6"/>
		<stop  offset="0.6073" style="stop-color:#BDC2C7"/>
		<stop  offset="0.878" style="stop-color:#ABABAB"/>
	</linearGradient>
	<path class="st11" d="M142,308.2c-1.6,4.7-1.2,8.7-0.9,12.3c0.9,8.8,0.9,17.7,1.6,26.5c0.6,8.3,0.5,7.1,1.4,19
		c0.5,6.1,0.9,12.2,1.5,18.2c1.6,2.7,4.6,4.3,7.7,4.1c3.5-0.3,6.5-3,7.3-6.6c0.1-14.3,1.3-25.7,2.4-33.4c0.9-6.9,1.7-12.4,2.2-18.4
		c1.1-12.2,0.5-11,1.4-15.5c0.2-3.4,0.5-6.9,1-10.6c0.3-3,0.7-5.9,1.2-8.7c-1.1-0.5-2.8-1.1-5-1.3c-7.9-0.9-13.9,4.3-15.4,5.7
		C146.6,300.8,143.6,303.6,142,308.2z"/>
</g>
<g id="Bicep">
	
		<linearGradient id="SVGID_11_" gradientUnits="userSpaceOnUse" x1="142.3701" y1="239.052" x2="197.5459" y2="173.2959" gradientTransform="matrix(0.9997 2.132041e-02 2.132041e-02 -0.9997 -16.8469 464.3748)">
		<stop  offset="0" style="stop-color:#D3D6D6"/>
		<stop  offset="0.6073" style="stop-color:#BDC2C7"/>
		<stop  offset="0.878" style="stop-color:#9C9C9C"/>
	</linearGradient>
	<path class="st12" d="M162.2,207c-1.6,0.5-3.9,1.2-6.5,2.5c-2.9,1.4-4.9,2.3-6.8,4.2c-2.1,2.1-3.1,4.1-4.3,6.5
		c-1.7,3.6-2.4,6.8-2.9,9.1c-0.2,1.1-0.5,2.7-0.8,5.4c0,0-0.2,2.2-0.3,4.4c-0.3,6.7,1,12.8,1.2,22.6c0,1.3,0,2.5,0,5
		c-0.1,8.8-0.4,15.1-0.5,16.8c-0.3,5.2-0.2,13.6,1.4,27.3c0.7,1.2,2.1,3.1,4.4,4.3c4.8,2.6,10.9,1,14.4-1.6
		c4.6-3.4,5.6-8.7,7.4-19.4c1.1-6,1.3-10.7,1.5-16c0.5-13.2-0.6-13.1,0.3-20.8c0.6-5.9,1.2-5.6,3-17.3c1.1-6.8,1.9-10.2,1.7-14.1
		c-0.2-4.2-0.7-12.5-6.7-16.7C166.2,207.7,163.9,207.2,162.2,207z"/>
</g>
<g id="Hand">
	
		<linearGradient id="SVGID_12_" gradientUnits="userSpaceOnUse" x1="216.9794" y1="233.3403" x2="244.821" y2="200.16" gradientTransform="matrix(0.9901 0.1407 0.1407 -0.9901 -102.4412 582.8979)">
		<stop  offset="0" style="stop-color:#D3D6D6"/>
		<stop  offset="0.6073" style="stop-color:#BDC2C7"/>
	</linearGradient>
	<path class="st13" d="M160.9,374c-0.5,2.5-1,5.8-1.5,9.7c-0.6,4.4-0.9,6.1-0.9,8.5c-0.2,2.9,0,5.3,0.2,6.9c-1,1.7-2.1,3.4-3.2,5.1
		c0,0-2.5,1.4-3.2,3.4c-0.3,0.9-0.1,0.8,0,4.5c0,2.5-0.1,3.5,0.4,5.1c0.3,0.6,0.4,0.7,0.7,1.7c0.7,1.8,1.1,3.4,1.3,4.4
		c0.1,0.2,0.9,1.9,0.2,3.5c-0.1,0.1-0.7,1.6-1.4,1.5c-0.8-0.1-1-1.9-2.2-4.9c-1.2-2.9-1.6-2.8-2.6-5.4c-0.7-1.9-0.5-2-1.3-5.5
		c-1.3-4.9-2-5.5-2-7.8c0-1.4,0.2-2,1.2-5.2c1.3-4.1,2.3-8.2,2.8-10.5c0.4-2.3,1-5.6,0.9-9.8C153.8,377.5,157.4,375.6,160.9,374z"/>
	
		<linearGradient id="SVGID_13_" gradientUnits="userSpaceOnUse" x1="211.7821" y1="230.9379" x2="240.4261" y2="196.8013" gradientTransform="matrix(0.9914 0.1311 0.1311 -0.9914 -99.1084 585.2885)">
		<stop  offset="0" style="stop-color:#D3D6D6"/>
		<stop  offset="0.6073" style="stop-color:#BDC2C7"/>
	</linearGradient>
	<path class="st14" d="M156.5,374.3c-0.3,2.8-0.4,5.2-0.5,7.1c0,0-0.2,7.2,1,11.3c0,0.1,0.1,0.4,0.2,0.8c0.2,0.8,0.6,2.1,1,3.9
		c0.1,0.8,0.3,1.8,0.5,2.9c0.2,1.5,0.3,2.7,0.3,4.1c-0.1,1-0.1,1.8-0.6,5.1c-0.5,3.7-0.8,5.4-1.3,7.1c-0.7,3.3-1.1,4.3-1.7,4.4
		c-0.4,0-0.8-0.5-1-0.8c-0.8-1.2-0.8-2.6-0.8-3.6c0.2-2.9,0.3-4.5,0.3-6.4c0.1-3.1-0.4-3.7-0.8-3.9c-0.6-0.2-1.4,0.3-1.5,0.4
		c-0.7,0.6-0.7,1.1-1.4,2.9c-0.6,1.5-0.7,1.4-1.2,2.7c-0.4,1-0.5,1.6-0.7,2.4c0,0-0.5,2.5,0.4,5.1c0.2,0.6,0.3,0.7,0.7,1.7
		c0.8,1.9,1.2,3.4,1.4,4.4c0.1,0.2,1,1.8,0.3,3.5c-0.1,0.1-0.7,1.6-1.4,1.5c-0.8,0-1-1.8-2.2-4.8c-1.1-2.9-1.6-2.8-2.6-5.4
		c-0.8-2-0.5-2-1.4-5.5c-1.4-4.8-2.2-5.5-2.1-7.8c0-1.4,0.3-2,1.2-5.2c1.3-4.1,2.2-8.2,2.7-10.5c0.4-2.3,0.9-5.7,0.8-9.8
		C149.7,379.6,153.2,376.9,156.5,374.3z"/>
	
		<linearGradient id="SVGID_14_" gradientUnits="userSpaceOnUse" x1="226.485" y1="234.0312" x2="256.069" y2="198.7744" gradientTransform="matrix(0.9703 0.2421 0.2421 -0.9703 -135.8717 551.1962)">
		<stop  offset="0" style="stop-color:#D3D6D6"/>
		<stop  offset="0.6073" style="stop-color:#BDC2C7"/>
	</linearGradient>
	<path class="st15" d="M158.8,374.7c-0.1,0.9-0.2,1.7-0.3,2.3c-0.2,0.8-0.3,1.2-0.4,1.8c-0.3,1-0.5,1.4-0.7,2.9
		c-0.5,3.2-0.3,5.1-1.4,9.1c-0.4,1.6-3.2,11.9-7,13.6c0,0-2.7,1.2-3.6,3.1c-0.4,0.8-0.1,0.7-0.5,4.5c-0.3,2.6-0.5,3.6-0.2,5.2
		c0.2,0.7,0.2,0.8,0.5,1.8c0.5,1.8,0.8,3.5,0.9,4.5c0.1,0.1,0.8,1.9-0.1,3.5c0,0.1-0.8,1.6-1.5,1.4c-0.8-0.2-0.8-1.9-1.7-5
		c-0.8-3.1-1.3-3-1.9-5.6c-0.6-2-0.3-2-0.8-5.6c-0.8-5.1-1.4-5.7-1.2-8c0-0.4,0.1-0.6,0.2-0.9c0.5-2.3,1.7-4.2,1.7-4.2
		c1.1-2.9,2.2-6.4,3-10.4c0.9-4.5,1.1-8.3,1.2-11.6C149.4,376.1,154.1,375.3,158.8,374.7z"/>
</g>
</svg>
