<?xml version="1.0" encoding="utf-8"?>
<!-- Generator: Adobe Illustrator 22.1.0, SVG Export Plug-In . SVG Version: 6.00 Build 0)  -->
<svg version="1.1" xmlns="http://www.w3.org/2000/svg" xmlns:xlink="http://www.w3.org/1999/xlink" x="0px" y="0px"
	 viewBox="0 0 432 576" style="enable-background:new 0 0 432 576;" xml:space="preserve">
<style type="text/css">
	.st0{fill:url(#SVGID_1_);}
	.st1{fill:#D89552;}
	.st2{fill:#EDB674;}
	.st3{fill:#F9D19B;}
	.st4{display:none;}
	.st5{display:inline;}
	.st6{font-family:'LucidaHandwriting-Italic';}
	.st7{font-size:54.4775px;}
	.st8{font-size:138.3501px;}
	.st9{font-size:109.567px;}
	.st10{display:inline;fill:#FFFFFF;}
</style>
<g id="Layer_1">
	<linearGradient id="SVGID_1_" gradientUnits="userSpaceOnUse" x1="275.5077" y1="330.7767" x2="136.9698" y2="-49.8529">
		<stop  offset="0.2537" style="stop-color:#D8E5EA"/>
		<stop  offset="0.2974" style="stop-color:#C3E0E9"/>
		<stop  offset="0.3876" style="stop-color:#8ED3E5"/>
		<stop  offset="0.5155" style="stop-color:#38BFDF"/>
		<stop  offset="0.5585" style="stop-color:#1AB8DD"/>
		<stop  offset="0.6146" style="stop-color:#20A7D6"/>
		<stop  offset="0.7005" style="stop-color:#2893CE"/>
		<stop  offset="0.7585" style="stop-color:#2B8CCB"/>
		<stop  offset="0.7829" style="stop-color:#3290C8"/>
		<stop  offset="0.8191" style="stop-color:#479BC0"/>
		<stop  offset="0.8628" style="stop-color:#68AEB4"/>
		<stop  offset="0.9122" style="stop-color:#96C8A2"/>
		<stop  offset="0.9658" style="stop-color:#D0E88C"/>
		<stop  offset="1" style="stop-color:#F9FF7C"/>
	</linearGradient>
	<path class="st0" d="M0,0c0,111.5,0,223,0,334.6c18.6,19.9,31.3,22.8,39.9,21c21.3-4.5,20.3-38.9,46.6-49.1
		c17.6-6.8,23.1,6.7,54.8,6.4c33.1-0.3,38.7-15.2,71.6-16.4c33.3-1.2,35.7,13.7,57.6,11c49.8-6.1,59.2-86,97.8-89.2
		c13.4-1.1,34.4,6.6,63.7,55.5c0-91.3,0-182.5,0-273.8C288,0,144,0,0,0z"/>
	<path class="st1" d="M0.1,314.7c0.4,1.6,3.3,12.5,14.1,17.6c1.4,0.7,10.5,5,18.5,1.1c6.5-3.1,7.2-9.2,14.3-23.8
		c5-10.3,8.1-17.2,13-22.4c1.3-1.4,19.1-19.8,39.2-16.8c25.2,3.8,28.4,31.5,47.4,31.1c19.9-0.4,25.8-32.4,53.5-35.2
		c11.5-1.2,21.2,2.6,21.2,2.6c8.5,3.4,9.9,7.3,17.3,11.5c9,5.1,24.3,9.3,34.8,3.9c9.9-5.1,8.7-15.3,18.6-37.7
		c4.7-10.6,11.2-25.3,22.4-37.2c12.3-13.1,36.1-28.2,65.2-24.9c30.9,3.5,48.8,25.5,52.4,30.2c0,46.1,0,92.2,0,138.3
		c-144,23.1-288,46.2-432,69.4C0,386.5,0.1,350.6,0.1,314.7z"/>
	<path class="st2" d="M0.1,331.3c0.6,1.5,7.9,18.7,21.7,20c6.8,0.6,12.2-2.9,14.8-4.7c18.2-12,11.2-33.1,27.4-47.2
		c12.2-10.6,28.7-9.6,30.6-9.4c23.2,1.7,28.2,23.1,46.6,23c13.5-0.1,13.4-13.4,36.9-23.9c7.8-3.5,21.2-9.5,37.1-7.2
		c17.2,2.5,19.4,12,38.5,15.5c8.5,1.5,21.6,3.9,31.8-2.5c18.5-11.5,5.9-38.3,25.7-65c14.2-19.2,35.6-24.9,40.2-26.2
		c41.4-11.1,76.9,19.5,80.6,22.8c-0.4,27.1-0.8,54.2-1.3,81.3C287.3,341.7,143.8,375.5,0.3,409.3C0.2,383.3,0.2,357.3,0.1,331.3z"/>
	<path class="st3" d="M0.4,348.4c12.4,13,21.4,14.7,27.1,14c10.2-1.3,13.8-10.4,34.6-26.4c9.8-7.5,14.6-11.2,18.8-12.7
		c23.4-8.6,39.2,12.3,64.4,6.6c11.7-2.6,13.7-8.2,25.8-15.7c45.3-27.5,86.4,8.8,120.5-14.5c23.6-16.2,13.6-39.5,36.3-56.3
		c27.4-20.3,71.5-7.2,104.1,6.7c0,108.6,0,217.2,0,325.8c-144,0-288,0-432,0C0.1,500.1,0.2,424.3,0.4,348.4z"/>
</g>
<g id="Layer_2" class="st4">
	<text transform="matrix(1 0 0 1 193.6536 232.021)" class="st5 st6 st7">oga</text>
	<text transform="matrix(1 0 0 1 171.2869 286.6304)" class="st5 st6 st7">our</text>
	<text transform="matrix(0.9439 0 0 1 110.0735 292.3867)" class="st5 st6 st8">Y</text>
	<text transform="matrix(1 0 0 1 240.5472 330.0992)" class="st5 st6 st7">ay</text>
	<text transform="matrix(1 0 0 1 132.5325 375.976)" class="st5 st6 st9">W</text>
	<path class="st5" d="M140.5,291.5c-3.2,6.3-8.5,14.8-17.2,23.2c-10.7,10.3-21.3,15.2-24.3,16.5c-9.7,4.2-18.4,5.7-24.3,6.3
		c3,3,6,6,9,9c6.2-0.5,16.9-2.1,28.4-8.2c28.5-15.2,42.2-48,38.3-51.3C149.6,286.3,147.4,286.4,140.5,291.5z"/>
	<path class="st5" d="M160.6,201.4c6.1-1.8,13,3.7,14.5,9.8c2,8.2-5.9,17.5-12.6,16.8c-5.1-0.6-8.9-7-9.3-12.6
		C152.7,210.4,154.8,203.1,160.6,201.4z"/>
	<path class="st10" d="M163.3,201c-2.7,1.7-4.3,4.5-4.1,7.3c0,0.2,0.3,3.4,2.8,5.3c1.9,1.4,3.3,0.7,4.9,2.3c1.4,1.4,1.6,3.1,1.7,3.7
		c0.3,2.2-0.2,5.5-2.7,7.1c-3.4,2.1-7.5-0.7-7.9-1c-4-2.8-4.1-8.1-4.2-10.4c0-1.7-0.2-7.8,4.4-11.8C160,202,162,201.3,163.3,201z"/>
	<path class="st10" d="M165.4,206.3c-1-0.2-1.9,0.5-2.1,1.4c-0.3,1.1,0.6,2.5,1.6,2.5c0.8,0,1.6-0.8,1.8-1.6
		C166.8,207.6,166.4,206.5,165.4,206.3z"/>
	<path class="st5" d="M163.6,219.4c-1-0.2-1.9,0.5-2.1,1.4c-0.3,1.1,0.6,2.5,1.6,2.5c0.8,0,1.6-0.8,1.8-1.6
		C165.1,220.7,164.6,219.6,163.6,219.4z"/>
</g>
</svg>
