<svg xmlns="http://www.w3.org/2000/svg" viewBox="0 0 2280 130" width="2280" height="130"><path d="M30 6v56h88L30 6m0 56v56l88-56H30M150.459656 5.69518l-.632324 55.828419 88.170345.998634.002627-.231985L150.459656 5.69518m-.63486 56.052405l-.632324 55.828419 88.80004-54.5978.002628-.231985-88.170345-.998634M272.129935 4.649572l-2.843237 55.134737 88.66618 4.572418.053973-1.04661-85.876916-58.660545m-2.897622 56.189336l-2.843237 55.134737 91.455446-49.51571.053972-1.04661-88.66618-4.572417M395.637073 2.636543l-7.192089 53.478551 89.236634 12.001031.363603-2.70366-82.408148-62.775922m-7.554625 56.174282l-7.192089 53.478552 96.06512-38.77386.363603-2.70366-89.236634-12.001032M521.98856-.383664l-14.073794 49.851462 88.739453 25.052441 1.523664-5.397046L521.98856-.383664m-15.595285 55.24081l-14.073795 49.851462 101.289582-19.401975 1.523665-5.397046-88.739452-25.052441M651.967532-3.697404l-22.563068 43.081079 84.48257 44.246478 4.561607-8.709763-66.481109-78.617794M624.846568 48.08635L602.283499 91.16743l102.484031 9.875162 4.561608-8.709763-84.48257-44.246478" fill="#000000"/><path d="M784.086723-5.693992l-29.628832 33.901223 74.524863 65.13289 9.628844-11.017294-54.524875-88.016819m-39.26294 44.924542l-29.628832 33.901222 94.52485 42.248963 9.628845-11.017295-74.524863-65.13289M915.329041-5.70125l-33.467765 25.096312 61.293748 81.739689L958.2664 89.803255 915.329041-5.70125m-48.585543 36.432608l-33.467766 25.096313 79.650136 67.974872 15.111378-11.331496-61.293748-81.739689M1044.341728-4.449696l-34.89978 18.11264 48.224211 92.919334 19.746956-10.248474-33.071387-100.7835m-54.639636 28.357428l-34.899781 18.11264 63.377036 85.055169 19.746957-10.248474-48.224212-92.919335M1171.252416-2.695586l-35.08474 12.90831 36.813408 100.058705 23.28972-8.56871-25.018388-104.398305m-58.37446 21.47702l-35.08474 12.90831 48.608428 95.719104 23.28972-8.56871-36.813408-100.058704M1296.518354-.86913l-34.743167 9.087582 27.35182 104.570043 25.919996-6.779753L1296.518353-.86913m-60.655422 15.86531l-34.743167 9.087582 36.17499 102.262213 25.919996-6.779753-27.35182-104.570042M1420.51829.819246l-34.204892 6.276584 19.713412 107.430273 27.839179-5.108478L1420.51829.819245m-62.044071 11.385063l-34.204892 6.276585 26.079126 106.262167 27.839179-5.108479-19.713413-107.430273M1543.541294 2.285935l-33.633872 4.207312 13.665573 109.244594 29.236145-3.657194-9.267846-109.794712m-62.877956 7.8655l-33.633872 4.207312 18.063299 108.694475 29.236145-3.657194-13.665572-109.244594M1665.817589 3.495423l-33.130604 2.69457 8.978657 110.395477 30.244135-2.459809-6.092188-110.630238m-63.382712 5.155027l-33.130604 2.69457 11.865127 110.160715 30.244134-2.459809-8.978657-110.395476M1787.482727 4.454083l-32.704663 1.60455 5.45147 111.11435 30.962758-1.519088-3.709565-111.199812m-63.675411 3.12403l-32.704663 1.60455 7.193375 111.02889 30.962758-1.519089-5.45147-111.11435M1908.666326 5.160854l-32.388931.846846 2.916913 111.561873 31.453251-.822381-1.981233-111.586338m-63.85018 1.669436l-32.38893.846846 3.852593 111.53741 31.453251-.822382-2.916913-111.561874M2029.435898 5.640201l-32.166035.355585 1.23619 111.825167 31.774058-.351251-.844213-111.829501m-63.940093.706836l-32.166035.355584 1.628165 111.820835 31.774059-.351252-1.23619-111.825167M2149.868215 5.913532l-32.039889.08452.295342 111.95961 31.943889-.084266-.199342-111.959864m-63.991777.168806l-32.039889.08452.391341 111.959356 31.94389-.084265-.295342-111.95961M2270 6h-32v112h32V6m-64 0h-32v112h32V6" fill="#000000"/></svg>