<?xml version="1.0" standalone="no"?>
<!DOCTYPE svg PUBLIC "-//W3C//DTD SVG 20010904//EN"
 "http://www.w3.org/TR/2001/REC-SVG-20010904/DTD/svg10.dtd">
<svg version="1.0" xmlns="http://www.w3.org/2000/svg"
 width="1078.000000pt" height="797.000000pt" viewBox="0 0 1078.000000 797.000000"
 preserveAspectRatio="xMidYMid meet">
<metadata>
Created by potrace 1.15, written by Peter Selinger 2001-2017
</metadata>
<g transform="translate(0.000000,797.000000) scale(0.100000,-0.100000)"
fill="#000000" stroke="none">
<path d="M2630 7497 c-97 -35 -280 -145 -280 -167 0 -5 26 -29 58 -53 277
-214 585 -737 803 -1365 47 -137 129 -430 154 -552 l18 -85 -52 -280 c-62
-333 -125 -673 -186 -995 -56 -297 -75 -414 -75 -469 0 -52 -35 -119 -148
-286 -274 -403 -543 -671 -936 -934 -357 -240 -807 -408 -1239 -461 -53 -7
-97 -15 -97 -19 0 -3 75 -81 168 -173 l167 -166 113 14 c332 42 698 157 962
302 262 144 479 311 705 544 234 239 414 482 551 742 l52 99 30 -99 c62 -203
119 -462 167 -760 79 -493 108 -867 109 -1394 1 -368 -6 -471 -40 -606 l-7
-27 69 8 c90 9 236 47 298 76 36 17 61 39 97 88 51 70 132 217 187 341 60 133
237 489 352 705 101 189 163 301 356 645 37 66 60 98 62 86 2 -10 -1 -124 -7
-254 -26 -565 -6 -1036 55 -1277 37 -145 121 -267 213 -308 146 -64 320 -15
526 150 250 200 474 500 673 898 183 367 287 681 353 1070 26 150 38 527 20
628 -32 182 -116 260 -297 274 -62 5 -262 -18 -286 -33 -3 -2 13 -47 38 -99
105 -226 129 -357 121 -680 -11 -500 -105 -910 -297 -1300 -128 -260 -281
-455 -406 -515 -67 -33 -149 -37 -191 -11 -70 44 -119 182 -144 401 -13 125
-13 624 1 877 11 215 34 473 60 683 32 256 24 312 -51 352 -57 30 -239 15
-261 -22 -60 -102 -405 -778 -703 -1374 l-373 -749 -6 54 c-3 30 -11 133 -16
229 -12 191 -51 644 -76 865 -50 451 -156 1014 -235 1253 -35 104 -48 130 -85
169 -34 36 -46 59 -55 102 -18 89 -14 115 130 886 21 116 60 322 85 460 26
137 49 260 52 272 4 13 43 53 87 90 405 335 805 750 1107 1148 272 359 374
589 329 748 -14 50 -61 103 -106 118 -75 25 -249 -7 -366 -68 l-38 -19 30 -39
c42 -56 58 -130 42 -200 -57 -255 -485 -828 -1004 -1344 l-165 -163 -72 223
c-163 503 -309 876 -460 1174 -109 217 -204 360 -299 455 -131 130 -221 161
-341 117z"/>
<path d="M7761 6969 c-63 -12 -88 -33 -108 -89 -13 -38 -22 -49 -33 -44 -113
48 -158 58 -260 57 -80 0 -119 -5 -163 -21 -89 -33 -175 -89 -255 -169 -57
-58 -83 -75 -124 -88 -158 -47 -397 21 -486 137 -68 89 -170 159 -281 192 -86
25 -97 23 -116 -29 -17 -42 -17 -57 0 -97 6 -16 0 -18 -68 -18 -221 0 -434
-166 -513 -400 -28 -81 -26 -273 3 -353 46 -123 155 -227 274 -262 91 -27 232
-26 325 3 162 50 321 194 404 367 55 114 69 166 77 280 l6 82 76 -19 c43 -10
114 -18 164 -19 80 0 88 -2 81 -17 -55 -129 -78 -262 -64 -364 13 -88 66 -161
142 -192 53 -23 156 -20 222 5 136 50 336 223 426 367 25 39 47 72 50 72 6 0
-24 -348 -31 -353 -7 -6 -157 -91 -264 -150 -55 -30 -143 -78 -195 -107 -243
-135 -318 -213 -328 -343 -6 -76 17 -134 72 -185 65 -60 140 -85 261 -85 184
-1 317 55 451 188 137 137 179 244 204 535 l13 136 76 49 c105 69 242 167 329
237 l73 59 -8 -38 c-4 -21 -8 -103 -8 -183 0 -144 0 -145 33 -213 27 -54 44
-75 79 -97 127 -81 269 -25 468 181 99 103 157 180 230 307 26 45 49 82 52 82
2 0 0 -42 -3 -92 -14 -203 33 -370 119 -418 85 -48 212 -23 352 69 88 57 331
301 407 406 74 104 168 255 168 269 0 11 -63 56 -77 56 -5 0 -24 -24 -43 -53
-165 -246 -379 -471 -518 -545 -93 -50 -140 -44 -175 22 -20 38 -22 54 -21
211 0 151 4 186 32 319 18 87 44 175 62 213 16 36 30 68 30 70 0 10 -145 -9
-180 -23 -19 -8 -44 -26 -56 -40 l-21 -26 -39 20 c-21 11 -70 29 -108 41 -245
75 -457 -3 -630 -233 -69 -91 -156 -172 -313 -290 -130 -97 -291 -202 -298
-194 -6 5 26 253 56 438 22 134 62 303 84 357 l14 33 -42 -1 c-23 -1 -62 -5
-86 -10z m-295 -223 c38 -19 84 -50 102 -69 l32 -33 -55 -88 c-118 -188 -312
-399 -421 -458 -135 -73 -214 -28 -214 122 1 177 108 397 244 500 68 52 88 59
172 59 62 1 80 -4 140 -33z m1385 8 c59 -18 181 -75 217 -103 l23 -17 -97
-144 c-246 -365 -398 -530 -489 -530 -84 0 -120 67 -119 220 0 131 24 240 74
345 98 206 223 279 391 229z m-2751 -98 c29 -19 66 -38 81 -41 25 -6 29 -13
40 -63 7 -34 9 -97 6 -157 -11 -206 -116 -402 -259 -480 -48 -27 -62 -30 -143
-30 -77 0 -96 4 -132 24 -105 60 -164 195 -148 340 12 115 63 225 145 314 124
135 289 173 410 93z m1397 -918 c-10 -191 -61 -331 -151 -416 -178 -169 -496
-59 -396 137 24 48 94 118 173 175 65 46 356 215 371 216 5 0 6 -48 3 -112z"/>
<path d="M3892 6949 c-182 -36 -312 -238 -312 -489 0 -47 7 -109 14 -139 18
-64 31 -82 20 -26 -14 68 -9 245 9 312 39 148 121 250 252 313 84 41 85 43 17
29z"/>
<path d="M3925 6918 c-56 -50 -91 -107 -106 -177 -9 -45 -8 -64 7 -120 23 -87
93 -161 169 -180 96 -24 139 -70 165 -173 28 -109 -24 -242 -110 -285 -53 -27
-127 -30 -190 -8 -55 19 -64 12 -14 -12 27 -12 64 -18 119 -18 113 0 186 36
287 144 184 196 217 438 87 635 -73 110 -207 204 -322 225 -46 8 -48 7 -92
-31z m145 -178 c27 -27 26 -77 -2 -107 -27 -29 -55 -29 -85 -1 -33 30 -31 80
3 107 33 26 58 27 84 1z"/>
<path d="M3919 6240 c-25 -25 -30 -36 -24 -58 15 -59 73 -83 108 -44 20 22 22
81 5 104 -26 32 -56 32 -89 -2z"/>
<path d="M5100 4886 c-15 -29 -19 -80 -7 -112 7 -21 4 -22 -85 -26 -105 -6
-168 -25 -246 -74 -160 -103 -258 -271 -269 -464 -12 -210 69 -366 235 -447
l76 -38 140 0 c159 0 190 8 309 79 83 49 198 167 250 256 52 90 87 206 94 315
l6 91 66 -18 c82 -21 259 -23 314 -3 35 12 38 12 32 -3 -14 -37 -44 -183 -60
-292 -28 -190 -9 -294 66 -369 47 -46 87 -61 167 -61 101 0 170 38 293 160 96
96 181 214 268 373 23 42 43 77 44 77 1 0 0 -50 -1 -112 -10 -319 73 -462 260
-445 145 13 324 159 485 394 31 46 58 81 60 80 1 -2 -15 -93 -37 -203 -22
-109 -40 -216 -40 -236 0 -81 83 -120 171 -81 39 18 44 24 46 56 8 112 191
449 352 649 110 136 195 198 272 198 35 0 47 -6 76 -36 38 -41 35 -41 111 30
78 73 93 133 45 178 -40 37 -66 48 -113 48 -182 0 -404 -212 -638 -610 -84
-143 -82 -153 -20 145 45 219 53 315 25 342 -21 21 -86 23 -165 4 -48 -12 -53
-16 -46 -35 4 -11 9 -48 11 -80 5 -66 3 -72 -100 -236 -169 -268 -332 -420
-450 -420 -78 0 -106 58 -107 220 0 133 18 255 70 459 42 166 42 190 4 205
-24 9 -87 7 -141 -4 l-48 -11 -1 -62 c-1 -74 -34 -158 -123 -318 -101 -181
-191 -307 -296 -415 -89 -91 -106 -104 -156 -119 -177 -50 -187 102 -44 640
40 152 42 178 15 205 -17 17 -33 20 -115 20 -52 0 -95 -2 -95 -4 0 -3 4 -16
10 -30 6 -16 5 -46 -2 -87 -10 -60 -12 -62 -56 -81 -156 -69 -421 1 -535 142
-77 96 -203 171 -314 186 -45 6 -50 4 -63 -20z m130 -262 c25 -14 66 -35 92
-46 40 -19 49 -27 55 -57 13 -62 7 -232 -10 -301 -40 -152 -140 -296 -249
-355 -46 -25 -63 -29 -129 -29 -166 1 -267 106 -277 289 -8 155 35 277 135
386 119 128 276 175 383 113z"/>
<path d="M7599 3202 c-131 -35 -277 -160 -370 -318 -84 -142 -119 -276 -119
-448 0 -130 23 -213 77 -275 45 -54 85 -71 161 -71 48 0 73 7 128 35 145 73
321 261 444 474 29 50 53 91 54 91 0 0 1 -66 1 -147 1 -166 16 -237 66 -309
76 -111 244 -95 438 43 122 88 304 281 417 445 21 32 41 58 44 58 9 0 81 -171
122 -289 43 -125 88 -307 88 -356 0 -35 -97 -164 -178 -236 -147 -131 -314
-189 -445 -154 -32 8 -60 15 -62 15 -9 0 -25 -68 -25 -107 0 -86 78 -127 197
-103 203 42 478 285 750 664 144 200 330 531 410 726 71 174 57 231 -64 266
-61 18 -73 14 -73 -27 0 -103 -78 -353 -170 -546 -72 -150 -182 -343 -187
-327 -1 5 -21 73 -43 151 -50 178 -141 436 -185 522 -18 36 -47 79 -63 95 -53
49 -150 46 -214 -7 l-27 -22 45 -59 c73 -95 74 -82 -13 -198 -93 -124 -296
-332 -375 -381 -162 -104 -236 -66 -246 129 -10 189 44 509 107 632 12 23 21
44 21 47 0 10 -97 5 -150 -9 -38 -10 -62 -23 -79 -44 l-24 -30 -66 30 c-128
58 -268 72 -392 40z m176 -123 c46 -12 213 -94 233 -113 11 -10 -7 -43 -98
-175 -259 -381 -395 -523 -487 -508 -91 15 -125 115 -103 303 23 189 86 331
190 428 33 30 75 60 93 65 45 13 125 13 172 0z"/>
</g>
</svg>
