<?xml version="1.0" encoding="utf-8"?>
<!-- Generator: Adobe Illustrator 22.1.0, SVG Export Plug-In . SVG Version: 6.00 Build 0)  -->
<svg version="1.1" id="Layer_1" xmlns="http://www.w3.org/2000/svg" xmlns:xlink="http://www.w3.org/1999/xlink" x="0px" y="0px"
	 viewBox="0 0 576 432" style="enable-background:new 0 0 576 432;" xml:space="preserve">
<style type="text/css">
	.st0{fill:url(#SVGID_1_);}
	.st1{fill:url(#SVGID_2_);}
	.st2{fill:url(#SVGID_3_);}
	.st3{fill:url(#SVGID_4_);}
	.st4{fill:url(#SVGID_5_);}
	.st5{fill:url(#SVGID_6_);}
	.st6{fill:url(#SVGID_7_);}
	.st7{fill:url(#SVGID_8_);}
	.st8{fill:url(#SVGID_9_);}
	.st9{fill:url(#SVGID_10_);}
	.st10{fill:url(#SVGID_11_);}
	.st11{fill:url(#SVGID_12_);}
	.st12{fill:url(#SVGID_13_);}
	.st13{fill:url(#SVGID_14_);}
	.st14{fill:url(#SVGID_15_);}
	.st15{fill:url(#SVGID_16_);}
</style>
<linearGradient id="SVGID_1_" gradientUnits="userSpaceOnUse" x1="300.6554" y1="195.7614" x2="349.3098" y2="195.7614" gradientTransform="matrix(2.887784e-03 -1 1 2.887784e-03 -92.7266 526.8287)">
	<stop  offset="7.317073e-03" style="stop-color:#AAAAAA"/>
	<stop  offset="0.2244" style="stop-color:#AEAEAE"/>
	<stop  offset="0.4431" style="stop-color:#BABABA"/>
	<stop  offset="0.6625" style="stop-color:#CECECE"/>
	<stop  offset="0.8813" style="stop-color:#EAEAEA"/>
	<stop  offset="0.9317" style="stop-color:#F2F2F2"/>
</linearGradient>
<path class="st0" d="M100.4,214.7c-0.7-0.3-4.2-2-9-1.7c-2.3,0.2-4.4,1-8.7,2.6c-1,0.4-2.1,0.9-4.1,1.7c-1.8,0.7-3.2,1.2-4.2,1.5
	c4.4-13.7,10.6-23,15.2-28.8c7.8-9.7,13.6-12.6,14.9-11.8c1.2,0.8,0.2,3.5,2.3,5.5c0.4,0.3,1.1,0.9,5.3,2c3.2,0.8,4.7,1.3,5.3,1.3
	c4.7,0.4,8.8-3.9,10.7-6.1c1.6,2,3.8,5.2,4.8,9.7c2.1,8.9-2,16.2-6.6,24.5c-3.5,6.3-6.5,11.8-10.4,11.7c-1.7-0.1-4.4-2.5-9.8-7.4
	C102.9,216.5,102.3,215.7,100.4,214.7z"/>
<linearGradient id="SVGID_2_" gradientUnits="userSpaceOnUse" x1="321.2262" y1="183.8813" x2="361.9721" y2="149.6914" gradientTransform="matrix(2.887784e-03 -1 1 2.887784e-03 -92.7266 526.8287)">
	<stop  offset="7.317073e-03" style="stop-color:#B0B0AE"/>
	<stop  offset="0.8137" style="stop-color:#E9E9E9"/>
	<stop  offset="0.9317" style="stop-color:#F2F2F2"/>
</linearGradient>
<path class="st1" d="M45.1,183.5c-1.4,7.7-0.2,13.8,0.1,15.2c1.2,5.3,2.6,11.9,8.6,16.5c6.2,4.7,13.2,4.3,15.2,4.2
	c2.3-0.1,8.6-0.5,13.3-5.3c3.4-3.4,4.7-7.6,5.2-9.3c0.7-2.2,0.9-4.2,1-5.6c1.6,0.2,4.3,0.4,7-0.9c3-1.4,4.4-3.8,6.7-7.8
	c1.6-2.8,2.7-6.3,4.8-13.5c1.1-3.6,1.6-5.7,0.6-7.7c-0.8-1.5-2.1-2.2-3.2-2.8c-2.3-1.3-3.6-1-8-1.9c-5.5-1-6.2-0.7-7.5-1.5
	c-1.8-1.1-2-2-3.3-2c-1.4,0-1.9,1.1-5,3.2c-1.9,1.2-2.9,1.9-4,1.8c-1.8-0.1-2.2-1.5-4.2-2.3c-0.7-0.3-1.9-0.6-7.2,0.8
	c-4.5,1.2-6.8,1.8-9.7,3.5c-2,1.1-4.3,2.3-6.2,4.6C46.5,176.4,45.8,180.2,45.1,183.5z"/>
<linearGradient id="SVGID_3_" gradientUnits="userSpaceOnUse" x1="366.6861" y1="178.0389" x2="366.6861" y2="178.0389" gradientTransform="matrix(2.887784e-03 -1 1 2.887784e-03 -92.7266 526.8287)">
	<stop  offset="7.317073e-03" style="stop-color:#AAAAAA"/>
	<stop  offset="0.9317" style="stop-color:#F2F2F2"/>
</linearGradient>
<path class="st2" d="M86.4,160.7"/>
<linearGradient id="SVGID_4_" gradientUnits="userSpaceOnUse" x1="313.8528" y1="186.2056" x2="313.8528" y2="186.2056" gradientTransform="matrix(2.887784e-03 -1 1 2.887784e-03 -92.7266 526.8287)">
	<stop  offset="7.317073e-03" style="stop-color:#AAAAAA"/>
	<stop  offset="0.9317" style="stop-color:#F2F2F2"/>
</linearGradient>
<path class="st3" d="M94.4,213.5"/>
<linearGradient id="SVGID_5_" gradientUnits="userSpaceOnUse" x1="137.6361" y1="452.4621" x2="92.1039" y2="452.4621" gradientTransform="matrix(2.887784e-03 -1 1 2.887784e-03 -92.1255 318.6944)">
	<stop  offset="0" style="stop-color:#ABABAB"/>
	<stop  offset="0.3463" style="stop-color:#D3D6D6"/>
	<stop  offset="0.8171" style="stop-color:#BDC2C7"/>
	<stop  offset="1" style="stop-color:#ABABAB"/>
</linearGradient>
<path class="st4" d="M322,224.3c0.4,0.3,0.8,0.6,1.2,0.8c6.9,3.8,13,2.9,28.8,1c2.3-0.3,8.4-1,20.5-2.3c2.7-0.3,6.2-0.7,8.6-1
	c5.9-0.7,10.7-1.2,13.9-1.6c1-0.3,2.5-0.7,4-1.6c0.8-0.4,4-2.4,5.8-5.6c3.4-6.2-0.9-13.9-2.2-16.4c-1.1-2-2.9-5.1-6.4-7.3
	c-2.7-1.7-4.7-1.8-12.2-2.5c-13.7-1.3-20.7-2.3-24.5-2.9c-3.2-0.5-2.3-0.5-5.8-1c-18.2-2.7-23.5-2-28.3,0.6c-0.7,0.4-1.3,0.7-2,1.2
	C313,193.6,312.4,216.5,322,224.3z"/>
<linearGradient id="SVGID_6_" gradientUnits="userSpaceOnUse" x1="318.5247" y1="333.2668" x2="318.8441" y2="443.8546" gradientTransform="matrix(2.887784e-03 -1 1 2.887784e-03 -92.7266 526.8287)">
	<stop  offset="0" style="stop-color:#363233"/>
	<stop  offset="1" style="stop-color:#000000"/>
</linearGradient>
<path class="st5" d="M241.5,236.1c1.3,0.1,3.2,0.3,5.4,0.9c3.1,0.9,5.2,2,6.5,2.6c4.2,2.1,8,2.7,12,3.2c8.4,1.3,15.1-0.2,18-0.8
	c5.8-1.3,10-3.3,12.5-4.4c3.2-1.5,5.8-3.1,7.8-4.4c1.7-0.3,4.3-0.9,7.5-1.4c8-1.2,13.1-1.4,19-1.9c4.3-0.4,10.6-1.1,18.4-2.4
	c0.5-1.7,1.2-4.2,1.8-7.2c1.1-5.7,2.9-14.3,0.8-24.3c-0.7-3.2-2-7.9-4.8-13.3c-9.6-1.5-17.3-2.5-22.8-3.1c-4.6-0.5-8.9-1-17.5-2.1
	c-7.8-1-8.1-1.1-10.8-1.4c-8.7-1-15-1-27-1.1c-9.8-0.1-18.3,0.1-25,0.4C242.6,195.8,242,215.9,241.5,236.1z"/>
<linearGradient id="SVGID_7_" gradientUnits="userSpaceOnUse" x1="660.9103" y1="629.3389" x2="660.9103" y2="587.1861" gradientTransform="matrix(4.862980e-02 -0.9988 0.9988 4.862980e-02 -125.1372 825.6868)">
	<stop  offset="0" style="stop-color:#ABABAB"/>
	<stop  offset="0.3463" style="stop-color:#D3D6D6"/>
	<stop  offset="1" style="stop-color:#C5C8C9"/>
</linearGradient>
<path class="st6" d="M496.5,219.4c2.3,0.5,5.3,1.4,8.6,3.2c2.9,1.6,5.2,3.4,6.8,4.8c4.7,2.5,8.7,3.1,11.1,3.3c4.1,0.3,5.6-0.6,6.1-1
	c0.8-0.5,2.1-1.7,3.4-6.6c2-7.3,1.5-13.4,1.4-15.1c-0.4-4.2-0.9-4-1-7.1c-0.1-5,1.3-6.4,2.6-12.4c2.3-10.5-0.8-12.6,0.5-21.2
	c0.1-0.9,0.5-3.1-0.8-4.8c-0.7-1-2.1-1.9-3.3-1.7c-2,0.4-2.8,4-3.6,7.2c0,0-2.1,8.2-5.3,15.8c-2,4.7-4.4,10.2-10,14.3
	c-3,2.2-5.7,3.1-6.5,3.4c-5.9,1.9-11.1,0.8-13.4,0.1C494.3,207.6,495.4,213.5,496.5,219.4z"/>
<linearGradient id="SVGID_8_" gradientUnits="userSpaceOnUse" x1="406.9056" y1="537.829" x2="367.6295" y2="537.829" gradientTransform="matrix(5.040251e-02 -0.9987 0.9987 5.040251e-02 -110.7413 570.0856)">
	<stop  offset="0" style="stop-color:#ABABAB"/>
	<stop  offset="0.3463" style="stop-color:#D3D6D6"/>
	<stop  offset="0.8171" style="stop-color:#BDC2C7"/>
	<stop  offset="1" style="stop-color:#ABABAB"/>
</linearGradient>
<path class="st7" d="M392.6,220.7c11.2,6.4,20.6,7.9,27.4,8.1c6.4,0.1,5.9-1.1,26.4-4.4c0,0,12.8-2,28-3.6c9.6-1,7.3-0.4,15.7-1.3
	c0.3,0,2.6-0.2,3.9-0.2c2,0,5,0.3,9,2.1c0.6-0.4,4.2-3,4.9-7.7c0.6-4.2-1.3-8.4-5-11c-1.8-0.2-4.5-0.4-7.7-0.6
	c-10.1-0.8-16.4-1.1-19-1.4c-4.9-0.5-12.1-1.4-29-4.3c-18.8-3.2-19.4-3.8-29.1-5.3c-7.5-1.2-18.9-2.6-33-3.4
	C387.5,198.7,390,209.7,392.6,220.7z"/>
<linearGradient id="SVGID_9_" gradientUnits="userSpaceOnUse" x1="312.1028" y1="626.4556" x2="312.1028" y2="626.4556" gradientTransform="matrix(2.887784e-03 -1 1 2.887784e-03 -92.7266 526.8287)">
	<stop  offset="0" style="stop-color:#ABABAB"/>
	<stop  offset="0.3463" style="stop-color:#D3D6D6"/>
	<stop  offset="0.8171" style="stop-color:#BDC2C7"/>
	<stop  offset="1" style="stop-color:#ABABAB"/>
</linearGradient>
<path class="st8" d="M534.6,216.5"/>
<linearGradient id="SVGID_10_" gradientUnits="userSpaceOnUse" x1="339.1572" y1="469.5342" x2="339.1572" y2="469.5342" gradientTransform="matrix(2.887784e-03 -1 1 2.887784e-03 -92.7266 526.8287)">
	<stop  offset="0" style="stop-color:#ABABAB"/>
	<stop  offset="0.3463" style="stop-color:#D3D6D6"/>
	<stop  offset="0.8171" style="stop-color:#BDC2C7"/>
	<stop  offset="1" style="stop-color:#ABABAB"/>
</linearGradient>
<path class="st9" d="M377.8,189"/>
<linearGradient id="SVGID_11_" gradientUnits="userSpaceOnUse" x1="322.8594" y1="196.9426" x2="323.3046" y2="347.1017" gradientTransform="matrix(2.887784e-03 -1 1.0266 2.964753e-03 -93.7659 526.8257)">
	<stop  offset="0" style="stop-color:#363233"/>
	<stop  offset="1" style="stop-color:#000000"/>
</linearGradient>
<path class="st10" d="M109.4,222.1c1.9-1.5,5.1-4.4,7-9c1.5-3.6,1.7-6.6,1.8-10c0.1-3.8-0.2-9.7-2.3-16.8
	c8.1-4.4,15.5-7.6,21.6-10.1c4.8-2,7.3-3,10.5-3.8c1.9-0.5,11-2.8,24.1-1.6c2.8,0.2,3.2,0.4,5.5,0.9c1.7,0.3,3,0.5,6.4,1
	c10.9,1.5,14.5,2.2,19.6,2.7c5.8,0.6,10,0.7,20.1,0.6c10.4-0.1,23-0.3,37.5-0.6c1.5,7.3,2.7,16.8,2.3,27.9c-0.6,14.8-4,26.8-7.1,35
	c-2.6-0.9-6.5-2.1-11.4-3.1c-14.3-2.9-26.4-2-36.5-1.2c-0.9,0.1-5.7,0.6-15.3,1.6c-4.1,0.5-9.4,1-16.5,1.8
	c-10.3,1.1-14.8,1.5-21.3,1.4c-9.5-0.1-16.7-0.1-25-3.1C125.6,234,117.5,230.3,109.4,222.1z"/>
<linearGradient id="SVGID_12_" gradientUnits="userSpaceOnUse" x1="281.2956" y1="235.3432" x2="336.4232" y2="301.0418" gradientTransform="matrix(0.2364 -0.9717 0.9717 0.2364 -160.6414 457.784)">
	<stop  offset="0" style="stop-color:#D3D6D6"/>
	<stop  offset="0.6073" style="stop-color:#BDC2C7"/>
	<stop  offset="0.878" style="stop-color:#9C9C9C"/>
</linearGradient>
<path class="st11" d="M120.5,204.4c0.1,1.7,0.4,4.1,1,6.9c0.7,3.1,1.2,5.2,2.7,7.6c1.6,2.5,3.4,3.9,5.5,5.5c3.2,2.5,6.1,3.8,8.3,4.8
	c1,0.5,2.5,1.1,5.1,1.9c0,0,2.1,0.7,4.2,1.3c6.5,1.7,12.8,1.8,22.3,3.7c1.3,0.2,2.5,0.5,4.9,1.1c8.5,1.9,14.7,3.6,16.3,4.1
	c5.1,1.4,13.3,3.1,26.9,4.6c1.3-0.4,3.4-1.4,5.2-3.4c3.6-4.1,3.3-10.4,1.5-14.5c-2.3-5.2-7.4-7.3-17.4-11.4
	c-5.7-2.3-10.2-3.5-15.3-4.9c-12.8-3.3-12.9-2.2-20.2-4.7c-5.6-1.9-5.2-2.4-16.2-6.6c-6.5-2.5-9.6-4-13.4-4.6
	c-4.1-0.7-12.4-2-17.7,3C122,200.7,121,202.9,120.5,204.4z"/>
<linearGradient id="SVGID_13_" gradientUnits="userSpaceOnUse" x1="320.8315" y1="364.407" x2="279.9448" y2="293.5891" gradientTransform="matrix(2.351595e-02 -0.9997 0.9997 2.351595e-02 -97.3592 523.2637)">
	<stop  offset="0" style="stop-color:#D3D6D6"/>
	<stop  offset="0.6073" style="stop-color:#BDC2C7"/>
	<stop  offset="0.878" style="stop-color:#ABABAB"/>
</linearGradient>
<path class="st12" d="M206.6,246.3c4.7,1.7,8.7,1.2,12.2,0.8c8.8-0.9,17.7-1,26.5-1.7c8.3-0.7,7.1-0.5,19-1.4
	c6.1-0.5,12.2-1,18.2-1.5c2.7-1.6,4.3-4.6,4.1-7.7c-0.3-3.5-2.9-6.5-6.6-7.4c-14.3,0-25.7-1.2-33.4-2.3c-6.9-0.9-12.4-1.6-18.4-2.2
	c-12.2-1.1-11-0.5-15.5-1.3c-3.4-0.2-6.9-0.5-10.6-0.9c-3-0.3-5.9-0.7-8.7-1.1c-0.5,1.1-1.1,2.8-1.3,5c-0.8,7.9,4.4,13.9,5.7,15.4
	C199.3,241.6,202,244.6,206.6,246.3z"/>
<linearGradient id="SVGID_14_" gradientUnits="userSpaceOnUse" x1="516.2914" y1="365.7625" x2="544.1331" y2="398.9428" gradientTransform="matrix(7.334857e-02 0.9973 0.9973 -7.334857e-02 -120.2668 -259.8344)">
	<stop  offset="0" style="stop-color:#D3D6D6"/>
	<stop  offset="0.6073" style="stop-color:#BDC2C7"/>
</linearGradient>
<path class="st13" d="M279,232.9c4.1,0.3,7.5,0,9.8-0.3c2.4-0.3,6.5-1.1,10.7-2c3.3-0.8,3.9-1,5.3-0.9c2.3,0.1,2.9,0.9,7.7,2.5
	c3.4,1.2,3.5,0.9,5.4,1.8c2.5,1.1,2.4,1.5,5.2,2.9c2.9,1.4,4.7,1.7,4.7,2.5c0,0.7-1.5,1.2-1.6,1.3c-1.7,0.6-3.3-0.3-3.5-0.4
	c-1-0.3-2.5-0.8-4.3-1.6c-1-0.5-1.1-0.5-1.7-0.8c-1.6-0.6-2.6-0.5-5.1-0.7c-3.7-0.3-3.6-0.5-4.5-0.3c-2,0.6-3.7,3-3.7,3
	c-1.8,1-3.5,1.9-5.3,2.9c-1.6-0.3-4-0.6-6.9-0.6c-2.4-0.1-4.1,0.1-8.5,0.4c-3.9,0.3-7.3,0.6-9.8,0.8
	C274.8,239.8,276.9,236.3,279,232.9z"/>
<linearGradient id="SVGID_15_" gradientUnits="userSpaceOnUse" x1="511.1942" y1="369.5966" x2="539.8532" y2="403.7512" gradientTransform="matrix(6.368308e-02 0.998 0.998 -6.368308e-02 -116.9636 -262.38)">
	<stop  offset="0" style="stop-color:#D3D6D6"/>
	<stop  offset="0.6073" style="stop-color:#BDC2C7"/>
</linearGradient>
<path class="st14" d="M282.3,229.2c4.1,0.3,7.5,0.1,9.8-0.2c2.4-0.3,6.5-1,10.7-1.9c3.3-0.7,3.9-1,5.3-0.9c2.3,0.1,2.8,0.9,7.6,2.6
	c3.4,1.2,3.5,0.9,5.4,1.8c2.5,1.1,2.4,1.6,5.2,2.9c2.9,1.4,4.7,1.7,4.6,2.5c0,0.7-1.5,1.2-1.7,1.3c-1.8,0.6-3.3-0.4-3.5-0.5
	c-1-0.3-2.5-0.9-4.3-1.7c-1-0.5-1.1-0.6-1.7-0.8c-2.6-1-5.1-0.7-5.1-0.7c-0.8,0.1-1.4,0.2-2.4,0.5c-1.4,0.4-1.3,0.5-2.8,1
	c-1.9,0.6-2.4,0.5-3,1.2c-0.1,0.1-0.7,0.9-0.5,1.5c0.1,0.4,0.7,0.9,3.8,1c1.9,0.1,3.5,0.1,6.4,0.1c1,0,2.4,0.1,3.5,1
	c0.3,0.2,0.7,0.6,0.6,1c-0.1,0.6-1.2,0.9-4.5,1.4c-1.8,0.3-3.5,0.5-7.2,0.8c-3.3,0.3-4.1,0.3-5.1,0.2c-1.4-0.1-2.6-0.3-4.1-0.6
	c-1.1-0.3-2.1-0.5-2.8-0.7c-1.6-0.5-3-0.9-3.8-1.2c-0.4-0.2-0.7-0.3-0.8-0.3c-4-1.4-11.2-1.8-11.2-1.8c-1.8-0.1-4.3-0.1-7.1,0
	C276.5,235.7,279.4,232.5,282.3,229.2z"/>
<linearGradient id="SVGID_16_" gradientUnits="userSpaceOnUse" x1="523.4987" y1="350.9762" x2="553.0826" y2="386.233" gradientTransform="matrix(0.1758 0.9844 0.9844 -0.1758 -158.2252 -230.4174)">
	<stop  offset="0" style="stop-color:#D3D6D6"/>
	<stop  offset="0.6073" style="stop-color:#BDC2C7"/>
</linearGradient>
<path class="st15" d="M276.9,227.4c3.3,0.2,7.2,0.2,11.7-0.4c4.1-0.5,7.6-1.4,10.6-2.3c0,0,2-1,4.3-1.4c0.3,0,0.5-0.1,0.9-0.1
	c2.3-0.1,2.9,0.6,7.9,1.7c3.5,0.8,3.5,0.5,5.5,1.2c2.6,0.9,2.5,1.3,5.5,2.3c3,1.1,4.8,1.2,4.9,2c0.1,0.7-1.4,1.4-1.5,1.4
	c-1.7,0.8-3.4,0-3.5-0.1c-1-0.2-2.6-0.6-4.4-1.2c-1-0.3-1.1-0.4-1.8-0.6c-1.6-0.4-2.6-0.2-5.2-0.1c-3.8,0.1-3.7-0.2-4.5,0.2
	c-1.9,0.8-3.3,3.4-3.3,3.4c-2,3.7-12.5,5.7-14,6c-4.1,0.8-6,0.4-9.2,0.8c-1.5,0.1-1.9,0.3-2.9,0.5c-0.6,0.1-1,0.2-1.8,0.3
	c-0.6,0.1-1.4,0.2-2.3,0.2C274.8,236.6,275.9,232,276.9,227.4z"/>
</svg>
