<?xml version="1.0" encoding="utf-8"?>
<!-- Generator: Adobe Illustrator 22.1.0, SVG Export Plug-In . SVG Version: 6.00 Build 0)  -->
<svg version="1.1" id="Layer_1" xmlns="http://www.w3.org/2000/svg" xmlns:xlink="http://www.w3.org/1999/xlink" x="0px" y="0px"
	 viewBox="0 0 432 576" style="enable-background:new 0 0 432 576;" xml:space="preserve">
<style type="text/css">
	.st0{fill:url(#SVGID_1_);}
	.st1{fill:url(#SVGID_2_);}
	.st2{fill:url(#SVGID_3_);}
	.st3{fill:url(#SVGID_4_);}
	.st4{fill:url(#SVGID_5_);}
	.st5{fill:url(#SVGID_6_);}
	.st6{fill:url(#SVGID_7_);}
	.st7{fill:url(#SVGID_8_);}
	.st8{fill:url(#SVGID_9_);}
	.st9{fill:url(#SVGID_10_);}
	.st10{fill:url(#SVGID_11_);}
	.st11{fill:url(#SVGID_12_);}
	.st12{fill:url(#SVGID_13_);}
	.st13{fill:url(#SVGID_14_);}
	.st14{fill:url(#SVGID_15_);}
	.st15{fill:url(#SVGID_16_);}
</style>
<g id="Head_and_Neck">
	
		<linearGradient id="SVGID_1_" gradientUnits="userSpaceOnUse" x1="76.8461" y1="388.8663" x2="125.4735" y2="388.8663" gradientTransform="matrix(-0.2841 0.9588 0.9588 0.2841 -96.4858 77.9284)">
		<stop  offset="7.317073e-03" style="stop-color:#AAAAAA"/>
		<stop  offset="0.2244" style="stop-color:#AEAEAE"/>
		<stop  offset="0.4431" style="stop-color:#BABABA"/>
		<stop  offset="0.6625" style="stop-color:#CECECE"/>
		<stop  offset="0.8813" style="stop-color:#EAEAEA"/>
		<stop  offset="0.9317" style="stop-color:#F2F2F2"/>
	</linearGradient>
	<path class="st0" d="M254.4,274.6c0.6,0.5,3.5,3.1,8.1,4.2c2.3,0.5,4.5,0.3,9.1-0.1c1.1-0.1,2.3-0.3,4.4-0.5
		c1.9-0.2,3.4-0.2,4.5-0.2c-8.1,11.9-16.6,19.1-22.7,23.3c-10.1,7.1-16.6,8.2-17.5,7.1c-0.9-1.1,0.8-3.4-0.6-5.9
		c-0.3-0.4-0.8-1.2-4.5-3.4c-2.8-1.7-4.2-2.6-4.7-2.8c-4.4-1.7-9.5,1.2-12,2.9c-1-2.4-2.2-6.1-1.8-10.7c0.5-9.1,6.5-15.1,13.2-21.6
		c5.1-5,9.6-9.5,13.3-8.3c1.6,0.6,3.5,3.6,7.4,9.9C252.4,272.2,252.8,273.2,254.4,274.6z"/>
	
		<linearGradient id="SVGID_2_" gradientUnits="userSpaceOnUse" x1="97.4168" y1="400.6117" x2="138.1376" y2="434.7805" gradientTransform="matrix(-0.2841 0.9588 0.9588 0.2841 -96.4858 77.9284)">
		<stop  offset="7.317073e-03" style="stop-color:#B0B0AE"/>
		<stop  offset="0.8137" style="stop-color:#E9E9E9"/>
		<stop  offset="0.9317" style="stop-color:#F2F2F2"/>
	</linearGradient>
	<path class="st1" d="M298.6,320c3.5-7,4-13.2,4.1-14.6c0.4-5.4,0.8-12.2-3.7-18.3c-4.6-6.3-11.4-7.9-13.4-8.3
		c-2.2-0.6-8.4-1.9-14.3,1.3c-4.2,2.3-6.7,6-7.6,7.4c-1.3,1.9-2.1,3.8-2.5,5.1c-1.5-0.6-4-1.6-7-1.1c-3.3,0.5-5.3,2.5-8.6,5.6
		c-2.3,2.2-4.3,5.3-8.4,11.6c-2.1,3.1-3.2,5-2.7,7.2c0.3,1.7,1.4,2.7,2.3,3.6c1.8,1.9,3.2,2,7.2,4c5,2.5,5.7,2.4,6.8,3.6
		c1.4,1.5,1.4,2.5,2.6,2.9c1.3,0.4,2.1-0.5,5.7-1.6c2.2-0.7,3.3-1,4.3-0.6c1.7,0.6,1.7,2.1,3.4,3.4c0.6,0.5,1.7,1.1,7.1,1.3
		c4.7,0.1,7.1,0.1,10.3-0.6c2.3-0.6,4.8-1,7.3-2.7C295.2,326.5,297.1,323.1,298.6,320z"/>
	
		<linearGradient id="SVGID_3_" gradientUnits="userSpaceOnUse" x1="142.8287" y1="406.4991" x2="142.8287" y2="406.4991" gradientTransform="matrix(-0.2841 0.9588 0.9588 0.2841 -96.4858 77.9284)">
		<stop  offset="7.317073e-03" style="stop-color:#AAAAAA"/>
		<stop  offset="0.9317" style="stop-color:#F2F2F2"/>
	</linearGradient>
	<path class="st2" d="M252.7,330.4"/>
	
		<linearGradient id="SVGID_4_" gradientUnits="userSpaceOnUse" x1="90.0287" y1="398.2991" x2="90.0287" y2="398.2991" gradientTransform="matrix(-0.2841 0.9588 0.9588 0.2841 -96.4858 77.9284)">
		<stop  offset="7.317073e-03" style="stop-color:#AAAAAA"/>
		<stop  offset="0.9317" style="stop-color:#F2F2F2"/>
	</linearGradient>
	<path class="st3" d="M259.8,277.4"/>
</g>
<g id="Foot">
	
		<linearGradient id="SVGID_5_" gradientUnits="userSpaceOnUse" x1="402.8532" y1="-297.7523" x2="402.8532" y2="-256.108" gradientTransform="matrix(-0.2083 0.9781 0.9781 0.2083 442.5729 8.3535)">
		<stop  offset="0" style="stop-color:#ABABAB"/>
		<stop  offset="0.3463" style="stop-color:#D3D6D6"/>
		<stop  offset="1" style="stop-color:#C5C8C9"/>
	</linearGradient>
	<path class="st4" d="M108.5,326.9c-2.2-0.9-5-2.3-8-4.5c-2.6-2-4.6-4.2-5.9-5.9c-4.2-3.2-8.1-4.5-10.4-5c-4-0.9-5.6-0.3-6.1,0
		c-0.9,0.4-2.3,1.3-4.5,6c-3.2,6.9-3.7,13-3.8,14.7c-0.3,4.2,0.3,4.1-0.1,7.1c-0.8,6-3.5,6.7-4.6,11.8c-0.7,3.3,0,6.1,1.2,11.8
		c1.3,6,2,9.1,4.8,10.5c1.8,0.9,5,1.3,6.4-0.6c1.1-1.5,0.9-4.1-0.9-6.2c1.6-4.4,3.3-8,4.5-10.5c4.1-8.4,6.3-10.1,7.6-10.9
		c2.6-1.7,5.2-2,7-2.3c6.1-0.9,11.1,1,13.3,2C108.8,338.9,108.6,332.9,108.5,326.9z"/>
</g>
<g id="Thigh">
	
		<linearGradient id="SVGID_6_" gradientUnits="userSpaceOnUse" x1="124.7628" y1="238.7751" x2="79.2418" y2="238.7751" gradientTransform="matrix(0.5907 -0.8069 -0.8069 -0.5907 320.5775 558.9914)">
		<stop  offset="0" style="stop-color:#ABABAB"/>
		<stop  offset="0.3463" style="stop-color:#D3D6D6"/>
		<stop  offset="0.8171" style="stop-color:#BDC2C7"/>
		<stop  offset="1" style="stop-color:#ABABAB"/>
	</linearGradient>
	<path class="st5" d="M145.5,328.4c0.1,0.5,0.3,0.9,0.5,1.4c3.3,7.1,8.8,10,22.7,17.7c2.1,1.1,7.4,4.2,18,10.2
		c2.4,1.4,5.4,3.1,7.6,4.3c5.1,2.9,9.4,5.3,12.2,6.9c1,0.4,2.4,0.9,4.2,1.1c0.9,0.1,4.6,0.4,8-1.1c6.4-3,7.5-11.8,7.9-14.5
		c0.3-2.3,0.7-5.8-0.9-9.7c-1.2-3-2.8-4.2-8.4-9.2c-10.3-9.1-15.4-14-18.1-16.7c-2.3-2.3-1.6-1.7-4.1-4.2
		c-13.1-12.9-17.9-15.4-23.3-16.2c-0.8-0.1-1.4-0.2-2.4-0.2C156.2,298.2,142.3,316.4,145.5,328.4z"/>
	
		<linearGradient id="SVGID_7_" gradientUnits="userSpaceOnUse" x1="296.2136" y1="307.9633" x2="368.5838" y2="307.9633" gradientTransform="matrix(0.5452 -0.8383 -0.8383 -0.5452 208.2662 744.9158)">
		<stop  offset="0" style="stop-color:#363233"/>
		<stop  offset="1" style="stop-color:#000000"/>
	</linearGradient>
	<path class="st6" d="M89.9,257.2c-3.6,3.7-9.8,11.3-12.2,22.6c-1.1,5-3.2,14.7,1.8,23.6c2.2,4,5.1,6.4,8.3,9.2
		c6.4,5.6,12.8,8.1,15.6,9.1c5.6,2.1,10.2,2.7,12.9,3.1c3.5,0.5,6.6,0.6,8.9,0.6c1.6,0.6,4.1,1.6,7,2.9c7.4,3.3,11.8,5.9,17,8.7
		c3.9,2,9.5,4.9,16.8,7.9c1.4-1.2,3.3-2.9,5.4-5c4.1-4.2,10.2-10.4,13.9-19.9c1.2-3,2.6-7.7,3.1-13.8c-7.2-6.5-13.2-11.5-17.4-15
		c-3.6-3-6.9-5.6-13.6-11.2c-0.5-0.4-2.8-1.5-4.7-3.9c-1.1-1.4-1.5-2.7-1.7-3.1c-2.8-6.7-20.8-7.2-24.1-15.6c-0.4-1-0.8-2.7-0.3-5.2
		C114.4,253.8,102.1,255.5,89.9,257.2z"/>
</g>
<g id="Calves">
	
		<linearGradient id="SVGID_8_" gradientUnits="userSpaceOnUse" x1="148.6918" y1="-206.0692" x2="112.676" y2="-206.0692" gradientTransform="matrix(-0.2083 0.9781 0.9781 0.2083 388.8627 260.6077)">
		<stop  offset="0" style="stop-color:#ABABAB"/>
		<stop  offset="0.3463" style="stop-color:#D3D6D6"/>
		<stop  offset="0.8171" style="stop-color:#BDC2C7"/>
		<stop  offset="1" style="stop-color:#ABABAB"/>
	</linearGradient>
	<path class="st7" d="M209.1,337.6c-5.8-0.8-13.5-1.9-22.5-3c-12.2-1.5-21.4-2.3-28.8-3c-1.4-0.1-20-1.8-26.5-2.2
		c-1.1-0.1-3.4-0.2-6.6-0.5c-2.7-0.2-3.6-0.4-9.1-0.7c-0.3,0-2.6-0.2-3.9-0.4c-2-0.3-4.9-1.1-8.5-3.5c-0.7,0.3-4.6,2.3-6,6.8
		c-1.3,4,0,8.5,3.1,11.7c1.7,0.4,4.3,1.1,7.5,1.9c9.9,2.4,16,3.7,18.6,4.4c4.8,1.3,11.7,3.3,27.9,8.8c14.4,4.9,17.6,6.3,23.1,8.2
		l0,0c2.8,0.8,4.6,1.5,4.8,1.6c26.4,9.9,36.2,1.1,36.2,1.1c8.9-7.9,3.2-26.8,2.8-28.1C217.2,339.6,213.1,338.6,209.1,337.6z"/>
	
		<linearGradient id="SVGID_9_" gradientUnits="userSpaceOnUse" x1="116.7397" y1="-372.9385" x2="116.7397" y2="-372.9385" gradientTransform="matrix(-0.2083 0.9781 0.9781 0.2083 374.4307 328.3886)">
		<stop  offset="0" style="stop-color:#ABABAB"/>
		<stop  offset="0.3463" style="stop-color:#D3D6D6"/>
		<stop  offset="0.8171" style="stop-color:#BDC2C7"/>
		<stop  offset="1" style="stop-color:#ABABAB"/>
	</linearGradient>
	<path class="st8" d="M-14.7,364.9"/>
	
		<linearGradient id="SVGID_10_" gradientUnits="userSpaceOnUse" x1="132.7428" y1="195.5114" x2="132.7428" y2="195.5114" gradientTransform="matrix(1 0 0 -1 0 578)">
		<stop  offset="0" style="stop-color:#ABABAB"/>
		<stop  offset="0.3463" style="stop-color:#D3D6D6"/>
		<stop  offset="0.8171" style="stop-color:#BDC2C7"/>
		<stop  offset="1" style="stop-color:#ABABAB"/>
	</linearGradient>
	<path class="st9" d="M132.7,382.5"/>
</g>
<g id="Chest">
	
		<linearGradient id="SVGID_11_" gradientUnits="userSpaceOnUse" x1="65.0287" y1="303.5464" x2="139.3536" y2="303.5464" gradientTransform="matrix(-0.2841 0.9588 0.9844 0.2917 -104.734 75.4842)">
		<stop  offset="0" style="stop-color:#363233"/>
		<stop  offset="1" style="stop-color:#000000"/>
	</linearGradient>
	<path class="st10" d="M247.9,265c-2.2,0.9-6.1,2.8-9.3,6.6c-2.5,3-3.4,5.9-4.5,9.1c-1.2,3.6-2.6,9.4-2.5,16.8c-9,1.9-17,3-23.5,3.7
		c-5.2,0.6-7.9,0.8-11.1,0.7c-2-0.1-11.3-0.4-23.6-5.2c-2.6-1-3-1.3-5-2.3c-1.5-0.8-2.7-1.3-5.9-2.8c-10-4.5-13.3-6.2-18-8.2
		c-3.6-1.5-10.6-4.3-19.1-6.2c-10.2-2.3-19.6-2.3-38.3-2.3c-3.7,0-6.8,0-8.9,0.1c0.6-4.5,2.1-11.6,6.4-19.1
		c5.8-10.2,13.5-16,17.8-18.8c7-2.8,13-4.4,17.5-5.5c12.3-2.9,22-3.2,34-3.5c10.8-0.3,16,0.2,17.7,0.4c2.7,0.3,5.4,1,16.3,3
		c10.2,1.9,14.6,2.8,20.8,4.6c9.1,2.8,16,4.8,23.1,10C235.6,249.1,242.3,254.8,247.9,265z"/>
</g>
<g id="Bicep">
	
		<linearGradient id="SVGID_12_" gradientUnits="userSpaceOnUse" x1="251.8237" y1="242.522" x2="306.9995" y2="176.766" gradientTransform="matrix(0.6149 -0.7886 -0.7886 -0.6149 227.7894 643.2176)">
		<stop  offset="0" style="stop-color:#D3D6D6"/>
		<stop  offset="0.6073" style="stop-color:#BDC2C7"/>
		<stop  offset="0.878" style="stop-color:#9C9C9C"/>
	</linearGradient>
	<path class="st11" d="M193.2,257.3c-0.6,1.6-1.4,3.8-1.9,6.7c-0.6,3.2-1.1,5.3-0.7,8c0.4,2.9,1.4,4.9,2.7,7.3c1.9,3.5,4,6,5.6,7.8
		c0.8,0.8,1.9,2,3.9,3.9c0,0,1.6,1.5,3.4,2.9c5.2,4.2,10.9,6.8,18.9,12.5c1,0.8,2,1.5,4,3c7,5.3,11.9,9.3,13.2,10.4
		c4,3.3,10.8,8.3,22.7,15.2c1.4,0.2,3.7,0.2,6.1-1c4.9-2.3,7.3-8.2,7.3-12.5c0-5.7-3.6-9.7-11.2-17.5c-4.2-4.5-7.8-7.4-12-10.7
		c-10.3-8.3-10.9-7.3-16.5-12.6c-4.4-4-3.8-4.3-12.1-12.7c-4.8-4.9-7.1-7.6-10.3-9.8c-3.5-2.3-10.5-6.9-17.4-4.6
		C196.1,254.6,194.3,256.1,193.2,257.3z"/>
</g>
<g id="Tricep">
	
		<linearGradient id="SVGID_13_" gradientUnits="userSpaceOnUse" x1="301.8898" y1="99.5607" x2="261.0031" y2="170.3785" gradientTransform="matrix(0.4765 -0.8792 -0.8792 -0.4765 281.2534 644.8004)">
		<stop  offset="0" style="stop-color:#D3D6D6"/>
		<stop  offset="0.6073" style="stop-color:#BDC2C7"/>
		<stop  offset="0.878" style="stop-color:#ABABAB"/>
	</linearGradient>
	<path class="st12" d="M261.1,332.4c3.4,3.6,7.2,5,10.5,6.3c8.3,3.1,16.2,7.2,24.4,10.6c7.7,3.2,6.6,2.7,17.6,7.3
		c5.6,2.3,11.3,4.6,16.9,6.9c3.2-0.3,6-2.2,7.1-5.1c1.3-3.3,0.4-7.2-2.5-9.6c-12.7-6.6-22.3-12.8-28.7-17.2
		c-5.7-4-10.3-7.1-15.4-10.3c-10.3-6.6-9.5-5.5-13.2-8.3c-3-1.7-6-3.6-9-5.6c-2.5-1.6-5-3.3-7.2-5c-0.9,0.7-2.2,2-3.4,3.9
		c-4.4,6.7-2.5,14.4-1.9,16.3C256.9,324.8,257.8,328.8,261.1,332.4z"/>
</g>
<g id="Hand">
	
		<linearGradient id="SVGID_14_" gradientUnits="userSpaceOnUse" x1="527.0466" y1="99.4652" x2="554.8884" y2="66.2845" gradientTransform="matrix(-0.3892 0.9212 -0.9212 -0.3892 633.7686 -95.9882)">
		<stop  offset="0" style="stop-color:#D3D6D6"/>
		<stop  offset="0.6073" style="stop-color:#BDC2C7"/>
	</linearGradient>
	<path class="st13" d="M331.8,353.5c3.5,2.1,6.7,3.4,8.8,4.2c2.3,0.8,6.2,2,10.5,3c3.3,0.9,3.9,0.9,5.2,1.6c2,1.1,2.2,2.1,5.7,5.7
		c2.5,2.6,2.7,2.4,4,4c1.8,2.2,1.4,2.4,3.3,4.9c2,2.6,3.4,3.6,3,4.3c-0.3,0.6-1.9,0.3-2,0.4c-1.8-0.2-2.8-1.8-2.9-2
		c-0.8-0.7-1.8-1.9-3.1-3.4c-0.7-0.9-0.7-1-1.1-1.5c-1.1-1.2-2-1.6-4.3-2.9c-3.2-1.9-3-2.1-3.9-2.3c-2.1-0.4-4.6,1-4.6,1
		c-2,0-4.1,0.1-6,0.2c-1.3-1-3.3-2.3-5.8-3.7c-2.1-1.2-3.6-1.8-7.8-3.6c-3.6-1.5-6.8-2.8-9.1-3.8
		C324.9,357.7,328.3,355.6,331.8,353.5z"/>
	
		<linearGradient id="SVGID_15_" gradientUnits="userSpaceOnUse" x1="523.0157" y1="95.5817" x2="551.6747" y2="61.4272" gradientTransform="matrix(-0.3981 0.9173 -0.9173 -0.3981 636.4869 -93.5489)">
		<stop  offset="0" style="stop-color:#D3D6D6"/>
		<stop  offset="0.6073" style="stop-color:#BDC2C7"/>
	</linearGradient>
	<path class="st14" d="M336.3,351.7c3.5,2.1,6.6,3.5,8.8,4.3c2.3,0.8,6.2,2,10.4,3.1c3.3,0.9,3.9,0.9,5.1,1.7c2,1.2,2.2,2.1,5.6,5.8
		c2.5,2.6,2.7,2.4,4,4.1c1.8,2.2,1.4,2.5,3.3,4.9c2,2.6,3.4,3.6,3,4.3c-0.3,0.6-1.9,0.3-2,0.4c-1.8-0.2-2.8-1.8-2.9-2
		c-0.8-0.8-1.8-1.9-3.1-3.4c-0.7-0.9-0.7-1-1.1-1.5c-1.9-2-4.2-3-4.2-3c-0.8-0.3-1.3-0.4-2.4-0.6c-1.4-0.3-1.4-0.2-2.9-0.4
		c-1.9-0.3-2.4-0.6-3.1-0.3c-0.1,0-1.1,0.4-1.2,1.1c-0.1,0.4,0.2,1,2.9,2.6c1.6,1,3.1,1.7,5.6,3c0.9,0.5,2.1,1.2,2.7,2.5
		c0.1,0.3,0.3,0.9,0.1,1.2c-0.4,0.5-1.5,0.3-4.6-0.8c-1.7-0.5-3.4-1.1-6.7-2.5c-3-1.3-3.8-1.6-4.7-2.1c-1.2-0.8-2.2-1.4-3.4-2.4
		c-0.9-0.8-1.6-1.4-2.1-2c-1.2-1.2-2.3-2.2-2.9-2.9c-0.3-0.4-0.6-0.6-0.6-0.7c-3-3.1-9.1-6.7-9.1-6.7c-1.6-0.9-3.7-2-6.3-3.2
		C328.3,354.8,332.3,353.3,336.3,351.7z"/>
	
		<linearGradient id="SVGID_16_" gradientUnits="userSpaceOnUse" x1="523.6641" y1="114.9569" x2="553.2481" y2="79.7" gradientTransform="matrix(-0.2921 0.9564 -0.9564 -0.2921 599.2061 -122.2043)">
		<stop  offset="0" style="stop-color:#D3D6D6"/>
		<stop  offset="0.6073" style="stop-color:#BDC2C7"/>
	</linearGradient>
	<path class="st15" d="M332.4,347.6c2.8,1.7,6.4,3.5,10.6,5c3.8,1.4,7.4,2.3,10.4,2.8c0,0,2.2,0,4.5,0.7c0.3,0.1,0.5,0.1,0.8,0.3
		c2.1,0.9,2.3,1.9,6.2,5.1c2.8,2.3,2.9,2.1,4.4,3.6c1.9,1.9,1.6,2.3,3.8,4.6c2.2,2.4,3.8,3.3,3.5,4.1c-0.3,0.7-1.8,0.6-2,0.6
		c-1.8-0.1-3-1.5-3.1-1.7c-0.9-0.7-2.1-1.7-3.5-3.1c-0.8-0.8-0.8-0.9-1.3-1.3c-1.3-1.1-2.2-1.4-4.5-2.5c-3.4-1.6-3.2-1.7-4.1-1.9
		c-2.1-0.2-4.5,1.5-4.5,1.5c-3.4,2.4-13.7-0.6-15.2-1c-4-1.1-5.5-2.3-8.6-3.5c-1.4-0.5-1.8-0.6-2.8-0.9c-0.6-0.2-1-0.4-1.7-0.5
		c-0.6-0.2-1.3-0.5-2.1-0.8C326.3,354.8,329.4,351.2,332.4,347.6z"/>
</g>
</svg>
