<?xml version="1.0" encoding="utf-8"?>
<!-- Generator: Adobe Illustrator 22.1.0, SVG Export Plug-In . SVG Version: 6.00 Build 0)  -->
<svg version="1.1" xmlns="http://www.w3.org/2000/svg" xmlns:xlink="http://www.w3.org/1999/xlink" x="0px" y="0px"
	 viewBox="0 0 432 576" style="enable-background:new 0 0 432 576;" xml:space="preserve">
<style type="text/css">
	.st0{fill:url(#SVGID_1_);}
	.st1{fill:url(#SVGID_2_);}
	.st2{fill:url(#SVGID_3_);}
	.st3{fill:url(#SVGID_4_);}
	.st4{fill:url(#SVGID_5_);}
	.st5{fill:url(#SVGID_6_);}
	.st6{fill:url(#SVGID_7_);}
	.st7{fill:url(#SVGID_8_);}
	.st8{fill:url(#SVGID_9_);}
	.st9{fill:url(#SVGID_10_);}
	.st10{fill:url(#SVGID_11_);}
	.st11{fill:url(#SVGID_12_);}
	.st12{fill:url(#SVGID_13_);}
	.st13{fill:url(#SVGID_14_);}
	.st14{fill:url(#SVGID_15_);}
	.st15{fill:url(#SVGID_16_);}
</style>
<g id="Head_and_Neck">
	<linearGradient id="SVGID_1_" gradientUnits="userSpaceOnUse" x1="187.6174" y1="101.9676" x2="236.2718" y2="101.9676">
		<stop  offset="7.317073e-03" style="stop-color:#AAAAAA"/>
		<stop  offset="0.2244" style="stop-color:#AEAEAE"/>
		<stop  offset="0.4431" style="stop-color:#BABABA"/>
		<stop  offset="0.6625" style="stop-color:#CECECE"/>
		<stop  offset="0.8813" style="stop-color:#EAEAEA"/>
		<stop  offset="0.9317" style="stop-color:#F2F2F2"/>
	</linearGradient>
	<path class="st0" d="M199.6,98.4c0.3-0.7,2-4.2,1.7-9c-0.2-2.3-1-4.4-2.7-8.7c-0.4-1-0.9-2.1-1.7-4.1c-0.7-1.8-1.2-3.2-1.5-4.2
		c13.7,4.4,23,10.5,28.8,15.1c9.7,7.7,12.6,13.6,11.8,14.8c-0.8,1.2-3.5,0.2-5.5,2.3c-0.3,0.4-0.9,1.1-2,5.3
		c-0.8,3.2-1.3,4.8-1.3,5.3c-0.4,4.7,3.9,8.8,6.2,10.7c-2,1.6-5.2,3.8-9.7,4.8c-8.9,2.1-16.3-2-24.5-6.5
		c-6.3-3.5-11.8-6.5-11.7-10.4c0.1-1.7,2.5-4.4,7.4-9.9C197.9,101,198.7,100.3,199.6,98.4z"/>
	<linearGradient id="SVGID_2_" gradientUnits="userSpaceOnUse" x1="208.1882" y1="90.0875" x2="248.9341" y2="55.8976">
		<stop  offset="7.317073e-03" style="stop-color:#B0B0AE"/>
		<stop  offset="0.8137" style="stop-color:#E9E9E9"/>
		<stop  offset="0.9317" style="stop-color:#F2F2F2"/>
	</linearGradient>
	<path class="st1" d="M230.6,43.1c-7.7-1.4-13.8-0.1-15.2,0.2c-5.3,1.2-11.9,2.7-16.5,8.7c-4.7,6.2-4.3,13.2-4.2,15.2
		c0.1,2.3,0.6,8.6,5.3,13.3c3.4,3.4,7.6,4.7,9.3,5.2c2.2,0.7,4.2,0.9,5.6,1c-0.2,1.6-0.4,4.3,0.9,7c1.4,3,3.9,4.4,7.8,6.7
		c2.8,1.6,6.3,2.6,13.5,4.8c3.6,1.1,5.7,1.6,7.7,0.5c1.5-0.8,2.2-2.1,2.8-3.2c1.3-2.3,1-3.6,1.8-8c1-5.5,0.7-6.2,1.5-7.5
		c1-1.8,2-2.1,2-3.3c0-1.4-1.1-1.9-3.2-5c-1.3-1.9-1.9-2.9-1.8-4c0.1-1.8,1.5-2.2,2.3-4.2c0.3-0.7,0.6-1.9-0.8-7.2
		c-1.2-4.5-1.9-6.8-3.5-9.7c-1.2-2-2.3-4.3-4.7-6.2C237.8,44.5,234,43.7,230.6,43.1z"/>
	<linearGradient id="SVGID_3_" gradientUnits="userSpaceOnUse" x1="253.6481" y1="84.2451" x2="253.6481" y2="84.2451">
		<stop  offset="7.317073e-03" style="stop-color:#AAAAAA"/>
		<stop  offset="0.9317" style="stop-color:#F2F2F2"/>
	</linearGradient>
	<path class="st2" d="M253.6,84.2"/>
	<linearGradient id="SVGID_4_" gradientUnits="userSpaceOnUse" x1="200.8148" y1="92.4118" x2="200.8148" y2="92.4118">
		<stop  offset="7.317073e-03" style="stop-color:#AAAAAA"/>
		<stop  offset="0.9317" style="stop-color:#F2F2F2"/>
	</linearGradient>
	<path class="st3" d="M200.8,92.4"/>
</g>
<g id="Thigh">
	
		<linearGradient id="SVGID_5_" gradientUnits="userSpaceOnUse" x1="24.5981" y1="358.6683" x2="-20.9341" y2="358.6683" gradientTransform="matrix(1 0 0 1 208.1352 0)">
		<stop  offset="0" style="stop-color:#ABABAB"/>
		<stop  offset="0.3463" style="stop-color:#D3D6D6"/>
		<stop  offset="0.8171" style="stop-color:#BDC2C7"/>
		<stop  offset="1" style="stop-color:#ABABAB"/>
	</linearGradient>
	<path class="st4" d="M190.6,320.1c-0.3,0.4-0.6,0.8-0.8,1.2c-3.8,6.9-2.9,13-0.9,28.8c0.3,2.3,1,8.4,2.4,20.5
		c0.3,2.7,0.7,6.2,1,8.6c0.7,5.9,1.2,10.7,1.6,13.9c0.3,1,0.7,2.5,1.6,4c0.4,0.8,2.4,4,5.6,5.8c6.2,3.4,13.9-0.9,16.4-2.3
		c2-1.1,5.1-2.9,7.3-6.5c1.7-2.7,1.8-4.7,2.4-12.2c1.2-13.7,2.2-20.7,2.8-24.5c0.5-3.2,0.4-2.3,1-5.8c2.7-18.2,1.9-23.5-0.7-28.3
		c-0.4-0.7-0.7-1.3-1.2-2C221.3,311,198.5,310.4,190.6,320.1z"/>
	<linearGradient id="SVGID_6_" gradientUnits="userSpaceOnUse" x1="171.5015" y1="300.8004" x2="239.6603" y2="300.8004">
		<stop  offset="0" style="stop-color:#363233"/>
		<stop  offset="1" style="stop-color:#000000"/>
	</linearGradient>
	<path class="st5" d="M178.7,245.6c-0.1,1.3-0.3,3.2-0.9,5.4c-0.8,3.1-2,5.2-2.6,6.5c-2.1,4.2-2.6,8.1-3.2,12
		c-1.2,8.4,0.2,15.1,0.9,18c1.3,5.8,3.3,10,4.5,12.5c1.5,3.2,3.1,5.8,4.4,7.8c0.4,1.7,0.9,4.3,1.4,7.5c1.3,8,1.5,13.1,2,19
		c0.4,4.3,1.1,10.6,2.5,18.4c1.7,0.5,4.2,1.2,7.2,1.8c5.7,1.1,14.3,2.9,24.3,0.8c3.2-0.7,7.9-2,13.3-4.9c1.5-9.6,2.5-17.3,3.1-22.8
		c0.5-4.6,1-8.9,2-17.5c0.9-7.8,1-8.1,1.3-10.8c1-8.7,0.9-15,1-27c0.1-9.8-0.2-18.3-0.5-25C219,246.6,198.9,246.1,178.7,245.6z"/>
</g>
<g id="Foot">
	
		<linearGradient id="SVGID_7_" gradientUnits="userSpaceOnUse" x1="494.4385" y1="614.8578" x2="494.4385" y2="573.2469" gradientTransform="matrix(-0.2083 0.9781 -0.9781 -0.2083 777.8843 24.9487)">
		<stop  offset="0" style="stop-color:#ABABAB"/>
		<stop  offset="0.3463" style="stop-color:#D3D6D6"/>
		<stop  offset="1" style="stop-color:#C5C8C9"/>
	</linearGradient>
	<path class="st6" d="M114.6,367.1c-2.2-0.9-5-2.3-8-4.5c-2.6-2-4.6-4.2-5.9-5.9c-4.2-3.2-8.1-4.5-10.4-5c-4-0.9-5.6-0.3-6.1,0
		c-0.9,0.4-2.3,1.3-4.5,6c-3.2,6.9-3.7,13-3.8,14.7c-0.3,4.2,0.3,4.1-0.1,7.1c-0.8,6-3.5,6.7-4.6,11.8c-0.7,3.3,0,6.1,1.2,11.8
		c1.3,6,2,9.1,4.8,10.5c1.8,0.9,5,1.3,6.4-0.6c1.1-1.5,0.9-4.1-0.9-6.2c1.6-4.4,3.3-8,4.5-10.5c4.1-8.4,6.3-10.1,7.6-10.9
		c2.6-1.7,5.2-2,7-2.3c6.1-0.9,11.1,1,13.3,2C114.9,379.1,114.8,373.1,114.6,367.1z"/>
</g>
<g id="Calves">
	
		<linearGradient id="SVGID_8_" gradientUnits="userSpaceOnUse" x1="240.2599" y1="525.2968" x2="201.7737" y2="525.2968" gradientTransform="matrix(-0.2083 0.9781 -0.9781 -0.2083 724.1741 277.2029)">
		<stop  offset="0" style="stop-color:#ABABAB"/>
		<stop  offset="0.3463" style="stop-color:#D3D6D6"/>
		<stop  offset="0.8171" style="stop-color:#BDC2C7"/>
		<stop  offset="1" style="stop-color:#ABABAB"/>
	</linearGradient>
	<path class="st7" d="M218.1,382.6c-10.1-8.1-19.1-11.1-25.7-12.3c-6.3-1.1-6,0.2-26.8,0.1c0,0-13,0-28.2-0.9
		c-9.6-0.5-7.3-0.7-15.7-1.2c-0.3,0-2.6-0.2-3.9-0.4c-2-0.3-4.9-1.1-8.5-3.5c-0.7,0.3-4.6,2.3-6,6.8c-1.3,4,0,8.5,3.1,11.7
		c1.7,0.4,4.3,1.1,7.5,1.9c9.9,2.4,16,3.7,18.6,4.4c4.8,1.3,11.7,3.3,27.9,8.8c14.4,4.9,17.6,6.3,23.1,8.2c0,0,2.7,0.9,4.8,1.6
		c9.4,3,20.2,6.5,27.4,3.2c11.1-5.1,11.3-24.8,11.3-25.7C224.1,384.4,221.1,383.5,218.1,382.6z"/>
	
		<linearGradient id="SVGID_9_" gradientUnits="userSpaceOnUse" x1="144.2494" y1="614.4815" x2="144.2494" y2="614.4815" gradientTransform="matrix(-0.2083 0.9781 -0.9781 -0.2083 709.7421 344.9838)">
		<stop  offset="0" style="stop-color:#ABABAB"/>
		<stop  offset="0.3463" style="stop-color:#D3D6D6"/>
		<stop  offset="0.8171" style="stop-color:#BDC2C7"/>
		<stop  offset="1" style="stop-color:#ABABAB"/>
	</linearGradient>
	<path class="st8" d="M78.7,358.1"/>
	<linearGradient id="SVGID_10_" gradientUnits="userSpaceOnUse" x1="226.1192" y1="375.7404" x2="226.1192" y2="375.7404">
		<stop  offset="0" style="stop-color:#ABABAB"/>
		<stop  offset="0.3463" style="stop-color:#D3D6D6"/>
		<stop  offset="0.8171" style="stop-color:#BDC2C7"/>
		<stop  offset="1" style="stop-color:#ABABAB"/>
	</linearGradient>
	<path class="st9" d="M226.1,375.7"/>
</g>
<g id="Chest">
	
		<linearGradient id="SVGID_11_" gradientUnits="userSpaceOnUse" x1="175.8124" y1="182.5495" x2="244.1221" y2="182.5495" gradientTransform="matrix(1 0 0 1.0267 0 -2.9584)">
		<stop  offset="0" style="stop-color:#363233"/>
		<stop  offset="1" style="stop-color:#000000"/>
	</linearGradient>
	<path class="st10" d="M192.3,107.4c1.5,1.9,4.4,5.1,9,7c3.6,1.5,6.6,1.6,10,1.7c3.8,0.1,9.7-0.2,16.8-2.4
		c4.4,8.1,7.7,15.5,10.2,21.5c2,4.8,3,7.3,3.8,10.5c0.5,1.9,2.8,11,1.7,24.1c-0.2,2.8-0.4,3.2-0.8,5.5c-0.3,1.7-0.5,3-1,6.4
		c-1.5,10.9-2.2,14.5-2.7,19.6c-0.6,5.8-0.6,10-0.5,20.1c0.1,10.4,0.4,23,0.7,37.5c-7.3,1.5-16.8,2.8-27.9,2.3
		c-14.8-0.6-26.8-4-35-7c0.9-2.6,2.1-6.5,3.1-11.4c2.9-14.3,2-26.4,1.1-36.5c-0.1-0.9-0.6-5.7-1.7-15.3c-0.5-4.1-1.1-9.4-1.8-16.5
		c-1.1-10.3-1.5-14.8-1.5-21.2c0.1-9.5,0.1-16.7,3-25C180.5,123.7,184.1,115.6,192.3,107.4z"/>
</g>
<g id="Bicep">
	
		<linearGradient id="SVGID_12_" gradientUnits="userSpaceOnUse" x1="175.1638" y1="138.9801" x2="230.2914" y2="204.6787" gradientTransform="matrix(0.9997 2.347968e-02 -2.347968e-02 0.9997 5.8781 -3.555)">
		<stop  offset="0" style="stop-color:#D3D6D6"/>
		<stop  offset="0.6073" style="stop-color:#BDC2C7"/>
		<stop  offset="0.878" style="stop-color:#9C9C9C"/>
	</linearGradient>
	<path class="st11" d="M209.5,118.1c-1.6,0.5-3.9,1.2-6.5,2.5c-2.9,1.4-4.9,2.3-6.8,4.2c-2.1,2.1-3.1,4.1-4.3,6.5
		c-1.7,3.6-2.4,6.8-2.9,9.1c-0.2,1.1-0.5,2.7-0.8,5.4c0,0-0.2,2.2-0.3,4.4c-0.3,6.7,1,12.8,1.2,22.6c0,1.3,0,2.5,0,5
		c-0.1,8.8-0.4,15.1-0.5,16.8c-0.3,5.2-0.2,13.6,1.3,27.3c0.7,1.2,2.1,3.1,4.4,4.3c4.8,2.6,10.9,1,14.4-1.6
		c4.6-3.4,5.6-8.7,7.4-19.4c1.1-6,1.3-10.7,1.5-16c0.5-13.2-0.6-13.1,0.3-20.8c0.6-5.9,1.2-5.6,3-17.3c1.1-6.8,1.9-10.2,1.7-14.1
		c-0.2-4.2-0.7-12.5-6.7-16.7C213.5,118.8,211.2,118.3,209.5,118.1z"/>
</g>
<g id="Tricep">
	
		<linearGradient id="SVGID_13_" gradientUnits="userSpaceOnUse" x1="233.8633" y1="282.0555" x2="192.9766" y2="211.2376" gradientTransform="matrix(0.9899 -0.1416 0.1416 0.9899 -35.7127 32.5044)">
		<stop  offset="0" style="stop-color:#D3D6D6"/>
		<stop  offset="0.6073" style="stop-color:#BDC2C7"/>
		<stop  offset="0.878" style="stop-color:#ABABAB"/>
	</linearGradient>
	<path class="st12" d="M189.8,217.4c-0.9,4.9,0.3,8.8,1.2,12.2c2.4,8.5,3.9,17.3,6,25.9c2,8.1,1.7,6.9,4.6,18.5
		c1.5,5.9,3,11.8,4.5,17.7c2.1,2.4,5.3,3.5,8.3,2.7c3.4-0.9,6-4,6.2-7.7c-2.3-14.1-3-25.5-3.3-33.3c-0.2-6.9-0.4-12.5-0.9-18.5
		c-0.9-12.2-1.3-10.9-1.2-15.5c-0.4-3.4-0.7-6.9-0.9-10.6c-0.2-3-0.3-6-0.3-8.8c-1.1-0.3-2.9-0.6-5.1-0.4c-8,0.5-13,6.6-14.2,8.2
		C193.3,209.5,190.7,212.6,189.8,217.4z"/>
</g>
<g id="Hand">
	
		<linearGradient id="SVGID_14_" gradientUnits="userSpaceOnUse" x1="444.2511" y1="282.6862" x2="472.0927" y2="315.8666" gradientTransform="matrix(-0.9716 0.2367 0.2367 0.9716 584.8221 -90.5956)">
		<stop  offset="0" style="stop-color:#D3D6D6"/>
		<stop  offset="0.6073" style="stop-color:#BDC2C7"/>
	</linearGradient>
	<path class="st13" d="M215,286.7c0.4,4.1,1.2,7.4,1.9,9.6c0.7,2.3,2.1,6.2,3.8,10.2c1.3,3.2,1.6,3.7,1.8,5.1c0.3,2.3-0.4,3-1.2,8
		c-0.6,3.5-0.3,3.6-0.8,5.6c-0.7,2.7-1.1,2.6-2,5.6c-0.9,3.1-0.9,4.9-1.7,5c-0.7,0.1-1.4-1.3-1.5-1.4c-0.9-1.6-0.2-3.3-0.1-3.5
		c0.1-1.1,0.4-2.6,0.9-4.5c0.3-1.1,0.4-1.2,0.5-1.8c0.3-1.6,0.1-2.6-0.2-5.2c-0.4-3.7-0.1-3.7-0.5-4.5c-0.9-1.9-3.6-3.1-3.6-3.1
		c-1.2-1.6-2.5-3.2-3.7-4.7c0-1.6-0.1-4-0.5-6.9c-0.3-2.4-0.7-4-1.8-8.4c-1-3.8-1.8-7.1-2.4-9.6C207.5,283.7,211.2,285.2,215,286.7z
		"/>
	
		<linearGradient id="SVGID_15_" gradientUnits="userSpaceOnUse" x1="440.6562" y1="286.5273" x2="469.3152" y2="320.6818" gradientTransform="matrix(-0.9738 0.2273 0.2273 0.9738 588.394 -88.5976)">
		<stop  offset="0" style="stop-color:#D3D6D6"/>
		<stop  offset="0.6073" style="stop-color:#BDC2C7"/>
	</linearGradient>
	<path class="st14" d="M219.1,289.3c0.4,4.1,1.1,7.4,1.8,9.6c0.7,2.3,2.1,6.2,3.7,10.2c1.3,3.2,1.6,3.7,1.7,5.1c0.2,2.3-0.4,3-1.3,8
		c-0.6,3.5-0.3,3.6-0.9,5.6c-0.7,2.7-1.2,2.6-2,5.6c-0.9,3.1-0.9,4.9-1.7,5c-0.7,0.1-1.4-1.3-1.5-1.4c-0.9-1.6-0.2-3.3-0.1-3.5
		c0.2-1.1,0.4-2.6,0.9-4.5c0.3-1.1,0.4-1.2,0.5-1.8c0.5-2.7-0.1-5.2-0.1-5.2c-0.2-0.8-0.5-1.3-0.9-2.3c-0.6-1.3-0.7-1.2-1.4-2.6
		c-0.9-1.7-0.9-2.3-1.6-2.7c-0.1-0.1-1-0.6-1.6-0.3c-0.4,0.2-0.7,0.8-0.4,3.9c0.2,1.9,0.5,3.5,0.9,6.3c0.1,1,0.3,2.4-0.4,3.6
		c-0.2,0.3-0.5,0.8-0.9,0.8c-0.6,0-1.1-1-2.1-4.2c-0.6-1.7-1.1-3.4-2-6.9c-0.8-3.2-1-4-1.1-5c-0.1-1.4-0.2-2.6-0.1-4.2
		c0.1-1.2,0.2-2.1,0.3-2.9c0.2-1.7,0.4-3.1,0.6-4c0.1-0.5,0.1-0.8,0.2-0.9c0.7-4.2-0.1-11.3-0.1-11.3c-0.2-1.8-0.6-4.2-1.2-7
		C211.8,284.7,215.4,287,219.1,289.3z"/>
	
		<linearGradient id="SVGID_16_" gradientUnits="userSpaceOnUse" x1="435.4607" y1="268.7314" x2="465.0446" y2="303.9883" gradientTransform="matrix(-0.942 0.3357 0.3357 0.942 544.5573 -113.9298)">
		<stop  offset="0" style="stop-color:#D3D6D6"/>
		<stop  offset="0.6073" style="stop-color:#BDC2C7"/>
	</linearGradient>
	<path class="st15" d="M220.1,283.7c0.3,3.3,1,7.2,2.3,11.5c1.2,3.9,2.6,7.3,4,10c0,0,1.3,1.8,2.1,4c0.1,0.3,0.2,0.5,0.2,0.8
		c0.5,2.2-0.1,3-0.4,8c-0.2,3.6,0.1,3.6-0.3,5.7c-0.4,2.7-0.9,2.7-1.4,5.8c-0.6,3.2-0.4,5-1.2,5.2c-0.7,0.2-1.6-1.1-1.7-1.2
		c-1-1.5-0.6-3.3-0.5-3.5c0-1.1,0.1-2.7,0.4-4.6c0.2-1.1,0.2-1.2,0.3-1.8c0.1-1.7-0.2-2.6-0.7-5.1c-0.7-3.7-0.5-3.6-0.9-4.4
		c-1.1-1.8-3.9-2.7-3.9-2.7c-4-1.3-7.7-11.3-8.2-12.8c-1.5-3.9-1.4-5.8-2.3-9c-0.4-1.4-0.6-1.8-1-2.8c-0.2-0.6-0.3-1-0.6-1.7
		c-0.2-0.6-0.4-1.3-0.6-2.2C210.6,283.1,215.4,283.4,220.1,283.7z"/>
</g>
</svg>
