<?xml version="1.0" encoding="utf-8"?>
<!-- Generator: Adobe Illustrator 22.1.0, SVG Export Plug-In . SVG Version: 6.00 Build 0)  -->
<svg version="1.1" id="Layer_1" xmlns="http://www.w3.org/2000/svg" xmlns:xlink="http://www.w3.org/1999/xlink" x="0px" y="0px"
	 viewBox="0 0 576 432" style="enable-background:new 0 0 576 432;" xml:space="preserve">
<style type="text/css">
	.st0{fill:url(#SVGID_1_);}
	.st1{fill:url(#SVGID_2_);}
	.st2{fill:url(#SVGID_3_);}
	.st3{fill:url(#SVGID_4_);}
	.st4{fill:url(#SVGID_5_);}
	.st5{fill:url(#SVGID_6_);}
	.st6{fill:url(#SVGID_7_);}
	.st7{fill:url(#SVGID_8_);}
	.st8{fill:url(#SVGID_9_);}
	.st9{fill:url(#SVGID_10_);}
	.st10{fill:url(#SVGID_11_);}
	.st11{fill:url(#SVGID_12_);}
	.st12{fill:url(#SVGID_13_);}
	.st13{fill:url(#SVGID_14_);}
	.st14{fill:url(#SVGID_15_);}
	.st15{fill:url(#SVGID_16_);}
</style>
<linearGradient id="SVGID_1_" gradientUnits="userSpaceOnUse" x1="288.0159" y1="46.0864" x2="332.1679" y2="46.0864" gradientTransform="matrix(0.8851 -0.4655 0.4655 0.8851 -125.9098 247.1033)">
	<stop  offset="7.317073e-03" style="stop-color:#AAAAAA"/>
	<stop  offset="0.2244" style="stop-color:#AEAEAE"/>
	<stop  offset="0.4431" style="stop-color:#BABABA"/>
	<stop  offset="0.6625" style="stop-color:#CECECE"/>
	<stop  offset="0.8813" style="stop-color:#EAEAEA"/>
	<stop  offset="0.9317" style="stop-color:#F2F2F2"/>
</linearGradient>
<path class="st0" d="M155.5,147.3c-0.4-3.2-0.9-5.9-2.7-8.7c-1.2-1.9-3-3.4-6.4-6.4c-0.8-0.7-1.8-1.4-3.4-2.9
	c-1.4-1.2-2.5-2.3-3.3-3c14.2-2.5,25.3-1.4,32.6,0c12.2,2.3,17.5,6.1,17.4,7.6c-0.1,1.5-3,1.8-3.8,4.6c-0.1,0.5-0.3,1.4,0.7,5.7
	c0.8,3.2,1.1,4.8,1.3,5.3c1.8,4.3,7.6,6,10.4,6.6c-1,2.3-2.9,5.8-6.3,8.8c-5,4.4-11.9,2.1-24.7,5.7c-4.6,1.3-5.3,2-6.7,1.3
	C157.6,170.3,157.8,165.2,155.5,147.3z"/>
<linearGradient id="SVGID_2_" gradientUnits="userSpaceOnUse" x1="304.0843" y1="34.3509" x2="344.8303" y2="0.1611" gradientTransform="matrix(0.8851 -0.4655 0.4655 0.8851 -125.9098 247.1033)">
	<stop  offset="7.317073e-03" style="stop-color:#B0B0AE"/>
	<stop  offset="0.8137" style="stop-color:#E9E9E9"/>
	<stop  offset="0.9317" style="stop-color:#F2F2F2"/>
</linearGradient>
<path class="st1" d="M157.2,83.9c-7.4,2.3-12.3,6.3-13.3,7.2c-4.1,3.5-9.3,7.9-10.6,15.4c-1.3,7.7,2.4,13.7,3.4,15.4
	c1.2,2,4.5,7.3,10.9,9.3c4.6,1.4,8.9,0.6,10.7,0.2c2.3-0.5,4.1-1.2,5.4-1.7c0.5,1.5,1.7,4,4.1,5.8c2.7,2,5.5,2.1,10,2.3
	c3.2,0.1,6.8-0.6,14.1-2c3.7-0.7,5.8-1.2,7.1-3.1c0.9-1.4,1-2.9,1-4.1c0.1-2.7-0.8-3.6-2.1-7.9c-1.6-5.3-2.2-5.8-2.2-7.3
	c0.1-2.1,0.8-2.7,0.2-3.9c-0.6-1.3-1.9-1.2-5.1-3c-2-1.1-3-1.7-3.5-2.7c-0.8-1.6,0.3-2.7,0.1-4.8c-0.1-0.8-0.4-2-4.1-6
	c-3.2-3.4-4.8-5.1-7.6-6.9c-2-1.3-4-2.7-7-3.3C164.2,81.8,160.5,82.9,157.2,83.9z"/>
<linearGradient id="SVGID_3_" gradientUnits="userSpaceOnUse" x1="360.7078" y1="22.581" x2="360.7078" y2="22.581" gradientTransform="matrix(0.8211 -0.5708 0.5708 0.8211 -109.0322 286.2319)">
	<stop  offset="7.317073e-03" style="stop-color:#AAAAAA"/>
	<stop  offset="0.9317" style="stop-color:#F2F2F2"/>
</linearGradient>
<path class="st2" d="M200,98.9"/>
<linearGradient id="SVGID_4_" gradientUnits="userSpaceOnUse" x1="316.4272" y1="30.2296" x2="316.4272" y2="30.2296" gradientTransform="matrix(0.9579 -0.2872 0.2872 0.9579 -144.1846 195.2036)">
	<stop  offset="7.317073e-03" style="stop-color:#AAAAAA"/>
	<stop  offset="0.9317" style="stop-color:#F2F2F2"/>
</linearGradient>
<path class="st3" d="M167.6,133.3"/>
<linearGradient id="SVGID_5_" gradientUnits="userSpaceOnUse" x1="131.627" y1="281.9521" x2="86.0948" y2="281.9521" gradientTransform="matrix(-0.6369 -0.7709 0.7709 -0.6369 193.3095 477.0252)">
	<stop  offset="0" style="stop-color:#ABABAB"/>
	<stop  offset="0.3463" style="stop-color:#D3D6D6"/>
	<stop  offset="0.8171" style="stop-color:#BDC2C7"/>
	<stop  offset="1" style="stop-color:#ABABAB"/>
</linearGradient>
<path class="st4" d="M323.9,253c0.5,0,1,0,1.5-0.1c7.7-1.5,11.9-6.1,22.8-17.6c1.6-1.7,5.8-6.1,14.3-14.9c1.9-2,4.3-4.5,6-6.3
	c4.1-4.3,7.4-7.8,9.7-10.1c0.6-0.9,1.4-2.1,2-3.8c0.3-0.8,1.5-4.3,0.8-8c-1.3-7-9.6-10.2-12.2-11.2c-2.1-0.8-5.5-2.1-9.6-1.5
	c-3.2,0.4-4.8,1.6-11,5.9c-11.3,7.8-17.4,11.5-20.6,13.4c-2.8,1.7-2.1,1.1-5.1,2.9c-15.7,9.5-19.3,13.5-21.4,18.6
	c-0.3,0.7-0.6,1.3-0.8,2.2C297.4,235.1,311.5,253.1,323.9,253z"/>
<linearGradient id="SVGID_6_" gradientUnits="userSpaceOnUse" x1="278.5303" y1="216.3772" x2="358.7819" y2="216.3772" gradientTransform="matrix(-0.6369 -0.7709 0.7709 -0.6369 325.8799 637.4789)">
	<stop  offset="0" style="stop-color:#363233"/>
	<stop  offset="1" style="stop-color:#000000"/>
</linearGradient>
<path class="st5" d="M252.7,304.3c0,0,13.2,6.7,32.7,0.5c5.9-1.8,10.3-4.6,11.3-5.2c7.3-4.4,11.5-9.8,13.3-12.1
	c3.6-4.7,5.6-8.9,6.8-11.4c1.5-3.2,2.5-6.1,3.2-8.3c1.1-1.4,2.8-3.4,4.9-5.8c5.4-6.1,9.2-9.5,13.4-13.6c3.1-3.1,7.5-7.6,12.6-13.6
	c-0.7-1.7-1.8-4-3.2-6.6c-2.8-5.1-6.9-12.8-14.9-19.2c-2.5-2-6.6-4.8-12.2-7.1c-8.3,5-14.9,9.2-19.5,12.1c-3.9,2.5-7.4,4.9-14.8,9.6
	c-5.2,3.4-7.8,5-9.2,5.9c-8.2,5-14.7,7.8-27.1,13.2c-12.8,5.6-15.5,3.8-18.2,7.5c-4.4,6.2-1.6,15.1,0.9,23.4
	C236.5,285.4,240.4,298,252.7,304.3z"/>
<linearGradient id="SVGID_7_" gradientUnits="userSpaceOnUse" x1="654.7104" y1="445.098" x2="654.7104" y2="407.1979" gradientTransform="matrix(-0.423 -0.9061 0.9061 -0.423 338.1874 880.4767)">
	<stop  offset="0" style="stop-color:#ABABAB"/>
	<stop  offset="0.3463" style="stop-color:#D3D6D6"/>
	<stop  offset="1" style="stop-color:#C5C8C9"/>
</linearGradient>
<path class="st6" d="M440.9,137.7c2.2-0.6,5.4-1.2,9.1-1.2c3.3,0,6.1,0.6,8.2,1.1c5.3,0.1,9.1-1.3,11.4-2.3c3.7-1.7,4.6-3.2,4.9-3.7
	c0.5-0.9,1.1-2.5,0-7.4c-1.6-7.4-4.9-12.6-5.8-14c-2.3-3.5-2.7-3.1-4.2-5.8c-2.5-4.4-1.8-6.3-3.5-12.2c-2.9-10.3-6.6-10.8-9.4-19
	c-0.3-0.8-1-3-2.9-3.9c-1.1-0.5-2.7-0.7-3.7,0.1c-1.6,1.3-0.6,4.8,0.2,8.1c0,0,2,8.2,2.7,16.4c0.4,5.1,0.9,11.1-2.1,17.3
	c-1.6,3.2-2.7,3.4-4.2,6C439.3,121,437.7,127.1,440.9,137.7z"/>
<linearGradient id="SVGID_8_" gradientUnits="userSpaceOnUse" x1="405.0389" y1="366.1933" x2="365.7629" y2="366.1933" gradientTransform="matrix(-0.6694 -0.7429 0.7429 -0.6694 391.5221 694.1111)">
	<stop  offset="0" style="stop-color:#ABABAB"/>
	<stop  offset="0.3463" style="stop-color:#D3D6D6"/>
	<stop  offset="0.8171" style="stop-color:#BDC2C7"/>
	<stop  offset="1" style="stop-color:#ABABAB"/>
</linearGradient>
<path class="st7" d="M375.1,207.6c12.4-3.4,20.2-8.9,25.1-13.6c4.6-4.5,3.4-5,15.6-21.7c0,0,7.6-10.5,17.3-22.3
	c6.1-7.5,4.9-5.4,10.2-12c0.2-0.3,1.7-2,2.6-2.9c1.4-1.4,3.8-3.3,7.8-4.9c0.1-0.8,0.9-5.1-2-8.9c-2.5-3.4-6.9-5-11.3-4.3
	c-1.4,1.1-3.4,2.9-5.9,5c-7.7,6.6-12.4,10.8-14.5,12.4c-3.8,3.1-9.5,7.6-23.5,17.4c-15.6,11-16.4,11-24.3,16.8
	c-6.2,4.5-15.2,11.4-25.8,20.9C356,195.6,365.5,201.6,375.1,207.6z"/>
<linearGradient id="SVGID_9_" gradientUnits="userSpaceOnUse" x1="274.0819" y1="457.177" x2="274.0819" y2="457.177" gradientTransform="matrix(-0.4516 -0.8922 0.8922 -0.4516 234.4673 621.5248)">
	<stop  offset="0" style="stop-color:#ABABAB"/>
	<stop  offset="0.3463" style="stop-color:#D3D6D6"/>
	<stop  offset="0.8171" style="stop-color:#BDC2C7"/>
	<stop  offset="1" style="stop-color:#ABABAB"/>
</linearGradient>
<path class="st8" d="M518.6,170.5"/>
<linearGradient id="SVGID_10_" gradientUnits="userSpaceOnUse" x1="333.1481" y1="299.0242" x2="333.1481" y2="299.0242" gradientTransform="matrix(-0.6369 -0.7709 0.7709 -0.6369 325.8799 637.4789)">
	<stop  offset="0" style="stop-color:#ABABAB"/>
	<stop  offset="0.3463" style="stop-color:#D3D6D6"/>
	<stop  offset="0.8171" style="stop-color:#BDC2C7"/>
	<stop  offset="1" style="stop-color:#ABABAB"/>
</linearGradient>
<path class="st9" d="M344.2,190.2"/>
<linearGradient id="SVGID_11_" gradientUnits="userSpaceOnUse" x1="276.9213" y1="122.7969" x2="345.2311" y2="122.7969" gradientTransform="matrix(0.7753 -0.6316 0.6485 0.7959 -103.5057 307.7363)">
	<stop  offset="0" style="stop-color:#363233"/>
	<stop  offset="1" style="stop-color:#000000"/>
</linearGradient>
<path class="st10" d="M154.9,160.4c2.4,0.5,6.6,1.1,11.4-0.3c3.8-1.1,6.2-2.9,8.8-5c3-2.3,7.4-6.3,11.5-12.5
	c8.5,3.5,15.7,7.1,21.5,10.3c4.6,2.5,6.9,3.8,9.6,5.7c1.6,1.2,9.1,6.8,16.5,17.6c1.6,2.3,1.7,2.8,2.8,4.8c0.8,1.5,1.5,2.6,3.3,5.6
	c5.8,9.4,7.5,12.6,10.3,16.9c3.2,4.9,5.8,8.1,12.3,15.9c6.7,8,14.8,17.6,24.3,28.6c-4.7,5.8-11.3,12.8-20.2,19.4
	c-11.8,8.9-23.3,13.8-31.6,16.7c-1-2.6-2.5-6.4-4.8-10.8c-6.8-12.9-15.1-21.7-22.2-29c-0.7-0.7-4.1-4.1-11-10.8
	c-2.9-2.9-6.8-6.6-11.9-11.7c-7.3-7.3-10.5-10.5-14.6-15.5c-6-7.4-10.4-13-13.5-21.3C156,180.5,153.7,171.9,154.9,160.4z"/>
<linearGradient id="SVGID_12_" gradientUnits="userSpaceOnUse" x1="338.1012" y1="105.2254" x2="393.2289" y2="170.924" gradientTransform="matrix(0.2216 -0.9751 0.9751 0.2216 8.4356 515.3485)">
	<stop  offset="0" style="stop-color:#D3D6D6"/>
	<stop  offset="0.6073" style="stop-color:#BDC2C7"/>
	<stop  offset="0.878" style="stop-color:#9C9C9C"/>
</linearGradient>
<path class="st11" d="M171.3,173.5c0.1,1.7,0.4,4.1,1.1,6.9c0.8,3.1,1.3,5.2,2.8,7.6c1.6,2.5,3.4,3.9,5.5,5.5
	c3.2,2.4,6.2,3.7,8.4,4.6c1,0.4,2.6,1,5.1,1.8c0,0,2.1,0.7,4.2,1.2c6.5,1.6,12.8,1.6,22.4,3.3c1.3,0.2,2.5,0.5,4.9,1
	c8.6,1.8,14.7,3.4,16.3,3.8c5.1,1.3,13.3,2.9,27,4.2c1.3-0.5,3.4-1.4,5.1-3.4c3.5-4.2,3.1-10.5,1.3-14.5c-2.4-5.2-7.5-7.2-17.6-11.1
	c-5.7-2.2-10.2-3.4-15.4-4.6c-12.9-3.1-12.9-2-20.3-4.4c-5.6-1.8-5.3-2.3-16.3-6.4c-6.5-2.4-9.6-3.9-13.5-4.4
	c-4.2-0.6-12.4-1.8-17.7,3.2C172.8,169.8,171.8,172,171.3,173.5z"/>
<linearGradient id="SVGID_13_" gradientUnits="userSpaceOnUse" x1="372.861" y1="263.7201" x2="331.9743" y2="192.9022" gradientTransform="matrix(3.449795e-02 -0.9994 0.9994 3.449795e-02 55.414 540.9212)">
	<stop  offset="0" style="stop-color:#D3D6D6"/>
	<stop  offset="0.6073" style="stop-color:#BDC2C7"/>
	<stop  offset="0.878" style="stop-color:#ABABAB"/>
</linearGradient>
<path class="st12" d="M263.6,211.8c4.7,1.7,8.7,1.3,12.2,0.9c8.8-0.8,17.7-0.8,26.5-1.4c8.3-0.6,7.1-0.4,19-1.2
	c6.1-0.4,12.2-0.8,18.2-1.3c2.7-1.6,4.4-4.6,4.2-7.6c-0.2-3.5-2.9-6.6-6.5-7.4c-14.3-0.2-25.7-1.5-33.4-2.6
	c-6.8-1-12.4-1.8-18.3-2.4c-12.2-1.2-11-0.6-15.5-1.5c-3.4-0.2-6.9-0.6-10.6-1c-3-0.4-5.9-0.8-8.7-1.2c-0.5,1.1-1.1,2.8-1.3,5
	c-0.9,7.9,4.3,14,5.5,15.5C256.3,207,259,210.1,263.6,211.8z"/>
<linearGradient id="SVGID_14_" gradientUnits="userSpaceOnUse" x1="642.6376" y1="258.4991" x2="670.4791" y2="291.6794" gradientTransform="matrix(6.596860e-02 0.9978 0.9978 -6.596860e-02 39.1824 -431.5768)">
	<stop  offset="0" style="stop-color:#D3D6D6"/>
	<stop  offset="0.6073" style="stop-color:#D8D8DB"/>
</linearGradient>
<path class="st13" d="M336.1,197.2c4.1,0.3,7.5,0.1,9.8-0.2c2.4-0.3,6.5-1,10.7-2c3.3-0.7,3.9-1,5.3-0.9c2.3,0.1,2.9,0.9,7.6,2.6
	c3.4,1.2,3.5,0.9,5.4,1.8c2.5,1.1,2.4,1.6,5.2,2.9c2.9,1.4,4.7,1.7,4.6,2.5c0,0.7-1.5,1.2-1.6,1.3c-1.8,0.6-3.3-0.4-3.5-0.5
	c-1-0.3-2.5-0.8-4.3-1.7c-1-0.5-1.1-0.6-1.7-0.8c-1.6-0.6-2.6-0.5-5.1-0.7c-3.7-0.3-3.6-0.6-4.5-0.3c-2,0.6-3.7,3-3.7,3
	c-1.8,1-3.5,1.9-5.3,2.9c-1.6-0.3-4-0.6-6.9-0.7c-2.4-0.1-4.1,0-8.6,0.4c-3.9,0.3-7.3,0.5-9.9,0.8
	C331.9,204.1,334,200.7,336.1,197.2z"/>
<linearGradient id="SVGID_15_" gradientUnits="userSpaceOnUse" x1="638.5735" y1="263.5623" x2="667.2326" y2="297.7168" gradientTransform="matrix(5.629847e-02 0.9984 0.9984 -5.629847e-02 42.5042 -434.0979)">
	<stop  offset="0" style="stop-color:#D3D6D6"/>
	<stop  offset="0.6073" style="stop-color:#D8D8DB"/>
</linearGradient>
<path class="st14" d="M339.5,193.6c4.1,0.4,7.5,0.2,9.8-0.1c2.4-0.3,6.5-1,10.7-1.8c3.3-0.7,3.9-0.9,5.3-0.8
	c2.3,0.2,2.8,0.9,7.6,2.6c3.4,1.2,3.5,1,5.4,1.8c2.5,1.2,2.3,1.6,5.2,3c2.9,1.4,4.7,1.8,4.6,2.6c0,0.7-1.5,1.2-1.7,1.2
	c-1.8,0.6-3.3-0.4-3.5-0.5c-1-0.3-2.5-0.9-4.3-1.7c-1-0.5-1.1-0.6-1.7-0.8c-2.6-1-5.1-0.8-5.1-0.8c-0.8,0.1-1.4,0.2-2.4,0.5
	c-1.4,0.4-1.3,0.5-2.8,0.9c-1.9,0.6-2.4,0.5-3,1.1c-0.1,0.1-0.7,0.9-0.5,1.5c0.1,0.4,0.7,0.9,3.8,1.1c1.9,0.1,3.5,0.1,6.4,0.2
	c1,0,2.4,0.1,3.4,1.1c0.3,0.2,0.7,0.6,0.6,1c-0.1,0.6-1.2,0.9-4.5,1.4c-1.8,0.3-3.5,0.5-7.2,0.8c-3.3,0.3-4.1,0.3-5.1,0.2
	c-1.4-0.1-2.6-0.3-4.1-0.6c-1.1-0.3-2.1-0.5-2.8-0.8c-1.6-0.5-3-1-3.8-1.3c-0.4-0.2-0.7-0.3-0.8-0.3c-4-1.4-11.2-1.8-11.2-1.8
	c-1.8-0.1-4.3-0.2-7.1-0.1C333.6,200,336.5,196.8,339.5,193.6z"/>
<linearGradient id="SVGID_16_" gradientUnits="userSpaceOnUse" x1="451.4918" y1="262.8172" x2="481.0758" y2="298.0741" gradientTransform="matrix(0.165 -0.9863 0.9863 0.165 2.8319 614.4286)">
	<stop  offset="0" style="stop-color:#D3D6D6"/>
	<stop  offset="0.6073" style="stop-color:#D8D8DB"/>
</linearGradient>
<path class="st15" d="M334.1,208.4c3.3-0.2,7.2-0.3,11.7,0.3c4.1,0.5,7.7,1.3,10.6,2.2c0,0,2.1,1,4.3,1.3c0.3,0,0.5,0.1,0.9,0.1
	c2.3,0.1,2.9-0.6,7.9-1.8c3.5-0.8,3.5-0.6,5.5-1.2c2.6-0.9,2.5-1.3,5.4-2.4c3-1.1,4.8-1.2,4.9-2c0-0.7-1.4-1.4-1.5-1.4
	c-1.7-0.8-3.3,0-3.5,0.1c-1,0.2-2.6,0.6-4.4,1.2c-1,0.4-1.1,0.4-1.7,0.6c-1.6,0.4-2.6,0.3-5.2,0.2c-3.8-0.1-3.7,0.2-4.5-0.1
	c-2-0.8-3.4-3.3-3.4-3.3c-2-3.7-12.5-5.6-14.1-5.9c-4.1-0.7-6-0.4-9.2-0.7c-1.5-0.1-1.9-0.3-2.9-0.5c-0.6-0.1-1-0.2-1.8-0.3
	c-0.6-0.1-1.4-0.1-2.3-0.2C331.9,199.2,333,203.8,334.1,208.4z"/>
</svg>
