<?xml version="1.0" encoding="utf-8"?>
<!-- Generator: Adobe Illustrator 22.1.0, SVG Export Plug-In . SVG Version: 6.00 Build 0)  -->
<svg version="1.1" id="Layer_1" xmlns="http://www.w3.org/2000/svg" xmlns:xlink="http://www.w3.org/1999/xlink" x="0px" y="0px"
	 viewBox="0 0 432 576" style="enable-background:new 0 0 432 576;" xml:space="preserve">
<style type="text/css">
	.st0{fill:url(#SVGID_1_);}
	.st1{fill:url(#SVGID_2_);}
	.st2{fill:url(#SVGID_3_);}
	.st3{fill:url(#SVGID_4_);}
	.st4{fill:url(#SVGID_5_);}
	.st5{fill:url(#SVGID_6_);}
	.st6{fill:url(#SVGID_7_);}
	.st7{fill:url(#SVGID_8_);}
	.st8{fill:url(#SVGID_9_);}
	.st9{fill:url(#SVGID_10_);}
	.st10{fill:url(#SVGID_11_);}
	.st11{fill:url(#SVGID_12_);}
	.st12{fill:url(#SVGID_13_);}
	.st13{fill:url(#SVGID_14_);}
	.st14{fill:url(#SVGID_15_);}
	.st15{fill:url(#SVGID_16_);}
	.st16{fill:url(#SVGID_17_);}
	.st17{fill:url(#SVGID_18_);}
	.st18{fill:url(#SVGID_19_);}
	.st19{fill:url(#SVGID_20_);}
	.st20{fill:url(#SVGID_21_);}
	.st21{fill:url(#SVGID_22_);}
	.st22{fill:url(#SVGID_23_);}
	.st23{fill:url(#SVGID_24_);}
</style>
<linearGradient id="SVGID_1_" gradientUnits="userSpaceOnUse" x1="201.0064" y1="313.5713" x2="155.4742" y2="313.5713" gradientTransform="matrix(3.456647e-02 -0.9994 0.9994 3.456647e-02 -20.3201 506.4438)">
	<stop  offset="0" style="stop-color:#ABABAB"/>
	<stop  offset="0.3463" style="stop-color:#D3D6D6"/>
	<stop  offset="0.8171" style="stop-color:#BDC2C7"/>
	<stop  offset="1" style="stop-color:#ABABAB"/>
</linearGradient>
<path class="st0" d="M261.2,357.2c0.4,0.3,0.8,0.6,1.2,0.9c6.8,4,12.9,3.3,28.7,1.9c2.4-0.2,8.4-0.7,20.6-1.7
	c2.7-0.2,6.2-0.5,8.7-0.7c5.9-0.5,10.7-0.9,13.9-1.1c7.9-6.8,11.1-16.3,8.3-23.4c-1.8-4.6-5.9-7.3-6.2-7.5
	c-2.7-1.8-4.7-1.9-12.1-2.9c-13.6-1.7-20.7-2.9-24.4-3.6c-3.2-0.6-2.3-0.5-5.7-1.2c-18.1-3.3-23.4-2.7-28.3-0.3
	c-0.7,0.4-1.3,0.6-2.1,1.2C253.2,326.2,251.8,349,261.2,357.2z"/>
<linearGradient id="SVGID_2_" gradientUnits="userSpaceOnUse" x1="412.4615" y1="390.958" x2="375.6691" y2="390.958" gradientTransform="matrix(1 0 0 1 -69.3003 0)">
	<stop  offset="0" style="stop-color:#ABABAB"/>
	<stop  offset="0.3463" style="stop-color:#D3D6D6"/>
	<stop  offset="0.8171" style="stop-color:#BDC2C7"/>
	<stop  offset="1" style="stop-color:#ABABAB"/>
</linearGradient>
<path class="st1" d="M312.6,341.9c-5.4,10.7-6.5,19.5-6.2,25.8c0.2,6,1.3,5.4,5.3,24.3c0,0,2.5,11.8,4.7,25.8
	c1.4,8.8,0.7,6.7,2,14.5c0,0.3,0.3,2.4,0.4,3.7c0.1,1.8,0,4.7-1.5,8.4c0.4,0.6,3,3.8,7.4,4.2c3.9,0.4,7.8-1.6,10.1-5.1
	c0.1-1.6,0.1-4.2,0.2-7.2c0.3-9.4,0.3-15.3,0.4-17.7c0.2-4.6,0.7-11.3,2.6-27.1c2.1-17.6,2.6-18.2,3.6-27.3
	c0.7-7.1,1.6-17.6,1.6-30.8C333,336.2,322.8,339.1,312.6,341.9z"/>
<linearGradient id="SVGID_3_" gradientUnits="userSpaceOnUse" x1="671.2106" y1="474.2728" x2="671.2106" y2="430.6693" gradientTransform="matrix(1 0 0 1 -327.2092 0)">
	<stop  offset="0" style="stop-color:#ABABAB"/>
	<stop  offset="0.3463" style="stop-color:#D3D6D6"/>
	<stop  offset="1" style="stop-color:#C5C8C9"/>
</linearGradient>
<path class="st2" d="M318.9,439c-0.4,2.1-1.2,5-2.8,8.1c-1.4,2.8-3.1,5-4.5,6.5c-2.3,4.4-2.7,8.2-2.8,10.5c-0.1,3.8,0.9,5.1,1.3,5.6
	c0.6,0.7,1.8,1.9,6.8,2.9c7.4,1.5,13.5,0.8,15.1,0.6c4.2-0.6,3.9-1.1,7-1.3c5-0.4,6.5,0.9,12.5,1.9c10.5,1.6,12.6-1.3,21.3-0.5
	c0.9,0.1,3.1,0.3,4.8-0.9c0.9-0.7,1.8-2,1.5-3.1c-0.5-1.9-4.1-2.4-7.4-3c0,0-8.3-1.6-16-4.2c-4.8-1.6-10.4-3.6-14.8-8.6
	c-0.4-0.5-2.2-2.6-3.7-5.9c-3.1-6.8-2.7-13.3-2.1-16.9C329.7,433.5,324.3,436.3,318.9,439z"/>
<linearGradient id="SVGID_4_" gradientUnits="userSpaceOnUse" x1="190.4002" y1="255.542" x2="190.6499" y2="169.0821" gradientTransform="matrix(2.887784e-03 -1 -1 -2.887784e-03 487.2676 532.4977)">
	<stop  offset="0" style="stop-color:#363233"/>
	<stop  offset="1" style="stop-color:#000000"/>
</linearGradient>
<path class="st3" d="M234.2,358.2c2.7,6.6,7,9.9,9.1,11.5c11.4,8.5,24.7,4.2,26.7,3.6c1.8-0.6,5.7-2,11.8-3.7
	c1.5-0.4,3.4-0.9,5.8-1.4c3.9-0.8,5.7-0.8,14.7-1.9c1.8-0.2,3.2-0.4,4.1-0.5c4.6-4.9,7.1-9.7,8.5-12.8c1.4-3.1,4.5-10.6,3.6-20.6
	c-0.5-5.9-2.4-10.5-3.7-13.3c-7.4-1.5-13.4-2.5-17.6-3.1c-3.6-0.5-6.9-1-13.5-2.1c-6-1-6.3-1.1-8.3-1.4c-4.8-0.7-20.9-1.1-20.9-1.1
	c-4.2-0.1-10.2-0.8-17.7-3.6c-3,12-4,22.1-4.3,29.1C231.8,350.4,232.9,355.1,234.2,358.2z"/>
<linearGradient id="SVGID_5_" gradientUnits="userSpaceOnUse" x1="315.6612" y1="484.0652" x2="315.6612" y2="484.0652">
	<stop  offset="0" style="stop-color:#ABABAB"/>
	<stop  offset="0.3463" style="stop-color:#D3D6D6"/>
	<stop  offset="0.8171" style="stop-color:#BDC2C7"/>
	<stop  offset="1" style="stop-color:#ABABAB"/>
</linearGradient>
<path class="st4" d="M315.7,484.1"/>
<linearGradient id="SVGID_6_" gradientUnits="userSpaceOnUse" x1="345.7157" y1="332.1439" x2="345.7157" y2="332.1439">
	<stop  offset="0" style="stop-color:#ABABAB"/>
	<stop  offset="0.3463" style="stop-color:#D3D6D6"/>
	<stop  offset="0.8171" style="stop-color:#BDC2C7"/>
	<stop  offset="1" style="stop-color:#ABABAB"/>
</linearGradient>
<path class="st5" d="M345.7,332.1"/>
<linearGradient id="SVGID_7_" gradientUnits="userSpaceOnUse" x1="240.3381" y1="162.5248" x2="288.9925" y2="162.5248">
	<stop  offset="7.317073e-03" style="stop-color:#AAAAAA"/>
	<stop  offset="0.2244" style="stop-color:#AEAEAE"/>
	<stop  offset="0.4431" style="stop-color:#BABABA"/>
	<stop  offset="0.6625" style="stop-color:#CECECE"/>
	<stop  offset="0.8813" style="stop-color:#EAEAEA"/>
	<stop  offset="0.9317" style="stop-color:#F2F2F2"/>
</linearGradient>
<path class="st6" d="M252.4,159c0.3-0.7,2-4.2,1.7-9c-0.2-2.3-1-4.4-2.7-8.7c-0.4-1-0.9-2.1-1.7-4.1c-0.7-1.8-1.2-3.2-1.5-4.2
	c13.7,4.4,23,10.5,28.8,15.1c9.7,7.7,12.6,13.6,11.8,14.8c-0.8,1.2-3.5,0.2-5.5,2.3c-0.3,0.4-0.9,1.1-2,5.3
	c-0.8,3.2-1.3,4.8-1.3,5.3c-0.4,4.7,3.9,8.8,6.2,10.7c-2,1.6-5.2,3.8-9.7,4.8c-8.9,2.1-16.3-2-24.5-6.5c-6.3-3.5-11.8-6.5-11.7-10.4
	c0.1-1.7,2.5-4.4,7.4-9.9C250.6,161.5,251.4,160.9,252.4,159z"/>
<linearGradient id="SVGID_8_" gradientUnits="userSpaceOnUse" x1="260.9089" y1="150.6446" x2="301.6548" y2="116.4548">
	<stop  offset="7.317073e-03" style="stop-color:#B0B0AE"/>
	<stop  offset="0.8137" style="stop-color:#E9E9E9"/>
	<stop  offset="0.9317" style="stop-color:#F2F2F2"/>
</linearGradient>
<path class="st7" d="M283.4,103.6c-7.7-1.4-13.8-0.1-15.2,0.2c-5.3,1.2-11.9,2.7-16.5,8.7c-4.7,6.2-4.3,13.2-4.2,15.2
	c0.1,2.3,0.6,8.6,5.3,13.3c3.4,3.4,7.6,4.7,9.3,5.2c2.2,0.7,4.2,0.9,5.6,1c-0.2,1.6-0.4,4.3,0.9,7c1.4,3,3.9,4.4,7.8,6.7
	c2.8,1.6,6.3,2.6,13.5,4.8c3.6,1.1,5.7,1.6,7.7,0.5c1.5-0.8,2.2-2.1,2.8-3.2c1.3-2.3,1-3.6,1.8-8c1-5.5,0.7-6.2,1.5-7.5
	c1-1.8,2-2.1,2-3.3c0-1.4-1.1-1.9-3.2-5c-1.3-1.9-1.9-2.9-1.8-4c0.1-1.8,1.5-2.2,2.3-4.2c0.3-0.7,0.6-1.9-0.8-7.2
	c-1.2-4.5-1.9-6.8-3.5-9.7c-1.2-2-2.3-4.3-4.7-6.2C290.5,105,286.7,104.3,283.4,103.6z"/>
<linearGradient id="SVGID_9_" gradientUnits="userSpaceOnUse" x1="306.3688" y1="144.8023" x2="306.3688" y2="144.8023">
	<stop  offset="7.317073e-03" style="stop-color:#AAAAAA"/>
	<stop  offset="0.9317" style="stop-color:#F2F2F2"/>
</linearGradient>
<path class="st8" d="M306.4,144.8"/>
<linearGradient id="SVGID_10_" gradientUnits="userSpaceOnUse" x1="253.5355" y1="152.9689" x2="253.5355" y2="152.9689">
	<stop  offset="7.317073e-03" style="stop-color:#AAAAAA"/>
	<stop  offset="0.9317" style="stop-color:#F2F2F2"/>
</linearGradient>
<path class="st9" d="M253.5,153"/>
<linearGradient id="SVGID_11_" gradientUnits="userSpaceOnUse" x1="26.1581" y1="383.0417" x2="-19.3741" y2="383.0417" gradientTransform="matrix(0.8744 0.4852 -0.4852 0.8744 389.2083 89.2975)">
	<stop  offset="0" style="stop-color:#ABABAB"/>
	<stop  offset="0.3463" style="stop-color:#D3D6D6"/>
	<stop  offset="0.8171" style="stop-color:#BDC2C7"/>
	<stop  offset="1" style="stop-color:#ABABAB"/>
</linearGradient>
<path class="st10" d="M208.2,382.8c-0.5,0.2-0.9,0.4-1.3,0.7c-6.6,4.2-8.8,10-14.7,24.7c-0.9,2.2-3.2,7.8-7.8,19.1
	c-1,2.5-2.4,5.8-3.3,8c-2.3,5.5-4.1,9.9-5.3,12.9c-0.3,1-0.5,2.5-0.5,4.3c0,0.9,0.1,4.6,2.1,7.8c3.8,6,12.6,6,15.4,6
	c2.3,0,5.9-0.1,9.5-2.1c2.8-1.6,3.8-3.3,8.1-9.5c7.7-11.4,12-17.1,14.3-20.1c2-2.6,1.5-1.8,3.6-4.6c11.2-14.6,13.1-19.6,13.1-25.1
	c0-0.8,0-1.4-0.1-2.4C239.4,389.7,219.7,378.1,208.2,382.8z"/>
<linearGradient id="SVGID_12_" gradientUnits="userSpaceOnUse" x1="173.0615" y1="312.5532" x2="241.278" y2="312.5532" gradientTransform="matrix(0.8744 0.4852 -0.4852 0.8744 207.2087 -11.6799)">
	<stop  offset="0" style="stop-color:#363233"/>
	<stop  offset="1" style="stop-color:#000000"/>
</linearGradient>
<path class="st11" d="M233.9,311.8c-0.7,1.1-1.8,2.6-3.4,4.2c-2.3,2.3-4.3,3.6-5.4,4.4c-3.8,2.7-6.2,5.8-8.6,8.9
	c-5.2,6.8-7.2,13.3-8,16.2c-1.7,5.7-2,10.3-2.1,13.1c-0.2,3.6-0.1,6.6,0.1,8.9c-0.5,1.7-1.3,4.2-2.4,7.2c-2.8,7.6-5.1,12.2-7.5,17.6
	c-1.8,4-4.2,9.8-6.7,17.3c1.3,1.3,3.1,3.1,5.4,5c4.4,3.8,11.1,9.4,20.8,12.5c3.1,1,7.9,2.1,14,2.2c5.9-7.7,10.6-14,13.8-18.4
	c2.7-3.8,5.1-7.3,10.2-14.3c4.6-6.3,4.9-6.6,6.4-8.8c2-2.9,9.2-13.8,14-23.1c10.4-20.3,17.3-47.1,17.9-49.3
	C272.7,314.1,253.3,313,233.9,311.8z"/>
<linearGradient id="SVGID_13_" gradientUnits="userSpaceOnUse" x1="199.0648" y1="532.6617" x2="199.0648" y2="532.6617">
	<stop  offset="0" style="stop-color:#ABABAB"/>
	<stop  offset="0.3463" style="stop-color:#D3D6D6"/>
	<stop  offset="0.8171" style="stop-color:#BDC2C7"/>
	<stop  offset="1" style="stop-color:#ABABAB"/>
</linearGradient>
<path class="st12" d="M199.1,532.7"/>
<linearGradient id="SVGID_14_" gradientUnits="userSpaceOnUse" x1="278.84" y1="436.2975" x2="278.84" y2="436.2975">
	<stop  offset="0" style="stop-color:#ABABAB"/>
	<stop  offset="0.3463" style="stop-color:#D3D6D6"/>
	<stop  offset="0.8171" style="stop-color:#BDC2C7"/>
	<stop  offset="1" style="stop-color:#ABABAB"/>
</linearGradient>
<path class="st13" d="M278.8,436.3"/>
<linearGradient id="SVGID_15_" gradientUnits="userSpaceOnUse" x1="228.5331" y1="241.5345" x2="296.8429" y2="241.5345" gradientTransform="matrix(1 0 0 1.0267 0 -2.9584)">
	<stop  offset="0" style="stop-color:#363233"/>
	<stop  offset="1" style="stop-color:#000000"/>
</linearGradient>
<path class="st14" d="M245,168c1.5,1.9,4.4,5.1,9,7c3.6,1.5,6.6,1.6,10,1.7c3.8,0.1,9.7-0.2,16.8-2.4c4.4,8.1,7.7,15.5,10.2,21.5
	c2,4.8,3,7.3,3.8,10.5c0.5,1.9,2.8,11,1.7,24.1c-0.2,2.8-0.4,3.2-0.8,5.5c-0.3,1.7-0.5,3-1,6.4c-1.5,10.9-2.2,14.5-2.7,19.6
	c-0.6,5.8-0.6,10-0.5,20.1c0.1,10.4,0.4,23,0.7,37.5c-7.3,1.5-16.8,2.8-27.9,2.3c-14.8-0.6-26.8-4-35-7c0.9-2.6,2.1-6.5,3.1-11.4
	c2.9-14.3,2-26.4,1.1-36.5c-0.1-0.9-0.6-5.7-1.7-15.3c-0.5-4.1-1.1-9.4-1.8-16.5c-1.1-10.3-1.5-14.8-1.5-21.2c0.1-9.5,0.1-16.7,3-25
	C233.2,184.2,236.8,176.1,245,168z"/>
<linearGradient id="SVGID_16_" gradientUnits="userSpaceOnUse" x1="229.2918" y1="198.2827" x2="284.4195" y2="263.9813" gradientTransform="matrix(0.9997 2.347968e-02 -2.347968e-02 0.9997 5.8781 -3.555)">
	<stop  offset="0" style="stop-color:#D3D6D6"/>
	<stop  offset="0.6073" style="stop-color:#BDC2C7"/>
	<stop  offset="0.878" style="stop-color:#9C9C9C"/>
</linearGradient>
<path class="st15" d="M262.3,178.7c-1.6,0.5-3.9,1.2-6.5,2.5c-2.9,1.4-4.9,2.3-6.8,4.2c-2.1,2.1-3.1,4.1-4.3,6.5
	c-1.7,3.6-2.4,6.8-2.9,9.1c-0.2,1.1-0.5,2.7-0.8,5.4c0,0-0.2,2.2-0.3,4.4c-0.3,6.7,1,12.8,1.2,22.6c0,1.3,0,2.5,0,5
	c-0.1,8.8-0.4,15.1-0.5,16.8c-0.3,5.2-0.2,13.6,1.3,27.3c0.7,1.2,2.1,3.1,4.4,4.3c4.8,2.6,10.9,1,14.4-1.6c4.6-3.4,5.6-8.7,7.4-19.4
	c1.1-6,1.3-10.7,1.5-16c0.5-13.2-0.6-13.1,0.3-20.8c0.6-5.9,1.2-5.6,3-17.3c1.1-6.8,1.9-10.2,1.7-14.1c-0.2-4.2-0.7-12.5-6.7-16.7
	C266.3,179.4,263.9,178.9,262.3,178.7z"/>
<linearGradient id="SVGID_17_" gradientUnits="userSpaceOnUse" x1="280.6103" y1="335.4297" x2="239.7236" y2="264.6118" gradientTransform="matrix(0.9998 2.062886e-02 -2.062886e-02 0.9998 5.0219 -3.1426)">
	<stop  offset="0" style="stop-color:#D3D6D6"/>
	<stop  offset="0.6073" style="stop-color:#BDC2C7"/>
	<stop  offset="0.878" style="stop-color:#ABABAB"/>
</linearGradient>
<path class="st16" d="M243.3,270.2c-1.6,4.7-1.1,8.7-0.8,12.3c1,8.8,1,17.7,1.8,26.5c0.7,8.3,0.5,7.1,1.5,19
	c0.5,6.1,1,12.2,1.6,18.2c1.6,2.7,4.6,4.3,7.7,4c3.5-0.3,6.5-3,7.3-6.6c0-14.3,1.1-25.7,2.2-33.4c0.9-6.9,1.6-12.4,2.1-18.4
	c1-12.2,0.4-11,1.3-15.5c0.2-3.4,0.5-6.9,0.9-10.6c0.3-3,0.7-5.9,1.1-8.7c-1.1-0.5-2.8-1.1-5-1.3c-7.9-0.8-13.9,4.4-15.4,5.8
	C248,262.9,244.9,265.6,243.3,270.2z"/>
<linearGradient id="SVGID_18_" gradientUnits="userSpaceOnUse" x1="402.889" y1="340.3344" x2="430.7306" y2="373.5148" gradientTransform="matrix(-0.9971 7.622827e-02 7.622827e-02 0.9971 637.3014 -24.1138)">
	<stop  offset="0" style="stop-color:#D3D6D6"/>
	<stop  offset="0.6073" style="stop-color:#BDC2C7"/>
</linearGradient>
<path class="st17" d="M256.9,342.6c-0.3,4.1,0,7.5,0.3,9.8c0.3,2.4,1.1,6.5,2.1,10.7c0.8,3.3,1,3.9,0.9,5.3
	c-0.1,2.3-0.9,2.9-2.5,7.7c-1.1,3.4-0.9,3.5-1.7,5.4c-1.1,2.5-1.5,2.4-2.9,5.2c-1.4,2.9-1.7,4.7-2.5,4.7c-0.7,0-1.2-1.5-1.3-1.6
	c-0.6-1.7,0.3-3.3,0.4-3.5c0.3-1,0.8-2.5,1.6-4.3c0.4-1,0.5-1.1,0.8-1.7c0.6-1.6,0.5-2.6,0.7-5.1c0.3-3.7,0.5-3.6,0.3-4.5
	c-0.6-2-3-3.6-3-3.6c-1-1.8-2-3.5-2.9-5.3c0.3-1.6,0.6-4,0.6-6.9c0.1-2.4-0.1-4.1-0.4-8.5c-0.3-3.9-0.6-7.3-0.9-9.8
	C249.9,338.4,253.4,340.5,256.9,342.6z"/>
<linearGradient id="SVGID_19_" gradientUnits="userSpaceOnUse" x1="398.7375" y1="343.772" x2="427.3966" y2="377.9266" gradientTransform="matrix(-0.9978 6.656474e-02 6.656474e-02 0.9978 640.5025 -21.5636)">
	<stop  offset="0" style="stop-color:#D3D6D6"/>
	<stop  offset="0.6073" style="stop-color:#BDC2C7"/>
</linearGradient>
<path class="st18" d="M260.5,345.9c-0.3,4.1-0.1,7.5,0.2,9.8c0.3,2.4,1,6.5,2,10.7c0.7,3.3,1,3.9,0.9,5.3c-0.1,2.3-0.9,2.9-2.6,7.6
	c-1.2,3.4-0.9,3.5-1.8,5.4c-1.1,2.5-1.6,2.4-2.9,5.2c-1.4,2.9-1.7,4.7-2.5,4.6c-0.7,0-1.2-1.5-1.3-1.6c-0.6-1.8,0.4-3.3,0.5-3.5
	c0.3-1,0.8-2.5,1.7-4.3c0.5-1,0.6-1.1,0.8-1.7c1-2.6,0.7-5.1,0.7-5.1c-0.1-0.8-0.2-1.4-0.5-2.4c-0.4-1.4-0.5-1.3-1-2.8
	c-0.6-1.9-0.5-2.4-1.2-3c-0.1-0.1-0.9-0.7-1.5-0.5c-0.4,0.1-0.9,0.7-1,3.8c-0.1,1.9-0.1,3.5-0.1,6.4c0,1-0.1,2.4-1,3.5
	c-0.2,0.3-0.6,0.7-1,0.7c-0.6-0.1-0.9-1.2-1.4-4.5c-0.3-1.8-0.5-3.5-0.8-7.2c-0.3-3.3-0.3-4.1-0.3-5.1c0.1-1.4,0.3-2.6,0.6-4.1
	c0.3-1.1,0.5-2.1,0.7-2.9c0.5-1.7,0.9-3,1.2-3.8c0.2-0.4,0.3-0.7,0.3-0.8c1.4-4,1.7-11.2,1.7-11.2c0.1-1.9,0.1-4.3,0-7.1
	C254,340.1,257.3,343,260.5,345.9z"/>
<linearGradient id="SVGID_20_" gradientUnits="userSpaceOnUse" x1="400.2663" y1="330.339" x2="429.8503" y2="365.5958" gradientTransform="matrix(-0.9839 0.1787 0.1787 0.9839 601.3474 -53.6613)">
	<stop  offset="0" style="stop-color:#D3D6D6"/>
	<stop  offset="0.6073" style="stop-color:#BDC2C7"/>
</linearGradient>
<path class="st19" d="M262.4,340.5c-0.2,3.3-0.2,7.2,0.4,11.7c0.5,4.1,1.4,7.6,2.3,10.6c0,0,1,2,1.4,4.3c0,0.3,0.1,0.5,0.1,0.9
	c0.1,2.3-0.6,2.9-1.7,7.9c-0.8,3.5-0.5,3.5-1.2,5.5c-0.8,2.6-1.3,2.5-2.3,5.5c-1.1,3.1-1.2,4.8-2,4.9c-0.7,0.1-1.4-1.4-1.4-1.5
	c-0.8-1.7,0-3.4,0.1-3.5c0.2-1,0.6-2.6,1.2-4.4c0.3-1,0.4-1.1,0.6-1.8c0.4-1.6,0.2-2.6,0.1-5.2c-0.1-3.8,0.1-3.7-0.2-4.5
	c-0.8-1.9-3.4-3.3-3.4-3.3c-3.7-1.9-5.8-12.4-6.1-14c-0.8-4.1-0.5-6-0.8-9.2c-0.1-1.5-0.3-1.9-0.5-2.9c-0.1-0.6-0.2-1-0.3-1.8
	c-0.1-0.6-0.2-1.4-0.2-2.3C253.2,338.4,257.8,339.4,262.4,340.5z"/>
<g id="Foot">
	
		<linearGradient id="SVGID_21_" gradientUnits="userSpaceOnUse" x1="516.1859" y1="-271.0162" x2="516.1859" y2="-229.1782" gradientTransform="matrix(-0.2057 0.9787 0.9787 0.2057 426.5443 -18.9777)">
		<stop  offset="0" style="stop-color:#ABABAB"/>
		<stop  offset="0.3463" style="stop-color:#D3D6D6"/>
		<stop  offset="1" style="stop-color:#C5C8C9"/>
	</linearGradient>
	<path class="st20" d="M98.4,414.9c-2.3-1-5.3-2.6-8.4-5.1c-2.7-2.3-4.9-4.7-6.2-6.7c-4.4-3.6-8.5-5.1-11-5.6c-4.2-1-5.9-0.3-6.4,0
		c-0.9,0.5-2.4,1.5-4.7,6.8c-3.3,7.8-3.9,14.7-4,16.7c-0.3,4.8,0.3,4.6-0.1,8c-0.8,6.8-3.7,7.6-4.8,13.4c-0.7,3.7,0,6.9,1.3,13.4
		c1.4,6.8,2.1,10.3,5.1,11.9c1.9,1,5.3,1.5,6.7-0.7c1.2-1.7,0.9-4.6-1-7c1.7-5,3.5-9.1,4.7-11.9c3.7-8.3,6-10.8,7.4-11.9
		c0.2-0.2,0.5-0.4,0.6-0.4c3.1-2.2,5.8-3.6,6.7-4c4.6-2,12.4,0.1,13.3,0.3c0.5-2,0.9-4.3,1.1-6.9C99,421.1,98.8,417.6,98.4,414.9z"
		/>
</g>
<g id="Calves">
	
		<linearGradient id="SVGID_22_" gradientUnits="userSpaceOnUse" x1="259.1159" y1="-178.2706" x2="223.1002" y2="-178.2706" gradientTransform="matrix(-0.277 0.9609 0.9609 0.277 385.9629 254.2881)">
		<stop  offset="0" style="stop-color:#ABABAB"/>
		<stop  offset="0.3463" style="stop-color:#D3D6D6"/>
		<stop  offset="0.8171" style="stop-color:#BDC2C7"/>
		<stop  offset="1" style="stop-color:#ABABAB"/>
	</linearGradient>
	<path class="st21" d="M197.4,432.2c-5.7-1.2-13.3-2.9-22.2-4.6c-12.1-2.4-21.2-3.8-28.5-5c-1.4-0.2-19.8-3.2-26.3-4.1
		c-1.1-0.2-3.4-0.4-6.5-1c-2.7-0.4-3.6-0.7-9-1.3c-0.3,0-2.6-0.4-3.9-0.7c-2-0.4-4.8-1.4-8.2-4.1c-0.7,0.2-4.8,2-6.5,6.4
		c-1.6,3.9-0.6,8.5,2.3,11.9c1.7,0.5,4.2,1.4,7.3,2.4c9.7,3.1,15.7,4.8,18.2,5.7c4.7,1.6,11.4,4.1,27.2,10.8
		c14,5.9,17.1,7.5,22.5,9.8l0,0c2.7,1,4.5,1.8,4.7,1.9c25.6,11.7,36,3.7,36,3.7c9.4-7.3,5.1-26.5,4.8-27.8
		C205.3,434.7,201.3,433.4,197.4,432.2z"/>
	
		<linearGradient id="SVGID_23_" gradientUnits="userSpaceOnUse" x1="227.1638" y1="-345.1398" x2="227.1638" y2="-345.1398" gradientTransform="matrix(-0.277 0.9609 0.9609 0.277 366.7713 320.8779)">
		<stop  offset="0" style="stop-color:#ABABAB"/>
		<stop  offset="0.3463" style="stop-color:#D3D6D6"/>
		<stop  offset="0.8171" style="stop-color:#BDC2C7"/>
		<stop  offset="1" style="stop-color:#ABABAB"/>
	</linearGradient>
	<path class="st22" d="M-27.8,443.6"/>
	
		<linearGradient id="SVGID_24_" gradientUnits="userSpaceOnUse" x1="136.9312" y1="81.7151" x2="136.9312" y2="81.7151" gradientTransform="matrix(0.9975 7.075524e-02 7.075524e-02 -0.9975 -24.3824 543.3708)">
		<stop  offset="0" style="stop-color:#ABABAB"/>
		<stop  offset="0.3463" style="stop-color:#D3D6D6"/>
		<stop  offset="0.8171" style="stop-color:#BDC2C7"/>
		<stop  offset="1" style="stop-color:#ABABAB"/>
	</linearGradient>
	<path class="st23" d="M118,471.5"/>
</g>
</svg>
