<?xml version="1.0" encoding="utf-8"?>
<!-- Generator: Adobe Illustrator 22.1.0, SVG Export Plug-In . SVG Version: 6.00 Build 0)  -->
<svg version="1.1" id="Layer_1" xmlns="http://www.w3.org/2000/svg" xmlns:xlink="http://www.w3.org/1999/xlink" x="0px" y="0px"
	 viewBox="0 0 432 576" style="enable-background:new 0 0 432 576;" xml:space="preserve">
<style type="text/css">
	.st0{fill:url(#SVGID_1_);}
	.st1{fill:url(#SVGID_2_);}
	.st2{fill:url(#SVGID_3_);}
	.st3{fill:url(#SVGID_4_);}
	.st4{fill:url(#SVGID_5_);}
	.st5{fill:url(#SVGID_6_);}
	.st6{fill:url(#SVGID_7_);}
	.st7{fill:url(#SVGID_8_);}
	.st8{fill:url(#SVGID_9_);}
	.st9{fill:url(#SVGID_10_);}
	.st10{fill:url(#SVGID_11_);}
	.st11{fill:url(#SVGID_12_);}
	.st12{fill:url(#SVGID_13_);}
	.st13{fill:url(#SVGID_14_);}
	.st14{fill:url(#SVGID_15_);}
	.st15{fill:url(#SVGID_16_);}
	.st16{fill:url(#SVGID_17_);}
	.st17{fill:url(#SVGID_18_);}
	.st18{fill:url(#SVGID_19_);}
	.st19{fill:url(#SVGID_20_);}
	.st20{fill:url(#SVGID_21_);}
	.st21{fill:url(#SVGID_22_);}
	.st22{fill:url(#SVGID_23_);}
	.st23{fill:url(#SVGID_24_);}
	.st24{fill:url(#SVGID_25_);}
	.st25{fill:url(#SVGID_26_);}
	.st26{fill:url(#SVGID_27_);}
	.st27{fill:url(#SVGID_28_);}
	.st28{fill:url(#SVGID_29_);}
</style>
<linearGradient id="SVGID_1_" gradientUnits="userSpaceOnUse" x1="182.769" y1="349.7856" x2="137.2368" y2="349.7856" gradientTransform="matrix(3.456647e-02 -0.9994 0.9994 3.456647e-02 -20.3201 506.4438)">
	<stop  offset="0" style="stop-color:#ABABAB"/>
	<stop  offset="0.3463" style="stop-color:#D3D6D6"/>
	<stop  offset="0.8171" style="stop-color:#BDC2C7"/>
	<stop  offset="1" style="stop-color:#ABABAB"/>
</linearGradient>
<path class="st0" d="M296.2,376.6c0.4,0.3,0.8,0.6,1.2,0.9c6.8,4,12.9,3.3,28.7,1.9c2.4-0.2,8.4-0.7,20.6-1.7
	c1.7-0.1,2.9-0.2,3.9-0.3c0,0,2.8-0.2,4.7-0.4c4.9-0.5,22.5-14.8,24.3-16.3c0-2.9-0.6-9.7-5.3-13.3c-1.6-1.3-3.6-2-6.3-3
	c-3.2-1.2-5.8-1.8-8.8-2.3c-9.5-1.8-22.1-3.2-24.4-3.6c-3.2-0.6-2.3-0.5-5.7-1.2c-18.1-3.3-23.4-2.7-28.3-0.3
	c-0.7,0.4-1.3,0.6-2.1,1.2C288.2,345.7,286.8,368.5,296.2,376.6z"/>
<linearGradient id="SVGID_2_" gradientUnits="userSpaceOnUse" x1="455.5824" y1="411.306" x2="417.8902" y2="411.306" gradientTransform="matrix(0.9895 -0.1446 0.1446 0.9895 -124.0612 64.0267)">
	<stop  offset="0" style="stop-color:#ABABAB"/>
	<stop  offset="0.3463" style="stop-color:#D3D6D6"/>
	<stop  offset="0.8171" style="stop-color:#BDC2C7"/>
	<stop  offset="1" style="stop-color:#ABABAB"/>
</linearGradient>
<path class="st1" d="M347.8,359.5c-3.8,11.4-3.6,20.2-2.5,26.4c1.1,5.9,2.1,5.2,8.8,23.3c0,0,4.2,11.3,8.4,24.8
	c2.6,8.5,1.7,6.6,4,14.1c0.1,0.3,0.7,2.4,0.9,3.6c0.4,1.8,0.6,4.6-0.3,8.5c0.5,0.5,3.5,3.3,7.9,3.1c3.9-0.2,7.5-2.7,9.2-6.5
	c-0.2-1.6-0.5-4.1-0.8-7.2c-1.1-9.4-1.9-15.2-2.1-17.6c-0.4-4.6-0.9-11.2-1.3-27.2c-0.4-17.7,0-18.4-0.4-27.5
	c-0.6-14.6,1.1-18.8-1.8-22.6c-1-1.3-3-3.1-7.2-4C363,353.7,355.4,356.6,347.8,359.5z"/>
<linearGradient id="SVGID_3_" gradientUnits="userSpaceOnUse" x1="713.938" y1="488.2095" x2="713.938" y2="444.606" gradientTransform="matrix(0.9994 -3.530364e-02 3.530364e-02 0.9994 -337.1452 22.2878)">
	<stop  offset="0" style="stop-color:#ABABAB"/>
	<stop  offset="0.3463" style="stop-color:#D3D6D6"/>
	<stop  offset="1" style="stop-color:#C5C8C9"/>
</linearGradient>
<path class="st2" d="M367.3,450.7c-0.3,2.1-1,5-2.5,8.2c-1.3,2.8-2.9,5.1-4.3,6.7c-2.1,4.5-2.4,8.3-2.4,10.5
	c0.1,3.8,1.1,5.1,1.4,5.5c0.6,0.7,1.9,1.8,6.8,2.7c7.5,1.3,13.5,0.3,15.1,0c4.1-0.7,3.9-1.2,7-1.5c5-0.5,6.5,0.7,12.6,1.4
	c10.6,1.3,12.5-1.7,21.2-1.2c0.9,0.1,3.1,0.2,4.7-1.1c0.9-0.7,1.7-2.1,1.4-3.2c-0.6-1.9-4.2-2.3-7.5-2.8c0,0-8.3-1.3-16.1-3.6
	c-4.8-1.5-10.5-3.2-15-8.1c-0.4-0.5-2.3-2.5-3.9-5.8c-3.3-6.6-3.1-13.2-2.7-16.8C377.9,444.7,372.6,447.7,367.3,450.7z"/>
<linearGradient id="SVGID_4_" gradientUnits="userSpaceOnUse" x1="171.0425" y1="220.485" x2="171.2922" y2="134.0251" gradientTransform="matrix(2.887784e-03 -1 -1 -2.887784e-03 487.2676 532.4977)">
	<stop  offset="0" style="stop-color:#363233"/>
	<stop  offset="1" style="stop-color:#000000"/>
</linearGradient>
<path class="st3" d="M269.2,377.7c2.7,6.6,7,9.9,9.1,11.5c11.4,8.5,24.7,4.2,26.7,3.6c1.8-0.6,5.7-2,11.8-3.7
	c1.5-0.4,3.4-0.9,5.8-1.4c3.9-0.8,5.7-0.8,14.7-1.9c1.8-0.2,3.2-0.4,4.1-0.5c4.6-4.9,7.1-9.7,8.5-12.8c1.4-3.1,4.5-10.6,3.6-20.6
	c-0.5-5.9-2.4-10.5-3.7-13.3c-7.4-1.5-13.4-2.5-17.6-3.1c-3.6-0.5-6.9-1-13.5-2.1c-6-1-6.3-1.1-8.3-1.4c-4.8-0.7-20.9-1.1-20.9-1.1
	c-4.2-0.1-10.2-0.8-17.7-3.6c-3,12-4,22.1-4.3,29.1C266.8,369.9,267.9,374.6,269.2,377.7z"/>
<linearGradient id="SVGID_5_" gradientUnits="userSpaceOnUse" x1="249.1074" y1="169.2924" x2="330.1603" y2="199.9143">
	<stop  offset="0" style="stop-color:#BDBFBF"/>
	<stop  offset="0.6073" style="stop-color:#BDC2C7"/>
	<stop  offset="0.878" style="stop-color:#8F8F8F"/>
</linearGradient>
<path class="st4" d="M314.1,234c1.1-1.2,2.7-3.1,4.3-5.6c1.8-2.7,2.9-4.5,3.6-7.2c0.7-2.9,0.5-5.1,0.2-7.8c-0.4-4-1.5-7.1-2.3-9.3
	c-0.4-1.1-1-2.6-2.2-5c0,0-1-2-2-3.9c-3.3-5.9-7.6-10.4-12.8-18.6c-0.7-1.1-1.3-2.1-2.6-4.3c-4.5-7.5-7.6-13.1-8.4-14.5
	c-2.5-4.6-7-11.7-15.3-22.6c-1.2-0.6-3.4-1.5-6-1.4c-5.5,0.3-9.8,4.9-11.4,9c-2.2,5.3-0.1,10.4,3.9,20.4c2.3,5.7,4.5,9.8,7.1,14.4
	c6.5,11.6,7.3,10.8,10.7,17.8c2.6,5.3,1.9,5.4,6.5,16.3c2.7,6.4,3.7,9.7,6,12.9c2.4,3.5,7.1,10.3,14.4,10.7
	C310.4,235.5,312.7,234.7,314.1,234z"/>
<linearGradient id="SVGID_6_" gradientUnits="userSpaceOnUse" x1="215.9152" y1="114.2741" x2="292.4117" y2="143.1746">
	<stop  offset="0" style="stop-color:#BDBFBF"/>
	<stop  offset="0.6073" style="stop-color:#BDC2C7"/>
	<stop  offset="0.878" style="stop-color:#8F8F8F"/>
</linearGradient>
<path class="st5" d="M286.8,142.9c-1.8-4.7-4.8-7.4-7.4-9.8c-6.4-6.1-12.3-12.8-18.5-19c-5.9-5.9-5-5.1-13.5-13.5
	c-4.3-4.3-8.7-8.6-13-12.8c-3-1-6.3-0.3-8.5,1.9c-2.5,2.5-3,6.5-1.3,9.8c9.3,10.9,15.8,20.3,20,26.8c3.8,5.8,6.8,10.5,10.3,15.3
	c7.1,10,6.8,8.6,9.1,12.6c2.1,2.7,4.2,5.6,6.2,8.6c1.7,2.5,3.3,5,4.8,7.4c1.1-0.4,2.8-1,4.6-2.3c6.5-4.6,7.7-12.4,8-14.4
	C288,151.5,288.6,147.4,286.8,142.9z"/>
<linearGradient id="SVGID_7_" gradientUnits="userSpaceOnUse" x1="197.511" y1="68.8701" x2="244.5096" y2="86.6262">
	<stop  offset="0" style="stop-color:#BDBFBF"/>
	<stop  offset="0.6073" style="stop-color:#BDC2C7"/>
	<stop  offset="0.878" style="stop-color:#8F8F8F"/>
</linearGradient>
<path class="st6" d="M229.5,96.6c-2.5-3.3-4.8-5.7-6.6-7.2c-1.8-1.6-5-4.2-8.5-6.8c-2.8-2-3.3-2.3-4.1-3.4c-1.4-1.8-1.2-2.7-3.1-7.4
	c-1.3-3.3-1.6-3.2-2.2-5.2c-0.8-2.7-0.4-2.8-1.2-5.8c-0.9-3.1-1.8-4.7-1.2-5.2c0.6-0.5,1.9,0.3,2,0.4c1.6,0.9,1.9,2.8,1.9,2.9
	c0.4,1,1,2.5,1.6,4.3c0.3,1,0.3,1.2,0.5,1.8c0.6,1.6,1.3,2.3,2.8,4.3c2.2,3,2,3.1,2.7,3.6c1.7,1.2,4.7,0.8,4.7,0.8
	c1.9,0.7,3.8,1.4,5.7,2.1c0.8,1.4,2.2,3.4,4,5.6c1.5,1.8,2.7,3.1,5.9,6.2c2.8,2.8,5.2,5.1,7,6.9C237.5,95.3,233.5,96,229.5,96.6z"/>
<linearGradient id="SVGID_8_" gradientUnits="userSpaceOnUse" x1="192.9345" y1="68.6611" x2="241.3483" y2="86.9519">
	<stop  offset="0" style="stop-color:#BDBFBF"/>
	<stop  offset="0.6073" style="stop-color:#BDC2C7"/>
	<stop  offset="0.878" style="stop-color:#8F8F8F"/>
</linearGradient>
<path class="st7" d="M224.6,96.5c-2.4-3.4-4.8-5.7-6.5-7.3c-1.8-1.6-5-4.3-8.4-6.9c-2.7-2.1-3.3-2.3-4.1-3.5c-1.4-1.8-1.2-2.7-3-7.5
	c-1.3-3.3-1.5-3.2-2.1-5.3c-0.8-2.7-0.3-2.8-1.1-5.8c-0.8-3.1-1.7-4.7-1.1-5.2c0.6-0.4,1.9,0.4,2,0.4c1.6,1,1.9,2.8,1.9,3
	c0.4,1,1,2.5,1.5,4.3c0.3,1.1,0.3,1.2,0.5,1.8c1,2.6,2.8,4.4,2.8,4.4c0.6,0.6,1.1,0.9,2,1.5c1.2,0.8,1.2,0.7,2.5,1.5
	c1.6,1,2,1.5,2.8,1.5c0.2,0,1.2,0,1.5-0.6c0.2-0.4,0.2-1.1-1.7-3.6c-1.1-1.5-2.2-2.7-4-4.9c-0.7-0.8-1.5-1.9-1.5-3.3
	c0-0.4,0-1,0.4-1.2c0.5-0.3,1.5,0.3,4,2.5c1.4,1.2,2.7,2.4,5.3,4.9c2.4,2.3,2.9,2.9,3.5,3.7c0.8,1.1,1.5,2.2,2.2,3.5
	c0.5,1,1,1.9,1.3,2.6c0.7,1.6,1.2,2.9,1.5,3.7c0.2,0.4,0.3,0.7,0.3,0.8c1.5,4,5.9,9.6,5.9,9.6c1.1,1.5,2.7,3.3,4.6,5.4
	C233.3,96.7,228.9,96.6,224.6,96.5z"/>
<linearGradient id="SVGID_9_" gradientUnits="userSpaceOnUse" x1="190.8096" y1="73.4316" x2="240.4202" y2="92.1746">
	<stop  offset="0" style="stop-color:#BDBFBF"/>
	<stop  offset="0.6073" style="stop-color:#BDC2C7"/>
	<stop  offset="0.878" style="stop-color:#8F8F8F"/>
</linearGradient>
<path class="st8" d="M226.7,101.8c-2-2.6-4.6-5.6-7.9-8.6c-3.1-2.8-6-4.9-8.6-6.5c0,0-2.1-0.9-3.9-2.4c-0.2-0.2-0.4-0.4-0.6-0.6
	c-1.6-1.7-1.5-2.6-3.8-7.1c-1.7-3.2-1.9-3-2.7-5c-1.1-2.6-0.7-2.8-1.8-5.7c-1.2-3-2.3-4.4-1.7-5c0.5-0.5,1.9,0.1,2.1,0.2
	c1.7,0.8,2.2,2.5,2.2,2.7c0.5,0.9,1.3,2.3,2,4.1c0.4,1,0.4,1.1,0.7,1.7c0.8,1.5,1.5,2.1,3.3,4c2.5,2.8,2.3,2.9,3.1,3.3
	c1.9,1,4.7,0.3,4.7,0.3c4.1-0.9,12.5,5.7,13.7,6.7c3.3,2.6,4.2,4.2,6.6,6.5c1.1,1,1.5,1.2,2.3,1.9c0.5,0.4,0.8,0.7,1.4,1.2
	c0.5,0.4,1,0.9,1.6,1.6C235.1,97.4,230.9,99.6,226.7,101.8z"/>
<linearGradient id="SVGID_10_" gradientUnits="userSpaceOnUse" x1="358.7271" y1="503.9145" x2="358.7271" y2="503.9145" gradientTransform="matrix(0.9895 -0.1446 0.1446 0.9895 -55.4894 54.0049)">
	<stop  offset="0" style="stop-color:#ABABAB"/>
	<stop  offset="0.3463" style="stop-color:#D3D6D6"/>
	<stop  offset="0.8171" style="stop-color:#BDC2C7"/>
	<stop  offset="1" style="stop-color:#ABABAB"/>
</linearGradient>
<path class="st9" d="M372.3,500.7"/>
<linearGradient id="SVGID_11_" gradientUnits="userSpaceOnUse" x1="380.7166" y1="351.6028" x2="380.7166" y2="351.6028">
	<stop  offset="0" style="stop-color:#ABABAB"/>
	<stop  offset="0.3463" style="stop-color:#D3D6D6"/>
	<stop  offset="0.8171" style="stop-color:#BDC2C7"/>
	<stop  offset="1" style="stop-color:#ABABAB"/>
</linearGradient>
<path class="st10" d="M380.7,351.6"/>
<linearGradient id="SVGID_12_" gradientUnits="userSpaceOnUse" x1="275.339" y1="181.9837" x2="323.9934" y2="181.9837">
	<stop  offset="7.317073e-03" style="stop-color:#AAAAAA"/>
	<stop  offset="0.2244" style="stop-color:#AEAEAE"/>
	<stop  offset="0.4431" style="stop-color:#BABABA"/>
	<stop  offset="0.6625" style="stop-color:#CECECE"/>
	<stop  offset="0.8813" style="stop-color:#EAEAEA"/>
	<stop  offset="0.9317" style="stop-color:#F2F2F2"/>
</linearGradient>
<path class="st11" d="M287.4,178.4c0.3-0.7,2-4.2,1.7-9c-0.2-2.3-1-4.4-2.7-8.7c-0.4-1-0.9-2.1-1.7-4.1c-0.7-1.8-1.2-3.2-1.5-4.2
	c13.7,4.4,23,10.5,28.8,15.1c9.7,7.7,12.6,13.6,11.8,14.8c-0.8,1.2-3.5,0.2-5.5,2.3c-0.3,0.4-0.9,1.1-2,5.3
	c-0.8,3.2-1.3,4.8-1.3,5.3c-0.4,4.7,3.9,8.8,6.2,10.7c-2,1.6-5.2,3.8-9.7,4.8c-8.9,2.1-16.3-2-24.5-6.5c-6.3-3.5-11.8-6.5-11.7-10.4
	c0.1-1.7,2.5-4.4,7.4-9.9C285.6,181,286.4,180.4,287.4,178.4z"/>
<linearGradient id="SVGID_13_" gradientUnits="userSpaceOnUse" x1="277.4533" y1="181.4794" x2="318.1993" y2="147.2895" gradientTransform="matrix(0.9124 -0.4094 0.4094 0.9124 -30.4213 126.4415)">
	<stop  offset="7.317073e-03" style="stop-color:#B0B0AE"/>
	<stop  offset="0.8137" style="stop-color:#E9E9E9"/>
	<stop  offset="0.9317" style="stop-color:#F2F2F2"/>
</linearGradient>
<path class="st12" d="M298.3,126.4c-7.6,1.8-12.6,5.5-13.8,6.4c-4.4,3.2-9.8,7.3-11.5,14.7c-1.8,7.6,1.5,13.8,2.4,15.5
	c1.1,2,4,7.6,10.3,10c4.5,1.7,8.9,1.1,10.6,0.9c2.3-0.3,4.2-0.9,5.5-1.4c0.4,1.5,1.4,4.1,3.7,6c2.6,2.2,5.3,2.4,9.9,2.9
	c3.2,0.3,6.9-0.2,14.2-1.1c3.7-0.5,5.9-0.9,7.2-2.7c1-1.3,1.2-2.9,1.3-4c0.3-2.6-0.6-3.7-1.6-8c-1.3-5.4-1.9-5.9-1.7-7.5
	c0.2-2.1,1-2.7,0.5-3.9c-0.6-1.3-1.8-1.3-4.9-3.3c-1.9-1.2-2.9-1.9-3.3-2.9c-0.7-1.7,0.5-2.7,0.4-4.8c0-0.8-0.2-2-3.7-6.2
	c-3-3.6-4.5-5.4-7.2-7.4c-1.9-1.4-3.9-2.9-6.8-3.7C305.4,124.7,301.6,125.6,298.3,126.4z"/>
<linearGradient id="SVGID_14_" gradientUnits="userSpaceOnUse" x1="341.3697" y1="164.2612" x2="341.3697" y2="164.2612">
	<stop  offset="7.317073e-03" style="stop-color:#AAAAAA"/>
	<stop  offset="0.9317" style="stop-color:#F2F2F2"/>
</linearGradient>
<path class="st13" d="M341.4,164.3"/>
<linearGradient id="SVGID_15_" gradientUnits="userSpaceOnUse" x1="288.5364" y1="172.4278" x2="288.5364" y2="172.4278">
	<stop  offset="7.317073e-03" style="stop-color:#AAAAAA"/>
	<stop  offset="0.9317" style="stop-color:#F2F2F2"/>
</linearGradient>
<path class="st14" d="M288.5,172.4"/>
<linearGradient id="SVGID_16_" gradientUnits="userSpaceOnUse" x1="50.0641" y1="378.732" x2="4.5319" y2="378.732" gradientTransform="matrix(0.7154 0.6987 -0.6987 0.7154 460.9658 142.7602)">
	<stop  offset="0" style="stop-color:#ABABAB"/>
	<stop  offset="0.3463" style="stop-color:#D3D6D6"/>
	<stop  offset="0.8171" style="stop-color:#BDC2C7"/>
	<stop  offset="1" style="stop-color:#ABABAB"/>
</linearGradient>
<path class="st15" d="M229,391.7c-0.5,0.1-1,0.1-1.5,0.3c-7.5,2.3-11.2,7.3-20.7,19.9c-1.4,1.9-5.2,6.7-12.6,16.3
	c-1.7,2.2-3.8,4.9-5.3,6.9c-3.6,4.7-6.6,8.5-8.5,11.1c-0.5,0.9-1.2,2.3-1.6,4c-0.2,0.9-1.1,4.5,0,8c2.1,6.8,10.6,9.1,13.3,9.8
	c2.2,0.6,5.7,1.5,9.7,0.5c3.1-0.8,4.6-2.1,10.3-7c10.4-8.9,16.1-13.3,19.1-15.6c2.6-2,1.9-1.3,4.7-3.5
	c14.6-11.1,17.8-15.5,19.3-20.7c0.2-0.8,0.4-1.4,0.5-2.3C257.3,406.6,241.3,390.2,229,391.7z"/>
<linearGradient id="SVGID_17_" gradientUnits="userSpaceOnUse" x1="196.9675" y1="304.9858" x2="265.1943" y2="304.9858" gradientTransform="matrix(0.7154 0.6987 -0.6987 0.7154 312.061 -2.6621)">
	<stop  offset="0" style="stop-color:#363233"/>
	<stop  offset="1" style="stop-color:#000000"/>
</linearGradient>
<path class="st16" d="M272.6,330c-1,0.8-2.4,2-4.4,3.2c-2.8,1.7-5.1,2.3-6.4,2.8c-4.4,1.6-7.5,3.9-10.7,6.3
	c-6.8,5.2-10.4,11-12,13.5c-3.1,5-4.6,9.5-5.5,12.1c-1.1,3.4-1.8,6.3-2.3,8.6c-0.9,1.5-2.4,3.7-4.3,6.3c-4.7,6.6-8.1,10.4-11.8,15
	c-2.8,3.4-6.6,8.4-11.1,14.9c0.9,1.6,2.2,3.8,3.9,6.3c3.3,4.8,8.2,12,16.8,17.5c2.7,1.8,7,4.1,12.9,5.8c7.8-5.8,13.9-10.7,18.1-14.2
	c3.6-2.9,6.9-5.7,13.7-11.1c6.1-4.9,6.4-5.1,8.5-6.8c3.3-2.7,14.4-12.8,19.6-18.6c7.6-8.5,19.6-26.7,29.7-52.5
	C309,336.1,290.8,333,272.6,330z"/>
<linearGradient id="SVGID_18_" gradientUnits="userSpaceOnUse" x1="199.0648" y1="532.6617" x2="199.0648" y2="532.6617">
	<stop  offset="0" style="stop-color:#ABABAB"/>
	<stop  offset="0.3463" style="stop-color:#D3D6D6"/>
	<stop  offset="0.8171" style="stop-color:#BDC2C7"/>
	<stop  offset="1" style="stop-color:#ABABAB"/>
</linearGradient>
<path class="st17" d="M199.1,532.7"/>
<linearGradient id="SVGID_19_" gradientUnits="userSpaceOnUse" x1="313.8409" y1="455.7564" x2="313.8409" y2="455.7564">
	<stop  offset="0" style="stop-color:#ABABAB"/>
	<stop  offset="0.3463" style="stop-color:#D3D6D6"/>
	<stop  offset="0.8171" style="stop-color:#BDC2C7"/>
	<stop  offset="1" style="stop-color:#ABABAB"/>
</linearGradient>
<path class="st18" d="M313.8,455.8"/>
<linearGradient id="SVGID_20_" gradientUnits="userSpaceOnUse" x1="263.534" y1="260.4883" x2="331.8438" y2="260.4883" gradientTransform="matrix(1 0 0 1.0267 0 -2.9584)">
	<stop  offset="0" style="stop-color:#363233"/>
	<stop  offset="1" style="stop-color:#000000"/>
</linearGradient>
<path class="st19" d="M280,187.4c1.5,1.9,4.4,5.1,9,7c3.6,1.5,6.6,1.6,10,1.7c3.8,0.1,9.7-0.2,16.8-2.4c4.4,8.1,7.7,15.5,10.2,21.5
	c2,4.8,3,7.3,3.8,10.5c0.5,1.9,2.8,11,1.7,24.1c-0.2,2.8-0.4,3.2-0.8,5.5c-0.3,1.7-0.5,3-1,6.4c-1.5,10.9-2.2,14.5-2.7,19.6
	c-0.6,5.8-0.6,10-0.5,20.1c0.1,10.4,0.4,23,0.7,37.5c-7.3,1.5-16.8,2.8-27.9,2.3c-14.8-0.6-26.8-4-35-7c0.9-2.6,2.1-6.5,3.1-11.4
	c2.9-14.3,2-26.4,1.1-36.5c-0.1-0.9-0.6-5.7-1.7-15.3c-0.5-4.1-1.1-9.4-1.8-16.5c-1.1-10.3-1.5-14.8-1.5-21.2c0.1-9.5,0.1-16.7,3-25
	C268.2,203.7,271.8,195.6,280,187.4z"/>
<linearGradient id="SVGID_21_" gradientUnits="userSpaceOnUse" x1="145.8382" y1="323.7982" x2="200.9658" y2="389.4968" gradientTransform="matrix(-0.9104 0.4136 -0.4136 -0.9104 585.9764 443.1812)">
	<stop  offset="0" style="stop-color:#D3D6D6"/>
	<stop  offset="0.6073" style="stop-color:#BDC2C7"/>
	<stop  offset="0.878" style="stop-color:#9C9C9C"/>
</linearGradient>
<path class="st20" d="M299.9,241.8c1.2-1.1,3-2.8,4.8-5.1c2-2.5,3.4-4.2,4.3-6.8c1-2.8,1-5.1,1-7.7c0-4-0.8-7.2-1.4-9.5
	c-0.3-1.1-0.7-2.7-1.6-5.2c0,0-0.7-2.1-1.6-4.1c-2.7-6.2-6.5-11.1-10.9-19.8c-0.6-1.1-1.1-2.3-2.2-4.5c-3.8-7.9-6.2-13.8-6.8-15.3
	c-2-4.8-5.7-12.4-13-24c-1.2-0.8-3.2-1.9-5.8-2c-5.5-0.3-10.2,3.8-12.3,7.8c-2.7,5.1-1.2,10.3,1.8,20.7c1.7,5.9,3.5,10.2,5.6,15.1
	c5.3,12.2,6.2,11.5,8.8,18.8c2,5.6,1.4,5.6,4.8,16.8c2,6.6,2.7,10,4.6,13.4c2,3.7,6.1,11,13.3,12.1
	C296,242.9,298.4,242.3,299.9,241.8z"/>
<linearGradient id="SVGID_22_" gradientUnits="userSpaceOnUse" x1="207.7364" y1="457.9878" x2="166.8497" y2="387.1699" gradientTransform="matrix(-0.8341 0.5517 -0.5517 -0.8341 636.2934 379.733)">
	<stop  offset="0" style="stop-color:#D3D6D6"/>
	<stop  offset="0.6073" style="stop-color:#BDC2C7"/>
	<stop  offset="0.878" style="stop-color:#ABABAB"/>
</linearGradient>
<path class="st21" d="M278,148c-1.3-4.8-4-7.8-6.4-10.5c-5.8-6.7-10.9-14-16.5-20.8c-5.3-6.5-4.5-5.5-12-14.8
	c-3.9-4.7-7.8-9.4-11.6-14.1c-2.9-1.3-6.3-0.9-8.6,1c-2.7,2.2-3.7,6.2-2.3,9.6c8.1,11.7,13.7,21.8,17.2,28.7
	c3.1,6.2,5.7,11.1,8.7,16.3c6.1,10.6,5.9,9.3,7.8,13.5c1.8,2.9,3.6,6,5.3,9.2c1.5,2.7,2.8,5.3,4.1,7.8c1.1-0.2,2.9-0.7,4.8-1.8
	c7-3.9,8.9-11.6,9.4-13.5C278.3,156.7,279.3,152.7,278,148z"/>
<linearGradient id="SVGID_23_" gradientUnits="userSpaceOnUse" x1="487.2823" y1="455.2648" x2="515.124" y2="488.4452" gradientTransform="matrix(0.7768 -0.6298 -0.6298 -0.7768 128.1651 756.592)">
	<stop  offset="0" style="stop-color:#D3D6D6"/>
	<stop  offset="0.6073" style="stop-color:#BDC2C7"/>
</linearGradient>
<path class="st22" d="M225.7,96.2c-2.1-3.6-4.2-6.1-5.8-7.9c-1.6-1.8-4.6-4.7-7.8-7.6c-2.5-2.3-3-2.6-3.8-3.8
	c-1.2-2-0.9-2.8-2.3-7.7c-1-3.4-1.2-3.4-1.6-5.4c-0.5-2.7-0.1-2.8-0.6-5.9c-0.5-3.2-1.3-4.8-0.6-5.2c0.6-0.4,1.9,0.5,2,0.6
	c1.5,1.1,1.6,2.9,1.6,3.1c0.3,1,0.8,2.5,1.1,4.5c0.2,1.1,0.2,1.2,0.3,1.8c0.4,1.6,1.1,2.4,2.4,4.6c1.9,3.2,1.6,3.3,2.3,3.9
	c1.6,1.3,4.6,1.3,4.6,1.3c1.8,0.9,3.6,1.8,5.4,2.7c0.7,1.5,1.8,3.6,3.4,6c1.3,2,2.4,3.3,5.2,6.8c2.5,3,4.6,5.6,6.3,7.6
	C233.7,95.7,229.7,95.9,225.7,96.2z"/>
<linearGradient id="SVGID_24_" gradientUnits="userSpaceOnUse" x1="482.0135" y1="459.5146" x2="510.6725" y2="493.6692" gradientTransform="matrix(0.7828 -0.6222 -0.6222 -0.7828 124.0817 756.3151)">
	<stop  offset="0" style="stop-color:#D3D6D6"/>
	<stop  offset="0.6073" style="stop-color:#BDC2C7"/>
</linearGradient>
<path class="st23" d="M220.8,95.5c-2.1-3.6-4.2-6.2-5.8-7.9c-1.6-1.8-4.5-4.7-7.7-7.7c-2.5-2.3-3-2.6-3.7-3.9
	c-1.2-2-0.9-2.9-2.2-7.7c-1-3.5-1.2-3.4-1.6-5.4c-0.5-2.7-0.1-2.8-0.5-5.9c-0.5-3.2-1.3-4.8-0.6-5.3c0.6-0.4,1.8,0.5,2,0.6
	c1.5,1.1,1.6,2.9,1.6,3.1c0.3,1,0.7,2.6,1.1,4.5c0.2,1.1,0.2,1.2,0.3,1.8c0.7,2.7,2.3,4.6,2.3,4.6c0.5,0.6,1,1,1.8,1.7
	c1.1,0.9,1.2,0.8,2.4,1.7c1.5,1.2,1.8,1.7,2.6,1.8c0.2,0,1.2,0.1,1.6-0.5c0.2-0.3,0.3-1-1.3-3.7c-1-1.6-1.9-2.9-3.5-5.3
	c-0.6-0.9-1.3-2-1.1-3.4c0-0.4,0.1-0.9,0.5-1.1c0.5-0.3,1.4,0.5,3.7,2.9c1.2,1.3,2.4,2.6,4.8,5.4c2.1,2.5,2.6,3.2,3.1,4
	c0.7,1.2,1.3,2.3,1.8,3.7c0.4,1.1,0.8,2,1,2.8c0.5,1.6,0.9,3,1.2,3.8c0.1,0.4,0.2,0.8,0.2,0.8c1.1,4.1,4.9,10.2,4.9,10.2
	c1,1.6,2.3,3.6,4.1,5.9C229.4,96.6,225.1,96.1,220.8,95.5z"/>
<linearGradient id="SVGID_25_" gradientUnits="userSpaceOnUse" x1="496.0658" y1="435.9501" x2="525.6497" y2="471.2069" gradientTransform="matrix(0.7076 -0.7066 -0.7066 -0.7076 174.5427 760.4462)">
	<stop  offset="0" style="stop-color:#D3D6D6"/>
	<stop  offset="0.6073" style="stop-color:#BDC2C7"/>
</linearGradient>
<path class="st24" d="M222.3,101c-1.7-2.8-4-6-7-9.4c-2.8-3.1-5.5-5.5-7.9-7.4c0,0-2-1.1-3.6-2.8c-0.2-0.2-0.4-0.4-0.6-0.6
	c-1.4-1.8-1.2-2.7-3.1-7.4c-1.3-3.3-1.6-3.2-2.2-5.2c-0.8-2.7-0.4-2.8-1.2-5.8c-0.9-3.1-1.8-4.6-1.2-5.2c0.6-0.5,1.9,0.3,2,0.4
	c1.6,0.9,1.9,2.7,1.9,2.9c0.4,1,1,2.5,1.6,4.3c0.3,1,0.3,1.2,0.5,1.8c0.6,1.5,1.3,2.3,2.8,4.3c2.2,3,2,3.1,2.7,3.6
	c1.8,1.1,4.7,0.8,4.7,0.8c4.2-0.5,11.8,7,12.9,8.1c3,2.9,3.8,4.6,5.9,7.2c1,1.1,1.3,1.4,2.1,2.1c0.4,0.4,0.7,0.8,1.3,1.3
	c0.4,0.5,0.9,1,1.5,1.7C231.1,97.5,226.7,99.3,222.3,101z"/>
<g id="Calves">
	
		<linearGradient id="SVGID_26_" gradientUnits="userSpaceOnUse" x1="286.338" y1="-176.9753" x2="250.3222" y2="-176.9753" gradientTransform="matrix(-4.206439e-02 0.9991 0.9991 4.206439e-02 333.6507 190.2728)">
		<stop  offset="0" style="stop-color:#ABABAB"/>
		<stop  offset="0.3463" style="stop-color:#D3D6D6"/>
		<stop  offset="0.8171" style="stop-color:#BDC2C7"/>
		<stop  offset="1" style="stop-color:#ABABAB"/>
	</linearGradient>
	<path class="st25" d="M192.6,434.9c-5.9,0.2-13.6,0.4-22.7,0.8c-12.3,0.6-21.5,1.3-28.9,1.9c-1.4,0.1-20,1.6-26.5,2.3
		c-1.1,0.1-3.4,0.4-6.6,0.6c-2.7,0.3-3.6,0.2-9.1,0.8c0,0-2,0.2-3.9,0.3c-7.2,0.3-9.2-1.3-11.4,0.2c-2,1.4-2.2,4.1-2.4,5.4
		c-0.6,4.2,1.4,8.4,5,11c1.7,0.1,4.4,0.4,7.7,0.6c10.2,0.7,16.4,1,19.1,1.2c4.9,0.5,12.1,1.3,29,4c15,2.4,18.4,3.3,24.1,4.2
		c2.9,0.3,4.8,0.7,5,0.8c27.7,5.4,35.9-5,35.9-5c7.5-9.3-1.3-27-1.9-28.2C200.9,435.6,196.7,435.3,192.6,434.9z"/>
	
		<linearGradient id="SVGID_27_" gradientUnits="userSpaceOnUse" x1="254.3859" y1="-343.8446" x2="254.3859" y2="-343.8446" gradientTransform="matrix(-4.206439e-02 0.9991 0.9991 4.206439e-02 330.7386 259.5119)">
		<stop  offset="0" style="stop-color:#ABABAB"/>
		<stop  offset="0.3463" style="stop-color:#D3D6D6"/>
		<stop  offset="0.8171" style="stop-color:#BDC2C7"/>
		<stop  offset="1" style="stop-color:#ABABAB"/>
	</linearGradient>
	<path class="st26" d="M-23.5,499.2"/>
	
		<linearGradient id="SVGID_28_" gradientUnits="userSpaceOnUse" x1="132.5278" y1="54.8194" x2="132.5278" y2="54.8194" gradientTransform="matrix(0.986 -0.167 -0.167 -0.986 3.2412 568.1373)">
		<stop  offset="0" style="stop-color:#ABABAB"/>
		<stop  offset="0.3463" style="stop-color:#D3D6D6"/>
		<stop  offset="0.8171" style="stop-color:#BDC2C7"/>
		<stop  offset="1" style="stop-color:#ABABAB"/>
	</linearGradient>
	<path class="st27" d="M124.8,492"/>
</g>
<linearGradient id="SVGID_29_" gradientUnits="userSpaceOnUse" x1="557.474" y1="299.1572" x2="557.474" y2="256.625" gradientTransform="matrix(-0.8716 0.4903 -0.4903 -0.8716 672.9648 427.5399)">
	<stop  offset="0" style="stop-color:#ABABAB"/>
	<stop  offset="0.3463" style="stop-color:#D3D6D6"/>
	<stop  offset="1" style="stop-color:#C5C8C9"/>
</linearGradient>
<path class="st28" d="M90,441.5c-3.1-0.2-6.2-0.4-9.3-0.6c-3.7-0.5-6-1.7-7.5-2.8c-1-0.7-3.5-2.7-6.9-4.3c-0.1,0-0.1-0.1-0.2-0.1
	c-0.9-0.4-2.5-0.8-7.3,0.8c-7.2,2.3-12.2,5.9-13.5,6.9c-3.4,2.5-2.9,2.9-5.5,4.5c-4.2,2.8-6.1,2.4-11.8,4.5c-2.7,1-1.9,1.1-6.4,3
	c-6.2,2.7-9.2,4-12.1,4.7c-1.7,0.4-3.5,0.7-4.3,2.2c-0.7,1.2-0.7,2.8,0,3.8c1.2,1.9,5.2,2.2,9.5,0c6.5-1.2,11.7-1.5,15.5-1.5
	c4.3,0,7.9,0.3,17.1,0.3c2.7,0,4.1,0,4.9-0.1c6-0.2,10.3-0.7,12.8-0.9c6.4-0.7,16.4-1.8,29-3.2C92.6,453.1,91.3,447.3,90,441.5z"/>
</svg>
