<?xml version="1.0" encoding="utf-8"?>
<!-- Generator: Adobe Illustrator 22.1.0, SVG Export Plug-In . SVG Version: 6.00 Build 0)  -->
<svg version="1.1" id="Layer_1" xmlns="http://www.w3.org/2000/svg" xmlns:xlink="http://www.w3.org/1999/xlink" x="0px" y="0px"
	 viewBox="0 0 432 576" style="enable-background:new 0 0 432 576;" xml:space="preserve">
<style type="text/css">
	.st0{fill:url(#SVGID_1_);}
	.st1{fill:url(#SVGID_2_);}
	.st2{fill:url(#SVGID_3_);}
	.st3{fill:url(#SVGID_4_);}
	.st4{fill:url(#SVGID_5_);}
	.st5{fill:url(#SVGID_6_);}
	.st6{fill:url(#SVGID_7_);}
	.st7{fill:url(#SVGID_8_);}
	.st8{fill:url(#SVGID_9_);}
	.st9{fill:url(#SVGID_10_);}
	.st10{fill:url(#SVGID_11_);}
	.st11{fill:url(#SVGID_12_);}
	.st12{fill:url(#SVGID_13_);}
	.st13{fill:url(#SVGID_14_);}
	.st14{fill:url(#SVGID_15_);}
	.st15{fill:url(#SVGID_16_);}
	.st16{fill:url(#SVGID_17_);}
	.st17{fill:url(#SVGID_18_);}
	.st18{fill:url(#SVGID_19_);}
	.st19{fill:url(#SVGID_20_);}
	.st20{fill:url(#SVGID_21_);}
	.st21{fill:url(#SVGID_22_);}
	.st22{fill:url(#SVGID_23_);}
	.st23{fill:url(#SVGID_24_);}
	.st24{fill:url(#SVGID_25_);}
	.st25{fill:url(#SVGID_26_);}
	.st26{fill:url(#SVGID_27_);}
	.st27{fill:url(#SVGID_28_);}
	.st28{fill:url(#SVGID_29_);}
</style>
<linearGradient id="SVGID_1_" gradientUnits="userSpaceOnUse" x1="201.041" y1="314.5707" x2="155.5088" y2="314.5707" gradientTransform="matrix(3.456647e-02 -0.9994 0.9994 3.456647e-02 -20.3201 506.4438)">
	<stop  offset="0" style="stop-color:#ABABAB"/>
	<stop  offset="0.3463" style="stop-color:#D3D6D6"/>
	<stop  offset="0.8171" style="stop-color:#BDC2C7"/>
	<stop  offset="1" style="stop-color:#ABABAB"/>
</linearGradient>
<path class="st0" d="M262.2,357.2c0.4,0.3,0.8,0.6,1.2,0.9c6.8,4,12.9,3.3,28.7,1.9c2.4-0.2,8.4-0.7,20.6-1.7
	c2.7-0.2,6.2-0.5,8.7-0.7c5.9-0.5,10.7-0.9,13.9-1.1c7.9-6.8,11.1-16.3,8.3-23.4c-1.8-4.6-5.9-7.3-6.2-7.5
	c-2.7-1.8-4.7-1.9-12.1-2.9c-13.6-1.7-20.7-2.9-24.4-3.6c-3.2-0.6-2.3-0.5-5.7-1.2c-18.1-3.3-23.4-2.7-28.3-0.3
	c-0.7,0.4-1.3,0.6-2.1,1.2C254.2,326.2,252.8,349,262.2,357.2z"/>
<linearGradient id="SVGID_2_" gradientUnits="userSpaceOnUse" x1="413.4615" y1="390.958" x2="376.6691" y2="390.958" gradientTransform="matrix(1 0 0 1 -69.3003 0)">
	<stop  offset="0" style="stop-color:#ABABAB"/>
	<stop  offset="0.3463" style="stop-color:#D3D6D6"/>
	<stop  offset="0.8171" style="stop-color:#BDC2C7"/>
	<stop  offset="1" style="stop-color:#ABABAB"/>
</linearGradient>
<path class="st1" d="M313.6,341.9c-5.4,10.7-6.5,19.5-6.2,25.8c0.2,6,1.3,5.4,5.3,24.3c0,0,2.5,11.8,4.7,25.8
	c1.4,8.8,0.7,6.7,2,14.5c0,0.3,0.3,2.4,0.4,3.7c0.1,1.8,0,4.7-1.5,8.4c0.4,0.6,3,3.8,7.4,4.2c3.9,0.4,7.8-1.6,10.1-5.1
	c0.1-1.6,0.1-4.2,0.2-7.2c0.3-9.4,0.3-15.3,0.4-17.7c0.2-4.6,0.7-11.3,2.6-27.1c2.1-17.6,2.6-18.2,3.6-27.3
	c0.7-7.1,1.6-17.6,1.6-30.8C334,336.2,323.8,339.1,313.6,341.9z"/>
<linearGradient id="SVGID_3_" gradientUnits="userSpaceOnUse" x1="672.2106" y1="474.2728" x2="672.2106" y2="430.6693" gradientTransform="matrix(1 0 0 1 -327.2092 0)">
	<stop  offset="0" style="stop-color:#ABABAB"/>
	<stop  offset="0.3463" style="stop-color:#D3D6D6"/>
	<stop  offset="1" style="stop-color:#C5C8C9"/>
</linearGradient>
<path class="st2" d="M319.9,439c-0.4,2.1-1.2,5-2.8,8.1c-1.4,2.8-3.1,5-4.5,6.5c-2.3,4.4-2.7,8.2-2.8,10.5c-0.1,3.8,0.9,5.1,1.3,5.6
	c0.6,0.7,1.8,1.9,6.8,2.9c7.4,1.5,13.5,0.8,15.1,0.6c4.2-0.6,3.9-1.1,7-1.3c5-0.4,6.5,0.9,12.5,1.9c10.5,1.6,12.6-1.3,21.3-0.5
	c0.9,0.1,3.1,0.3,4.8-0.9c0.9-0.7,1.8-2,1.5-3.1c-0.5-1.9-4.1-2.4-7.4-3c0,0-8.3-1.6-16-4.2c-4.8-1.6-10.4-3.6-14.8-8.6
	c-0.4-0.5-2.2-2.6-3.7-5.9c-3.1-6.8-2.7-13.3-2.1-16.9C330.7,433.5,325.3,436.3,319.9,439z"/>
<linearGradient id="SVGID_4_" gradientUnits="userSpaceOnUse" x1="190.4031" y1="254.542" x2="190.6528" y2="168.0821" gradientTransform="matrix(2.887784e-03 -1 -1 -2.887784e-03 487.2676 532.4977)">
	<stop  offset="0" style="stop-color:#363233"/>
	<stop  offset="1" style="stop-color:#000000"/>
</linearGradient>
<path class="st3" d="M235.2,358.2c2.7,6.6,7,9.9,9.1,11.5c11.4,8.5,24.7,4.2,26.7,3.6c1.8-0.6,5.7-2,11.8-3.7
	c1.5-0.4,3.4-0.9,5.8-1.4c3.9-0.8,5.7-0.8,14.7-1.9c1.8-0.2,3.2-0.4,4.1-0.5c4.6-4.9,7.1-9.7,8.5-12.8c1.4-3.1,4.5-10.6,3.6-20.6
	c-0.5-5.9-2.4-10.5-3.7-13.3c-7.4-1.5-13.4-2.5-17.6-3.1c-3.6-0.5-6.9-1-13.5-2.1c-6-1-6.3-1.1-8.3-1.4c-4.8-0.7-20.9-1.1-20.9-1.1
	c-4.2-0.1-10.2-0.8-17.7-3.6c-3,12-4,22.1-4.3,29.1C232.8,350.4,233.9,355.1,235.2,358.2z"/>
<linearGradient id="SVGID_5_" gradientUnits="userSpaceOnUse" x1="215.1065" y1="149.8335" x2="296.1594" y2="180.4554">
	<stop  offset="0" style="stop-color:#BDBFBF"/>
	<stop  offset="0.6073" style="stop-color:#BDC2C7"/>
	<stop  offset="0.878" style="stop-color:#8F8F8F"/>
</linearGradient>
<path class="st4" d="M280.1,214.5c1.1-1.2,2.7-3.1,4.3-5.6c1.8-2.7,2.9-4.5,3.6-7.2c0.7-2.9,0.5-5.1,0.2-7.8c-0.4-4-1.5-7.1-2.3-9.3
	c-0.4-1.1-1-2.6-2.2-5c0,0-1-2-2-3.9c-3.3-5.9-7.6-10.4-12.8-18.6c-0.7-1.1-1.3-2.1-2.6-4.3c-4.5-7.5-7.6-13.1-8.4-14.5
	c-2.5-4.6-7-11.7-15.3-22.6c-1.2-0.6-3.4-1.5-6-1.4c-5.5,0.3-9.8,4.9-11.4,9c-2.2,5.3-0.1,10.4,3.9,20.4c2.3,5.7,4.5,9.8,7.1,14.4
	c6.5,11.6,7.3,10.8,10.7,17.8c2.6,5.3,1.9,5.4,6.5,16.3c2.7,6.4,3.7,9.7,6,12.9c2.4,3.5,7.1,10.3,14.4,10.7
	C276.4,216,278.7,215.2,280.1,214.5z"/>
<linearGradient id="SVGID_6_" gradientUnits="userSpaceOnUse" x1="181.9143" y1="94.8152" x2="258.4108" y2="123.7157">
	<stop  offset="0" style="stop-color:#BDBFBF"/>
	<stop  offset="0.6073" style="stop-color:#BDC2C7"/>
	<stop  offset="0.878" style="stop-color:#8F8F8F"/>
</linearGradient>
<path class="st5" d="M252.8,123.4c-1.8-4.7-4.8-7.4-7.4-9.8c-6.4-6.1-12.3-12.8-18.5-19c-5.9-5.9-5-5.1-13.5-13.5
	c-4.3-4.3-8.7-8.6-13-12.8c-3-1-6.3-0.3-8.5,1.9c-2.5,2.5-3,6.5-1.3,9.8c9.3,10.9,15.8,20.3,20,26.8c3.8,5.8,6.8,10.5,10.3,15.3
	c7.1,10,6.8,8.6,9.1,12.6c2.1,2.7,4.2,5.6,6.2,8.6c1.7,2.5,3.3,5,4.8,7.4c1.1-0.4,2.8-1,4.6-2.3c6.5-4.6,7.7-12.4,8-14.4
	C254,132,254.6,128,252.8,123.4z"/>
<linearGradient id="SVGID_7_" gradientUnits="userSpaceOnUse" x1="163.5101" y1="49.4112" x2="210.5087" y2="67.1674">
	<stop  offset="0" style="stop-color:#BDBFBF"/>
	<stop  offset="0.6073" style="stop-color:#BDC2C7"/>
	<stop  offset="0.878" style="stop-color:#8F8F8F"/>
</linearGradient>
<path class="st6" d="M195.5,77.2c-2.5-3.3-4.8-5.7-6.6-7.2c-1.8-1.6-5-4.2-8.5-6.8c-2.8-2-3.3-2.3-4.1-3.4c-1.4-1.8-1.2-2.7-3.1-7.4
	c-1.3-3.3-1.6-3.2-2.2-5.2c-0.8-2.7-0.4-2.8-1.2-5.8c-0.9-3.1-1.8-4.7-1.2-5.2c0.6-0.5,1.9,0.3,2,0.4c1.6,0.9,1.9,2.8,1.9,2.9
	c0.4,1,1,2.5,1.6,4.3c0.3,1,0.3,1.2,0.5,1.8c0.6,1.6,1.3,2.3,2.8,4.3c2.2,3,2,3.1,2.7,3.6c1.7,1.2,4.7,0.8,4.7,0.8
	c1.9,0.7,3.8,1.4,5.7,2.1c0.8,1.4,2.2,3.4,4,5.6c1.5,1.8,2.7,3.1,5.9,6.2c2.8,2.8,5.2,5.1,7,6.9C203.5,75.9,199.5,76.5,195.5,77.2z"
	/>
<linearGradient id="SVGID_8_" gradientUnits="userSpaceOnUse" x1="158.9336" y1="49.2022" x2="207.3474" y2="67.493">
	<stop  offset="0" style="stop-color:#BDBFBF"/>
	<stop  offset="0.6073" style="stop-color:#BDC2C7"/>
	<stop  offset="0.878" style="stop-color:#8F8F8F"/>
</linearGradient>
<path class="st7" d="M190.6,77c-2.4-3.4-4.8-5.7-6.5-7.3c-1.8-1.6-5-4.3-8.4-6.9c-2.7-2.1-3.3-2.3-4.1-3.5c-1.4-1.8-1.2-2.7-3-7.5
	c-1.3-3.3-1.5-3.2-2.1-5.3c-0.8-2.7-0.3-2.8-1.1-5.8c-0.8-3.1-1.7-4.7-1.1-5.2c0.6-0.4,1.9,0.4,2,0.4c1.6,1,1.9,2.8,1.9,3
	c0.4,1,1,2.5,1.5,4.3c0.3,1.1,0.3,1.2,0.5,1.8c1,2.6,2.8,4.4,2.8,4.4c0.6,0.6,1.1,0.9,2,1.5c1.2,0.8,1.2,0.7,2.5,1.5
	c1.6,1,2,1.5,2.8,1.5c0.2,0,1.2,0,1.5-0.6c0.2-0.4,0.2-1.1-1.7-3.6c-1.1-1.5-2.2-2.7-4-4.9c-0.7-0.8-1.5-1.9-1.5-3.3
	c0-0.4,0-1,0.4-1.2c0.5-0.3,1.5,0.3,4,2.5c1.4,1.2,2.7,2.4,5.3,4.9c2.4,2.3,2.9,2.9,3.5,3.7c0.8,1.1,1.5,2.2,2.2,3.5
	c0.5,1,1,1.9,1.3,2.6c0.7,1.6,1.2,2.9,1.5,3.7c0.2,0.4,0.3,0.7,0.3,0.8c1.5,4,5.9,9.6,5.9,9.6c1.1,1.5,2.7,3.3,4.6,5.4
	C199.3,77.2,194.9,77.1,190.6,77z"/>
<linearGradient id="SVGID_9_" gradientUnits="userSpaceOnUse" x1="156.8087" y1="53.9727" x2="206.4193" y2="72.7157">
	<stop  offset="0" style="stop-color:#BDBFBF"/>
	<stop  offset="0.6073" style="stop-color:#BDC2C7"/>
	<stop  offset="0.878" style="stop-color:#8F8F8F"/>
</linearGradient>
<path class="st8" d="M192.7,82.4c-2-2.6-4.6-5.6-7.9-8.6c-3.1-2.8-6-4.9-8.6-6.5c0,0-2.1-0.9-3.9-2.4c-0.2-0.2-0.4-0.4-0.6-0.6
	c-1.6-1.7-1.5-2.6-3.8-7.1c-1.7-3.2-1.9-3-2.7-5c-1.1-2.6-0.7-2.8-1.8-5.7c-1.2-3-2.3-4.4-1.7-5c0.5-0.5,1.9,0.1,2.1,0.2
	c1.7,0.8,2.2,2.5,2.2,2.7c0.5,0.9,1.3,2.3,2,4.1c0.4,1,0.4,1.1,0.7,1.7c0.8,1.5,1.5,2.1,3.3,4c2.5,2.8,2.3,2.9,3.1,3.3
	c1.9,1,4.7,0.3,4.7,0.3c4.1-0.9,12.5,5.7,13.7,6.7c3.3,2.6,4.2,4.2,6.6,6.5c1.1,1,1.5,1.2,2.3,1.9c0.5,0.4,0.8,0.7,1.4,1.2
	c0.5,0.4,1,0.9,1.6,1.6C201.1,78,196.9,80.2,192.7,82.4z"/>
<linearGradient id="SVGID_10_" gradientUnits="userSpaceOnUse" x1="316.6612" y1="484.0652" x2="316.6612" y2="484.0652">
	<stop  offset="0" style="stop-color:#ABABAB"/>
	<stop  offset="0.3463" style="stop-color:#D3D6D6"/>
	<stop  offset="0.8171" style="stop-color:#BDC2C7"/>
	<stop  offset="1" style="stop-color:#ABABAB"/>
</linearGradient>
<path class="st9" d="M316.7,484.1"/>
<linearGradient id="SVGID_11_" gradientUnits="userSpaceOnUse" x1="346.7157" y1="332.1439" x2="346.7157" y2="332.1439">
	<stop  offset="0" style="stop-color:#ABABAB"/>
	<stop  offset="0.3463" style="stop-color:#D3D6D6"/>
	<stop  offset="0.8171" style="stop-color:#BDC2C7"/>
	<stop  offset="1" style="stop-color:#ABABAB"/>
</linearGradient>
<path class="st10" d="M346.7,332.1"/>
<linearGradient id="SVGID_12_" gradientUnits="userSpaceOnUse" x1="241.3381" y1="162.5248" x2="289.9925" y2="162.5248">
	<stop  offset="7.317073e-03" style="stop-color:#AAAAAA"/>
	<stop  offset="0.2244" style="stop-color:#AEAEAE"/>
	<stop  offset="0.4431" style="stop-color:#BABABA"/>
	<stop  offset="0.6625" style="stop-color:#CECECE"/>
	<stop  offset="0.8813" style="stop-color:#EAEAEA"/>
	<stop  offset="0.9317" style="stop-color:#F2F2F2"/>
</linearGradient>
<path class="st11" d="M253.4,159c0.3-0.7,2-4.2,1.7-9c-0.2-2.3-1-4.4-2.7-8.7c-0.4-1-0.9-2.1-1.7-4.1c-0.7-1.8-1.2-3.2-1.5-4.2
	c13.7,4.4,23,10.5,28.8,15.1c9.7,7.7,12.6,13.6,11.8,14.8c-0.8,1.2-3.5,0.2-5.5,2.3c-0.3,0.4-0.9,1.1-2,5.3
	c-0.8,3.2-1.3,4.8-1.3,5.3c-0.4,4.7,3.9,8.8,6.2,10.7c-2,1.6-5.2,3.8-9.7,4.8c-8.9,2.1-16.3-2-24.5-6.5c-6.3-3.5-11.8-6.5-11.7-10.4
	c0.1-1.7,2.5-4.4,7.4-9.9C251.6,161.5,252.4,160.9,253.4,159z"/>
<linearGradient id="SVGID_13_" gradientUnits="userSpaceOnUse" x1="261.9089" y1="150.6446" x2="302.6548" y2="116.4548">
	<stop  offset="7.317073e-03" style="stop-color:#B0B0AE"/>
	<stop  offset="0.8137" style="stop-color:#E9E9E9"/>
	<stop  offset="0.9317" style="stop-color:#F2F2F2"/>
</linearGradient>
<path class="st12" d="M284.4,103.6c-7.7-1.4-13.8-0.1-15.2,0.2c-5.3,1.2-11.9,2.7-16.5,8.7c-4.7,6.2-4.3,13.2-4.2,15.2
	c0.1,2.3,0.6,8.6,5.3,13.3c3.4,3.4,7.6,4.7,9.3,5.2c2.2,0.7,4.2,0.9,5.6,1c-0.2,1.6-0.4,4.3,0.9,7c1.4,3,3.9,4.4,7.8,6.7
	c2.8,1.6,6.3,2.6,13.5,4.8c3.6,1.1,5.7,1.6,7.7,0.5c1.5-0.8,2.2-2.1,2.8-3.2c1.3-2.3,1-3.6,1.8-8c1-5.5,0.7-6.2,1.5-7.5
	c1-1.8,2-2.1,2-3.3c0-1.4-1.1-1.9-3.2-5c-1.3-1.9-1.9-2.9-1.8-4c0.1-1.8,1.5-2.2,2.3-4.2c0.3-0.7,0.6-1.9-0.8-7.2
	c-1.2-4.5-1.9-6.8-3.5-9.7c-1.2-2-2.3-4.3-4.7-6.2C291.5,105,287.7,104.3,284.4,103.6z"/>
<linearGradient id="SVGID_14_" gradientUnits="userSpaceOnUse" x1="307.3688" y1="144.8023" x2="307.3688" y2="144.8023">
	<stop  offset="7.317073e-03" style="stop-color:#AAAAAA"/>
	<stop  offset="0.9317" style="stop-color:#F2F2F2"/>
</linearGradient>
<path class="st13" d="M307.4,144.8"/>
<linearGradient id="SVGID_15_" gradientUnits="userSpaceOnUse" x1="254.5355" y1="152.9689" x2="254.5355" y2="152.9689">
	<stop  offset="7.317073e-03" style="stop-color:#AAAAAA"/>
	<stop  offset="0.9317" style="stop-color:#F2F2F2"/>
</linearGradient>
<path class="st14" d="M254.5,153"/>
<linearGradient id="SVGID_16_" gradientUnits="userSpaceOnUse" x1="27.0326" y1="382.5565" x2="-18.4997" y2="382.5565" gradientTransform="matrix(0.8744 0.4852 -0.4852 0.8744 389.2083 89.2975)">
	<stop  offset="0" style="stop-color:#ABABAB"/>
	<stop  offset="0.3463" style="stop-color:#D3D6D6"/>
	<stop  offset="0.8171" style="stop-color:#BDC2C7"/>
	<stop  offset="1" style="stop-color:#ABABAB"/>
</linearGradient>
<path class="st15" d="M209.2,382.8c-0.5,0.2-0.9,0.4-1.3,0.7c-6.6,4.2-8.8,10-14.7,24.7c-0.9,2.2-3.2,7.8-7.8,19.1
	c-1,2.5-2.4,5.8-3.3,8c-2.3,5.5-4.1,9.9-5.3,12.9c-0.3,1-0.5,2.5-0.5,4.3c0,0.9,0.1,4.6,2.1,7.8c3.8,6,12.6,6,15.4,6
	c2.3,0,5.9-0.1,9.5-2.1c2.8-1.6,3.8-3.3,8.1-9.5c7.7-11.4,12-17.1,14.3-20.1c2-2.6,1.5-1.8,3.6-4.6c11.2-14.6,13.1-19.6,13.1-25.1
	c0-0.8,0-1.4-0.1-2.4C240.4,389.7,220.7,378.1,209.2,382.8z"/>
<linearGradient id="SVGID_17_" gradientUnits="userSpaceOnUse" x1="173.9359" y1="312.0681" x2="242.1524" y2="312.0681" gradientTransform="matrix(0.8744 0.4852 -0.4852 0.8744 207.2087 -11.6799)">
	<stop  offset="0" style="stop-color:#363233"/>
	<stop  offset="1" style="stop-color:#000000"/>
</linearGradient>
<path class="st16" d="M234.9,311.8c-0.7,1.1-1.8,2.6-3.4,4.2c-2.3,2.3-4.3,3.6-5.4,4.4c-3.8,2.7-6.2,5.8-8.6,8.9
	c-5.2,6.8-7.2,13.3-8,16.2c-1.7,5.7-2,10.3-2.1,13.1c-0.2,3.6-0.1,6.6,0.1,8.9c-0.5,1.7-1.3,4.2-2.4,7.2c-2.8,7.6-5.1,12.2-7.5,17.6
	c-1.8,4-4.2,9.8-6.7,17.3c1.3,1.3,3.1,3.1,5.4,5c4.4,3.8,11.1,9.4,20.8,12.5c3.1,1,7.9,2.1,14,2.2c5.9-7.7,10.6-14,13.8-18.4
	c2.7-3.8,5.1-7.3,10.2-14.3c4.6-6.3,4.9-6.6,6.4-8.8c2-2.9,9.2-13.8,14-23.1c10.4-20.3,17.3-47.1,17.9-49.3
	C273.7,314.1,254.3,313,234.9,311.8z"/>
<linearGradient id="SVGID_18_" gradientUnits="userSpaceOnUse" x1="199.0648" y1="532.6617" x2="199.0648" y2="532.6617">
	<stop  offset="0" style="stop-color:#ABABAB"/>
	<stop  offset="0.3463" style="stop-color:#D3D6D6"/>
	<stop  offset="0.8171" style="stop-color:#BDC2C7"/>
	<stop  offset="1" style="stop-color:#ABABAB"/>
</linearGradient>
<path class="st17" d="M199.1,532.7"/>
<linearGradient id="SVGID_19_" gradientUnits="userSpaceOnUse" x1="279.84" y1="436.2975" x2="279.84" y2="436.2975">
	<stop  offset="0" style="stop-color:#ABABAB"/>
	<stop  offset="0.3463" style="stop-color:#D3D6D6"/>
	<stop  offset="0.8171" style="stop-color:#BDC2C7"/>
	<stop  offset="1" style="stop-color:#ABABAB"/>
</linearGradient>
<path class="st18" d="M279.8,436.3"/>
<linearGradient id="SVGID_20_" gradientUnits="userSpaceOnUse" x1="229.5331" y1="241.5345" x2="297.8429" y2="241.5345" gradientTransform="matrix(1 0 0 1.0267 0 -2.9584)">
	<stop  offset="0" style="stop-color:#363233"/>
	<stop  offset="1" style="stop-color:#000000"/>
</linearGradient>
<path class="st19" d="M246,168c1.5,1.9,4.4,5.1,9,7c3.6,1.5,6.6,1.6,10,1.7c3.8,0.1,9.7-0.2,16.8-2.4c4.4,8.1,7.7,15.5,10.2,21.5
	c2,4.8,3,7.3,3.8,10.5c0.5,1.9,2.8,11,1.7,24.1c-0.2,2.8-0.4,3.2-0.8,5.5c-0.3,1.7-0.5,3-1,6.4c-1.5,10.9-2.2,14.5-2.7,19.6
	c-0.6,5.8-0.6,10-0.5,20.1c0.1,10.4,0.4,23,0.7,37.5c-7.3,1.5-16.8,2.8-27.9,2.3c-14.8-0.6-26.8-4-35-7c0.9-2.6,2.1-6.5,3.1-11.4
	c2.9-14.3,2-26.4,1.1-36.5c-0.1-0.9-0.6-5.7-1.7-15.3c-0.5-4.1-1.1-9.4-1.8-16.5c-1.1-10.3-1.5-14.8-1.5-21.2c0.1-9.5,0.1-16.7,3-25
	C234.2,184.2,237.8,176.1,246,168z"/>
<linearGradient id="SVGID_21_" gradientUnits="userSpaceOnUse" x1="168.745" y1="355.5785" x2="223.8727" y2="421.2771" gradientTransform="matrix(-0.9104 0.4136 -0.4136 -0.9104 585.9764 443.1812)">
	<stop  offset="0" style="stop-color:#D3D6D6"/>
	<stop  offset="0.6073" style="stop-color:#BDC2C7"/>
	<stop  offset="0.878" style="stop-color:#9C9C9C"/>
</linearGradient>
<path class="st20" d="M265.9,222.3c1.2-1.1,3-2.8,4.8-5.1c2-2.5,3.4-4.2,4.3-6.8c1-2.8,1-5.1,1-7.7c0-4-0.8-7.2-1.4-9.5
	c-0.3-1.1-0.7-2.7-1.6-5.2c0,0-0.7-2.1-1.6-4.1c-2.7-6.2-6.5-11.1-10.9-19.8c-0.6-1.1-1.1-2.3-2.2-4.5c-3.8-7.9-6.2-13.8-6.8-15.3
	c-2-4.8-5.7-12.4-13-24c-1.2-0.8-3.2-1.9-5.8-2c-5.5-0.3-10.2,3.8-12.3,7.8c-2.7,5.1-1.2,10.3,1.8,20.7c1.7,5.9,3.5,10.2,5.6,15.1
	c5.3,12.2,6.2,11.5,8.8,18.8c2,5.6,1.4,5.6,4.8,16.8c2,6.6,2.7,10,4.6,13.4c2,3.7,6.1,11,13.3,12.1
	C262,223.4,264.4,222.9,265.9,222.3z"/>
<linearGradient id="SVGID_22_" gradientUnits="userSpaceOnUse" x1="225.3606" y1="492.9747" x2="184.4739" y2="422.1568" gradientTransform="matrix(-0.8341 0.5517 -0.5517 -0.8341 636.2934 379.733)">
	<stop  offset="0" style="stop-color:#D3D6D6"/>
	<stop  offset="0.6073" style="stop-color:#BDC2C7"/>
	<stop  offset="0.878" style="stop-color:#ABABAB"/>
</linearGradient>
<path class="st21" d="M244,128.5c-1.3-4.8-4-7.8-6.4-10.5c-5.8-6.7-10.9-14-16.5-20.8c-5.3-6.5-4.5-5.5-12-14.8
	c-3.9-4.7-7.8-9.4-11.6-14.1c-2.9-1.3-6.3-0.9-8.6,1c-2.7,2.2-3.7,6.2-2.3,9.6c8.1,11.7,13.7,21.8,17.2,28.7
	c3.1,6.2,5.7,11.1,8.7,16.3c6.1,10.6,5.9,9.3,7.8,13.5c1.8,2.9,3.6,6,5.3,9.2c1.5,2.7,2.8,5.3,4.1,7.8c1.1-0.2,2.9-0.7,4.8-1.8
	c7-3.9,8.9-11.6,9.4-13.5C244.3,137.2,245.3,133.2,244,128.5z"/>
<linearGradient id="SVGID_23_" gradientUnits="userSpaceOnUse" x1="473.1269" y1="491.7934" x2="500.9685" y2="524.9737" gradientTransform="matrix(0.7768 -0.6298 -0.6298 -0.7768 128.1651 756.592)">
	<stop  offset="0" style="stop-color:#D3D6D6"/>
	<stop  offset="0.6073" style="stop-color:#BDC2C7"/>
</linearGradient>
<path class="st22" d="M191.7,76.7c-2.1-3.6-4.2-6.1-5.8-7.9c-1.6-1.8-4.6-4.7-7.8-7.6c-2.5-2.3-3-2.6-3.8-3.8
	c-1.2-2-0.9-2.8-2.3-7.7c-1-3.4-1.2-3.4-1.6-5.4c-0.5-2.7-0.1-2.8-0.6-5.9c-0.5-3.2-1.3-4.8-0.6-5.2c0.6-0.4,1.9,0.5,2,0.6
	c1.5,1.1,1.6,2.9,1.6,3.1c0.3,1,0.8,2.5,1.1,4.5c0.2,1.1,0.2,1.2,0.3,1.8c0.4,1.6,1.1,2.4,2.4,4.6c1.9,3.2,1.6,3.3,2.3,3.9
	c1.6,1.3,4.6,1.3,4.6,1.3c1.8,0.9,3.6,1.8,5.4,2.7c0.7,1.5,1.8,3.6,3.4,6c1.3,2,2.4,3.3,5.2,6.8c2.5,3,4.6,5.6,6.3,7.6
	C199.7,76.2,195.7,76.5,191.7,76.7z"/>
<linearGradient id="SVGID_24_" gradientUnits="userSpaceOnUse" x1="467.5048" y1="495.9043" x2="496.1639" y2="530.0588" gradientTransform="matrix(0.7828 -0.6222 -0.6222 -0.7828 124.0817 756.3151)">
	<stop  offset="0" style="stop-color:#D3D6D6"/>
	<stop  offset="0.6073" style="stop-color:#BDC2C7"/>
</linearGradient>
<path class="st23" d="M186.8,76.1c-2.1-3.6-4.2-6.2-5.8-7.9c-1.6-1.8-4.5-4.7-7.7-7.7c-2.5-2.3-3-2.6-3.7-3.9
	c-1.2-2-0.9-2.9-2.2-7.7c-1-3.5-1.2-3.4-1.6-5.4c-0.5-2.7-0.1-2.8-0.5-5.9c-0.5-3.2-1.3-4.8-0.6-5.3c0.6-0.4,1.8,0.5,2,0.6
	c1.5,1.1,1.6,2.9,1.6,3.1c0.3,1,0.7,2.6,1.1,4.5c0.2,1.1,0.2,1.2,0.3,1.8C170.3,45,172,47,172,47c0.5,0.6,1,1,1.8,1.7
	c1.1,0.9,1.2,0.8,2.4,1.7c1.5,1.2,1.8,1.7,2.6,1.8c0.2,0,1.2,0.1,1.6-0.5c0.2-0.3,0.3-1-1.3-3.7c-1-1.6-1.9-2.9-3.5-5.3
	c-0.6-0.9-1.3-2-1.1-3.4c0-0.4,0.1-0.9,0.5-1.1c0.5-0.3,1.4,0.5,3.7,2.9c1.2,1.3,2.4,2.6,4.8,5.4c2.1,2.5,2.6,3.2,3.1,4
	c0.7,1.2,1.3,2.3,1.8,3.7c0.4,1.1,0.8,2,1,2.8c0.5,1.6,0.9,3,1.2,3.8c0.1,0.4,0.2,0.8,0.2,0.8c1.1,4.1,4.9,10.2,4.9,10.2
	c1,1.6,2.3,3.6,4.1,5.9C195.4,77.2,191.1,76.6,186.8,76.1z"/>
<linearGradient id="SVGID_25_" gradientUnits="userSpaceOnUse" x1="485.7542" y1="473.744" x2="515.3381" y2="509.0008" gradientTransform="matrix(0.7076 -0.7066 -0.7066 -0.7076 174.5427 760.4462)">
	<stop  offset="0" style="stop-color:#D3D6D6"/>
	<stop  offset="0.6073" style="stop-color:#BDC2C7"/>
</linearGradient>
<path class="st24" d="M188.3,81.6c-1.7-2.8-4-6-7-9.4c-2.8-3.1-5.5-5.5-7.9-7.4c0,0-2-1.1-3.6-2.8c-0.2-0.2-0.4-0.4-0.6-0.6
	c-1.4-1.8-1.2-2.7-3.1-7.4c-1.3-3.3-1.6-3.2-2.2-5.2c-0.8-2.7-0.4-2.8-1.2-5.8c-0.9-3.1-1.8-4.6-1.2-5.2c0.6-0.5,1.9,0.3,2,0.4
	c1.6,0.9,1.9,2.7,1.9,2.9c0.4,1,1,2.5,1.6,4.3c0.3,1,0.3,1.2,0.5,1.8c0.6,1.5,1.3,2.3,2.8,4.3c2.2,3,2,3.1,2.7,3.6
	c1.8,1.1,4.7,0.8,4.7,0.8c4.2-0.5,11.8,7,12.9,8.1c3,2.9,3.8,4.6,5.9,7.2c1,1.1,1.3,1.4,2.1,2.1c0.4,0.4,0.7,0.8,1.3,1.3
	c0.4,0.5,0.9,1,1.5,1.7C197.1,78.1,192.7,79.8,188.3,81.6z"/>
<g id="Foot">
	
		<linearGradient id="SVGID_26_" gradientUnits="userSpaceOnUse" x1="515.9802" y1="-270.0376" x2="515.9802" y2="-228.1996" gradientTransform="matrix(-0.2057 0.9787 0.9787 0.2057 426.5443 -18.9777)">
		<stop  offset="0" style="stop-color:#ABABAB"/>
		<stop  offset="0.3463" style="stop-color:#D3D6D6"/>
		<stop  offset="1" style="stop-color:#C5C8C9"/>
	</linearGradient>
	<path class="st25" d="M99.4,414.9c-2.3-1-5.3-2.6-8.4-5.1c-2.7-2.3-4.9-4.7-6.2-6.7c-4.4-3.6-8.5-5.1-11-5.6c-4.2-1-5.9-0.3-6.4,0
		c-0.9,0.5-2.4,1.5-4.7,6.8c-3.3,7.8-3.9,14.7-4,16.7c-0.3,4.8,0.3,4.6-0.1,8c-0.8,6.8-3.7,7.6-4.8,13.4c-0.7,3.7,0,6.9,1.3,13.4
		c1.4,6.8,2.1,10.3,5.1,11.9c1.9,1,5.3,1.5,6.7-0.7c1.2-1.7,0.9-4.6-1-7c1.7-5,3.5-9.1,4.7-11.9c3.7-8.3,6-10.8,7.4-11.9
		c0.2-0.2,0.5-0.4,0.6-0.4c3.1-2.2,5.8-3.6,6.7-4c4.6-2,12.4,0.1,13.3,0.3c0.5-2,0.9-4.3,1.1-6.9C100,421.1,99.8,417.6,99.4,414.9z"
		/>
</g>
<g id="Calves">
	
		<linearGradient id="SVGID_27_" gradientUnits="userSpaceOnUse" x1="258.8389" y1="-177.3097" x2="222.8232" y2="-177.3097" gradientTransform="matrix(-0.277 0.9609 0.9609 0.277 385.9629 254.2881)">
		<stop  offset="0" style="stop-color:#ABABAB"/>
		<stop  offset="0.3463" style="stop-color:#D3D6D6"/>
		<stop  offset="0.8171" style="stop-color:#BDC2C7"/>
		<stop  offset="1" style="stop-color:#ABABAB"/>
	</linearGradient>
	<path class="st26" d="M198.4,432.2c-5.7-1.2-13.3-2.9-22.2-4.6c-12.1-2.4-21.2-3.8-28.5-5c-1.4-0.2-19.8-3.2-26.3-4.1
		c-1.1-0.2-3.4-0.4-6.5-1c-2.7-0.4-3.6-0.7-9-1.3c-0.3,0-2.6-0.4-3.9-0.7c-2-0.4-4.8-1.4-8.2-4.1c-0.7,0.2-4.8,2-6.5,6.4
		c-1.6,3.9-0.6,8.5,2.3,11.9c1.7,0.5,4.2,1.4,7.3,2.4c9.7,3.1,15.7,4.8,18.2,5.7c4.7,1.6,11.4,4.1,27.2,10.8
		c14,5.9,17.1,7.5,22.5,9.8l0,0c2.7,1,4.5,1.8,4.7,1.9c25.6,11.7,36,3.7,36,3.7c9.4-7.3,5.1-26.5,4.8-27.8
		C206.3,434.7,202.3,433.4,198.4,432.2z"/>
	
		<linearGradient id="SVGID_28_" gradientUnits="userSpaceOnUse" x1="226.8868" y1="-344.179" x2="226.8868" y2="-344.179" gradientTransform="matrix(-0.277 0.9609 0.9609 0.277 366.7713 320.8779)">
		<stop  offset="0" style="stop-color:#ABABAB"/>
		<stop  offset="0.3463" style="stop-color:#D3D6D6"/>
		<stop  offset="0.8171" style="stop-color:#BDC2C7"/>
		<stop  offset="1" style="stop-color:#ABABAB"/>
	</linearGradient>
	<path class="st27" d="M-26.8,443.6"/>
	
		<linearGradient id="SVGID_29_" gradientUnits="userSpaceOnUse" x1="137.9287" y1="81.7859" x2="137.9287" y2="81.7859" gradientTransform="matrix(0.9975 7.075524e-02 7.075524e-02 -0.9975 -24.3824 543.3708)">
		<stop  offset="0" style="stop-color:#ABABAB"/>
		<stop  offset="0.3463" style="stop-color:#D3D6D6"/>
		<stop  offset="0.8171" style="stop-color:#BDC2C7"/>
		<stop  offset="1" style="stop-color:#ABABAB"/>
	</linearGradient>
	<path class="st28" d="M119,471.5"/>
</g>
</svg>
