<?xml version="1.0" encoding="utf-8"?>
<!-- Generator: Adobe Illustrator 22.1.0, SVG Export Plug-In . SVG Version: 6.00 Build 0)  -->
<svg version="1.1" id="Layer_1" xmlns="http://www.w3.org/2000/svg" xmlns:xlink="http://www.w3.org/1999/xlink" x="0px" y="0px"
	 viewBox="0 0 432 576" style="enable-background:new 0 0 432 576;" xml:space="preserve">
<style type="text/css">
	.st0{fill:url(#SVGID_1_);}
	.st1{fill:url(#SVGID_2_);}
	.st2{fill:url(#SVGID_3_);}
	.st3{fill:url(#SVGID_4_);}
	.st4{fill:url(#SVGID_5_);}
	.st5{fill:url(#SVGID_6_);}
	.st6{fill:url(#SVGID_7_);}
	.st7{fill:url(#SVGID_8_);}
	.st8{fill:url(#SVGID_9_);}
	.st9{fill:url(#SVGID_10_);}
	.st10{fill:url(#SVGID_11_);}
	.st11{fill:url(#SVGID_12_);}
	.st12{fill:url(#SVGID_13_);}
	.st13{fill:url(#SVGID_14_);}
	.st14{fill:url(#SVGID_15_);}
	.st15{fill:url(#SVGID_16_);}
</style>
<linearGradient id="SVGID_1_" gradientUnits="userSpaceOnUse" x1="-13.8173" y1="282.5718" x2="-59.377" y2="282.5718" gradientTransform="matrix(2.887784e-03 -1 1 2.887784e-03 -90.1284 320.6973)">
	<stop  offset="0" style="stop-color:#ABABAB"/>
	<stop  offset="0.3463" style="stop-color:#D3D6D6"/>
	<stop  offset="0.8171" style="stop-color:#BDC2C7"/>
	<stop  offset="1" style="stop-color:#ABABAB"/>
</linearGradient>
<path class="st0" d="M153.7,377.3c0.4,0.3,0.8,0.6,1.2,0.8c6.9,3.8,13,2.9,28.8,1c2.3-0.3,8.4-1,20.5-2.3c2.7-0.3,6.2-0.7,8.6-1
	c5.9-0.7,10.7-1.2,13.9-1.6c1-0.3,2.5-0.7,4-1.6c0.8-0.4,4-2.4,5.8-5.6c3.4-6.2-0.9-13.9-2.2-16.4c-1.1-2-2.9-5.1-6.4-7.3
	c-2.7-1.7-4.7-1.8-12.2-2.5c-13.7-1.3-20.7-2.3-24.5-2.9c-3.2-0.5-2.3-0.5-5.8-1c-18.2-2.7-23.5-2-28.3,0.6c-0.7,0.4-1.3,0.7-2,1.2
	C144.7,346.6,144.1,369.5,153.7,377.3z"/>
<linearGradient id="SVGID_2_" gradientUnits="userSpaceOnUse" x1="171.3731" y1="161.4644" x2="171.6984" y2="274.1158" gradientTransform="matrix(2.887784e-03 -1 1 2.887784e-03 -90.7295 528.8315)">
	<stop  offset="0" style="stop-color:#363233"/>
	<stop  offset="1" style="stop-color:#000000"/>
</linearGradient>
<path class="st1" d="M73.8,374.8c3.5,6.6,9.1,9.9,11.8,11.5c14.7,8.5,32,4.2,34.6,3.6c2.3-0.6,7.4-2,15.3-3.7
	c1.9-0.4,4.4-0.9,7.5-1.4c8.1-1.3,13-1.3,19-1.9c4.3-0.4,10.6-1.1,18.4-2.4c0.5-1.7,1.2-4.2,1.8-7.2c1.1-5.7,2.9-14.3,0.8-24.3
	c-0.7-3.2-2-7.9-4.8-13.3c-9.6-1.5-17.3-2.5-22.8-3.1c-4.6-0.5-8.9-1-17.5-2.1c-7.8-1-8.1-1.1-10.8-1.4c-6.2-0.7-27-1.1-27-1.1
	c-5.4-0.1-13.2-0.8-22.9-3.6c-3.9,12-5.2,22.1-5.6,29.1C70.7,367,72.1,371.7,73.8,374.8z"/>
<linearGradient id="SVGID_3_" gradientUnits="userSpaceOnUse" x1="247.5588" y1="375.5247" x2="208.2566" y2="375.5247" gradientTransform="matrix(5.040251e-02 -0.9987 0.9987 5.040251e-02 -108.793 572.1346)">
	<stop  offset="0" style="stop-color:#ABABAB"/>
	<stop  offset="0.3463" style="stop-color:#D3D6D6"/>
	<stop  offset="0.8171" style="stop-color:#BDC2C7"/>
	<stop  offset="1" style="stop-color:#ABABAB"/>
</linearGradient>
<path class="st2" d="M224.3,373.7c11.2,6.4,20.6,7.9,27.4,8.1c6.4,0.1,5.9-1.1,26.4-4.4c0,0,12.8-2,28-3.6c9.6-1,7.3-0.4,15.7-1.3
	c0.3,0,2.6-0.2,3.9-0.2c2,0,5,0.3,9,2.1c0.6-0.4,4.2-3,4.9-7.7c0.6-4.2-1.3-8.4-5-11c-1.8-0.2-4.5-0.4-7.7-0.6
	c-10.1-0.8-16.4-1.1-19-1.4c-4.9-0.5-12.1-1.4-29-4.3c-18.8-3.2-19.4-3.8-29.1-5.3c-7.5-1.2-18.9-2.6-33-3.4
	C219.2,351.7,221.7,362.7,224.3,373.7z"/>
<linearGradient id="SVGID_4_" gradientUnits="userSpaceOnUse" x1="85.0143" y1="392.7672" x2="133.6417" y2="392.7672" gradientTransform="matrix(1 0 0 -1 0 576)">
	<stop  offset="7.317073e-03" style="stop-color:#AAAAAA"/>
	<stop  offset="0.2244" style="stop-color:#AEAEAE"/>
	<stop  offset="0.4431" style="stop-color:#BABABA"/>
	<stop  offset="0.6625" style="stop-color:#CECECE"/>
	<stop  offset="0.8813" style="stop-color:#EAEAEA"/>
	<stop  offset="0.9317" style="stop-color:#F2F2F2"/>
</linearGradient>
<path class="st3" d="M97,179.8c0.3-0.7,2-4.2,1.7-9c-0.2-2.3-1-4.4-2.7-8.7c-0.4-1-0.9-2.1-1.7-4.1c-0.7-1.8-1.2-3.2-1.5-4.2
	c13.7,4.4,23,10.5,28.8,15.1c9.7,7.7,12.6,13.6,11.8,14.8s-3.5,0.2-5.5,2.3c-0.3,0.4-0.9,1.1-2,5.3c-0.8,3.2-1.3,4.8-1.3,5.3
	c-0.4,4.7,3.9,8.8,6.2,10.7c-2,1.6-5.2,3.8-9.7,4.8c-8.9,2.1-16.3-2-24.5-6.5c-6.3-3.5-11.8-6.5-11.7-10.4c0.1-1.7,2.5-4.4,7.4-9.9
	C95.3,182.3,96.1,181.7,97,179.8z"/>
<linearGradient id="SVGID_5_" gradientUnits="userSpaceOnUse" x1="105.5528" y1="404.5829" x2="146.2736" y2="438.7517" gradientTransform="matrix(1 0 0 -1 0 576)">
	<stop  offset="7.317073e-03" style="stop-color:#B0B0AE"/>
	<stop  offset="0.8137" style="stop-color:#E9E9E9"/>
	<stop  offset="0.9317" style="stop-color:#F2F2F2"/>
</linearGradient>
<path class="st4" d="M128,124.4c-7.7-1.4-13.8-0.1-15.2,0.2c-5.3,1.2-11.9,2.7-16.5,8.7c-4.7,6.2-4.3,13.2-4.2,15.2
	c0.1,2.3,0.6,8.6,5.3,13.3c3.4,3.4,7.6,4.7,9.3,5.2c2.2,0.7,4.2,0.9,5.6,1c-0.2,1.6-0.4,4.3,0.9,7c1.4,3,3.9,4.4,7.8,6.7
	c2.8,1.6,6.3,2.6,13.5,4.8c3.6,1.1,5.7,1.6,7.7,0.5c1.5-0.8,2.2-2.1,2.8-3.2c1.3-2.3,1-3.6,1.8-8c1-5.5,0.7-6.2,1.5-7.5
	c1-1.8,2-2.1,2-3.3c0-1.4-1.1-1.9-3.2-5c-1.3-1.9-1.9-2.9-1.8-4c0.1-1.8,1.5-2.2,2.3-4.2c0.3-0.7,0.6-1.9-0.8-7.2
	c-1.2-4.5-1.9-6.8-3.5-9.7c-1.2-2-2.3-4.3-4.7-6.2C135.2,125.8,131.4,125.1,128,124.4z"/>
<linearGradient id="SVGID_6_" gradientUnits="userSpaceOnUse" x1="151" y1="410.4" x2="151" y2="410.4" gradientTransform="matrix(1 0 0 -1 0 576)">
	<stop  offset="7.317073e-03" style="stop-color:#AAAAAA"/>
	<stop  offset="0.9317" style="stop-color:#F2F2F2"/>
</linearGradient>
<path class="st5" d="M151,165.6"/>
<linearGradient id="SVGID_7_" gradientUnits="userSpaceOnUse" x1="98.2" y1="402.2" x2="98.2" y2="402.2" gradientTransform="matrix(1 0 0 -1 0 576)">
	<stop  offset="7.317073e-03" style="stop-color:#AAAAAA"/>
	<stop  offset="0.9317" style="stop-color:#F2F2F2"/>
</linearGradient>
<path class="st6" d="M98.2,173.8"/>
<linearGradient id="SVGID_8_" gradientUnits="userSpaceOnUse" x1="73.2" y1="314.2752" x2="141.4944" y2="314.2752" gradientTransform="matrix(1 0 0 -1.0267 0 588.4208)">
	<stop  offset="0" style="stop-color:#363233"/>
	<stop  offset="1" style="stop-color:#000000"/>
</linearGradient>
<path class="st7" d="M89.7,188.8c1.5,1.9,4.4,5.1,9,7c3.6,1.5,6.6,1.6,10,1.7c3.8,0.1,9.7-0.2,16.8-2.4c4.4,8.1,7.7,15.5,10.2,21.5
	c2,4.8,3,7.3,3.8,10.5c0.5,1.9,2.8,11,1.7,24.1c-0.2,2.8-0.4,3.2-0.8,5.5c-0.3,1.7-0.5,3-1,6.4c-1.5,10.9-2.2,14.5-2.7,19.6
	c-0.6,5.8-0.6,10-0.5,20.1c0.1,10.4,0.4,23,0.7,37.5c-7.3,1.5-16.8,2.8-27.9,2.3c-14.8-0.6-26.8-4-35-7c0.9-2.6,2.1-6.5,3.1-11.4
	c2.9-14.3,2-26.4,1.1-36.5c-0.1-0.9-0.6-5.7-1.7-15.3c-0.5-4.1-1.1-9.4-1.8-16.5c-1.1-10.3-1.5-14.8-1.5-21.2c0.1-9.5,0.1-16.7,3-25
	C77.9,205,81.5,196.9,89.7,188.8z"/>
<linearGradient id="SVGID_9_" gradientUnits="userSpaceOnUse" x1="74.5448" y1="353.2942" x2="129.7207" y2="287.5382" gradientTransform="matrix(0.9997 2.347968e-02 2.347968e-02 -0.9997 -7.6462 572.2722)">
	<stop  offset="0" style="stop-color:#D3D6D6"/>
	<stop  offset="0.6073" style="stop-color:#BDC2C7"/>
	<stop  offset="0.878" style="stop-color:#9C9C9C"/>
</linearGradient>
<path class="st8" d="M106.9,199.5c-1.6,0.5-3.9,1.2-6.5,2.5c-2.9,1.4-4.9,2.3-6.8,4.2c-2.1,2.1-3.1,4.1-4.3,6.5
	c-1.7,3.6-2.4,6.8-2.9,9.1c-0.2,1.1-0.5,2.7-0.8,5.4c0,0-0.2,2.2-0.3,4.4c-0.3,6.7,1,12.8,1.2,22.6c0,1.3,0,2.5,0,5
	C86.4,268,86,274.4,86,276c-0.3,5.2-0.2,13.6,1.3,27.3c0.7,1.2,2.1,3.1,4.4,4.3c4.8,2.6,10.9,1,14.4-1.6c4.6-3.4,5.6-8.7,7.4-19.4
	c1.1-6,1.3-10.7,1.5-16c0.5-13.2-0.6-13.1,0.3-20.7c0.6-5.9,1.2-5.6,3-17.3c1.1-6.8,1.9-10.2,1.7-14.1c-0.2-4.2-0.7-12.5-6.7-16.7
	C110.9,200.2,108.5,199.7,106.9,199.5z"/>
<linearGradient id="SVGID_10_" gradientUnits="userSpaceOnUse" x1="125.8258" y1="216.6123" x2="84.9525" y2="287.407" gradientTransform="matrix(0.9998 2.062886e-02 2.062886e-02 -0.9998 -6.8603 572.7422)">
	<stop  offset="0" style="stop-color:#D3D6D6"/>
	<stop  offset="0.6073" style="stop-color:#BDC2C7"/>
	<stop  offset="0.878" style="stop-color:#ABABAB"/>
</linearGradient>
<path class="st9" d="M88,291c-1.6,4.7-1.1,8.7-0.8,12.3c1,8.8,1,17.7,1.8,26.5c0.7,8.3,0.5,7.1,1.5,19c0.5,6.1,1,12.2,1.6,18.2
	c1.6,2.7,4.6,4.3,7.7,4c3.5-0.3,6.5-3,7.3-6.6c0-14.3,1.1-25.7,2.2-33.4c0.9-6.9,1.6-12.4,2.1-18.4c1-12.2,0.4-11,1.3-15.5
	c0.2-3.4,0.5-6.9,0.9-10.6c0.3-3,0.7-5.9,1.1-8.7c-1.1-0.5-2.8-1.1-5-1.3c-7.9-0.8-13.9,4.4-15.4,5.8C92.6,283.7,89.6,286.4,88,291z
	"/>
<linearGradient id="SVGID_11_" gradientUnits="userSpaceOnUse" x1="559.2651" y1="226.6863" x2="587.1066" y2="193.506" gradientTransform="matrix(-0.9971 7.622827e-02 -7.622827e-02 -0.9971 681.2089 550.2158)">
	<stop  offset="0" style="stop-color:#D3D6D6"/>
	<stop  offset="0.6073" style="stop-color:#BDC2C7"/>
</linearGradient>
<path class="st10" d="M101.6,363.4c-0.3,4.1,0,7.5,0.3,9.8c0.3,2.4,1.1,6.5,2.1,10.7c0.8,3.3,1,3.9,0.9,5.3
	c-0.1,2.3-0.9,2.9-2.5,7.7c-1.1,3.4-0.9,3.5-1.7,5.4c-1.1,2.5-1.5,2.4-2.9,5.2c-1.4,2.9-1.7,4.7-2.5,4.7c-0.7,0-1.2-1.5-1.3-1.6
	c-0.6-1.7,0.3-3.3,0.4-3.5c0.3-1,0.8-2.5,1.6-4.3c0.4-1,0.5-1.1,0.8-1.7c0.6-1.6,0.5-2.6,0.7-5.1c0.3-3.7,0.5-3.6,0.3-4.5
	c-0.6-2-3-3.6-3-3.6c-1-1.8-2-3.5-2.9-5.3c0.3-1.6,0.6-4,0.6-6.9c0.1-2.4-0.1-4.1-0.4-8.5c-0.3-3.9-0.6-7.3-0.9-9.8
	C94.6,359.2,98.1,361.3,101.6,363.4z"/>
<linearGradient id="SVGID_12_" gradientUnits="userSpaceOnUse" x1="555.0208" y1="221.7624" x2="583.6647" y2="187.626" gradientTransform="matrix(-0.9978 6.656474e-02 -6.656474e-02 -0.9978 678.8438 553.1692)">
	<stop  offset="0" style="stop-color:#D3D6D6"/>
	<stop  offset="0.6073" style="stop-color:#BDC2C7"/>
</linearGradient>
<path class="st11" d="M105.2,366.7c-0.3,4.1-0.1,7.5,0.2,9.8c0.3,2.4,1,6.5,2,10.7c0.7,3.3,1,3.9,0.9,5.3c-0.1,2.3-0.9,2.9-2.6,7.6
	c-1.2,3.4-0.9,3.5-1.8,5.4c-1.1,2.5-1.6,2.4-2.9,5.2c-1.4,2.9-1.7,4.7-2.5,4.6c-0.7,0-1.2-1.5-1.3-1.6c-0.6-1.8,0.4-3.3,0.5-3.5
	c0.3-1,0.8-2.5,1.7-4.3c0.5-1,0.6-1.1,0.8-1.7c1-2.6,0.7-5.1,0.7-5.1c-0.1-0.8-0.2-1.4-0.5-2.4c-0.4-1.4-0.5-1.3-1-2.8
	c-0.6-1.9-0.5-2.4-1.2-3c-0.1-0.1-0.9-0.7-1.5-0.5c-0.4,0.1-0.9,0.7-1,3.8c-0.1,1.9-0.1,3.5-0.1,6.4c0,1-0.1,2.4-1,3.5
	c-0.2,0.3-0.6,0.7-1,0.7c-0.6-0.1-0.9-1.2-1.4-4.5c-0.3-1.8-0.5-3.5-0.8-7.2c-0.3-3.3-0.3-4.1-0.3-5.1c0.1-1.4,0.3-2.6,0.6-4.1
	c0.3-1.1,0.5-2.1,0.7-2.9c0.5-1.7,0.9-3,1.2-3.8c0.2-0.4,0.3-0.7,0.3-0.8c1.4-4,1.7-11.2,1.7-11.2c0.1-1.9,0.1-4.3,0-7.1
	C98.7,360.9,102,363.8,105.2,366.7z"/>
<linearGradient id="SVGID_13_" gradientUnits="userSpaceOnUse" x1="556.8265" y1="253.0009" x2="586.4105" y2="217.7441" gradientTransform="matrix(-0.9839 0.1787 -0.1787 -0.9839 704.2786 513.0651)">
	<stop  offset="0" style="stop-color:#D3D6D6"/>
	<stop  offset="0.6073" style="stop-color:#BDC2C7"/>
</linearGradient>
<path class="st12" d="M107.1,361.3c-0.2,3.3-0.2,7.2,0.4,11.7c0.5,4.1,1.4,7.6,2.3,10.6c0,0,1,2,1.4,4.3c0,0.3,0.1,0.5,0.1,0.9
	c0.1,2.3-0.6,2.9-1.7,7.9c-0.8,3.5-0.5,3.5-1.2,5.5c-0.8,2.6-1.3,2.5-2.3,5.5c-1.1,3.1-1.2,4.8-2,4.9c-0.7,0.1-1.4-1.4-1.4-1.5
	c-0.8-1.7,0-3.4,0.1-3.5c0.2-1,0.6-2.6,1.2-4.4c0.3-1,0.4-1.1,0.6-1.8c0.4-1.6,0.2-2.6,0.1-5.2c-0.1-3.8,0.1-3.7-0.2-4.5
	c-0.8-1.9-3.4-3.3-3.4-3.3c-3.7-1.9-5.8-12.4-6.1-14c-0.8-4.1-0.5-6-0.8-9.2c-0.1-1.5-0.3-1.9-0.5-2.9c-0.1-0.6-0.2-1-0.3-1.8
	c-0.1-0.6-0.2-1.4-0.2-2.3C97.8,359.2,102.5,360.3,107.1,361.3z"/>
<linearGradient id="SVGID_14_" gradientUnits="userSpaceOnUse" x1="501.9026" y1="466.636" x2="501.9026" y2="424.4832" gradientTransform="matrix(4.862980e-02 -0.9988 0.9988 4.862980e-02 -123.187 827.7343)">
	<stop  offset="0" style="stop-color:#ABABAB"/>
	<stop  offset="0.3463" style="stop-color:#D3D6D6"/>
	<stop  offset="1" style="stop-color:#C5C8C9"/>
</linearGradient>
<path class="st13" d="M328.2,372.4c2.3,0.5,5.3,1.4,8.6,3.2c2.9,1.6,5.2,3.4,6.8,4.8c4.7,2.5,8.7,3.1,11.1,3.3
	c4.1,0.3,5.6-0.6,6.1-1c0.8-0.5,2.1-1.7,3.4-6.6c2-7.3,1.5-13.4,1.4-15.1c-0.4-4.2-0.9-4-1-7.1c-0.1-5,1.3-6.4,2.6-12.4
	c2.3-10.5-0.8-12.6,0.5-21.2c0.1-0.9,0.5-3.1-0.8-4.8c-0.7-1-2.1-1.9-3.3-1.7c-2,0.4-2.8,4-3.6,7.2c0,0-2.1,8.2-5.3,15.8
	c-2,4.7-4.4,10.2-10,14.3c-3,2.2-5.7,3.1-6.5,3.4c-5.9,1.9-11.1,0.8-13.4,0.1C326,360.6,327.1,366.5,328.2,372.4z"/>
<linearGradient id="SVGID_15_" gradientUnits="userSpaceOnUse" x1="160.65" y1="456.5656" x2="160.65" y2="456.5656" gradientTransform="matrix(2.887784e-03 -1 1 2.887784e-03 -90.7295 528.8315)">
	<stop  offset="0" style="stop-color:#ABABAB"/>
	<stop  offset="0.3463" style="stop-color:#D3D6D6"/>
	<stop  offset="0.8171" style="stop-color:#BDC2C7"/>
	<stop  offset="1" style="stop-color:#ABABAB"/>
</linearGradient>
<path class="st14" d="M366.3,369.5"/>
<linearGradient id="SVGID_16_" gradientUnits="userSpaceOnUse" x1="187.6969" y1="299.6875" x2="187.6969" y2="299.6875" gradientTransform="matrix(2.887784e-03 -1 1 2.887784e-03 -90.7295 528.8315)">
	<stop  offset="0" style="stop-color:#ABABAB"/>
	<stop  offset="0.3463" style="stop-color:#D3D6D6"/>
	<stop  offset="0.8171" style="stop-color:#BDC2C7"/>
	<stop  offset="1" style="stop-color:#ABABAB"/>
</linearGradient>
<path class="st15" d="M209.5,342"/>
</svg>
