<?xml version="1.0" encoding="utf-8"?>
<!-- Generator: Adobe Illustrator 22.1.0, SVG Export Plug-In . SVG Version: 6.00 Build 0)  -->
<svg version="1.1" id="Layer_1" xmlns="http://www.w3.org/2000/svg" xmlns:xlink="http://www.w3.org/1999/xlink" x="0px" y="0px"
	 viewBox="0 0 432 576" style="enable-background:new 0 0 432 576;" xml:space="preserve">
<style type="text/css">
	.st0{fill:url(#SVGID_1_);}
	.st1{fill:url(#SVGID_2_);}
	.st2{fill:url(#SVGID_3_);}
	.st3{fill:url(#SVGID_4_);}
	.st4{fill:url(#SVGID_5_);}
	.st5{fill:url(#SVGID_6_);}
	.st6{fill:url(#SVGID_7_);}
	.st7{fill:url(#SVGID_8_);}
	.st8{fill:url(#SVGID_9_);}
	.st9{fill:url(#SVGID_10_);}
	.st10{fill:url(#SVGID_11_);}
	.st11{fill:url(#SVGID_12_);}
	.st12{fill:url(#SVGID_13_);}
	.st13{fill:url(#SVGID_14_);}
	.st14{fill:url(#SVGID_15_);}
	.st15{fill:url(#SVGID_16_);}
	.st16{fill:url(#SVGID_17_);}
	.st17{fill:url(#SVGID_18_);}
	.st18{fill:url(#SVGID_19_);}
	.st19{fill:url(#SVGID_20_);}
	.st20{fill:url(#SVGID_21_);}
	.st21{fill:url(#SVGID_22_);}
	.st22{fill:url(#SVGID_23_);}
</style>
<linearGradient id="SVGID_1_" gradientUnits="userSpaceOnUse" x1="-58.7048" y1="240.3886" x2="-13.6478" y2="240.3886" gradientTransform="matrix(-0.2832 -0.9591 0.9591 -0.2832 -59.1402 372.8403)">
	<stop  offset="0" style="stop-color:#ABABAB"/>
	<stop  offset="0.3463" style="stop-color:#D3D6D6"/>
	<stop  offset="0.8171" style="stop-color:#BDC2C7"/>
	<stop  offset="1" style="stop-color:#ABABAB"/>
</linearGradient>
<path class="st0" d="M154.8,367.3c0.5,0.2,0.8,0.3,1.4,0.5c7.7,1.7,13.3-0.9,27.8-7.3c2.2-0.9,7.8-3.3,19-8.1c2.5-1.1,5.8-2.4,8-3.4
	c5.4-2.3,9.9-4.2,12.8-5.5c0.9-0.5,2.1-1.4,3.4-2.7c0.6-0.6,3.1-3.4,3.9-7c1.3-5.7-2.1-12.1-6.8-15.1c-2.9-1.8-5.8-1.9-10.9-2.1
	c-3.3-0.1-4.7,0.2-9.5,0.6c-7,0.6-8.1,0.2-14.5,0.6c0,0-7.2,0.4-15.8,1.8c-2.4,0.4-41.4,6.4-43.2,21.9
	C129.2,351.4,143.8,363.4,154.8,367.3z"/>
<linearGradient id="SVGID_2_" gradientUnits="userSpaceOnUse" x1="217.1383" y1="367.041" x2="252.2498" y2="367.041" gradientTransform="matrix(0.2652 -0.9642 0.5931 0.1632 -36.9758 507.6897)">
	<stop  offset="0" style="stop-color:#ABABAB"/>
	<stop  offset="0.3463" style="stop-color:#D3D6D6"/>
	<stop  offset="0.8171" style="stop-color:#BDC2C7"/>
	<stop  offset="1" style="stop-color:#ABABAB"/>
</linearGradient>
<path class="st1" d="M210.4,346.3c6.6,5.7,12.7,7.9,17,8.8c3.5,0.8,7.2,0.8,14.7,0.9c8.1,0.1,10.7-0.4,17.8-0.3
	c6,0.1,10.7,0.6,13.6,0.9c0.6-0.6,2.4-2.8,3.4-6.4c1.3-5.1-0.2-8.7-0.4-9.1c-2.4-1-6.2-2.5-10.8-4.8c-7.4-3.7-9.5-5.5-15.9-8.8
	c-1.9-1-8.4-4.2-17-7.1c-4.9-1.6-11.3-3.4-19.1-4.7C212.5,326,211.5,336.1,210.4,346.3z"/>
<linearGradient id="SVGID_3_" gradientUnits="userSpaceOnUse" x1="685.3783" y1="516.16" x2="693.4682" y2="470.2799" gradientTransform="matrix(5.311902e-02 -0.9986 0.9986 5.311902e-02 -246.7378 1010.0614)">
	<stop  offset="0" style="stop-color:#9E9E9E"/>
	<stop  offset="0.3463" style="stop-color:#D3D6D6"/>
	<stop  offset="1" style="stop-color:#909597"/>
</linearGradient>
<path class="st2" d="M257.7,356.9c3.9,0.6,7.2,1.2,9.7,1.8c1.9,0.4,4.1,0.9,6.9,1.7c2.8,0.8,4.9,1.6,6.7,2.2
	c6.5,2.4,8.3,3.5,10.9,2.8c0.3-0.1,1.1-0.4,2.8-1.5c4.9-3.6,7.4-8.3,10.1-13.4c0.2-0.4,2.1-4.1,3-9c0.3-1.6,0.3-2.2,0-2.8
	c-1.5-3.1-8.9-2.2-11-2c-2.2,0.2-2.5,0.5-9.5,2.3c-5.2,1.3-7.8,1.9-9,2c-5.9,0.3-6.9-1.9-10.9-0.9c-4.8,1.2-7.4,5.6-7.9,6.4
	C256.7,351.2,257.5,355.8,257.7,356.9z"/>
<linearGradient id="SVGID_4_" gradientUnits="userSpaceOnUse" x1="198.9309" y1="134.6327" x2="157.45" y2="206.4798" gradientTransform="matrix(0.6819 -0.7315 -0.7315 -0.6819 243.5135 562.0278)">
	<stop  offset="0" style="stop-color:#D3D6D6"/>
	<stop  offset="0.6073" style="stop-color:#BDC2C7"/>
	<stop  offset="0.878" style="stop-color:#ABABAB"/>
</linearGradient>
<path class="st3" d="M205.1,306.8c2.4,4.3,5.8,6.6,8.6,8.8c7.2,5.1,13.9,11.1,21,16.3c4.3,3.2,5.4,4.1,8.2,6.2
	c3.5,2.7,6.3,4.8,7,5.3c2.6,2,6.8,4.8,13.2,8.1c5.3,1.5,10.6,2.8,11,1.8c0.2-0.4-0.7-1-1.5-2c-2.2-3.2,1.8-8.2-0.1-9.8
	c-10.7-9.5-18.4-18-23.4-23.9c-4.5-5.3-8.2-9.5-12.3-13.8c-8.4-8.9-7.9-7.6-10.7-11.3c-2.4-2.4-4.8-5-7.3-7.7
	c-2-2.2-3.9-4.5-5.8-6.6c-1.1,0.5-2.7,1.4-4.3,2.9c-5.9,5.4-6,13.3-5.9,15.3C202.7,298.5,202.8,302.5,205.1,306.8z"/>
<linearGradient id="SVGID_5_" gradientUnits="userSpaceOnUse" x1="166.8845" y1="298.5092" x2="222.0604" y2="232.7532" gradientTransform="matrix(0.8427 -0.5383 -0.5383 -0.8427 165.0879 588.2473)">
	<stop  offset="0" style="stop-color:#D3D6D6"/>
	<stop  offset="0.6073" style="stop-color:#BDC2C7"/>
	<stop  offset="0.878" style="stop-color:#9C9C9C"/>
</linearGradient>
<path class="st4" d="M159.5,211.4c-1,1.3-2.6,3.2-4,5.7c-1.6,2.8-2.8,4.6-3.3,7.3c-0.6,2.9-0.3,5.1,0.1,7.8c0.6,3.9,1.8,7,2.7,9.2
	c0.4,1,1.1,2.5,2.3,4.9c0,0,1.1,1.9,2.2,3.8c3.5,5.7,8,10.1,13.6,18.1c0.7,1.1,1.4,2.1,2.8,4.1c4.8,7.4,8.1,12.9,9,14.2
	c2.7,4.5,7.4,11.4,16.3,21.9c1.3,0.6,3.5,1.4,6.1,1.1c5.4-0.5,9.6-5.3,11.1-9.4c1.9-5.4-0.2-10.3-4.7-20.2
	c-2.4-5.6-4.9-9.6-7.7-14.1c-7-11.2-7.8-10.5-11.3-17.3c-2.8-5.2-2.1-5.3-7.2-16c-2.9-6.3-4.1-9.5-6.5-12.6
	c-2.5-3.4-7.6-10-14.9-10.1C163.2,209.8,160.9,210.7,159.5,211.4z"/>
<linearGradient id="SVGID_6_" gradientUnits="userSpaceOnUse" x1="199.1817" y1="325.1248" x2="234.2932" y2="325.1248" gradientTransform="matrix(2.325927e-02 -0.9997 0.6149 1.430700e-02 23.9683 571.1326)">
	<stop  offset="0" style="stop-color:#ABABAB"/>
	<stop  offset="0.3463" style="stop-color:#D3D6D6"/>
	<stop  offset="0.8171" style="stop-color:#BDC2C7"/>
	<stop  offset="1" style="stop-color:#ABABAB"/>
</linearGradient>
<path class="st5" d="M198.6,371.9c7.8,3.9,14.2,4.5,18.6,4.4c3.6-0.1,7.2-1,14.5-2.7c7.9-1.9,10.3-3,17.2-4.6
	c5.8-1.3,10.5-2,13.4-2.4c0.4-0.8,1.6-3.3,1.7-7c0.1-5.2-2.3-8.4-2.6-8.8c-2.6-0.3-6.7-0.9-11.6-2c-8.1-1.7-10.5-3-17.6-4.7
	c-2.1-0.5-9.1-2.1-18.2-2.8c-5.1-0.4-11.8-0.6-19.7,0.1C195.7,351.6,197.1,361.8,198.6,371.9z"/>
<linearGradient id="SVGID_7_" gradientUnits="userSpaceOnUse" x1="-81.2925" y1="246.5633" x2="-35.7603" y2="246.5633" gradientTransform="matrix(2.325929e-02 -0.9997 0.9997 2.325929e-02 -72.7497 291.3718)">
	<stop  offset="0" style="stop-color:#ABABAB"/>
	<stop  offset="0.3463" style="stop-color:#D3D6D6"/>
	<stop  offset="0.8171" style="stop-color:#BDC2C7"/>
	<stop  offset="1" style="stop-color:#ABABAB"/>
</linearGradient>
<path class="st6" d="M133.3,374c0.4,0.3,0.8,0.6,1.2,0.9c6.8,3.9,13,3.2,28.7,1.6c2.4-0.2,8.4-0.8,20.6-1.9c2.7-0.3,6.2-0.6,8.6-0.8
	c5.9-0.5,10.7-1,13.9-1.3c1-0.2,2.5-0.7,4-1.5c0.8-0.4,4-2.3,5.9-5.5c2.9-5.1,1.8-12.2-1.9-16.4c-2.2-2.6-5-3.6-9.8-5.4
	c-3.1-1.1-4.5-1.3-9.2-2.3c-6.9-1.6-7.8-2.2-14-3.8c-5.5-1.4-9.5-2.1-15.6-3.1c-18.1-3.1-23.5-2.4-28.3,0c-0.7,0.4-1.3,0.6-2,1.2
	C124.9,343.2,123.8,366,133.3,374z"/>
<linearGradient id="SVGID_8_" gradientUnits="userSpaceOnUse" x1="194.1217" y1="199.1186" x2="194.4709" y2="320.0649" gradientTransform="matrix(-2.433354e-02 -0.9997 0.8391 -1.956905e-02 -87.132 547.1019)">
	<stop  offset="0" style="stop-color:#363233"/>
	<stop  offset="1" style="stop-color:#000000"/>
</linearGradient>
<path class="st7" d="M80.1,366.3c4.2,7,9.9,9.9,14.8,12.3c2.3,1.1,8.5,4,30.2,4.5c18.1,0.4,30.3-1.2,34.2-1.7
	c6.2-0.9,11.5-1.9,15.4-2.8c0.4-1.7,0.9-4.2,1.3-7.2c0.8-5.7,2.1-14.4,0-24.3c-0.7-3.2-1.9-7.9-4.4-13.2c-8.1-1.3-14.6-2.1-19.2-2.6
	c-3.9-0.4-7.5-0.8-14.7-1.7c-5.4-0.7-6.5-0.9-8-1c-0.6-0.1-1.1-0.1-1.1-0.1c-1.2-0.1-3.6-2.2-8.4-9.3c-2.3-2.1-6.5-5.2-12.2-6.2
	c-12-2-25.1,6.6-30.2,20.7C74,343.8,74.4,356.8,80.1,366.3z"/>
<linearGradient id="SVGID_9_" gradientUnits="userSpaceOnUse" x1="135.5436" y1="404.7498" x2="184.171" y2="404.7498" gradientTransform="matrix(0.8531 0.5217 0.5217 -0.8531 -161.7615 462.2269)">
	<stop  offset="7.317073e-03" style="stop-color:#AAAAAA"/>
	<stop  offset="0.2244" style="stop-color:#AEAEAE"/>
	<stop  offset="0.4431" style="stop-color:#BABABA"/>
	<stop  offset="0.6625" style="stop-color:#CECECE"/>
	<stop  offset="0.8813" style="stop-color:#EAEAEA"/>
	<stop  offset="0.9317" style="stop-color:#F2F2F2"/>
</linearGradient>
<path class="st8" d="M177,191c0.6-0.4,3.9-2.5,6.1-6.8c1-2.1,1.4-4.3,2.2-8.8c0.2-1.1,0.3-2.3,0.7-4.4c0.3-1.9,0.6-3.4,0.9-4.4
	c9.4,10.9,14.1,21,16.7,27.9c4.3,11.6,3.7,18.2,2.3,18.8c-1.3,0.6-3.1-1.7-5.9-0.9c-0.5,0.2-1.3,0.5-4.5,3.5
	c-2.4,2.3-3.6,3.4-3.9,3.8c-2.8,3.8-1.3,9.5-0.3,12.4c-2.5,0.3-6.4,0.5-10.8-1c-8.7-2.9-12.9-10.2-17.5-18.3
	c-3.5-6.3-6.7-11.7-4.6-15c1-1.4,4.4-2.4,11.5-4.6C174.3,192.2,175.3,192.1,177,191z"/>
<linearGradient id="SVGID_10_" gradientUnits="userSpaceOnUse" x1="156.0822" y1="416.5656" x2="196.8029" y2="450.7343" gradientTransform="matrix(0.8531 0.5217 0.5217 -0.8531 -161.7615 462.2269)">
	<stop  offset="7.317073e-03" style="stop-color:#B0B0AE"/>
	<stop  offset="0.8137" style="stop-color:#E9E9E9"/>
	<stop  offset="0.9317" style="stop-color:#F2F2F2"/>
</linearGradient>
<path class="st9" d="M232.4,159.9c-5.8-5.2-11.7-7.3-13.1-7.8c-5.1-1.7-11.6-3.9-18.6-1.2c-7.2,2.8-10.6,9-11.5,10.8
	c-1.1,2-4,7.7-2.4,14.1c1.1,4.7,4,8,5.2,9.3c1.5,1.7,3.1,3,4.3,3.8c-1,1.3-2.6,3.5-2.9,6.4c-0.4,3.3,1,5.8,3.2,9.8
	c1.6,2.8,4,5.5,9,11.1c2.5,2.8,4,4.3,6.3,4.4c1.7,0.1,3-0.6,4.1-1.3c2.3-1.3,2.7-2.5,5.7-5.9c3.7-4.2,3.8-4.9,5.2-5.6
	c1.8-1,2.8-0.7,3.4-1.8c0.7-1.2,0.1-2.2-0.1-5.9c-0.1-2.3-0.1-3.5,0.6-4.4c1-1.5,2.4-1.1,4.2-2.4c0.6-0.4,1.5-1.3,3.1-6.6
	c1.3-4.5,1.9-6.8,2.1-10.1c0-2.3,0.3-4.9-0.8-7.7C237.8,164.8,234.9,162.2,232.4,159.9z"/>
<linearGradient id="SVGID_11_" gradientUnits="userSpaceOnUse" x1="151" y1="410.4" x2="151" y2="410.4" gradientTransform="matrix(1 0 0 -1 0 576)">
	<stop  offset="7.317073e-03" style="stop-color:#AAAAAA"/>
	<stop  offset="0.9317" style="stop-color:#F2F2F2"/>
</linearGradient>
<path class="st10" d="M151,165.6"/>
<linearGradient id="SVGID_12_" gradientUnits="userSpaceOnUse" x1="148.7293" y1="414.1826" x2="148.7293" y2="414.1826" gradientTransform="matrix(0.8531 0.5217 0.5217 -0.8531 -161.7615 462.2269)">
	<stop  offset="7.317073e-03" style="stop-color:#AAAAAA"/>
	<stop  offset="0.9317" style="stop-color:#F2F2F2"/>
</linearGradient>
<path class="st11" d="M181.2,186.5"/>
<linearGradient id="SVGID_13_" gradientUnits="userSpaceOnUse" x1="123.7186" y1="317.2467" x2="192.66" y2="317.2467" gradientTransform="matrix(0.8531 0.5217 0.5356 -0.8759 -168.2412 472.8236)">
	<stop  offset="0" style="stop-color:#363233"/>
	<stop  offset="1" style="stop-color:#000000"/>
</linearGradient>
<path class="st12" d="M166.1,194.8c0.3,2.4,1.1,6.6,4,10.7c2.3,3.2,4.8,4.8,7.6,6.7c3.2,2.1,8.4,4.9,15.6,6.7
	c-0.5,9.2-1.5,17.2-2.5,23.7c-0.8,5.1-1.2,7.8-2.2,10.9c-0.6,1.9-3.3,10.8-11.1,21.4c-1.6,2.3-2,2.5-3.6,4.3c-1.1,1.3-2,2.3-4.2,4.9
	c-7,8.5-9.4,11.2-12.5,15.3c-6.1,8-9.1,12-10.9,16.9c-2.2,6-2.5,11.5-2.3,15.2c-11.8,9.8-21.7,12-28.3,12.3
	c-4.8,0.2-7.8-0.6-18.7-2.3c-11.1-1.7-20.1-2.8-26-3.5c4.9-14.7,9.9-26,13.5-33.5c13.7-28.6,22.3-33.8,33.8-60.3
	c3-6.9,4.9-11.1,9.8-18.9c5-8.1,8.8-14.2,15.6-19.8C147.6,202.5,154.9,197.5,166.1,194.8z"/>
<linearGradient id="SVGID_14_" gradientUnits="userSpaceOnUse" x1="160.3142" y1="300.0563" x2="215.4901" y2="234.3003" gradientTransform="matrix(0.8427 -0.5383 -0.5383 -0.8427 165.0879 588.2473)">
	<stop  offset="0" style="stop-color:#D3D6D6"/>
	<stop  offset="0.6073" style="stop-color:#BDC2C7"/>
	<stop  offset="0.878" style="stop-color:#9C9C9C"/>
</linearGradient>
<path class="st13" d="M153.1,213.7c-1,1.3-2.6,3.2-4,5.7c-1.6,2.8-2.8,4.6-3.3,7.3c-0.6,2.9-0.3,5.1,0.1,7.8c0.6,3.9,1.8,7,2.7,9.2
	c0.4,1,1.1,2.5,2.3,4.9c0,0,1.1,1.9,2.2,3.8c3.5,5.7,8,10.1,13.6,18.1c0.7,1.1,1.4,2.1,2.8,4.1c4.8,7.4,8.1,12.9,9,14.2
	c2.7,4.5,7.4,11.4,16.3,21.9c1.3,0.6,3.5,1.4,6.1,1.1c5.4-0.5,9.6-5.3,11.1-9.4c1.9-5.4-0.2-10.3-4.7-20.2
	c-2.4-5.6-4.9-9.6-7.7-14.1c-7-11.2-7.8-10.5-11.3-17.3c-2.8-5.2-2.1-5.3-7.2-16c-2.9-6.3-4.1-9.5-6.5-12.6
	c-2.5-3.4-7.6-10-14.9-10.1C156.8,212,154.5,213,153.1,213.7z"/>
<linearGradient id="SVGID_15_" gradientUnits="userSpaceOnUse" x1="194.58" y1="144.8665" x2="153.0991" y2="216.7136" gradientTransform="matrix(0.5712 -0.8208 -0.8208 -0.5712 278.5148 558.7392)">
	<stop  offset="0" style="stop-color:#D3D6D6"/>
	<stop  offset="0.6073" style="stop-color:#BDC2C7"/>
	<stop  offset="0.878" style="stop-color:#ABABAB"/>
</linearGradient>
<path class="st14" d="M193.4,309.2c3,3.9,6.6,5.7,9.8,7.5c7.9,4,15.3,9,23.1,13.2c4.7,2.6,5.9,3.3,9,5c3.8,2.1,7,3.9,7.7,4.3
	c2.9,1.6,7.4,3.8,14.2,6.1c5.4,0.7,10.9,1.3,11.1,0.3c0.1-0.4-0.9-0.9-1.7-1.8c-2.7-2.9,0.6-8.4-1.4-9.7
	c-11.9-7.9-20.8-15.2-26.6-20.3c-5.2-4.6-9.4-8.2-14.2-11.9c-9.6-7.6-8.9-6.4-12.2-9.7c-2.7-2.1-5.5-4.2-8.3-6.6
	c-2.3-1.9-4.5-3.9-6.6-5.7c-1,0.6-2.5,1.7-3.9,3.4c-5,6.1-4,14-3.7,16C189.9,301.4,190.5,305.3,193.4,309.2z"/>
<linearGradient id="SVGID_16_" gradientUnits="userSpaceOnUse" x1="187.6969" y1="299.6875" x2="187.6969" y2="299.6875" gradientTransform="matrix(2.887784e-03 -1 1 2.887784e-03 -90.7295 528.8315)">
	<stop  offset="0" style="stop-color:#ABABAB"/>
	<stop  offset="0.3463" style="stop-color:#D3D6D6"/>
	<stop  offset="0.8171" style="stop-color:#BDC2C7"/>
	<stop  offset="1" style="stop-color:#ABABAB"/>
</linearGradient>
<path class="st15" d="M209.5,342"/>
<linearGradient id="SVGID_17_" gradientUnits="userSpaceOnUse" x1="204.7574" y1="411.9507" x2="204.7574" y2="411.9507" gradientTransform="matrix(0.6842 -0.7293 0.7293 0.6842 -174.1691 183.1627)">
	<stop  offset="0" style="stop-color:#D3D6D6"/>
	<stop  offset="0.6073" style="stop-color:#BDC2C7"/>
	<stop  offset="0.878" style="stop-color:#ABABAB"/>
</linearGradient>
<path class="st16" d="M266.4,315.7"/>
<linearGradient id="SVGID_18_" gradientUnits="userSpaceOnUse" x1="675.8286" y1="512.0494" x2="683.6022" y2="467.9631" gradientTransform="matrix(5.311900e-02 -0.9986 1.0746 5.716388e-02 -282.3399 1008.1676)">
	<stop  offset="0" style="stop-color:#ABABAB"/>
	<stop  offset="0.3463" style="stop-color:#D3D6D6"/>
	<stop  offset="1" style="stop-color:#BDC2C7"/>
</linearGradient>
<path class="st17" d="M257.8,367.3c4.4,1.4,8,1.8,10.5,1.8c2.9,0.1,3.5-0.3,7.3-0.3c0.9,0,4.8,0,9.7,0.8c8,1.2,9.3,2.9,12.1,1.8
	c2.7-1,4-3.5,5.3-5.9c1-1.9,1.4-3.8,2.1-7.5c1.5-7.8,0.6-9,0.2-9.4c-1.5-1.5-4.2-1.5-5-1.5c-2.4,0-4.1,1-5.1,1.5
	c-2.5,1.3-7.2,1.4-16.6,1.7c-4.4,0.1-4.5,0-10.2,0.1c-4.6,0.1-8.4,0.3-10.9,0.4C257.4,356.4,257.6,361.8,257.8,367.3z"/>
<linearGradient id="SVGID_19_" gradientUnits="userSpaceOnUse" x1="363.75" y1="347.5" x2="363.75" y2="347.5">
	<stop  offset="0" style="stop-color:#ABABAB"/>
	<stop  offset="0.3463" style="stop-color:#D3D6D6"/>
	<stop  offset="1" style="stop-color:#BDC2C7"/>
</linearGradient>
<path class="st18" d="M363.8,347.5"/>
<linearGradient id="SVGID_20_" gradientUnits="userSpaceOnUse" x1="578.4476" y1="87.8917" x2="606.6577" y2="54.2723" gradientTransform="matrix(0.6973 -0.7168 -0.7168 -0.6973 -81.8117 825.52)">
	<stop  offset="0" style="stop-color:#D3D6D6"/>
	<stop  offset="0.6073" style="stop-color:#BDC2C7"/>
</linearGradient>
<path class="st19" d="M260.6,335.4c2.1-1.9,6.1-0.3,8,1.2c0.7,0.5,0.5,0.5,2.5,2.5c1,0.9,2.2,2,3.7,3.3c2.2,1.9,4.3,3.2,5.7,4
	c0.8,1.8,1.5,3.7,2.2,5.6c0,0-0.3,2.9,0.8,4.6c0.6,0.7,0.6,0.5,3.6,2.7c2,1.4,2.8,2.2,4.4,2.7c0.7,0.2,0.8,0.1,1.8,0.5
	c1.9,0.5,3.4,1.1,4.3,1.5c0.2,0.1,2,0.4,2.9,1.9c0,0.1,0.8,1.5,0.4,2c-0.5,0.6-2.1-0.3-5.2-1.1c-3-0.7-3.2-0.3-5.9-1.1
	c-2-0.6-1.9-0.8-5.2-2.2c-4.7-1.8-5.7-1.6-7.5-3c-1.1-0.8-1.5-1.4-3.5-4.1c-2.6-3.5-5.2-6.7-6.9-8.5c-1.6-1.7-4-4.1-7.3-6.5
	C258.9,339.1,259.2,336.7,260.6,335.4z"/>
<linearGradient id="SVGID_21_" gradientUnits="userSpaceOnUse" x1="572.8889" y1="98.2236" x2="606.7343" y2="57.8884" gradientTransform="matrix(0.4717 -0.8818 -0.8818 -0.4717 64.0146 903.5976)">
	<stop  offset="0" style="stop-color:#D3D6D6"/>
	<stop  offset="0.6073" style="stop-color:#BDC2C7"/>
</linearGradient>
<path class="st20" d="M251.8,332.7c0.8-0.3,2.2-0.7,4-1c0,0,9.5-1.3,19.2,5.7c3.2,2.3,4.1,2.7,5.9,3.5c0.1,0.1,0.4,0.2,0.8,0.4
	c0.7,0.3,1.7,0.8,3.7,2c3.2,1.8,4.7,2.7,6.2,3.7c2.8,1.8,3.7,2.5,3.5,3.1c-0.2,0.4-0.7,0.6-1,0.6c-1.4,0.4-2.7-0.1-3.6-0.5
	c-2.6-1.2-4.1-1.9-5.9-2.5c-2.9-1.2-3.6-1-3.9-0.7c-0.4,0.5-0.2,1.4-0.2,1.6c0.3,0.9,0.8,1,2.2,2.3c1.2,1.1,1,1.1,2.1,2.1
	c0.8,0.7,1.3,1,2,1.4c0,0,2.2,1.3,4.9,1.5c0.6,0.1,0.8,0,1.9,0c2-0.1,3.6,0.1,4.6,0.2c0.2,0,2-0.3,3.4,1c0,0.1,1.2,1.2,0.9,1.8
	c-0.2,0.8-2,0.3-5.2,0.4c-3.1,0-3.2,0.5-5.9,0.5c-2.1,0-2.1-0.3-5.7-0.6c-5-0.4-5.9,0.1-8-0.8c-1.3-0.5-1.7-1-4.5-3
	c-0.9-0.6-3.5-2.6-8.9-6.2c-2.6-1.7-8-4.8-19.2-7.7c3.5,1.7,7.4,0,8.3-2.7C254.5,336.9,253.7,334.4,251.8,332.7z"/>
<linearGradient id="SVGID_22_" gradientUnits="userSpaceOnUse" x1="588.2683" y1="123.1977" x2="621.615" y2="83.4568" gradientTransform="matrix(0.7675 -0.641 -0.641 -0.7675 -125.1172 819.4355)">
	<stop  offset="0" style="stop-color:#D3D6D6"/>
	<stop  offset="0.6073" style="stop-color:#BDC2C7"/>
</linearGradient>
<path class="st21" d="M265.6,334.8c0.9,0.4,4,1.7,4.7,4.4c0.6,2.4-1.2,3.8-1.2,6c-0.1,2.4,1.8,5.6,10,9.8c0,0-0.6,2.9,0.4,4.7
	c0.4,0.7,0.5,0.5,3.3,3c1.9,1.7,2.6,2.5,4.1,3.3c0.7,0.3,0.8,0.3,1.8,0.7c1.8,0.7,3.3,1.4,4.1,1.9c0.1,0,2,0.5,2.8,2.2
	c0.1,0.1,0.8,1.6,0.3,2c-0.6,0.6-2-0.5-5-1.6c-2.9-1.2-3.2-0.7-5.7-1.8c-2-0.7-1.8-1-5-2.6c-4.5-2.4-5.5-2.2-7.2-3.8
	c-0.3-0.3-0.4-0.5-0.6-0.7c-1.5-1.8-2.4-3.8-2.4-3.8c-1.5-2.3-3.7-5.3-6.7-8.6c-1.7-1.9-3.2-3.2-3.9-3.9c-2.3-2.1-5.7-4.8-10.2-7.5
	C250.1,337.9,258.6,331.7,265.6,334.8z"/>
<linearGradient id="SVGID_23_" gradientUnits="userSpaceOnUse" x1="260.6667" y1="318.8333" x2="260.6667" y2="318.8333">
	<stop  offset="0" style="stop-color:#363233"/>
	<stop  offset="1" style="stop-color:#000000"/>
</linearGradient>
<path class="st22" d="M260.7,318.8"/>
</svg>
