<?xml version="1.0" encoding="utf-8"?>
<!-- Generator: Adobe Illustrator 22.1.0, SVG Export Plug-In . SVG Version: 6.00 Build 0)  -->
<svg version="1.1" id="Layer_1" xmlns="http://www.w3.org/2000/svg" xmlns:xlink="http://www.w3.org/1999/xlink" x="0px" y="0px"
	 viewBox="0 0 432 576" style="enable-background:new 0 0 432 576;" xml:space="preserve">
<style type="text/css">
	.st0{fill:url(#SVGID_1_);}
	.st1{fill:url(#SVGID_2_);}
	.st2{fill:url(#SVGID_3_);}
	.st3{fill:url(#SVGID_4_);}
	.st4{fill:url(#SVGID_5_);}
	.st5{fill:url(#SVGID_6_);}
	.st6{fill:url(#SVGID_7_);}
	.st7{fill:url(#SVGID_8_);}
	.st8{fill:url(#SVGID_9_);}
	.st9{fill:url(#SVGID_10_);}
	.st10{fill:url(#SVGID_11_);}
	.st11{fill:url(#SVGID_12_);}
	.st12{fill:url(#SVGID_13_);}
	.st13{fill:url(#SVGID_14_);}
	.st14{fill:url(#SVGID_15_);}
	.st15{fill:url(#SVGID_16_);}
	.st16{fill:url(#SVGID_17_);}
	.st17{fill:url(#SVGID_18_);}
	.st18{fill:url(#SVGID_19_);}
	.st19{fill:url(#SVGID_20_);}
	.st20{fill:url(#SVGID_21_);}
	.st21{fill:url(#SVGID_22_);}
	.st22{fill:url(#SVGID_23_);}
</style>
<linearGradient id="SVGID_1_" gradientUnits="userSpaceOnUse" x1="-74.8735" y1="240.0554" x2="-29.8165" y2="240.0554" gradientTransform="matrix(-0.2832 -0.9591 0.9591 -0.2832 -59.1402 372.8403)">
	<stop  offset="0" style="stop-color:#ABABAB"/>
	<stop  offset="0.3463" style="stop-color:#D3D6D6"/>
	<stop  offset="0.8171" style="stop-color:#BDC2C7"/>
	<stop  offset="1" style="stop-color:#ABABAB"/>
</linearGradient>
<path class="st0" d="M159,382.9c0.5,0.2,0.8,0.3,1.4,0.5c7.7,1.7,13.3-0.9,27.8-7.3c2.2-0.9,7.8-3.3,19-8.1c2.5-1.1,5.8-2.4,8-3.4
	c5.4-2.3,9.9-4.2,12.8-5.5c0.9-0.5,2.1-1.4,3.4-2.7c0.6-0.6,3.1-3.4,3.9-7c1.3-5.7-2.1-12.1-6.8-15.1c-2.9-1.8-5.8-1.9-10.9-2.1
	c-3.3-0.1-4.7,0.2-9.5,0.6c-7,0.6-8.1,0.2-14.5,0.6c0,0-7.2,0.4-15.8,1.8c-2.4,0.4-41.4,6.4-43.2,21.9C133.5,367,148,379,159,382.9z
	"/>
<linearGradient id="SVGID_2_" gradientUnits="userSpaceOnUse" x1="206.4089" y1="399.2558" x2="241.5204" y2="399.2558" gradientTransform="matrix(0.2652 -0.9642 0.5931 0.1632 -36.9758 507.6897)">
	<stop  offset="0" style="stop-color:#ABABAB"/>
	<stop  offset="0.3463" style="stop-color:#D3D6D6"/>
	<stop  offset="0.8171" style="stop-color:#BDC2C7"/>
	<stop  offset="1" style="stop-color:#ABABAB"/>
</linearGradient>
<path class="st1" d="M226.6,361.9c6.6,5.7,12.7,7.9,17,8.8c3.5,0.8,7.2,0.8,14.7,0.9c8.1,0.1,10.7-0.4,17.8-0.3
	c6,0.1,10.7,0.6,13.6,0.9c0.6-0.6,2.4-2.8,3.4-6.4c1.3-5.1-0.2-8.7-0.4-9.1c-2.4-1-6.2-2.5-10.8-4.8c-7.4-3.7-9.5-5.5-15.9-8.8
	c-1.9-1-8.4-4.2-17-7.1c-4.9-1.6-11.3-3.4-19.1-4.7C228.8,341.6,227.7,351.7,226.6,361.9z"/>
<linearGradient id="SVGID_3_" gradientUnits="userSpaceOnUse" x1="670.2912" y1="526.2355" x2="678.3812" y2="480.3554" gradientTransform="matrix(5.311902e-02 -0.9986 0.9986 5.311902e-02 -246.7378 1010.0614)">
	<stop  offset="0" style="stop-color:#9E9E9E"/>
	<stop  offset="0.3463" style="stop-color:#D3D6D6"/>
	<stop  offset="1" style="stop-color:#909597"/>
</linearGradient>
<path class="st2" d="M267,372.5c3.9,0.6,7.2,1.2,9.7,1.8c1.9,0.4,4.1,0.9,6.9,1.7c2.8,0.8,4.9,1.6,6.7,2.2c6.5,2.4,8.3,3.5,10.9,2.8
	c0.3-0.1,1.1-0.4,2.8-1.5c4.9-3.6,7.4-8.3,10.1-13.4c0.2-0.4,2.1-4.1,3-9c0.3-1.6,0.3-2.2,0-2.8c-1.5-3.1-8.9-2.2-11-2
	c-2.2,0.2-2.5,0.5-9.5,2.3c-5.2,1.3-7.8,1.9-9,2c-5.9,0.3-6.9-1.9-10.9-0.9c-4.8,1.2-7.4,5.6-7.9,6.4
	C266,366.8,266.8,371.4,267,372.5z"/>
<linearGradient id="SVGID_4_" gradientUnits="userSpaceOnUse" x1="188.1953" y1="140.3371" x2="146.7144" y2="212.1842" gradientTransform="matrix(0.6819 -0.7315 -0.7315 -0.6819 243.5135 562.0278)">
	<stop  offset="0" style="stop-color:#D3D6D6"/>
	<stop  offset="0.6073" style="stop-color:#BDC2C7"/>
	<stop  offset="0.878" style="stop-color:#ABABAB"/>
</linearGradient>
<path class="st3" d="M193.6,310.7c2.4,4.3,5.8,6.6,8.6,8.8c7.2,5.1,13.9,11.1,21,16.3c4.3,3.2,5.4,4.1,8.2,6.2
	c3.5,2.7,6.3,4.8,7,5.3c2.6,2,6.8,4.8,13.2,8.1c5.3,1.5,10.6,2.8,11,1.8c0.2-0.4-0.7-1-1.5-2c-2.2-3.2,1.8-8.2-0.1-9.8
	c-10.7-9.5-18.4-18-23.4-23.9c-4.5-5.3-8.2-9.5-12.3-13.8c-8.4-8.9-7.9-7.6-10.7-11.3c-2.4-2.4-4.8-5-7.3-7.7
	c-2-2.2-3.9-4.5-5.8-6.6c-1.1,0.5-2.7,1.4-4.3,2.9c-5.9,5.4-6,13.3-5.9,15.3C191.3,302.4,191.3,306.5,193.6,310.7z"/>
<linearGradient id="SVGID_5_" gradientUnits="userSpaceOnUse" x1="155.0652" y1="301.3567" x2="210.2411" y2="235.6007" gradientTransform="matrix(0.8427 -0.5383 -0.5383 -0.8427 165.0879 588.2473)">
	<stop  offset="0" style="stop-color:#D3D6D6"/>
	<stop  offset="0.6073" style="stop-color:#BDC2C7"/>
	<stop  offset="0.878" style="stop-color:#9C9C9C"/>
</linearGradient>
<path class="st4" d="M148,215.4c-1,1.3-2.6,3.2-4,5.7c-1.6,2.8-2.8,4.6-3.3,7.3c-0.6,2.9-0.3,5.1,0.1,7.8c0.6,3.9,1.8,7,2.7,9.2
	c0.4,1,1.1,2.5,2.3,4.9c0,0,1.1,1.9,2.2,3.8c3.5,5.7,8,10.1,13.6,18.1c0.7,1.1,1.4,2.1,2.8,4.1c4.8,7.4,8.1,12.9,9,14.2
	c2.7,4.5,7.4,11.4,16.3,21.9c1.3,0.6,3.5,1.4,6.1,1.1c5.4-0.5,9.6-5.3,11.1-9.4c1.9-5.4-0.2-10.3-4.7-20.2
	c-2.4-5.6-4.9-9.6-7.7-14.1c-7-11.2-7.8-10.5-11.3-17.3c-2.8-5.2-2.1-5.3-7.2-16c-2.9-6.3-4.1-9.5-6.5-12.6
	c-2.5-3.4-7.6-10-14.9-10.1C151.7,213.8,149.4,214.7,148,215.4z"/>
<linearGradient id="SVGID_6_" gradientUnits="userSpaceOnUse" x1="184.0561" y1="358.6429" x2="219.1676" y2="358.6429" gradientTransform="matrix(2.325927e-02 -0.9997 0.6149 1.430700e-02 23.9683 571.1326)">
	<stop  offset="0" style="stop-color:#ABABAB"/>
	<stop  offset="0.3463" style="stop-color:#D3D6D6"/>
	<stop  offset="0.8171" style="stop-color:#BDC2C7"/>
	<stop  offset="1" style="stop-color:#ABABAB"/>
</linearGradient>
<path class="st5" d="M218.8,387.5c7.8,3.9,14.2,4.5,18.6,4.4c3.6-0.1,7.2-1,14.5-2.7c7.9-1.9,10.3-3,17.2-4.6
	c5.8-1.3,10.5-2,13.4-2.4c0.4-0.8,1.6-3.3,1.7-7c0.1-5.2-2.3-8.4-2.6-8.8c-2.6-0.3-6.7-0.9-11.6-2c-8.1-1.7-10.5-3-17.6-4.7
	c-2.1-0.5-9.1-2.1-18.2-2.8c-5.1-0.4-11.8-0.6-19.7,0.1C216,367.2,217.4,377.4,218.8,387.5z"/>
<linearGradient id="SVGID_7_" gradientUnits="userSpaceOnUse" x1="-96.4646" y1="265.1811" x2="-50.9324" y2="265.1811" gradientTransform="matrix(2.325929e-02 -0.9997 0.9997 2.325929e-02 -72.7497 291.3718)">
	<stop  offset="0" style="stop-color:#ABABAB"/>
	<stop  offset="0.3463" style="stop-color:#D3D6D6"/>
	<stop  offset="0.8171" style="stop-color:#BDC2C7"/>
	<stop  offset="1" style="stop-color:#ABABAB"/>
</linearGradient>
<path class="st6" d="M151.5,389.6c0.4,0.3,0.8,0.6,1.2,0.9c6.8,3.9,13,3.2,28.7,1.6c2.4-0.2,8.4-0.8,20.6-1.9
	c2.7-0.3,6.2-0.6,8.6-0.8c5.9-0.5,10.7-1,13.9-1.3c1-0.2,2.5-0.7,4-1.5c0.8-0.4,4-2.3,5.9-5.5c2.9-5.1,1.8-12.2-1.9-16.4
	c-2.2-2.6-5-3.6-9.8-5.4c-3.1-1.1-4.5-1.3-9.2-2.3c-6.9-1.6-7.8-2.2-14-3.8c-5.5-1.4-9.5-2.1-15.6-3.1c-18.1-3.1-23.5-2.4-28.3,0
	c-0.7,0.4-1.3,0.6-2,1.2C143.2,358.8,142.1,381.6,151.5,389.6z"/>
<linearGradient id="SVGID_8_" gradientUnits="userSpaceOnUse" x1="177.9026" y1="235.7308" x2="178.2519" y2="356.6771" gradientTransform="matrix(-2.463800e-02 -0.9997 0.7336 -1.674760e-02 -66.07 546.5381)">
	<stop  offset="0" style="stop-color:#363233"/>
	<stop  offset="1" style="stop-color:#000000"/>
</linearGradient>
<path class="st7" d="M106.8,381.9c3.7,7,8.7,9.9,13,12.4c2,1.1,7.4,4,26.4,4.6c15.9,0.5,26.5-1.1,29.9-1.6c5.4-0.9,10-1.9,13.4-2.8
	c0.3-1.7,0.8-4.2,1.1-7.2c0.7-5.7,1.7-14.4-0.1-24.3c-0.6-3.2-1.7-7.9-3.9-13.2c-7.1-1.3-12.8-2.2-16.8-2.7
	c-3.4-0.4-6.6-0.8-12.9-1.8c-4.7-0.7-5.7-0.9-7-1.1c-0.5-0.1-0.9-0.1-1-0.1c-1.1-0.1-3.2-2.2-7.4-9.4c-2.1-2.1-5.7-5.2-10.7-6.2
	c-10.5-2.1-21.9,6.5-26.3,20.6C101.4,359.4,101.8,372.4,106.8,381.9z"/>
<linearGradient id="SVGID_9_" gradientUnits="userSpaceOnUse" x1="124.306" y1="403.3562" x2="172.9334" y2="403.3562" gradientTransform="matrix(0.9942 0.1079 0.1079 -0.9942 -41.5648 578.1332)">
	<stop  offset="7.317073e-03" style="stop-color:#AAAAAA"/>
	<stop  offset="0.2244" style="stop-color:#AEAEAE"/>
	<stop  offset="0.4431" style="stop-color:#BABABA"/>
	<stop  offset="0.6625" style="stop-color:#CECECE"/>
	<stop  offset="0.8813" style="stop-color:#EAEAEA"/>
	<stop  offset="0.9317" style="stop-color:#F2F2F2"/>
</linearGradient>
<path class="st8" d="M137.8,188.4c0.4-0.7,2.4-4,2.7-8.8c0-2.3-0.5-4.5-1.7-8.9c-0.3-1-0.7-2.2-1.2-4.3c-0.5-1.9-0.8-3.3-1-4.3
	c13.1,5.9,21.7,12.9,27,18.1c8.8,8.7,11.1,14.9,10.1,16c-0.9,1.1-3.5-0.2-5.7,1.7c-0.3,0.4-1,1-2.6,5.1c-1.1,3.1-1.8,4.6-1.9,5.1
	c-0.9,4.6,2.9,9.2,5,11.3c-2.2,1.4-5.6,3.2-10.2,3.7c-9.1,1.1-16-3.7-23.7-9.1c-5.9-4.2-11-7.7-10.5-11.6c0.3-1.7,3-4.1,8.4-9
	C135.9,190.7,136.7,190.2,137.8,188.4z"/>
<linearGradient id="SVGID_10_" gradientUnits="userSpaceOnUse" x1="144.8445" y1="415.172" x2="185.5652" y2="449.3408" gradientTransform="matrix(0.9942 0.1079 0.1079 -0.9942 -41.5648 578.1332)">
	<stop  offset="7.317073e-03" style="stop-color:#B0B0AE"/>
	<stop  offset="0.8137" style="stop-color:#E9E9E9"/>
	<stop  offset="0.9317" style="stop-color:#F2F2F2"/>
</linearGradient>
<path class="st9" d="M174.6,136.7c-7.5-2.2-13.7-1.6-15.1-1.4c-5.4,0.6-12.1,1.4-17.3,6.9c-5.3,5.7-5.7,12.7-5.8,14.7
	c-0.1,2.3-0.3,8.6,3.8,13.8c3,3.7,7,5.5,8.7,6.2c2.1,0.9,4.1,1.3,5.5,1.6c-0.4,1.6-0.9,4.2,0.1,7.1c1.1,3.1,3.4,4.8,7,7.5
	c2.6,1.9,6,3.3,12.9,6.2c3.5,1.5,5.5,2.2,7.6,1.3c1.6-0.6,2.4-1.9,3.1-2.9c1.5-2.1,1.4-3.5,2.7-7.8c1.6-5.4,1.4-6.1,2.3-7.3
	c1.2-1.7,2.2-1.9,2.3-3.1c0.2-1.4-0.9-2-2.6-5.3c-1.1-2-1.6-3.1-1.4-4.2c0.3-1.8,1.7-2,2.7-3.9c0.4-0.7,0.8-1.8,0-7.2
	c-0.7-4.6-1.2-7-2.4-10c-1-2.1-1.8-4.5-4-6.7C181.6,138.9,177.9,137.8,174.6,136.7z"/>
<linearGradient id="SVGID_11_" gradientUnits="userSpaceOnUse" x1="178.2599" y1="394.799" x2="178.2599" y2="394.799" gradientTransform="matrix(1 0 0 -1 0 576)">
	<stop  offset="7.317073e-03" style="stop-color:#AAAAAA"/>
	<stop  offset="0.9317" style="stop-color:#F2F2F2"/>
</linearGradient>
<path class="st10" d="M178.3,181.2"/>
<linearGradient id="SVGID_12_" gradientUnits="userSpaceOnUse" x1="180.1246" y1="415.0937" x2="180.1246" y2="415.0937" gradientTransform="matrix(0.8531 0.5217 0.5217 -0.8531 -161.7615 462.2269)">
	<stop  offset="7.317073e-03" style="stop-color:#AAAAAA"/>
	<stop  offset="0.9317" style="stop-color:#F2F2F2"/>
</linearGradient>
<path class="st11" d="M208.5,202.1"/>
<linearGradient id="SVGID_13_" gradientUnits="userSpaceOnUse" x1="112.481" y1="320.2401" x2="180.7861" y2="320.2401" gradientTransform="matrix(0.9942 0.1079 0.1108 -1.0207 -42.9055 590.4815)">
	<stop  offset="0" style="stop-color:#363233"/>
	<stop  offset="1" style="stop-color:#000000"/>
</linearGradient>
<path class="st12" d="M129.6,196.6c1.3,2.1,3.8,5.5,8.2,7.9c3.4,1.9,6.4,2.3,9.8,2.8c3.8,0.5,9.7,0.8,17-0.6
	c3.5,8.5,6,16.2,7.8,22.5c1.5,5,2.2,7.6,2.6,10.8c0.3,1.9,1.6,11.2-0.9,24.1c-0.5,2.8-0.7,3.1-1.4,5.4c-0.5,1.7-0.8,2.9-1.7,6.3
	c-2.7,10.7-3.8,14.2-4.8,19.2c-1.8,8.7-2.3,15.5-2.7,19.9c-0.6,8.7-0.8,20.7,1.2,35c-4,0.3-10,1-17.2,2.8
	c-9.1,2.4-12.2,4.7-17.9,5.9c-5.7,1.2-14.4,1.4-26.2-4.1c-0.9-10.5-0.9-18.8-0.9-24.1c0.4-28.3,5.3-54.4,4.9-68.9
	c-0.2-7.5-0.3-12.1,0.8-21.2c1.1-9.4,1.9-16.6,5.7-24.5C116.1,211.4,120.6,203.8,129.6,196.6z"/>
<linearGradient id="SVGID_14_" gradientUnits="userSpaceOnUse" x1="148.4949" y1="302.9038" x2="203.6708" y2="237.1478" gradientTransform="matrix(0.8427 -0.5383 -0.5383 -0.8427 165.0879 588.2473)">
	<stop  offset="0" style="stop-color:#D3D6D6"/>
	<stop  offset="0.6073" style="stop-color:#BDC2C7"/>
	<stop  offset="0.878" style="stop-color:#9C9C9C"/>
</linearGradient>
<path class="st13" d="M141.6,217.6c-1,1.3-2.6,3.2-4,5.7c-1.6,2.8-2.8,4.6-3.3,7.3c-0.6,2.9-0.3,5.1,0.1,7.8c0.6,3.9,1.8,7,2.7,9.2
	c0.4,1,1.1,2.5,2.3,4.9c0,0,1.1,1.9,2.2,3.8c3.5,5.7,8,10.1,13.6,18.1c0.7,1.1,1.4,2.1,2.8,4.1c4.8,7.4,8.1,12.9,9,14.2
	c2.7,4.5,7.4,11.4,16.3,21.9c1.3,0.6,3.5,1.4,6.1,1.1c5.4-0.5,9.6-5.3,11.1-9.4c1.9-5.4-0.2-10.3-4.7-20.2
	c-2.4-5.6-4.9-9.6-7.7-14.1c-7-11.2-7.8-10.5-11.3-17.3c-2.8-5.2-2.1-5.3-7.2-16c-2.9-6.3-4.1-9.5-6.5-12.6
	c-2.5-3.4-7.6-10-14.9-10.1C145.3,216,143,216.9,141.6,217.6z"/>
<linearGradient id="SVGID_15_" gradientUnits="userSpaceOnUse" x1="184.7621" y1="152.036" x2="143.2812" y2="223.8831" gradientTransform="matrix(0.5712 -0.8208 -0.8208 -0.5712 278.5148 558.7392)">
	<stop  offset="0" style="stop-color:#D3D6D6"/>
	<stop  offset="0.6073" style="stop-color:#BDC2C7"/>
	<stop  offset="0.878" style="stop-color:#ABABAB"/>
</linearGradient>
<path class="st14" d="M181.9,313.2c3,3.9,6.6,5.7,9.8,7.5c7.9,4,15.3,9,23.1,13.2c4.7,2.6,5.9,3.3,9,5c3.8,2.1,7,3.9,7.7,4.3
	c2.9,1.6,7.4,3.8,14.2,6.1c5.4,0.7,10.9,1.3,11.1,0.3c0.1-0.4-0.9-0.9-1.7-1.8c-2.7-2.9,0.6-8.4-1.4-9.7
	c-11.9-7.9-20.8-15.2-26.6-20.3c-5.2-4.6-9.4-8.2-14.2-11.9c-9.6-7.6-8.9-6.4-12.2-9.7c-2.7-2.1-5.5-4.2-8.3-6.6
	c-2.3-1.9-4.5-3.9-6.6-5.7c-1,0.6-2.5,1.7-3.9,3.4c-5,6.1-4,14-3.7,16C178.4,305.3,179,309.3,181.9,313.2z"/>
<linearGradient id="SVGID_16_" gradientUnits="userSpaceOnUse" x1="183.7008" y1="288.2059" x2="183.7008" y2="288.2059" gradientTransform="matrix(2.887784e-03 -1 1 2.887784e-03 -90.7295 528.8315)">
	<stop  offset="0" style="stop-color:#ABABAB"/>
	<stop  offset="0.3463" style="stop-color:#D3D6D6"/>
	<stop  offset="0.8171" style="stop-color:#BDC2C7"/>
	<stop  offset="1" style="stop-color:#ABABAB"/>
</linearGradient>
<path class="st15" d="M198,346"/>
<linearGradient id="SVGID_17_" gradientUnits="userSpaceOnUse" x1="194.004" y1="406.2797" x2="194.004" y2="406.2797" gradientTransform="matrix(0.6842 -0.7293 0.7293 0.6842 -174.1691 183.1627)">
	<stop  offset="0" style="stop-color:#D3D6D6"/>
	<stop  offset="0.6073" style="stop-color:#BDC2C7"/>
	<stop  offset="0.878" style="stop-color:#ABABAB"/>
</linearGradient>
<path class="st16" d="M254.9,319.6"/>
<linearGradient id="SVGID_18_" gradientUnits="userSpaceOnUse" x1="660.7415" y1="521.412" x2="668.5151" y2="477.3257" gradientTransform="matrix(5.311900e-02 -0.9986 1.0746 5.716388e-02 -282.3399 1008.1676)">
	<stop  offset="0" style="stop-color:#ABABAB"/>
	<stop  offset="0.3463" style="stop-color:#D3D6D6"/>
	<stop  offset="1" style="stop-color:#BDC2C7"/>
</linearGradient>
<path class="st17" d="M267.1,382.9c4.4,1.4,8,1.8,10.5,1.8c2.9,0.1,3.5-0.3,7.3-0.3c0.9,0,4.8,0,9.7,0.8c8,1.2,9.3,2.9,12.1,1.8
	c2.7-1,4-3.5,5.3-5.9c1-1.9,1.4-3.8,2.1-7.5c1.5-7.8,0.6-9,0.2-9.4c-1.5-1.5-4.2-1.5-5-1.5c-2.4,0-4.1,1-5.1,1.5
	c-2.5,1.3-7.2,1.4-16.6,1.7c-4.4,0.1-4.5,0-10.2,0.1c-4.6,0.1-8.4,0.3-10.9,0.4C266.7,372,266.9,377.4,267.1,382.9z"/>
<linearGradient id="SVGID_19_" gradientUnits="userSpaceOnUse" x1="363.75" y1="347.5" x2="363.75" y2="347.5">
	<stop  offset="0" style="stop-color:#ABABAB"/>
	<stop  offset="0.3463" style="stop-color:#D3D6D6"/>
	<stop  offset="1" style="stop-color:#BDC2C7"/>
</linearGradient>
<path class="st18" d="M363.8,347.5"/>
<linearGradient id="SVGID_20_" gradientUnits="userSpaceOnUse" x1="567.5931" y1="93.3667" x2="595.8032" y2="59.7472" gradientTransform="matrix(0.6973 -0.7168 -0.7168 -0.6973 -81.8117 825.52)">
	<stop  offset="0" style="stop-color:#D3D6D6"/>
	<stop  offset="0.6073" style="stop-color:#ABB0B3"/>
</linearGradient>
<path class="st19" d="M249.1,339.4c2.1-1.9,6.1-0.3,8,1.2c0.7,0.5,0.5,0.5,2.5,2.5c1,0.9,2.2,2,3.7,3.3c2.2,1.9,4.3,3.2,5.7,4
	c0.8,1.8,1.5,3.7,2.2,5.6c0,0-0.3,2.9,0.8,4.6c0.6,0.7,0.6,0.5,3.6,2.7c2,1.4,2.8,2.2,4.4,2.7c0.7,0.2,0.8,0.1,1.8,0.5
	c1.9,0.5,3.4,1.1,4.3,1.5c0.2,0.1,2,0.4,2.9,1.9c0,0.1,0.8,1.5,0.4,2c-0.5,0.6-2.1-0.3-5.2-1.1c-3-0.7-3.2-0.3-5.9-1.1
	c-2-0.6-1.9-0.8-5.2-2.2c-4.7-1.8-5.7-1.6-7.5-3c-1.1-0.8-1.5-1.4-3.5-4.1c-2.6-3.5-5.2-6.7-6.9-8.5c-1.6-1.7-4-4.1-7.3-6.5
	C247.5,343,247.7,340.6,249.1,339.4z"/>
<linearGradient id="SVGID_21_" gradientUnits="userSpaceOnUse" x1="563.9736" y1="106.4885" x2="597.819" y2="66.1533" gradientTransform="matrix(0.4717 -0.8818 -0.8818 -0.4717 64.0146 903.5976)">
	<stop  offset="0" style="stop-color:#D3D6D6"/>
	<stop  offset="0.6073" style="stop-color:#ABB0B3"/>
</linearGradient>
<path class="st20" d="M240.3,336.7c0.8-0.3,2.2-0.7,4-1c0,0,9.5-1.3,19.2,5.7c3.2,2.3,4.1,2.7,5.9,3.5c0.1,0.1,0.4,0.2,0.8,0.4
	c0.7,0.3,1.7,0.8,3.7,2c3.2,1.8,4.7,2.7,6.2,3.7c2.8,1.8,3.7,2.5,3.5,3.1c-0.2,0.4-0.7,0.6-1,0.6c-1.4,0.4-2.7-0.1-3.6-0.5
	c-2.6-1.2-4.1-1.9-5.9-2.5c-2.9-1.2-3.6-1-3.9-0.7c-0.4,0.5-0.2,1.4-0.2,1.6c0.3,0.9,0.8,1,2.2,2.3c1.2,1.1,1,1.1,2.1,2.1
	c0.8,0.7,1.3,1,2,1.4c0,0,2.2,1.3,4.9,1.5c0.6,0.1,0.8,0,1.9,0c2-0.1,3.6,0.1,4.6,0.2c0.2,0,2-0.3,3.4,1c0,0.1,1.2,1.2,0.9,1.8
	c-0.2,0.8-2,0.3-5.2,0.4c-3.1,0-3.2,0.5-5.9,0.5c-2.1,0-2.1-0.3-5.7-0.6c-5-0.4-5.9,0.1-8-0.8c-1.3-0.5-1.7-1-4.5-3
	c-0.9-0.6-3.5-2.6-8.9-6.2c-2.6-1.7-8-4.8-19.2-7.7c3.5,1.7,7.4,0,8.3-2.7C243,340.8,242.2,338.4,240.3,336.7z"/>
<linearGradient id="SVGID_22_" gradientUnits="userSpaceOnUse" x1="576.9067" y1="127.5235" x2="610.2534" y2="87.7826" gradientTransform="matrix(0.7675 -0.641 -0.641 -0.7675 -125.1172 819.4355)">
	<stop  offset="0" style="stop-color:#D3D6D6"/>
	<stop  offset="0.6073" style="stop-color:#ABB0B3"/>
</linearGradient>
<path class="st21" d="M254.1,338.7c0.9,0.4,4,1.7,4.7,4.4c0.6,2.4-1.2,3.8-1.2,6c-0.1,2.4,1.8,5.6,10,9.8c0,0-0.6,2.9,0.4,4.7
	c0.4,0.7,0.5,0.5,3.3,3c1.9,1.7,2.6,2.5,4.1,3.3c0.7,0.3,0.8,0.3,1.8,0.7c1.8,0.7,3.3,1.4,4.1,1.9c0.1,0,2,0.5,2.8,2.2
	c0.1,0.1,0.8,1.6,0.3,2c-0.6,0.6-2-0.5-5-1.6c-2.9-1.2-3.2-0.7-5.7-1.8c-2-0.7-1.8-1-5-2.6c-4.5-2.4-5.5-2.2-7.2-3.8
	c-0.3-0.3-0.4-0.5-0.6-0.7c-1.5-1.8-2.4-3.8-2.4-3.8c-1.5-2.3-3.7-5.3-6.7-8.6c-1.7-1.9-3.2-3.2-3.9-3.9c-2.3-2.1-5.7-4.8-10.2-7.5
	C238.6,341.9,247.1,335.6,254.1,338.7z"/>
<linearGradient id="SVGID_23_" gradientUnits="userSpaceOnUse" x1="249.1736" y1="322.7964" x2="249.1736" y2="322.7964">
	<stop  offset="0" style="stop-color:#363233"/>
	<stop  offset="1" style="stop-color:#000000"/>
</linearGradient>
<path class="st22" d="M249.2,322.8"/>
</svg>
