<?xml version="1.0" encoding="utf-8"?>
<!-- Generator: Adobe Illustrator 22.1.0, SVG Export Plug-In . SVG Version: 6.00 Build 0)  -->
<svg version="1.1" id="Layer_1" xmlns="http://www.w3.org/2000/svg" xmlns:xlink="http://www.w3.org/1999/xlink" x="0px" y="0px"
	 viewBox="0 0 576 432" style="enable-background:new 0 0 576 432;" xml:space="preserve">
<style type="text/css">
	.st0{fill:url(#SVGID_1_);}
	.st1{fill:url(#SVGID_2_);}
	.st2{fill:url(#SVGID_3_);}
	.st3{fill:url(#SVGID_4_);}
	.st4{fill:url(#SVGID_5_);}
	.st5{fill:url(#SVGID_6_);}
	.st6{fill:url(#SVGID_7_);}
	.st7{fill:url(#SVGID_8_);}
	.st8{fill:url(#SVGID_9_);}
	.st9{fill:url(#SVGID_10_);}
	.st10{fill:url(#SVGID_11_);}
	.st11{fill:url(#SVGID_12_);}
	.st12{fill:url(#SVGID_13_);}
	.st13{fill:url(#SVGID_14_);}
	.st14{fill:url(#SVGID_15_);}
	.st15{fill:url(#SVGID_16_);}
</style>
<linearGradient id="SVGID_1_" gradientUnits="userSpaceOnUse" x1="252.3404" y1="26.7886" x2="300.9948" y2="26.7886" gradientTransform="matrix(0.2546 0.9671 -0.9671 0.2546 428.8766 -69.2975)">
	<stop  offset="7.317073e-03" style="stop-color:#AAAAAA"/>
	<stop  offset="0.2244" style="stop-color:#AEAEAE"/>
	<stop  offset="0.4431" style="stop-color:#BABABA"/>
	<stop  offset="0.6625" style="stop-color:#CECECE"/>
	<stop  offset="0.8813" style="stop-color:#EAEAEA"/>
	<stop  offset="0.9317" style="stop-color:#F2F2F2"/>
</linearGradient>
<path class="st0" d="M473.7,192.3c0.8,0.2,4.6,0.9,9.1-0.7c2.2-0.8,4-2.1,7.7-4.8c0.9-0.6,1.8-1.4,3.5-2.7c1.5-1.1,2.8-1.9,3.7-2.5
	c-0.8,14.4-4.3,24.9-7.3,31.7c-5,11.4-9.9,15.7-11.3,15.2c-1.4-0.4-1-3.3-3.7-4.7c-0.4-0.2-1.2-0.6-5.7-0.6c-3.3,0-4.9,0-5.5,0.1
	c-4.6,0.8-7.5,6.1-8.7,8.7c-2-1.5-5-4.1-7.1-8.1c-4.3-8-2.2-16.2,0-25.3c1.7-7,3.3-13.1,7.1-14c1.6-0.4,4.9,1.3,11.4,4.6
	C470.8,191.2,471.6,191.8,473.7,192.3z"/>
<linearGradient id="SVGID_2_" gradientUnits="userSpaceOnUse" x1="272.9112" y1="14.9085" x2="313.6571" y2="-19.2814" gradientTransform="matrix(0.2546 0.9671 -0.9671 0.2546 428.8766 -69.2975)">
	<stop  offset="7.317073e-03" style="stop-color:#B0B0AE"/>
	<stop  offset="0.8137" style="stop-color:#E9E9E9"/>
	<stop  offset="0.9317" style="stop-color:#F2F2F2"/>
</linearGradient>
<path class="st1" d="M535.1,208.2c-0.6-7.8-3.4-13.4-4-14.6c-2.5-4.8-5.6-10.8-12.6-13.8c-7.2-3-13.9-0.8-15.7-0.2
	c-2.2,0.7-8.1,2.7-11.5,8.6c-2.4,4.2-2.6,8.6-2.6,10.3c-0.1,2.3,0.2,4.3,0.5,5.6c-1.6,0.2-4.2,0.7-6.6,2.7c-2.6,2.2-3.3,4.9-4.5,9.3
	c-0.8,3.1-0.9,6.8-1.2,14.2c-0.1,3.7-0.1,5.9,1.4,7.6c1.1,1.2,2.6,1.6,3.8,1.9c2.6,0.7,3.7,0.1,8.2-0.3c5.5-0.4,6.2-0.9,7.6-0.5
	c2,0.6,2.5,1.4,3.7,1.1c1.4-0.3,1.6-1.6,4-4.3c1.5-1.7,2.3-2.6,3.4-2.8c1.8-0.4,2.6,0.9,4.6,1.2c0.8,0.1,2,0.1,6.7-2.6
	c4-2.3,6.1-3.5,8.5-5.8c1.7-1.6,3.5-3.3,4.8-6.1C535.6,215.4,535.4,211.6,535.1,208.2z"/>
<linearGradient id="SVGID_3_" gradientUnits="userSpaceOnUse" x1="326.6481" y1="11.2451" x2="326.6481" y2="11.2451" gradientTransform="matrix(7.020551e-03 1 -1 7.020551e-03 501.9658 -75.5023)">
	<stop  offset="7.317073e-03" style="stop-color:#AAAAAA"/>
	<stop  offset="0.9317" style="stop-color:#F2F2F2"/>
</linearGradient>
<path class="st2" d="M493,251.2"/>
<linearGradient id="SVGID_4_" gradientUnits="userSpaceOnUse" x1="273.8148" y1="19.4117" x2="273.8148" y2="19.4117" gradientTransform="matrix(7.020551e-03 1 -1 7.020551e-03 501.9658 -75.5023)">
	<stop  offset="7.317073e-03" style="stop-color:#AAAAAA"/>
	<stop  offset="0.9317" style="stop-color:#F2F2F2"/>
</linearGradient>
<path class="st3" d="M484.5,198.4"/>
<linearGradient id="SVGID_5_" gradientUnits="userSpaceOnUse" x1="97.5981" y1="285.6683" x2="52.0659" y2="285.6683" gradientTransform="matrix(7.020551e-03 1 -1 7.020551e-03 503.427 132.6278)">
	<stop  offset="0" style="stop-color:#ABABAB"/>
	<stop  offset="0.3463" style="stop-color:#D3D6D6"/>
	<stop  offset="0.8171" style="stop-color:#BDC2C7"/>
	<stop  offset="1" style="stop-color:#ABABAB"/>
</linearGradient>
<path class="st4" d="M256.7,189.9c-0.4-0.3-0.8-0.6-1.2-0.8c-6.9-3.7-13.1-2.8-28.8-0.7c-2.3,0.3-8.4,1.1-20.5,2.5
	c-2.7,0.3-6.2,0.8-8.6,1.1c-5.9,0.7-10.7,1.3-13.9,1.7c-1,0.3-2.4,0.8-4,1.7c-0.8,0.4-3.9,2.4-5.7,5.7c-3.4,6.2,1,13.9,2.4,16.4
	c1.1,2,2.9,5.1,6.5,7.3c2.7,1.7,4.7,1.7,12.2,2.4c13.7,1.1,20.8,2.1,24.5,2.6c3.2,0.5,2.3,0.4,5.8,0.9c18.2,2.6,23.5,1.7,28.3-0.9
	c0.7-0.4,1.3-0.7,2-1.2C266,220.5,266.4,197.6,256.7,189.9z"/>
<linearGradient id="SVGID_6_" gradientUnits="userSpaceOnUse" x1="244.5015" y1="227.8004" x2="312.6603" y2="227.8004" gradientTransform="matrix(7.020551e-03 1 -1 7.020551e-03 501.9658 -75.5023)">
	<stop  offset="0" style="stop-color:#363233"/>
	<stop  offset="1" style="stop-color:#000000"/>
</linearGradient>
<path class="st5" d="M331.2,177.4c-1.3-0.1-3.2-0.3-5.4-0.9c-3.2-0.8-5.2-2-6.5-2.6c-4.2-2-8.1-2.6-12-3.1c-8.4-1.2-15.1,0.3-18,1
	c-5.8,1.3-10,3.4-12.5,4.6c-3.2,1.6-5.8,3.2-7.7,4.4c-1.7,0.4-4.3,0.9-7.5,1.4c-8,1.3-13.1,1.6-19,2.1c-4.3,0.4-10.6,1.2-18.4,2.6
	c-0.5,1.7-1.1,4.2-1.7,7.2c-1.1,5.7-2.8,14.3-0.6,24.3c0.7,3.2,2,7.9,5,13.2c9.6,1.4,17.4,2.3,22.8,2.9c4.6,0.5,8.9,0.9,17.5,1.9
	c7.8,0.9,8.2,1,10.8,1.3c8.7,0.9,15,0.8,27,0.8c9.8,0,18.3-0.3,25-0.7C330.4,217.7,330.8,197.6,331.2,177.4z"/>
<linearGradient id="SVGID_7_" gradientUnits="userSpaceOnUse" x1="368.8651" y1="370.9344" x2="329.589" y2="370.9344" gradientTransform="matrix(7.020551e-03 1 -1 7.020551e-03 501.4792 -144.8009)">
	<stop  offset="0" style="stop-color:#ABABAB"/>
	<stop  offset="0.3463" style="stop-color:#D3D6D6"/>
	<stop  offset="0.8171" style="stop-color:#BDC2C7"/>
	<stop  offset="1" style="stop-color:#ABABAB"/>
</linearGradient>
<path class="st6" d="M185.7,193.7c-11.6-5.7-21-6.7-27.8-6.5c-6.4,0.3-5.8,1.5-26.1,5.9c0,0-12.7,2.8-27.7,5.2
	c-9.5,1.5-7.3,0.8-15.6,2.2c-0.3,0.1-2.6,0.3-3.9,0.4c-2,0.1-5,0-9.1-1.5c-0.6,0.5-4,3.2-4.4,7.9c-0.4,4.2,1.8,8.3,5.6,10.7
	c1.8,0,4.5,0.1,7.8,0.2c10.2,0.2,16.4,0.2,19.1,0.3c4.9,0.2,12.1,0.7,29.2,2.6c18.9,2.1,19.6,2.7,29.4,3.6c7.6,0.7,19,1.5,33.2,1.5
	C192,215.4,188.8,204.5,185.7,193.7z"/>
<linearGradient id="SVGID_8_" gradientUnits="userSpaceOnUse" x1="272.0648" y1="459.6617" x2="272.0648" y2="459.6617" gradientTransform="matrix(7.020551e-03 1 -1 7.020551e-03 501.9658 -75.5023)">
	<stop  offset="0" style="stop-color:#ABABAB"/>
	<stop  offset="0.3463" style="stop-color:#D3D6D6"/>
	<stop  offset="0.8171" style="stop-color:#BDC2C7"/>
	<stop  offset="1" style="stop-color:#ABABAB"/>
</linearGradient>
<path class="st7" d="M44.2,199.8"/>
<linearGradient id="SVGID_9_" gradientUnits="userSpaceOnUse" x1="299.1192" y1="302.7404" x2="299.1192" y2="302.7404" gradientTransform="matrix(7.020551e-03 1 -1 7.020551e-03 501.9658 -75.5023)">
	<stop  offset="0" style="stop-color:#ABABAB"/>
	<stop  offset="0.3463" style="stop-color:#D3D6D6"/>
	<stop  offset="0.8171" style="stop-color:#BDC2C7"/>
	<stop  offset="1" style="stop-color:#ABABAB"/>
</linearGradient>
<path class="st8" d="M201.3,225.7"/>
<linearGradient id="SVGID_10_" gradientUnits="userSpaceOnUse" x1="248.8124" y1="109.5755" x2="317.1221" y2="109.5755" gradientTransform="matrix(7.020551e-03 1 -1.0266 7.207672e-03 503.005 -75.5096)">
	<stop  offset="0" style="stop-color:#363233"/>
	<stop  offset="1" style="stop-color:#000000"/>
</linearGradient>
<path class="st9" d="M469.4,190c-1.9,1.5-5,4.4-6.9,9c-1.5,3.6-1.6,6.7-1.7,10c-0.1,3.8,0.3,9.7,2.5,16.8
	c-8.1,4.4-15.4,7.8-21.5,10.3c-4.8,2-7.3,3-10.5,3.9c-1.9,0.5-11,2.9-24.1,1.8c-2.8-0.2-3.2-0.4-5.5-0.8c-1.7-0.3-3-0.5-6.5-1
	c-11-1.4-14.5-2.1-19.6-2.5c-5.8-0.5-10-0.6-20.1-0.4c-10.4,0.2-23,0.5-37.5,1c-1.6-7.3-2.9-16.8-2.5-27.9c0.5-14.8,3.8-26.8,6.8-35
	c2.6,0.9,6.5,2,11.4,3c14.3,2.8,26.4,1.8,36.5,0.8c0.9-0.1,5.7-0.6,15.3-1.8c4.1-0.5,9.4-1.1,16.5-1.9c10.3-1.2,14.8-1.6,21.2-1.6
	c9.5,0,16.7,0,25,2.8C453.1,178.3,461.2,181.9,469.4,190z"/>
<linearGradient id="SVGID_11_" gradientUnits="userSpaceOnUse" x1="341.7665" y1="175.815" x2="301.079" y2="105.3422" gradientTransform="matrix(0.9643 -0.2647 0.2647 0.9643 40.434 143.3124)">
	<stop  offset="0" style="stop-color:#D3D6D6"/>
	<stop  offset="0.6073" style="stop-color:#BDC2C7"/>
	<stop  offset="0.878" style="stop-color:#ABABAB"/>
</linearGradient>
<path class="st10" d="M365.2,165.7c-0.2,5,1.4,8.7,2.8,12c3.4,8.2,6,16.7,9.2,24.9c3,7.8,2.5,6.7,6.8,17.8c2.2,5.7,4.4,11.4,6.7,17
	c2.3,2.1,5.7,2.8,8.5,1.7c3.3-1.3,5.4-4.7,5.2-8.4c-4.1-13.7-6.2-24.9-7.4-32.7c-1.1-6.8-2-12.3-3.2-18.2c-2.5-12-2.7-10.7-3.2-15.2
	c0.2-1,1.2-6.5-2.2-10.4c-5-5.7-15.7-4-19.1,0.6c-0.1,0.2-0.3,0.4-0.5,0.8C367.6,157.3,365.4,160.8,365.2,165.7z"/>
<g id="Foot">
	
		<linearGradient id="SVGID_12_" gradientUnits="userSpaceOnUse" x1="445.9385" y1="-472.4079" x2="445.9385" y2="-430.7636" gradientTransform="matrix(-5.717237e-02 0.9984 0.9984 5.717237e-02 542.5399 -197.3962)">
		<stop  offset="0" style="stop-color:#ABABAB"/>
		<stop  offset="0.3463" style="stop-color:#D3D6D6"/>
		<stop  offset="1" style="stop-color:#C5C8C9"/>
	</linearGradient>
	<path class="st11" d="M84,201.3c-2.3-0.6-5.3-1.5-8.6-3.2c-2.9-1.6-5.2-3.5-6.7-4.9c-4.6-2.5-8.7-3.2-11-3.4
		c-4.1-0.3-5.6,0.6-6,0.9c-0.8,0.5-2.1,1.6-3.5,6.6c-2.1,7.3-1.7,13.4-1.5,15.1c0.3,4.2,0.9,4,1,7c0.1,6.1-2.4,7.2-2.8,12.4
		c-0.2,3.4,0.9,6,3,11.5c2.2,5.7,3.4,8.7,6.3,9.6c1.9,0.6,5.1,0.5,6.2-1.6c0.9-1.6,0.3-4.2-1.8-6c0.9-4.6,2-8.4,2.9-11.1
		c2.8-8.9,4.7-10.9,5.9-11.9c2.3-2.1,4.8-2.8,6.6-3.3c5.9-1.8,11.1-0.7,13.4,0C86.1,213.1,85,207.2,84,201.3z"/>
</g>
<linearGradient id="SVGID_13_" gradientUnits="userSpaceOnUse" x1="266.3829" y1="34.2191" x2="321.6457" y2="100.0787" gradientTransform="matrix(-0.6227 0.7825 -0.7825 -0.6227 645.3869 1.2358)">
	<stop  offset="0" style="stop-color:#D3D6D6"/>
	<stop  offset="0.6073" style="stop-color:#BDC2C7"/>
	<stop  offset="0.878" style="stop-color:#9C9C9C"/>
</linearGradient>
<path class="st12" d="M450.5,224.4c0.6-1.6,1.4-3.8,2-6.7c0.7-3.2,1.1-5.3,0.8-8c-0.4-2.9-1.4-5-2.6-7.3c-1.8-3.6-4-6-5.5-7.8
	c-0.8-0.9-1.9-2.1-3.8-3.9c0,0-1.6-1.5-3.3-2.9c-5.2-4.3-10.8-7-18.7-12.7c-1-0.8-2-1.5-4-3c-7-5.4-10.6-8.6-13-10.5
	c-8.1-6.5-15-12-22.9-10.9c-6.1,0.8-12.6,5.6-13.2,10.9c-0.4,3.7,3.5,7.6,11.1,15.6c5,5.2,9.8,9.2,11.8,10.9
	c10.2,8.4,10.7,7.4,16.4,12.7c4.3,4,3.7,4.3,11.9,12.8c4.8,5,7,7.7,10.2,9.8c3.5,2.3,10.4,7,17.3,4.8
	C447.5,227.1,449.4,225.5,450.5,224.4z"/>
<linearGradient id="SVGID_14_" gradientUnits="userSpaceOnUse" x1="544.9165" y1="254.4206" x2="583.1443" y2="299.9786" gradientTransform="matrix(-5.079744e-02 0.9987 0.9987 5.079744e-02 166.1061 -328.5598)">
	<stop  offset="0" style="stop-color:#D3D6D6"/>
	<stop  offset="0.6073" style="stop-color:#BDC2C7"/>
</linearGradient>
<path class="st13" d="M395.9,236.6c4.3,9.6,8.6,11.2,10.7,11.5c2.5,0.4,8.2-0.5,10.8-0.8c3.4-0.4,4-0.5,5.4-0.3
	c2.3,0.5,2.7,1.2,7.3,3.5c3.2,1.6,3.4,1.4,5.2,2.6c2.4,1.5,2.1,1.9,4.7,3.7c2.7,1.8,4.5,2.4,4.3,3.2c-0.1,0.7-1.6,1.1-1.8,1.1
	c-1.9,0.4-3.2-0.8-3.4-0.9c-1-0.4-2.4-1.2-4.1-2.2c-0.9-0.6-1-0.7-1.6-1c-1.5-0.8-2.5-0.8-5-1.4c-3.6-0.7-3.5-1-4.4-0.9
	c-2,0.3-4,2.7-4,2.7c2,1,3,1.7,2.9,2.2c-0.2,0.7-3,0.8-8.6,0.2c-1.6-0.1-4.1-0.3-6.8-1.6c0,0-1.2-0.6-2.4-1.2
	c-4.4-2.7-7.9-8.7-10.5-13.4c-2.5-4.3-4.5-8-6.1-10.9C391.1,234,393.5,235.3,395.9,236.6z"/>
<linearGradient id="SVGID_15_" gradientUnits="userSpaceOnUse" x1="548.7487" y1="271.3147" x2="576.8233" y2="304.7729" gradientTransform="matrix(-5.837210e-02 0.9635 0.9982 6.047261e-02 168.3601 -308.3912)">
	<stop  offset="0" style="stop-color:#D3D6D6"/>
	<stop  offset="0.6073" style="stop-color:#BDC2C7"/>
</linearGradient>
<path class="st14" d="M400.8,243.4c4,0.9,7.4,1,9.7,1c2.4-0.1,6.6-0.3,10.8-0.7c3.4-0.3,4-0.5,5.4-0.3c2.3,0.5,2.7,1.2,7.3,3.5
	c3.2,1.6,3.3,1.4,5.1,2.4c2.4,1.5,2.1,1.9,4.8,3.6c2.7,1.8,4.4,2.3,4.3,3.1c-0.1,0.7-1.6,1-1.8,1.1c-1.8,0.3-3.2-0.8-3.4-0.9
	c-1-0.4-2.4-1.2-4-2.2c-0.9-0.6-1-0.7-1.6-1c-2.5-1.3-5-1.4-5-1.4c-0.8,0-1.4,0.1-2.4,0.3c-1.4,0.2-1.3,0.4-2.9,0.6
	c-1.9,0.3-2.4,0.3-3.1,0.8c-0.1,0.1-0.9,0.9-0.7,1.5c0.1,0.4,0.5,0.9,3.7,1.6c1.9,0.3,3.5,0.5,6.3,0.9c1,0.1,2.4,0.4,3.3,1.4
	c0.3,0.2,0.6,0.7,0.5,1.1c-0.2,0.6-1.3,0.7-4.7,0.9c-1.8,0-3.6,0-7.2,0c-3.3-0.1-4.1-0.2-5.1-0.4c-1.4-0.3-2.6-0.6-4-1.2
	c-1.1-0.4-1.9-0.7-2.7-1.1c-1.5-0.7-2.9-1.4-3.6-1.8c-0.2-0.1-0.4-0.3-0.6-0.3c0,0-0.1,0-0.2-0.1c-3.4-1.7-7.1-6.1-7.1-6.1
	c-0.9-1-2-2.5-3.3-4.4C399.2,244.9,400,244.2,400.8,243.4z"/>
<linearGradient id="SVGID_16_" gradientUnits="userSpaceOnUse" x1="550.3363" y1="244.6492" x2="582.0557" y2="282.4511" gradientTransform="matrix(5.251608e-02 0.9987 0.9987 -5.251608e-02 124.6948 -303.9751)">
	<stop  offset="0" style="stop-color:#D3D6D6"/>
	<stop  offset="0.6073" style="stop-color:#BDC2C7"/>
</linearGradient>
<path class="st15" d="M402.3,227.2c1.1,2.7,2.4,5.6,4,8.6c1.3,2.4,2.5,4.5,3.7,6.4c1.3,0.1,2.9,0.1,4.8-0.1c1.3-0.2,2.4-0.5,3.2-0.9
	l0,0c0,0,2.2-0.8,4.4-0.9c0.3,0,0.5-0.1,0.9,0c2.3,0.1,2.8,0.9,7.6,2.7c3.4,1.3,3.4,1,5.3,1.9c2.5,1.2,2.3,1.6,5.1,3.1
	c2.9,1.5,4.6,1.9,4.6,2.7c-0.1,0.7-1.5,1.2-1.6,1.3c-1.8,0.6-3.3-0.5-3.5-0.5c-1-0.3-2.5-0.9-4.2-1.8c-1-0.5-1-0.6-1.6-0.8
	c-1.5-0.6-2.6-0.6-5.1-0.8c-3.8-0.3-3.7-0.6-4.5-0.4c-2.1,0.5-3.7,3.1-3.7,3.1c-2.4,3.7-13.1,4.4-14.7,4.6c-0.7,0.1-1.6,0.4-2.8,0.1
	c-2.6-0.6-3.9-3.2-5.2-5.6c-1.3-2.5-3.3-5.9-6.1-10.1C395.9,235.6,399.1,231.3,402.3,227.2z"/>
</svg>
