<?xml version="1.0" encoding="utf-8"?>
<!-- Generator: Adobe Illustrator 22.1.0, SVG Export Plug-In . SVG Version: 6.00 Build 0)  -->
<svg version="1.1" id="Layer_1" xmlns="http://www.w3.org/2000/svg" xmlns:xlink="http://www.w3.org/1999/xlink" x="0px" y="0px"
	 viewBox="0 0 576 432" style="enable-background:new 0 0 576 432;" xml:space="preserve">
<style type="text/css">
	.st0{fill:url(#SVGID_1_);}
	.st1{fill:url(#SVGID_2_);}
	.st2{fill:url(#SVGID_3_);}
	.st3{fill:url(#SVGID_4_);}
	.st4{fill:url(#SVGID_5_);}
	.st5{fill:url(#SVGID_6_);}
	.st6{fill:url(#SVGID_7_);}
	.st7{fill:url(#SVGID_8_);}
	.st8{fill:url(#SVGID_9_);}
	.st9{fill:url(#SVGID_10_);}
	.st10{fill:url(#SVGID_11_);}
	.st11{fill:url(#SVGID_12_);}
	.st12{fill:url(#SVGID_13_);}
	.st13{fill:url(#SVGID_14_);}
	.st14{fill:url(#SVGID_15_);}
	.st15{fill:url(#SVGID_16_);}
</style>
<linearGradient id="SVGID_1_" gradientUnits="userSpaceOnUse" x1="194.9982" y1="-20.1173" x2="243.6526" y2="-20.1173" gradientTransform="matrix(0.985 0.1728 -0.1728 0.985 206.7591 152.1339)">
	<stop  offset="7.317073e-03" style="stop-color:#AAAAAA"/>
	<stop  offset="0.2244" style="stop-color:#AEAEAE"/>
	<stop  offset="0.4431" style="stop-color:#BABABA"/>
	<stop  offset="0.6625" style="stop-color:#CECECE"/>
	<stop  offset="0.8813" style="stop-color:#EAEAEA"/>
	<stop  offset="0.9317" style="stop-color:#F2F2F2"/>
</linearGradient>
<path class="st0" d="M414.8,164.6c0.5-0.6,2.7-3.8,3.2-8.6c0.2-2.3-0.3-4.5-1.1-9c-0.2-1-0.6-2.3-1-4.3c-0.4-1.8-0.6-3.4-0.7-4.4
	c12.7,6.7,20.9,14.3,25.8,19.9c8.3,9.3,10.1,15.5,9.1,16.7c-1,1.1-3.4-0.4-5.8,1.3c-0.4,0.3-1.1,0.9-2.9,4.9c-1.4,3-2.1,4.5-2.2,5
	c-1.2,4.5,2.4,9.4,4.2,11.6c-2.2,1.2-5.8,2.8-10.4,3.1c-9.1,0.6-15.7-4.8-23-10.6c-5.6-4.5-10.5-8.4-9.7-12.2c0.3-1.6,3.2-3.9,9-8.4
	C412.6,166.8,413.5,166.3,414.8,164.6z"/>
<linearGradient id="SVGID_2_" gradientUnits="userSpaceOnUse" x1="215.569" y1="-31.9975" x2="256.3149" y2="-66.1874" gradientTransform="matrix(0.985 0.1728 -0.1728 0.985 206.7591 152.1339)">
	<stop  offset="7.317073e-03" style="stop-color:#B0B0AE"/>
	<stop  offset="0.8137" style="stop-color:#E9E9E9"/>
	<stop  offset="0.9317" style="stop-color:#F2F2F2"/>
</linearGradient>
<path class="st1" d="M454.9,115.4c-7.3-2.7-13.5-2.5-15-2.5c-5.4,0.2-12.2,0.6-17.7,5.7c-5.7,5.3-6.5,12.3-6.7,14.2
	c-0.3,2.3-0.9,8.5,2.9,14.1c2.8,4,6.7,5.9,8.3,6.7c2.1,1,3.9,1.6,5.3,1.9c-0.5,1.5-1.1,4.2-0.3,7.1c0.9,3.2,3,5,6.6,7.9
	c2.4,2,5.8,3.7,12.4,7.1c3.3,1.7,5.3,2.6,7.5,1.9c1.6-0.5,2.6-1.7,3.3-2.6c1.7-2,1.6-3.3,3.2-7.6c2-5.2,1.8-6,2.8-7.1
	c1.3-1.6,2.3-1.7,2.5-2.9c0.3-1.4-0.8-2.1-2.3-5.5c-0.9-2.1-1.4-3.2-1.1-4.3c0.4-1.8,1.9-1.9,3-3.7c0.4-0.7,0.9-1.8,0.4-7.2
	c-0.4-4.6-0.7-7-1.8-10.1c-0.8-2.2-1.5-4.6-3.5-6.9C461.7,118,458,116.6,454.9,115.4z"/>
<linearGradient id="SVGID_3_" gradientUnits="userSpaceOnUse" x1="275.5793" y1="-44.2666" x2="275.5793" y2="-44.2666" gradientTransform="matrix(0.9114 0.4115 -0.4115 0.9114 231.6634 83.1389)">
	<stop  offset="7.317073e-03" style="stop-color:#AAAAAA"/>
	<stop  offset="0.9317" style="stop-color:#F2F2F2"/>
</linearGradient>
<path class="st2" d="M501,156.2"/>
<linearGradient id="SVGID_4_" gradientUnits="userSpaceOnUse" x1="206.8459" y1="-28.3746" x2="206.8459" y2="-28.3746" gradientTransform="matrix(0.9114 0.4115 -0.4115 0.9114 231.6634 83.1389)">
	<stop  offset="7.317073e-03" style="stop-color:#AAAAAA"/>
	<stop  offset="0.9317" style="stop-color:#F2F2F2"/>
</linearGradient>
<path class="st3" d="M431.9,142.4"/>
<linearGradient id="SVGID_5_" gradientUnits="userSpaceOnUse" x1="181.9944" y1="254.3349" x2="136.4621" y2="254.3349" gradientTransform="matrix(7.020551e-03 1 -1 7.020551e-03 503.427 132.6278)">
	<stop  offset="0" style="stop-color:#ABABAB"/>
	<stop  offset="0.3463" style="stop-color:#D3D6D6"/>
	<stop  offset="0.8171" style="stop-color:#BDC2C7"/>
	<stop  offset="1" style="stop-color:#ABABAB"/>
</linearGradient>
<path class="st4" d="M288.7,274c-0.4-0.3-0.8-0.6-1.2-0.8c-6.9-3.7-13.1-2.8-28.8-0.7c-2.3,0.3-8.4,1.1-20.5,2.5
	c-2.7,0.3-6.2,0.8-8.6,1.1c-5.9,0.7-10.7,1.3-13.9,1.7c-1,0.3-2.4,0.8-4,1.7c-0.8,0.4-3.9,2.4-5.7,5.7c-3.4,6.2,1,13.9,2.4,16.4
	c1.1,2,2.9,5.1,6.5,7.3c2.7,1.7,4.7,1.7,12.2,2.4c13.7,1.1,20.8,2.1,24.5,2.6c3.2,0.5,2.3,0.4,5.8,0.9c18.2,2.6,23.5,1.7,28.3-0.9
	c0.7-0.4,1.3-0.7,2-1.2C298,304.6,298.4,281.8,288.7,274z"/>
<linearGradient id="SVGID_6_" gradientUnits="userSpaceOnUse" x1="328.8977" y1="196.4669" x2="397.0566" y2="196.4669" gradientTransform="matrix(7.020551e-03 1 -1 7.020551e-03 501.9658 -75.5023)">
	<stop  offset="0" style="stop-color:#363233"/>
	<stop  offset="1" style="stop-color:#000000"/>
</linearGradient>
<path class="st5" d="M363.1,261.6c-1.3-0.1-3.2-0.3-5.4-0.9c-3.2-0.8-5.2-2-6.5-2.6c-4.2-2-8.1-2.6-12-3.1c-8.4-1.2-15.1,0.3-18,1
	c-5.8,1.3-10,3.4-12.5,4.6c-3.2,1.6-5.8,3.2-7.7,4.4c-1.7,0.4-4.3,0.9-7.5,1.4c-8,1.3-13.1,1.6-19,2.1c-4.3,0.4-10.6,1.2-18.4,2.6
	c-0.5,1.7-1.1,4.2-1.7,7.2c-1.1,5.7-2.8,14.3-0.6,24.3c0.7,3.2,2,7.9,5,13.2c9.6,1.4,17.4,2.3,22.8,2.9c4.6,0.5,8.9,0.9,17.5,1.9
	c7.8,0.9,8.2,1,10.8,1.3c8.7,0.9,15,0.8,27,0.8c9.8,0,18.3-0.3,25-0.7C362.4,301.9,362.7,281.7,363.1,261.6z"/>
<linearGradient id="SVGID_7_" gradientUnits="userSpaceOnUse" x1="453.2613" y1="339.601" x2="413.9853" y2="339.601" gradientTransform="matrix(7.020551e-03 1 -1 7.020551e-03 501.4792 -144.8009)">
	<stop  offset="0" style="stop-color:#ABABAB"/>
	<stop  offset="0.3463" style="stop-color:#D3D6D6"/>
	<stop  offset="0.8171" style="stop-color:#BDC2C7"/>
	<stop  offset="1" style="stop-color:#ABABAB"/>
</linearGradient>
<path class="st6" d="M217.6,277.9c-11.6-5.7-21-6.7-27.8-6.5c-6.4,0.3-5.8,1.5-26.1,5.9c0,0-12.7,2.8-27.7,5.2
	c-9.5,1.5-7.3,0.8-15.6,2.2c-0.3,0.1-2.6,0.3-3.9,0.4c-2,0.1-5,0-9.1-1.5c-0.6,0.5-4,3.2-4.4,7.9c-0.4,4.2,1.8,8.3,5.6,10.7
	c1.8,0,4.5,0.1,7.8,0.2c10.2,0.2,16.4,0.2,19.1,0.3c4.9,0.2,12.1,0.7,29.2,2.6c18.9,2.1,19.6,2.7,29.4,3.6c7.6,0.7,19,1.5,33.2,1.5
	C223.9,299.6,220.8,288.7,217.6,277.9z"/>
<linearGradient id="SVGID_8_" gradientUnits="userSpaceOnUse" x1="356.461" y1="428.3283" x2="356.461" y2="428.3283" gradientTransform="matrix(7.020551e-03 1 -1 7.020551e-03 501.9658 -75.5023)">
	<stop  offset="0" style="stop-color:#ABABAB"/>
	<stop  offset="0.3463" style="stop-color:#D3D6D6"/>
	<stop  offset="0.8171" style="stop-color:#BDC2C7"/>
	<stop  offset="1" style="stop-color:#ABABAB"/>
</linearGradient>
<path class="st7" d="M76.2,284"/>
<linearGradient id="SVGID_9_" gradientUnits="userSpaceOnUse" x1="383.5155" y1="271.4069" x2="383.5155" y2="271.4069" gradientTransform="matrix(7.020551e-03 1 -1 7.020551e-03 501.9658 -75.5023)">
	<stop  offset="0" style="stop-color:#ABABAB"/>
	<stop  offset="0.3463" style="stop-color:#D3D6D6"/>
	<stop  offset="0.8171" style="stop-color:#BDC2C7"/>
	<stop  offset="1" style="stop-color:#ABABAB"/>
</linearGradient>
<path class="st8" d="M233.3,309.9"/>
<linearGradient id="SVGID_10_" gradientUnits="userSpaceOnUse" x1="233.6208" y1="98.353" x2="396.9658" y2="98.353" gradientTransform="matrix(6.551328e-03 0.9331 -0.9325 6.546510e-03 486.9382 -48.8733)">
	<stop  offset="0" style="stop-color:#363233"/>
	<stop  offset="1" style="stop-color:#000000"/>
</linearGradient>
<path class="st9" d="M421.4,284.8c-8.8,11.3-18,18.2-22.7,21.4c-13.2,9-25,12.4-28.4,13.3c-8.2,2.2-15.3,2.9-20.5,3
	c-1.4-6.8-2.6-15.7-2.3-26c0.4-13.8,3.4-25,6.1-32.7c4-1.3,8.4-2.9,13-5c4.5-2,8.5-4.2,12-6.3c1.3-2.8,3.2-7.4,4.6-13.4
	c3.4-13.8,0.8-19.6,3.1-37.5c2-15.7,5.2-20.7,7.4-23.5c1.7-2.1,5.8-7.2,12.3-8.3c4-0.7,8.5,1.2,17.4,5.1c7.2,3.1,10.8,4.8,14.2,8.3
	c3.6,3.7,5.2,7.5,6.3,10.1c4.6,11,3.4,21.6,2.4,29.3c-0.5,4-1.5,9.2-4.4,18.2C436.9,257,432.7,270.4,421.4,284.8z"/>
<linearGradient id="SVGID_11_" gradientUnits="userSpaceOnUse" x1="369.5271" y1="286.099" x2="328.8396" y2="215.6261" gradientTransform="matrix(0.788 -0.6157 0.6157 0.788 24.961 298.8464)">
	<stop  offset="0" style="stop-color:#D3D6D6"/>
	<stop  offset="0.6073" style="stop-color:#BDC2C7"/>
	<stop  offset="0.878" style="stop-color:#ABABAB"/>
</linearGradient>
<path class="st10" d="M423,264.2c1.7,4.7,4.6,7.5,7.2,10c6.3,6.2,12,13.1,18.1,19.4c5.8,6,4.9,5.2,13.2,13.8
	c4.2,4.4,8.5,8.8,12.7,13.1c3,1.1,6.3,0.4,8.5-1.7c2.5-2.5,3.2-6.4,1.5-9.7c-9-11.1-15.3-20.6-19.4-27.3c-3.6-5.9-6.6-10.6-10-15.6
	c-6.9-10.1-6.6-8.8-8.8-12.8c-0.2-1-1.4-6.5-6-8.8c-6.8-3.4-16.1,2.3-17.4,7.9c-0.1,0.2-0.1,0.5-0.2,1
	C422,255.6,421.3,259.6,423,264.2z"/>
<g id="Foot">
	
		<linearGradient id="SVGID_12_" gradientUnits="userSpaceOnUse" x1="514.2394" y1="-469.1436" x2="514.2394" y2="-392.4585" gradientTransform="matrix(-5.717237e-02 0.9984 0.9984 5.717237e-02 542.5399 -197.3962)">
		<stop  offset="0" style="stop-color:#ABABAB"/>
		<stop  offset="0.3463" style="stop-color:#D3D6D6"/>
		<stop  offset="1" style="stop-color:#C5C8C9"/>
	</linearGradient>
	<path class="st11" d="M117.9,286c-2.2-0.5-5-1.4-8.1-3.1c-2.7-1.5-4.9-3.3-6.4-4.7c-4.4-2.4-8.2-3-10.5-3.2
		c-3.9-0.3-5.3,0.5-5.7,0.9c-0.7,0.4-1.7,1.2-2.7,2.2c-1.9,1.9-2.7,3.8-3,4.4c-0.5,1.1-2,3.2-11.2,7.3c-4.7,2.1-7.4,2.8-16.4,6
		c-5.3,1.8-8.4,1.6-9.5,3.9c-0.9,2-0.1,4.9,1.6,6c1.6,1,3.7,0.3,4.6,0c5.3-1.6,11.1-0.4,16.6-0.8c15.1-1.1,14.8,0.1,27.9-1.1
		c4.2-0.4,6.8-0.7,13.1-1.1c5.3-0.4,9.7-0.6,12.6-0.7c-0.5-2.6-1-5.2-1.4-7.7C118.9,291.5,118.4,288.7,117.9,286z"/>
</g>
<linearGradient id="SVGID_13_" gradientUnits="userSpaceOnUse" x1="259.7713" y1="84.1532" x2="315.0341" y2="150.0128" gradientTransform="matrix(0.9489 -0.3156 0.3156 0.9489 115.9481 201.1372)">
	<stop  offset="0" style="stop-color:#D3D6D6"/>
	<stop  offset="0.6073" style="stop-color:#BDC2C7"/>
	<stop  offset="0.878" style="stop-color:#9C9C9C"/>
</linearGradient>
<path class="st12" d="M410.5,170.1c-1.3,1-3.2,2.5-5.3,4.6c-2.3,2.3-3.8,3.8-5,6.3c-1.3,2.7-1.5,4.9-1.8,7.6c-0.4,4,0,7.2,0.4,9.6
	c0.2,1.1,0.4,2.7,1.1,5.4c0,0,0.5,2.1,1.2,4.2c2,6.4,5.3,11.8,8.7,20.9c0.5,1.2,0.9,2.4,1.7,4.7c2.9,8.4,4.2,12.9,5.2,15.9
	c3.2,9.8,6,18.3,13.2,21.7c5.5,2.6,13.6,2.2,17-1.9c2.3-2.9,1.3-8.3-0.8-19.2c-1.4-7.2-3.2-13.1-4-15.6c-4-12.6-4.9-12.1-6.8-19.6
	c-1.4-5.7-0.8-5.7-3-17.2c-1.3-6.8-1.7-10.2-3.2-13.8c-1.6-3.9-4.9-11.5-11.9-13.4C414.5,169.4,412.1,169.7,410.5,170.1z"/>
<linearGradient id="SVGID_14_" gradientUnits="userSpaceOnUse" x1="627.9843" y1="315.9459" x2="666.2122" y2="361.5039" gradientTransform="matrix(1.274212e-02 0.9999 0.9999 -1.274212e-02 144.1641 -322.5111)">
	<stop  offset="0" style="stop-color:#D3D6D6"/>
	<stop  offset="0.6073" style="stop-color:#BDC2C7"/>
</linearGradient>
<path class="st13" d="M472,309.2c4.9,9.3,9.3,10.6,11.5,10.8c2.5,0.2,8.2-1,10.8-1.4c3.3-0.6,3.9-0.8,5.3-0.6
	c2.3,0.3,2.8,1.1,7.5,3.1c3.3,1.4,3.5,1.2,5.3,2.2c2.4,1.4,2.2,1.8,5,3.4c2.8,1.6,4.6,2.1,4.5,2.9c0,0.7-1.6,1.2-1.8,1.2
	c-1.8,0.6-3.3-0.6-3.5-0.7c-1-0.4-2.5-1.1-4.2-2c-1-0.6-1.1-0.7-1.7-0.9c-1.6-0.7-2.6-0.6-5.1-1.1c-3.7-0.5-3.6-0.8-4.5-0.6
	c-2,0.4-3.8,2.9-3.8,2.9c2.1,0.8,3.1,1.5,3,2c-0.1,0.7-2.9,1-8.5,0.7c-1.6,0-4.1-0.1-6.9-1.1c0,0-1.3-0.5-2.5-1.1
	c-4.6-2.4-8.5-8.2-11.4-12.7c-2.7-4.1-5-7.7-6.8-10.5C467,306.9,469.5,308.1,472,309.2z"/>
<linearGradient id="SVGID_15_" gradientUnits="userSpaceOnUse" x1="634.1825" y1="333.6408" x2="662.2571" y2="367.099" gradientTransform="matrix(2.947360e-03 0.9653 1 -3.053406e-03 147.6947 -302.5264)">
	<stop  offset="0" style="stop-color:#D3D6D6"/>
	<stop  offset="0.6073" style="stop-color:#BDC2C7"/>
</linearGradient>
<path class="st14" d="M477.2,315.7c4.1,0.6,7.5,0.5,9.8,0.4c2.4-0.2,6.5-0.7,10.8-1.3c3.4-0.5,3.9-0.8,5.3-0.6
	c2.3,0.3,2.8,1.1,7.5,3.1c3.3,1.4,3.4,1.2,5.2,2.1c2.4,1.4,2.2,1.8,5,3.3c2.8,1.6,4.5,2,4.5,2.8c0,0.7-1.5,1.1-1.8,1.2
	c-1.8,0.5-3.3-0.6-3.5-0.7c-1-0.4-2.5-1.1-4.1-2c-1-0.6-1.1-0.7-1.7-0.9c-2.6-1.2-5.1-1.1-5.1-1.1c-0.8,0.1-1.4,0.2-2.4,0.4
	c-1.4,0.3-1.3,0.5-2.8,0.8c-1.9,0.4-2.4,0.4-3,1c-0.1,0.1-0.8,0.9-0.6,1.6c0.1,0.4,0.6,0.9,3.7,1.3c1.9,0.2,3.5,0.3,6.4,0.5
	c1,0,2.4,0.2,3.4,1.2c0.3,0.2,0.7,0.7,0.6,1.1c-0.1,0.6-1.2,0.8-4.7,1.2c-1.8,0.1-3.6,0.3-7.2,0.4c-3.3,0.1-4.1,0-5.1-0.1
	c-1.4-0.2-2.6-0.4-4.1-0.9c-1.1-0.4-2-0.6-2.8-1c-1.6-0.6-3-1.2-3.7-1.5c-0.2-0.1-0.4-0.2-0.6-0.2c0,0-0.1,0-0.2-0.1
	c-3.5-1.5-7.5-5.6-7.5-5.6c-1-1-2.2-2.4-3.5-4.2C475.8,317.3,476.5,316.5,477.2,315.7z"/>
<linearGradient id="SVGID_16_" gradientUnits="userSpaceOnUse" x1="639.3033" y1="297.2726" x2="671.0228" y2="335.0745" gradientTransform="matrix(0.1158 0.9933 0.9933 -0.1158 104.3981 -295.3456)">
	<stop  offset="0" style="stop-color:#D3D6D6"/>
	<stop  offset="0.6073" style="stop-color:#BDC2C7"/>
</linearGradient>
<path class="st15" d="M477.7,299.4c1.3,2.6,2.8,5.4,4.6,8.3c1.4,2.3,2.8,4.3,4.1,6.2c1.3,0.1,2.9-0.1,4.8-0.4
	c1.3-0.3,2.3-0.6,3.2-1.1l0,0c0,0,2.1-1,4.4-1.2c0.3,0,0.5-0.1,0.9-0.1c2.3,0,2.9,0.8,7.7,2.2c3.5,1.1,3.5,0.8,5.4,1.6
	c2.6,1.1,2.4,1.5,5.3,2.8c2.9,1.3,4.7,1.6,4.8,2.4c0,0.7-1.5,1.3-1.6,1.4c-1.7,0.7-3.3-0.2-3.5-0.3c-1-0.3-2.6-0.7-4.3-1.6
	c-1-0.5-1.1-0.6-1.7-0.7c-1.6-0.5-2.6-0.4-5.2-0.4c-3.8-0.1-3.7-0.4-4.5-0.1c-2,0.7-3.5,3.3-3.5,3.3c-2.2,3.8-12.8,5.3-14.3,5.5
	c-0.7,0.2-1.6,0.5-2.8,0.3c-2.6-0.4-4.1-2.9-5.6-5.3c-1.5-2.4-3.7-5.6-6.7-9.7C472,308.2,474.8,303.7,477.7,299.4z"/>
</svg>
