<?xml version="1.0" encoding="utf-8"?>
<!-- Generator: Adobe Illustrator 22.1.0, SVG Export Plug-In . SVG Version: 6.00 Build 0)  -->
<svg version="1.1" id="Layer_1" xmlns="http://www.w3.org/2000/svg" xmlns:xlink="http://www.w3.org/1999/xlink" x="0px" y="0px"
	 viewBox="0 0 432 576" style="enable-background:new 0 0 432 576;" xml:space="preserve">
<style type="text/css">
	.st0{fill:url(#SVGID_1_);}
	.st1{fill:url(#SVGID_2_);}
	.st2{fill:url(#SVGID_3_);}
	.st3{fill:url(#SVGID_4_);}
	.st4{fill:url(#SVGID_5_);}
	.st5{fill:url(#SVGID_6_);}
	.st6{fill:url(#SVGID_7_);}
	.st7{fill:url(#SVGID_8_);}
	.st8{fill:url(#SVGID_9_);}
	.st9{fill:url(#SVGID_10_);}
	.st10{fill:url(#SVGID_11_);}
	.st11{fill:url(#SVGID_12_);}
	.st12{fill:url(#SVGID_13_);}
	.st13{fill:url(#SVGID_14_);}
	.st14{fill:url(#SVGID_15_);}
	.st15{fill:url(#SVGID_16_);}
	.st16{fill:url(#SVGID_17_);}
	.st17{fill:url(#SVGID_18_);}
	.st18{fill:url(#SVGID_19_);}
	.st19{fill:url(#SVGID_20_);}
</style>
<linearGradient id="SVGID_1_" gradientUnits="userSpaceOnUse" x1="356.6335" y1="205.725" x2="356.6335" y2="205.725" gradientTransform="matrix(2.887784e-03 -1 1 2.887784e-03 -89.5245 530.0394)">
	<stop  offset="0" style="stop-color:#ABABAB"/>
	<stop  offset="0.3463" style="stop-color:#D3D6D6"/>
	<stop  offset="0.8171" style="stop-color:#BDC2C7"/>
	<stop  offset="1" style="stop-color:#ABABAB"/>
</linearGradient>
<path class="st0" d="M117.2,174"/>
<linearGradient id="SVGID_2_" gradientUnits="userSpaceOnUse" x1="185.231" y1="112.9804" x2="143.7501" y2="184.8275" gradientTransform="matrix(0.8599 -0.5104 -0.4671 -0.7932 161.2924 545.8818)">
	<stop  offset="0" style="stop-color:#D3D6D6"/>
	<stop  offset="0.6073" style="stop-color:#BDC2C7"/>
	<stop  offset="0.878" style="stop-color:#ABABAB"/>
</linearGradient>
<path class="st1" d="M203.3,327.8c0.9,4.5,3.3,7.4,5.3,10c5.1,6.4,9.4,13.3,14.4,19.8c3,3.9,3.7,5,5.6,7.6c2.4,3.2,4.4,5.9,4.8,6.5
	c1.8,2.4,4.9,5.9,9.7,10.5c4.4,2.6,9,5,9.6,4.2c0.3-0.3-0.4-1.1-0.7-2.2c-1.1-3.5,4.2-7.1,3-9c-6.9-11.2-11.5-20.7-14.3-27.3
	c-2.6-5.9-4.7-10.5-7.1-15.5c-5.1-10.1-5-8.8-6.4-12.8c-1.5-2.8-2.9-5.7-4.4-8.8c-1.2-2.5-2.3-5-3.3-7.4c-1.2,0.2-2.9,0.6-4.9,1.6
	c-7.1,3.5-9.7,10.8-10.3,12.6C203.6,319.6,202.4,323.3,203.3,327.8z"/>
<linearGradient id="SVGID_3_" gradientUnits="userSpaceOnUse" x1="159.6161" y1="274.2949" x2="214.792" y2="208.5389" gradientTransform="matrix(0.96 -0.2797 -0.2588 -0.8989 81.4989 544.207)">
	<stop  offset="0" style="stop-color:#D3D6D6"/>
	<stop  offset="0.6073" style="stop-color:#BDC2C7"/>
	<stop  offset="0.878" style="stop-color:#9C9C9C"/>
</linearGradient>
<path class="st2" d="M188,224.4c-1.4,0.9-3.4,2.2-5.5,4.2c-2.4,2.1-4,3.5-5.3,5.8c-1.4,2.5-1.8,4.6-2.3,7.1c-0.6,3.7-0.4,6.8-0.2,9
	c0.1,1,0.3,2.6,0.8,5.1c0,0,0.4,2,1,4c1.6,6.1,4.6,11.1,7.5,19.8c0.4,1.2,0.7,2.2,1.4,4.5c2.4,7.9,3.8,13.7,4.2,15.1
	c1.2,4.7,3.6,12.2,8.9,24c1,0.9,2.9,2.1,5.4,2.5c5.3,0.9,10.7-2.4,13.3-5.8c3.4-4.4,2.9-9.4,1.6-19.5c-0.6-5.7-1.8-9.9-3.1-14.7
	c-3.2-11.9-4.3-11.5-5.5-18.6c-1.1-5.4-0.4-5.4-2-16.3c-0.9-6.4-1.1-9.7-2.3-13.1c-1.4-3.7-4.2-10.9-11.1-12.9
	C192,223.8,189.6,224.1,188,224.4z"/>
<linearGradient id="SVGID_4_" gradientUnits="userSpaceOnUse" x1="-110.1687" y1="293.209" x2="-64.6365" y2="293.209" gradientTransform="matrix(2.325930e-02 -0.9997 1.1353 2.641227e-02 -102.6425 291.6534)">
	<stop  offset="0" style="stop-color:#ABABAB"/>
	<stop  offset="0.3463" style="stop-color:#D3D6D6"/>
	<stop  offset="0.8171" style="stop-color:#BDC2C7"/>
	<stop  offset="1" style="stop-color:#ABABAB"/>
</linearGradient>
<path class="st3" d="M183.8,405.1c0.4,0.3,0.9,0.6,1.4,0.9c7.8,3.9,14.7,3.2,32.6,1.7c2.7-0.2,9.6-0.8,23.3-1.9
	c3.1-0.2,7.1-0.6,9.8-0.8c6.7-0.5,12.2-1,15.8-1.3c1.2-0.2,2.8-0.7,4.6-1.5c0.9-0.4,4.5-2.3,6.7-5.5c3.3-5.1,2-12.2-2.2-16.4
	c-2.5-2.6-5.7-3.6-11.1-5.4c-3.5-1.1-5.2-1.3-10.5-2.4c-7.8-1.6-8.9-2.3-16-3.9c-6.3-1.4-10.8-2.1-17.7-3.2
	c-20.6-3.2-26.6-2.5-32.2-0.1c-0.8,0.4-1.5,0.6-2.3,1.2C174.2,374.2,173,397,183.8,405.1z"/>
<linearGradient id="SVGID_5_" gradientUnits="userSpaceOnUse" x1="165.6043" y1="298.3693" x2="165.9536" y2="419.3156" gradientTransform="matrix(-2.483458e-02 -0.9997 0.6656 -1.492597e-02 -47.9476 547.0801)">
	<stop  offset="0" style="stop-color:#363233"/>
	<stop  offset="1" style="stop-color:#000000"/>
</linearGradient>
<path class="st4" d="M150.5,394.3c3.4,7.1,7.9,9.9,11.8,12.4c1.8,1.1,6.8,4,24,4.7c14.4,0.5,24-1,27.1-1.5c4.9-0.8,9.1-1.9,12.2-2.7
	c0.3-1.7,0.7-4.2,1-7.2c0.6-5.7,1.5-14.3-0.1-24.3c-0.6-3.2-1.5-7.9-3.6-13.2c-6.4-1.3-11.6-2.2-15.3-2.7c-3.1-0.4-5.9-0.8-11.7-1.8
	c-4.3-0.7-5.2-0.9-6.3-1.1c-0.5-0.1-0.8-0.1-0.9-0.1c-1-0.1-2.9-2.2-6.7-9.4c-1.9-2.1-5.2-5.2-9.7-6.2c-9.5-2.1-19.8,6.5-23.9,20.5
	C145.5,371.8,145.9,384.8,150.5,394.3z"/>
<linearGradient id="SVGID_6_" gradientUnits="userSpaceOnUse" x1="169.4179" y1="395.7407" x2="218.0453" y2="395.7407" gradientTransform="matrix(0.9942 0.1079 0.1079 -0.9942 -41.559 578.0253)">
	<stop  offset="7.317073e-03" style="stop-color:#AAAAAA"/>
	<stop  offset="0.2244" style="stop-color:#AEAEAE"/>
	<stop  offset="0.4431" style="stop-color:#BABABA"/>
	<stop  offset="0.6625" style="stop-color:#CECECE"/>
	<stop  offset="0.8813" style="stop-color:#EAEAEA"/>
	<stop  offset="0.9317" style="stop-color:#F2F2F2"/>
</linearGradient>
<path class="st5" d="M181.9,200.8c0.4-0.7,2.4-4,2.7-8.8c0-2.3-0.5-4.5-1.7-8.9c-0.3-1-0.7-2.2-1.2-4.3c-0.5-1.9-0.8-3.3-1-4.3
	c13.1,5.9,21.7,12.9,27,18.1c8.8,8.7,11.1,14.9,10.1,16c-0.9,1.1-3.5-0.2-5.7,1.7c-0.3,0.4-1,1-2.6,5.1c-1.1,3.1-1.8,4.6-1.9,5.1
	c-0.9,4.6,2.9,9.2,5,11.3c-2.2,1.4-5.6,3.2-10.2,3.7c-9.1,1.1-16-3.7-23.7-9.1c-5.9-4.2-11-7.7-10.5-11.6c0.3-1.7,3-4.1,8.4-9
	C179.9,203.1,180.8,202.6,181.9,200.8z"/>
<linearGradient id="SVGID_7_" gradientUnits="userSpaceOnUse" x1="189.9564" y1="407.5565" x2="230.6771" y2="441.7252" gradientTransform="matrix(0.9942 0.1079 0.1079 -0.9942 -41.559 578.0253)">
	<stop  offset="7.317073e-03" style="stop-color:#B0B0AE"/>
	<stop  offset="0.8137" style="stop-color:#E9E9E9"/>
	<stop  offset="0.9317" style="stop-color:#F2F2F2"/>
</linearGradient>
<path class="st6" d="M218.7,149c-7.5-2.2-13.7-1.6-15.1-1.4c-5.4,0.6-12.1,1.4-17.3,6.9c-5.3,5.7-5.7,12.7-5.8,14.7
	c-0.1,2.3-0.3,8.6,3.8,13.8c3,3.7,7,5.5,8.7,6.2c2.1,0.9,4.1,1.3,5.5,1.6c-0.4,1.6-0.9,4.2,0.1,7.1c1.1,3.1,3.4,4.8,7,7.5
	c2.6,1.9,6,3.3,12.9,6.2c3.5,1.5,5.5,2.2,7.6,1.3c1.6-0.6,2.4-1.9,3.1-2.9c1.5-2.1,1.4-3.5,2.7-7.8c1.6-5.4,1.4-6.1,2.3-7.3
	c1.2-1.7,2.2-1.9,2.3-3.1c0.2-1.4-0.9-2-2.6-5.3c-1.1-2-1.6-3.1-1.4-4.2c0.3-1.8,1.7-2,2.7-3.9c0.4-0.7,0.8-1.8,0-7.2
	c-0.7-4.6-1.2-7-2.4-10c-1-2.1-1.8-4.5-4-6.7C225.7,151.2,222,150.1,218.7,149z"/>
<linearGradient id="SVGID_8_" gradientUnits="userSpaceOnUse" x1="222.2921" y1="382.4668" x2="222.2921" y2="382.4668" gradientTransform="matrix(1 0 0 -1 0 576)">
	<stop  offset="7.317073e-03" style="stop-color:#AAAAAA"/>
	<stop  offset="0.9317" style="stop-color:#F2F2F2"/>
</linearGradient>
<path class="st7" d="M222.3,193.5"/>
<linearGradient id="SVGID_9_" gradientUnits="userSpaceOnUse" x1="224.2706" y1="427.0216" x2="224.2706" y2="427.0216" gradientTransform="matrix(0.8531 0.5217 0.5217 -0.8531 -161.6147 461.7052)">
	<stop  offset="7.317073e-03" style="stop-color:#AAAAAA"/>
	<stop  offset="0.9317" style="stop-color:#F2F2F2"/>
</linearGradient>
<path class="st8" d="M252.5,214.4"/>
<linearGradient id="SVGID_10_" gradientUnits="userSpaceOnUse" x1="157.5929" y1="312.8225" x2="225.5564" y2="312.8225" gradientTransform="matrix(0.9942 0.1079 0.1108 -1.0207 -42.8996 590.3735)">
	<stop  offset="0" style="stop-color:#363233"/>
	<stop  offset="1" style="stop-color:#000000"/>
</linearGradient>
<path class="st9" d="M173.6,208.9c1.3,2.1,3.8,5.5,8.2,7.9c3.4,1.9,6.4,2.3,9.8,2.8c3.8,0.5,9.7,0.8,17-0.6c4.5,9.1,6.7,17,7.8,22.5
	c4.5,21.8,0.1,40.8-1.3,46.6c-1.5,6.2-2.8,9.8-4.8,19.2c-1.8,8.7-2.3,15.5-2.7,19.9c-0.6,8.7-0.8,20.7,1.2,35c-4,0.3-10,1-17.2,2.8
	c-9.1,2.4-12.2,4.7-17.9,5.9c-5.7,1.2-14.4,1.4-26.2-4.1c-0.9-10.5-0.9-18.8-0.9-24.1c0.4-28.3,5.3-54.4,4.9-68.9
	c-0.2-7.5-0.3-12.1,0.8-21.2c1.1-9.4,1.9-16.6,5.7-24.5C160.2,223.8,164.6,216.1,173.6,208.9z"/>
<linearGradient id="SVGID_11_" gradientUnits="userSpaceOnUse" x1="153.0278" y1="276.6099" x2="208.2036" y2="210.8539" gradientTransform="matrix(0.9605 -0.2782 -0.2782 -0.9605 87.3976 562.9147)">
	<stop  offset="0" style="stop-color:#D3D6D6"/>
	<stop  offset="0.6073" style="stop-color:#BDC2C7"/>
	<stop  offset="0.878" style="stop-color:#9C9C9C"/>
</linearGradient>
<path class="st10" d="M181.3,224.8c-1.4,1-3.4,2.3-5.4,4.3c-2.3,2.2-4,3.7-5.2,6.1c-1.4,2.6-1.7,4.8-2.1,7.5c-0.5,3.9-0.2,7.2,0,9.6
	c0.1,1.1,0.3,2.7,0.9,5.4c0,0,0.5,2.2,1,4.3c1.7,6.5,4.8,11.9,7.9,21.2c0.4,1.2,0.8,2.4,1.5,4.8c2.6,8.4,4.1,14.6,4.6,16.2
	c1.3,5,3.9,13,9.4,25.6c1,0.9,2.9,2.3,5.5,2.8c5.4,1,10.7-2.3,13.3-5.9c3.4-4.6,2.7-10,1.2-20.7c-0.8-6.1-2-10.6-3.4-15.7
	c-3.5-12.7-4.5-12.3-5.9-19.8c-1.2-5.8-0.5-5.7-2.3-17.4c-1-6.8-1.3-10.3-2.6-14c-1.5-3.9-4.4-11.7-11.4-13.9
	C185.3,224.2,182.8,224.5,181.3,224.8z"/>
<linearGradient id="SVGID_12_" gradientUnits="userSpaceOnUse" x1="181.7629" y1="125.3113" x2="140.282" y2="197.1584" gradientTransform="matrix(0.6968 -0.5577 -0.5953 -0.7399 209.5623 548.0267)">
	<stop  offset="0" style="stop-color:#D3D6D6"/>
	<stop  offset="0.6073" style="stop-color:#BDC2C7"/>
	<stop  offset="0.878" style="stop-color:#ABABAB"/>
</linearGradient>
<path class="st11" d="M194.7,325.4c1.8,4.3,4.5,7,6.9,9.4c6,5.8,11.5,12.3,17.4,18.3c3.6,3.6,4.5,4.6,6.8,7c2.9,3,5.3,5.4,5.8,6
	c2.2,2.2,5.7,5.5,11.2,9.5c4.6,2.2,9.4,4.2,9.8,3.4c0.2-0.4-0.6-1-1.1-2.1c-1.7-3.3,2.5-7.2,1-9c-8.7-10.4-14.9-19.3-18.9-25.6
	c-3.6-5.5-6.5-9.9-9.8-14.6c-6.8-9.5-6.4-8.2-8.6-12c-1.9-2.6-3.9-5.3-5.8-8.2c-1.6-2.4-3.1-4.7-4.5-7c-1.1,0.3-2.6,0.8-4.2,1.9
	c-5.9,3.9-6.8,11.2-7,13C193.4,317.5,193,321.2,194.7,325.4z"/>
<linearGradient id="SVGID_13_" gradientUnits="userSpaceOnUse" x1="164.4942" y1="305.3961" x2="164.4942" y2="305.3961" gradientTransform="matrix(0.2854 -0.9584 0.9584 0.2854 -140.5255 434.306)">
	<stop  offset="0" style="stop-color:#ABABAB"/>
	<stop  offset="0.3463" style="stop-color:#D3D6D6"/>
	<stop  offset="0.8171" style="stop-color:#BDC2C7"/>
	<stop  offset="1" style="stop-color:#ABABAB"/>
</linearGradient>
<path class="st12" d="M199.1,363.8"/>
<linearGradient id="SVGID_14_" gradientUnits="userSpaceOnUse" x1="191.9512" y1="432.633" x2="191.9512" y2="432.633" gradientTransform="matrix(0.8624 -0.5063 0.5063 0.8624 -123.4531 78.6953)">
	<stop  offset="0" style="stop-color:#D3D6D6"/>
	<stop  offset="0.6073" style="stop-color:#BDC2C7"/>
	<stop  offset="0.878" style="stop-color:#ABABAB"/>
</linearGradient>
<path class="st13" d="M261.1,354.6"/>
<linearGradient id="SVGID_15_" gradientUnits="userSpaceOnUse" x1="629.3104" y1="460.0668" x2="637.4815" y2="413.7259" gradientTransform="matrix(5.577878e-02 -1.0486 1.4406 7.663304e-02 -429.4807 1033.7394)">
	<stop  offset="0" style="stop-color:#969696"/>
	<stop  offset="0.3463" style="stop-color:#D3D6D6"/>
	<stop  offset="1" style="stop-color:#9A9F9C"/>
</linearGradient>
<path class="st14" d="M206.9,413.3c6,1.6,10.8,2,14.1,2.1c3.8,0.1,4.7-0.3,9.8-0.2c1.2,0,6.4,0.1,13,1c10.8,1.4,12.5,3.2,16.3,2.1
	c3.6-1.1,5.3-3.7,7-6.1c1.3-2,1.8-4,2.7-7.8c1.9-8.2,0.7-9.5,0.1-9.9c-2.1-1.6-5.7-1.6-6.7-1.6c-3.2,0-5.4,1-6.8,1.6
	c-3.4,1.3-9.6,1.4-22.2,1.5c-4.2,0.1-5.4,0-8.6,0c-1.8,0-3,0-5.1,0c-6.1,0-13.2,0.2-14.7,0.3c-3.8,2.1-5.9,5.6-5.5,9.2
	C201,410.5,206.3,413.1,206.9,413.3z"/>
<linearGradient id="SVGID_16_" gradientUnits="userSpaceOnUse" x1="515.1177" y1="54.617" x2="539.7153" y2="25.3028" gradientTransform="matrix(-0.1559 0.9878 -0.9878 -0.1559 381.9303 -140.0818)">
	<stop  offset="0" style="stop-color:#D3D6D6"/>
	<stop  offset="0.6073" style="stop-color:#ABB0B3"/>
</linearGradient>
<path class="st15" d="M242.3,365.6c3.5,1,6.5,1.5,8.5,1.7c2.1,0.2,5.8,0.4,9.6,0.4c3,0,3.6-0.1,4.7,0.3c2,0.5,2.3,1.3,6.1,3.5
	c2.7,1.6,2.8,1.4,4.3,2.4c1.9,1.4,1.8,1.7,3.9,3.4c2.2,1.7,3.7,2.3,3.5,2.9c-0.1,0.6-1.5,0.7-1.6,0.8c-1.6,0.2-2.8-0.9-2.9-1
	c-0.8-0.4-2-1.1-3.4-2.1c-0.8-0.5-0.8-0.6-1.3-1c-1.3-0.8-2.1-0.9-4.2-1.6c-3.1-1-3-1.1-3.8-1.1c-1.8,0.1-3.7,1.8-3.7,1.8
	c-1.8,0.5-3.4,1-5.2,1.3c-1.3-0.6-3.3-1.3-5.8-1.8c-1.7-0.4-3.1-0.7-4.3-0.9c-2.5-0.4-2.4-0.3-3.1-0.5c-2-0.6-5.3-2.4-5.1-4.8
	C238.7,367.7,240.2,366.3,242.3,365.6z"/>
<linearGradient id="SVGID_17_" gradientUnits="userSpaceOnUse" x1="504.1918" y1="82.6527" x2="533.1709" y2="48.1169" gradientTransform="matrix(-0.4231 0.9061 -0.9061 -0.4231 532.1005 -70.0678)">
	<stop  offset="0" style="stop-color:#D3D6D6"/>
	<stop  offset="0.6073" style="stop-color:#ABB0B3"/>
</linearGradient>
<path class="st16" d="M237.3,363c1.4-2,0.5-5.4-2.5-6.9c8,6,13,8.1,15.6,9c5.5,1.8,8.2,2.6,9.1,2.9c2.9,0.8,3.4,0.8,4.5,1.5
	c1.7,1,1.9,1.8,4.8,5c2.1,2.3,2.3,2.1,3.4,3.5c1.5,1.8,1.2,2.1,2.8,4.2c1.6,2.2,2.9,3.1,2.5,3.7c-0.3,0.5-1.7,0.3-1.8,0.3
	c-1.7-0.3-2.4-1.6-2.5-1.8c-0.6-0.6-1.6-1.6-2.6-3c-0.6-0.8-0.6-0.9-1-1.3c-1.6-1.8-3.7-2.6-3.7-2.6c-0.7-0.3-1.2-0.4-2.1-0.6
	c-1.3-0.3-1.2-0.2-2.6-0.4c-1.7-0.3-2.1-0.6-2.8-0.3c-0.1,0-0.9,0.4-1,0.9c-0.1,0.3,0.2,0.9,2.5,2.3c1.4,0.8,2.7,1.5,4.9,2.7
	c0.8,0.4,1.8,1,2.3,2.1c0.1,0.3,0.3,0.7,0.1,1c-0.3,0.4-1.3,0.2-4.1-0.8c-1.5-0.5-2.9-1-5.9-2.3c-1.9-0.8-2.8-1.2-3.4-1.5
	c-0.4-0.2-0.6-0.3-0.7-0.4c-1.5-0.8-2.3-1.2-5.6-2.2c-10.1-3.1-14.2-10-14.2-10c-0.8-1.3-1.2-2.4-1.4-3.1
	C234.1,365.2,236.3,364.5,237.3,363z"/>
<linearGradient id="SVGID_18_" gradientUnits="userSpaceOnUse" x1="529.7776" y1="82.3561" x2="558.9315" y2="47.6118" gradientTransform="matrix(-5.310380e-02 0.9986 -0.9986 -5.310380e-02 351.0011 -171.1107)">
	<stop  offset="0" style="stop-color:#D3D6D6"/>
	<stop  offset="0.6073" style="stop-color:#ABB0B3"/>
</linearGradient>
<path class="st17" d="M234.7,359.9c4.3,1.7,8,2.6,10.7,3.1c0.8,0.2,2.5,0.4,4.8,0.7c3.9,0.4,7.2,0.3,9.6,0.2c0,0,1.9-0.4,4-0.3
	c0.3,0.1,0.5,0,0.8,0.1c2,0.4,2.4,1.1,6.5,2.9c2.8,1.3,2.9,1.1,4.5,2c2.1,1.2,1.9,1.5,4.3,2.9c2.4,1.5,3.9,1.9,3.8,2.6
	c-0.1,0.6-1.5,0.9-1.6,0.9c-1.6,0.3-2.9-0.7-3-0.8c-0.8-0.4-2.1-1-3.5-1.8c-0.8-0.4-0.9-0.5-1.4-0.8c-1.3-0.6-2.2-0.7-4.5-1.1
	c-3.3-0.7-3.2-0.8-3.9-0.7c-1.8,0.3-3.5,2.1-3.5,2.1c-7.2-3.4-10.5-3-12.2-1.8c-1.5,1.2-1.6,3.1-3.6,3.9c-2.2,0.9-4.8-0.5-5.6-0.9
	C234.8,369.8,234.7,361,234.7,359.9z"/>
<linearGradient id="SVGID_19_" gradientUnits="userSpaceOnUse" x1="267.3055" y1="343.0526" x2="267.3055" y2="343.0526" gradientTransform="matrix(0.9592 0.2826 -0.2826 0.9592 95.282 -48.569)">
	<stop  offset="0" style="stop-color:#363233"/>
	<stop  offset="1" style="stop-color:#000000"/>
</linearGradient>
<path class="st18" d="M254.7,356"/>
<linearGradient id="SVGID_20_" gradientUnits="userSpaceOnUse" x1="288.1781" y1="417.2894" x2="288.1781" y2="417.2894">
	<stop  offset="0" style="stop-color:#969696"/>
	<stop  offset="0.3463" style="stop-color:#D3D6D6"/>
	<stop  offset="1" style="stop-color:#9A9F9C"/>
</linearGradient>
<path class="st19" d="M288.2,417.3"/>
</svg>
