<?xml version="1.0" encoding="utf-8"?>
<!-- Generator: Adobe Illustrator 22.1.0, SVG Export Plug-In . SVG Version: 6.00 Build 0)  -->
<svg version="1.1" id="Layer_1" xmlns="http://www.w3.org/2000/svg" xmlns:xlink="http://www.w3.org/1999/xlink" x="0px" y="0px"
	 viewBox="0 0 432 576" style="enable-background:new 0 0 432 576;" xml:space="preserve">
<style type="text/css">
	.st0{fill:url(#SVGID_1_);}
	.st1{fill:url(#SVGID_2_);}
	.st2{fill:url(#SVGID_3_);}
	.st3{fill:url(#SVGID_4_);}
	.st4{fill:url(#SVGID_5_);}
	.st5{fill:url(#SVGID_6_);}
	.st6{fill:url(#SVGID_7_);}
	.st7{fill:url(#SVGID_8_);}
	.st8{fill:url(#SVGID_9_);}
	.st9{fill:url(#SVGID_10_);}
	.st10{fill:url(#SVGID_11_);}
	.st11{fill:url(#SVGID_12_);}
	.st12{fill:url(#SVGID_13_);}
	.st13{fill:url(#SVGID_14_);}
	.st14{fill:url(#SVGID_15_);}
	.st15{fill:url(#SVGID_16_);}
	.st16{fill:url(#SVGID_17_);}
	.st17{fill:url(#SVGID_18_);}
	.st18{fill:url(#SVGID_19_);}
	.st19{fill:url(#SVGID_20_);}
	.st20{fill:url(#SVGID_21_);}
	.st21{fill:url(#SVGID_22_);}
	.st22{fill:url(#SVGID_23_);}
	.st23{fill:url(#SVGID_24_);}
	.st24{fill:url(#SVGID_25_);}
	.st25{fill:url(#SVGID_26_);}
	.st26{fill:url(#SVGID_27_);}
</style>
<linearGradient id="SVGID_1_" gradientUnits="userSpaceOnUse" x1="356.6335" y1="205.725" x2="356.6335" y2="205.725" gradientTransform="matrix(2.887784e-03 -1 1 2.887784e-03 -89.5245 530.0394)">
	<stop  offset="0" style="stop-color:#ABABAB"/>
	<stop  offset="0.3463" style="stop-color:#D3D6D6"/>
	<stop  offset="0.8171" style="stop-color:#BDC2C7"/>
	<stop  offset="1" style="stop-color:#ABABAB"/>
</linearGradient>
<path class="st0" d="M117.2,174"/>
<linearGradient id="SVGID_2_" gradientUnits="userSpaceOnUse" x1="278.8552" y1="247.8116" x2="322.1774" y2="222.7995" gradientTransform="matrix(-1 0 0 1 503.761 0)">
	<stop  offset="0" style="stop-color:#D3D6D6"/>
	<stop  offset="0.6073" style="stop-color:#BDC2C7"/>
	<stop  offset="0.878" style="stop-color:#8C8C8C"/>
</linearGradient>
<path class="st1" d="M204.2,212c-0.1,1.8-0.2,3.8-0.2,5.8c0,2.1,0.1,4.1,0.2,6c0.7,1.1,1.9,2.6,3.6,4.2c2.9,2.8,5.5,4.2,6.7,4.9
	c6.2,3.6,12.9,10.5,12,12.1c-1.5,2.7-24.3-7.5-31.1-3.1c-3.8,2.4-6.6,5.9-6.6,5.9c-0.6,0.7-1.1,1.4-1.5,2
	c-0.1-12.2-0.1-24.3-0.2-36.5C192.7,212.9,198.5,212.5,204.2,212z"/>
<linearGradient id="SVGID_3_" gradientUnits="userSpaceOnUse" x1="149.1828" y1="247.8831" x2="192.4695" y2="222.8916">
	<stop  offset="0" style="stop-color:#D3D6D6"/>
	<stop  offset="0.6073" style="stop-color:#BDC2C7"/>
	<stop  offset="0.878" style="stop-color:#8C8C8C"/>
</linearGradient>
<path class="st2" d="M169.8,212c0.1,1.8,0.2,3.8,0.2,5.8c0,2.1-0.1,4.1-0.2,6c-1,0.8-2.6,2-4.6,3.2c-5,3-7.8,2.8-11.4,4.7
	c-4.8,2.5-9.3,7.8-8.3,9.8c1.8,3.6,19.3-6.8,33.2,0.6c4.5,2.4,7.2,5.9,8.5,7.9c-0.1-12.2-0.1-24.3-0.2-36.5
	C181.3,212.9,175.5,212.5,169.8,212z"/>
<linearGradient id="SVGID_4_" gradientUnits="userSpaceOnUse" x1="-52.2463" y1="324.8448" x2="0.1037" y2="262.4565" gradientTransform="matrix(0.7604 -0.1501 -0.2055 -0.9785 305.6482 565.4952)">
	<stop  offset="0" style="stop-color:#D3D6D6"/>
	<stop  offset="0.6073" style="stop-color:#BDC2C7"/>
	<stop  offset="0.878" style="stop-color:#9C9C9C"/>
</linearGradient>
<path class="st3" d="M217.1,231.9c-1.1,0.7-2.7,1.7-4.4,3.3c-1.9,1.7-3.2,2.8-4.2,4.9c-1.1,2.2-1.4,4.2-1.8,6.5
	c-0.5,3.5-0.3,6.5-0.2,8.7c0.1,1,0.2,2.5,0.6,5c0,0,0.3,2,0.7,4c1.3,6.1,3.6,11.4,5.9,20.2c0.3,1.2,0.6,2.3,1.1,4.5
	c1.9,7.9,3,13.8,3.3,15.2c0.9,4.7,2.9,12.3,7,24.4c0.8,1,2.3,2.5,4.3,3.2c4.2,1.6,8.5-0.8,10.5-3.7c2.7-3.8,2.3-8.7,1.3-18.6
	c-0.5-5.6-1.4-9.8-2.4-14.6c-2.5-12-3.4-11.7-4.4-18.7c-0.9-5.4-0.3-5.2-1.6-16.1c-0.7-6.3-0.8-9.5-1.8-13c-1.1-3.8-3.3-11.1-8.8-14
	C220.3,231.9,218.3,231.9,217.1,231.9z"/>
<linearGradient id="SVGID_5_" gradientUnits="userSpaceOnUse" x1="164.3122" y1="207.4213" x2="201.9432" y2="175.8451">
	<stop  offset="7.317073e-03" style="stop-color:#AAAAAA"/>
	<stop  offset="0.9317" style="stop-color:#F2F2F2"/>
</linearGradient>
<path class="st4" d="M187.1,158.2c-2.5,0.1-7.4,0.7-12.2,3.9c-2.7,1.8-4.5,3.8-5.5,5.1c-1.2,1.5-3,3.9-3.9,7.4
	c-0.3,1.4-0.4,2.8-0.4,5.7c-0.1,3.4,0.2,6.6,0.3,8.3c0.1,0.6,0.1,1.2,0.1,1.5c0-0.2-0.2-0.9-0.9-1.4c-0.2-0.1-0.6-0.5-1.3-0.4
	c-0.9,0.1-1.4,1-1.6,1.2c-0.5,0.8-0.4,1.6-0.3,2.8c0.3,2.7,0.4,4,0.7,5c0,0.1,0.6,1.4,1.6,4c0.5,1.3,0.5,1.3,0.6,1.5
	c0.2,0.7,0.2,0.8,0.4,1c0.1,0.1,0.7,1,1.7,0.9c0.9-0.1,1.3-0.9,1.3-1c0.1,0.8,0.2,2,0.4,3.5c0.3,2.2,0.4,3.3,0.7,4.2
	c0.5,1.8,1.4,3.1,2.3,4.2c1.6,2.2,3.3,3.5,4.9,4.7c2.3,1.7,4.2,3.2,7.3,4c1.6,0.4,2.9,0.5,3.8,0.5"/>
<linearGradient id="SVGID_6_" gradientUnits="userSpaceOnUse" x1="273.8345" y1="207.4213" x2="311.4655" y2="175.8451" gradientTransform="matrix(-1 0 0 1 483.8947 0)">
	<stop  offset="7.317073e-03" style="stop-color:#AAAAAA"/>
	<stop  offset="0.9317" style="stop-color:#F2F2F2"/>
</linearGradient>
<path class="st5" d="M187.2,158.2c2.5,0.1,7.4,0.7,12.2,3.9c2.7,1.8,4.5,3.8,5.5,5.1c1.2,1.5,3,3.9,3.9,7.4c0.3,1.4,0.4,2.8,0.4,5.7
	c0.1,3.4-0.2,6.6-0.3,8.3c-0.1,0.6-0.1,1.2-0.1,1.5c0-0.2,0.2-0.9,0.9-1.4c0.2-0.1,0.6-0.5,1.3-0.4c0.9,0.1,1.4,1,1.6,1.2
	c0.5,0.8,0.4,1.6,0.3,2.8c-0.3,2.7-0.4,4-0.7,5c0,0.1-0.6,1.4-1.6,4c-0.5,1.3-0.5,1.3-0.6,1.5c-0.2,0.7-0.2,0.8-0.4,1
	c-0.1,0.1-0.7,1-1.7,0.9c-0.9-0.1-1.3-0.9-1.3-1c-0.1,0.8-0.2,2-0.4,3.5c-0.3,2.2-0.4,3.3-0.7,4.2c-0.5,1.8-1.4,3.1-2.3,4.2
	c-1.6,2.2-3.3,3.5-4.9,4.7c-2.3,1.7-4.2,3.2-7.3,4c-1.6,0.4-2.9,0.5-3.8,0.5"/>
<linearGradient id="SVGID_7_" gradientUnits="userSpaceOnUse" x1="-110.1687" y1="293.209" x2="-64.6365" y2="293.209" gradientTransform="matrix(2.325930e-02 -0.9997 1.1353 2.641227e-02 -102.6425 291.6534)">
	<stop  offset="0" style="stop-color:#ABABAB"/>
	<stop  offset="0.3463" style="stop-color:#D3D6D6"/>
	<stop  offset="0.8171" style="stop-color:#BDC2C7"/>
	<stop  offset="1" style="stop-color:#ABABAB"/>
</linearGradient>
<path class="st6" d="M183.8,405.1c0.4,0.3,0.9,0.6,1.4,0.9c7.8,3.9,14.7,3.2,32.6,1.7c2.7-0.2,9.6-0.8,23.3-1.9
	c3.1-0.2,7.1-0.6,9.8-0.8c6.7-0.5,12.2-1,15.8-1.3c1.2-0.2,2.8-0.7,4.6-1.5c0.9-0.4,4.5-2.3,6.7-5.5c3.3-5.1,2-12.2-2.2-16.4
	c-2.5-2.6-5.7-3.6-11.1-5.4c-3.5-1.1-5.2-1.3-10.5-2.4c-7.8-1.6-8.9-2.3-16-3.9c-6.3-1.4-10.8-2.1-17.7-3.2
	c-20.6-3.2-26.6-2.5-32.2-0.1c-0.8,0.4-1.5,0.6-2.3,1.2C174.2,374.2,173,397,183.8,405.1z"/>
<linearGradient id="SVGID_8_" gradientUnits="userSpaceOnUse" x1="165.6043" y1="298.3693" x2="165.9536" y2="419.3156" gradientTransform="matrix(-2.483458e-02 -0.9997 0.6656 -1.492597e-02 -47.9476 547.0801)">
	<stop  offset="0" style="stop-color:#363233"/>
	<stop  offset="1" style="stop-color:#000000"/>
</linearGradient>
<path class="st7" d="M150.5,394.3c3.4,7.1,7.9,9.9,11.8,12.4c1.8,1.1,6.8,4,24,4.7c14.4,0.5,24-1,27.1-1.5c4.9-0.8,9.1-1.9,12.2-2.7
	c0.3-1.7,0.7-4.2,1-7.2c0.6-5.7,1.5-14.3-0.1-24.3c-0.6-3.2-1.5-7.9-3.6-13.2c-6.4-1.3-11.6-2.2-15.3-2.7c-3.1-0.4-5.9-0.8-11.7-1.8
	c-4.3-0.7-5.2-0.9-6.3-1.1c-0.5-0.1-0.8-0.1-0.9-0.1c-1-0.1-2.9-2.2-6.7-9.4c-1.9-2.1-5.2-5.2-9.7-6.2c-9.5-2.1-19.8,6.5-23.9,20.5
	C145.5,371.8,145.9,384.8,150.5,394.3z"/>
<linearGradient id="SVGID_9_" gradientUnits="userSpaceOnUse" x1="218.4805" y1="300.632" x2="267.7235" y2="300.632" gradientTransform="matrix(-1.0321 0 0 0.9975 449.2229 -0.1248)">
	<stop  offset="0" style="stop-color:#363233"/>
	<stop  offset="1" style="stop-color:#000000"/>
</linearGradient>
<path class="st8" d="M223.7,233.4c0,3.6-0.1,8.8-0.2,15.1c-0.5,18.3-0.9,35.7-4.2,57.4c-2,13.6-4.4,24.1-5.8,30.1
	c-2.5,10.7-5.1,19.9-7.3,27.5c-2.5,1.5-5.6,3.1-9.2,4.4c-9.6,3.5-18.4,3.7-24,3.3c4.8-18.9,9.1-41.1,11.4-66.1
	c2.1-23.2,2-44.2,0.9-62.5c2.7-0.3,7.3-1.2,12.1-4c6.3-3.6,9.3-8.3,10.5-10.6C213.1,229.9,218.4,231.6,223.7,233.4z"/>
<linearGradient id="SVGID_10_" gradientUnits="userSpaceOnUse" x1="149.0068" y1="301.0675" x2="215.979" y2="301.0675" gradientTransform="matrix(1.0321 0 0 0.9975 -16.7574 -0.1248)">
	<stop  offset="0" style="stop-color:#363233"/>
	<stop  offset="1" style="stop-color:#000000"/>
</linearGradient>
<path class="st9" d="M145.9,233.4c-1.3,4.9-2.2,9-2.9,11.8c-1.3,5.8-1.7,7.9-3,13.2c-2.6,10.9-2.6,9.2-2.8,11.3
	c-0.5,5.1,0.6,6.6,2.9,23c0.2,1.2,0.2,1.2,0.4,3.2c0.2,1.8,3.6,21.5,5.1,35.2c0.4,4.2,0.7,8,1.1,15.5c0.5,8.6,0.8,15.9,0.9,21.3
	c4.4,1.7,9.7,3.3,15.8,4c19.6,2.6,35.4-4.3,42.9-8.2c-0.9-17.8-2.7-37.5-6.1-58.8c-3.6-23-8.4-43.8-13.6-62.1
	c-2.8-0.3-7.7-1.2-12.7-4c-6.6-3.6-9.8-8.3-11.1-10.6C157,229.9,151.5,231.6,145.9,233.4z"/>
<linearGradient id="SVGID_11_" gradientUnits="userSpaceOnUse" x1="222.2921" y1="382.4668" x2="222.2921" y2="382.4668" gradientTransform="matrix(1 0 0 -1 0 576)">
	<stop  offset="7.317073e-03" style="stop-color:#AAAAAA"/>
	<stop  offset="0.9317" style="stop-color:#F2F2F2"/>
</linearGradient>
<path class="st10" d="M222.3,193.5"/>
<linearGradient id="SVGID_12_" gradientUnits="userSpaceOnUse" x1="-17.2741" y1="254.1512" x2="-56.5886" y2="322.2461" gradientTransform="matrix(0.7663 -0.4575 -0.4889 -0.8141 421.2527 563.6071)">
	<stop  offset="0" style="stop-color:#D3D6D6"/>
	<stop  offset="0.6073" style="stop-color:#BDC2C7"/>
	<stop  offset="0.878" style="stop-color:#ABABAB"/>
</linearGradient>
<path class="st11" d="M225.7,328.2c1.1,4.5,3.3,7.4,5.1,10.1c4.7,6.5,8.9,13.6,13.5,20.2c2.8,4,3.5,5.1,5.3,7.8
	c2.2,3.3,4.1,6,4.5,6.6c1.7,2.5,4.5,6.1,8.9,10.8c3.9,2.8,7.9,5.5,8.4,4.7c0.2-0.3-0.4-1.1-0.8-2.2c-1.1-3.4,3-6.6,1.9-8.6
	c-6.6-11.3-11.1-20.9-14-27.5c-2.6-5.9-4.7-10.6-7.1-15.6c-5-10.1-4.8-8.9-6.3-12.9c-1.4-2.8-2.9-5.7-4.3-8.8
	c-1.2-2.5-2.3-5-3.3-7.4c-1,0.1-2.4,0.4-4,1.3c-5.7,3-7.3,9.8-7.7,11.6C225.4,320.3,224.6,323.8,225.7,328.2z"/>
<linearGradient id="SVGID_13_" gradientUnits="userSpaceOnUse" x1="568.3406" y1="268.0511" x2="592.1137" y2="239.7193" gradientTransform="matrix(-0.2846 0.9587 -0.9587 -0.2846 683.3657 -96.721)">
	<stop  offset="0" style="stop-color:#D3D6D6"/>
	<stop  offset="0.6073" style="stop-color:#ABB0B3"/>
</linearGradient>
<path class="st12" d="M262.3,373.6c2.5,1.8,4.8,2.8,6.3,3.4c1.6,0.6,4.4,1.4,7.3,2.1c2.3,0.5,2.7,0.5,3.6,1.2c1.4,1,1.6,1.9,4.3,5.3
	c1.9,2.3,2,2.2,3.1,3.6c1.3,2,1.2,2.3,2.7,4.7c1.5,2.4,2.6,3.4,2.4,4.1c-0.2,0.7-1.2,0.6-1.3,0.6c-1.2-0.1-2-1.5-2.1-1.7
	c-0.6-0.7-1.4-1.7-2.4-3.1c-0.5-0.8-0.6-0.9-0.9-1.4c-0.9-1.2-1.5-1.5-3.1-2.6c-2.3-1.7-2.2-1.8-2.8-2c-1.4-0.2-3,1.5-3,1.5
	c-1.4,0.3-2.7,0.6-4.1,0.7c-1-0.9-2.4-2.1-4.3-3.2c-1.2-0.7-2.3-1.3-3.2-1.8c-1.8-0.9-1.8-0.7-2.3-1.1c-1.5-1-3.8-3.8-3.4-6.6
	C259.3,375.5,260.7,374.1,262.3,373.6z"/>
<linearGradient id="SVGID_14_" gradientUnits="userSpaceOnUse" x1="611.3171" y1="274.8761" x2="643.4309" y2="236.6045" gradientTransform="matrix(-0.5388 0.8425 -0.8425 -0.5388 823.01 -7.5441)">
	<stop  offset="0" style="stop-color:#D3D6D6"/>
	<stop  offset="0.6073" style="stop-color:#ABB0B3"/>
</linearGradient>
<path class="st13" d="M258.7,369.6c1.2-2.2,0.9-6.4-1.3-8.7c5.5,8.5,9.2,11.9,11.1,13.4c4,3.1,6,4.5,6.7,5c2.1,1.5,2.6,1.6,3.3,2.5
	c1.2,1.5,1.3,2.5,3.2,6.8c1.4,3.1,1.6,2.9,2.3,4.8c1,2.4,0.7,2.8,1.7,5.5c1.1,2.9,1.9,4.3,1.6,4.8c-0.3,0.6-1.3,0-1.4,0.1
	c-1.2-0.6-1.7-2.4-1.7-2.6c-0.4-0.9-1.1-2.2-1.7-4c-0.4-1-0.4-1.2-0.6-1.7c-1-2.4-2.5-3.7-2.5-3.7c-0.5-0.4-0.9-0.7-1.5-1.1
	c-0.9-0.5-0.9-0.4-1.9-0.9c-1.3-0.7-1.5-1.1-2.1-0.9c-0.1,0-0.7,0.3-0.9,0.9c-0.1,0.4,0,1.2,1.7,3.1c1,1.3,1.9,2.2,3.5,4
	c0.6,0.6,1.3,1.6,1.5,3c0.1,0.3,0.2,0.9,0,1.2c-0.3,0.4-1,0-3-1.6c-1.1-0.9-2.1-1.8-4.3-3.8c-1.4-1.3-2-1.9-2.4-2.4
	c-0.3-0.3-0.4-0.5-0.5-0.5c-1.1-1.2-1.7-1.8-4.1-3.6c-7.4-5.4-9.9-14.4-9.9-14.4c-0.5-1.7-0.7-3.1-0.8-4
	C256.1,371.7,257.8,371.2,258.7,369.6z"/>
<linearGradient id="SVGID_15_" gradientUnits="userSpaceOnUse" x1="560.4219" y1="299.9965" x2="587.7079" y2="267.4784" gradientTransform="matrix(-0.1841 0.9829 -0.9829 -0.1841 656.7912 -131.552)">
	<stop  offset="0" style="stop-color:#D3D6D6"/>
	<stop  offset="0.6073" style="stop-color:#ABB0B3"/>
</linearGradient>
<path class="st14" d="M257,365.5c3.1,2.8,5.8,4.5,7.9,5.5c0.6,0.3,1.9,1,3.6,1.6c2.9,1.1,5.4,1.6,7.3,1.9c0,0,1.5-0.2,3.1,0.3
	c0.2,0.1,0.3,0.1,0.6,0.2c1.5,0.8,1.7,1.7,4.7,4.6c2.1,2.1,2.1,1.8,3.2,3.2c1.5,1.7,1.3,2.2,3,4.2c1.7,2.2,2.8,2.9,2.7,3.7
	c-0.1,0.7-1.2,0.8-1.3,0.7c-1.3,0.1-2.2-1.3-2.2-1.4c-0.6-0.6-1.5-1.5-2.5-2.8c-0.6-0.7-0.6-0.8-1-1.2c-0.9-1-1.6-1.2-3.3-2.1
	c-2.4-1.3-2.3-1.5-2.9-1.5c-1.4,0-2.9,1.9-2.9,1.9c-5.2-5.3-7.8-5.4-9.1-4.2c-1.2,1.1-1.5,3.4-3.1,4c-1.8,0.7-3.6-1.4-4.2-2.1
	C256.2,377.3,256.9,366.7,257,365.5z"/>
<linearGradient id="SVGID_16_" gradientUnits="userSpaceOnUse" x1="45.1903" y1="421.0701" x2="45.1903" y2="421.0701" gradientTransform="matrix(0.9118 0.4107 -0.4107 0.9118 389.3407 -42.9966)">
	<stop  offset="0" style="stop-color:#363233"/>
	<stop  offset="1" style="stop-color:#000000"/>
</linearGradient>
<path class="st15" d="M257.6,359.5"/>
<linearGradient id="SVGID_17_" gradientUnits="userSpaceOnUse" x1="224.2706" y1="427.0216" x2="224.2706" y2="427.0216" gradientTransform="matrix(0.8531 0.5217 0.5217 -0.8531 -161.6147 461.7052)">
	<stop  offset="7.317073e-03" style="stop-color:#AAAAAA"/>
	<stop  offset="0.9317" style="stop-color:#F2F2F2"/>
</linearGradient>
<path class="st16" d="M252.5,214.4"/>
<linearGradient id="SVGID_18_" gradientUnits="userSpaceOnUse" x1="-15.0514" y1="313.662" x2="40.1244" y2="247.906" gradientTransform="matrix(-0.8639 -0.1739 0.2031 -0.9791 92.0104 564.5172)">
	<stop  offset="0" style="stop-color:#D3D6D6"/>
	<stop  offset="0.6073" style="stop-color:#BDC2C7"/>
	<stop  offset="0.878" style="stop-color:#9C9C9C"/>
</linearGradient>
<path class="st17" d="M140.2,234c-6.1,2.9-8.4,10.9-9.5,15c-1,3.8-1.1,7.2-1.7,14.1c-1.1,11.8-0.5,11.6-1.3,17.5
	c-0.9,7.6-1.8,7.3-4.4,20.2c-1,5.2-1.9,9.8-2.3,15.9c-0.8,10.8-1.2,16.1,2,20.4c2.4,3.2,7.3,6,12,4.4c2.2-0.7,3.9-2.3,4.7-3.3
	c4.3-13.1,6.3-21.2,7.2-26.4c0.4-1.6,1.4-7.9,3.3-16.5c0.6-2.4,0.8-3.6,1.1-4.9c2.4-9.5,4.8-15.2,6.1-21.8c0.4-2.2,0.7-4.3,0.7-4.3
	c0.3-2.7,0.4-4.3,0.5-5.4c0.1-2.3,0.2-5.6-0.5-9.4c-0.5-2.6-0.9-4.7-2.2-7.2c-1.2-2.2-2.7-3.5-4.9-5.4c-1.9-1.8-3.8-2.9-5-3.7
	C144.8,232.9,142.6,232.9,140.2,234z"/>
<linearGradient id="SVGID_19_" gradientUnits="userSpaceOnUse" x1="9.6719" y1="221.8414" x2="-35.1648" y2="299.5009" gradientTransform="matrix(-0.8231 -0.3451 0.3694 -0.8748 9.9933 584.1902)">
	<stop  offset="0" style="stop-color:#D3D6D6"/>
	<stop  offset="0.6073" style="stop-color:#BDC2C7"/>
	<stop  offset="0.878" style="stop-color:#ABABAB"/>
</linearGradient>
<path class="st18" d="M139.3,322.5c-0.7-2.2-3.6-10.3-10-13.2c-1.8-0.8-3.3-1-4.3-1c-0.6,3.1-1.3,6.3-2.1,9.6
	c-0.9,4-1.9,7.8-2.9,11.5c-0.8,5.1-0.9,3.6-4.3,16.8c-1.7,6.5-3,12.5-4.6,20.2c-1.8,8.5-4.8,20.9-9.7,35.8c-0.8,2.5,4,5.9,3.4,10.3
	c-0.2,1.4-0.7,2.4-0.4,2.8c0.6,0.8,4.3-3,7.8-7.1c3.8-6.4,6-11.3,7.4-14.6c0.3-0.8,1.8-4.4,3.5-8.8c1.4-3.5,1.9-5,4.1-10.3
	c3.6-8.8,6.7-18.1,10.4-26.8c1.5-3.6,3.2-7.6,3.6-13.2C141.6,329,140.2,324.8,139.3,322.5z"/>
<linearGradient id="SVGID_20_" gradientUnits="userSpaceOnUse" x1="164.4942" y1="305.3961" x2="164.4942" y2="305.3961" gradientTransform="matrix(0.2854 -0.9584 0.9584 0.2854 -140.5255 434.306)">
	<stop  offset="0" style="stop-color:#ABABAB"/>
	<stop  offset="0.3463" style="stop-color:#D3D6D6"/>
	<stop  offset="0.8171" style="stop-color:#BDC2C7"/>
	<stop  offset="1" style="stop-color:#ABABAB"/>
</linearGradient>
<path class="st19" d="M199.1,363.8"/>
<linearGradient id="SVGID_21_" gradientUnits="userSpaceOnUse" x1="629.3104" y1="460.0668" x2="637.4815" y2="413.7259" gradientTransform="matrix(5.577878e-02 -1.0486 1.4406 7.663304e-02 -429.4807 1033.7394)">
	<stop  offset="0" style="stop-color:#969696"/>
	<stop  offset="0.3463" style="stop-color:#D3D6D6"/>
	<stop  offset="1" style="stop-color:#9A9F9C"/>
</linearGradient>
<path class="st20" d="M206.9,413.3c6,1.6,10.8,2,14.1,2.1c3.8,0.1,4.7-0.3,9.8-0.2c1.2,0,6.4,0.1,13,1c10.8,1.4,12.5,3.2,16.3,2.1
	c3.6-1.1,5.3-3.7,7-6.1c1.3-2,1.8-4,2.7-7.8c1.9-8.2,0.7-9.5,0.1-9.9c-2.1-1.6-5.7-1.6-6.7-1.6c-3.2,0-5.4,1-6.8,1.6
	c-3.4,1.3-9.6,1.4-22.2,1.5c-4.2,0.1-5.4,0-8.6,0c-1.8,0-3,0-5.1,0c-6.1,0-13.2,0.2-14.7,0.3c-3.8,2.1-5.9,5.6-5.5,9.2
	C201,410.5,206.3,413.1,206.9,413.3z"/>
<linearGradient id="SVGID_22_" gradientUnits="userSpaceOnUse" x1="573.4008" y1="229.5831" x2="599.7264" y2="198.2094" gradientTransform="matrix(0.4167 0.9091 0.9091 -0.4167 -342.4666 -32.6634)">
	<stop  offset="0" style="stop-color:#D3D6D6"/>
	<stop  offset="0.6073" style="stop-color:#ABB0B3"/>
</linearGradient>
<path class="st21" d="M114.2,398.6c0.8,2.7-1.6,5.9-3.2,7.2c-0.6,0.5-0.5,0.3-2.6,1.5c-1,0.6-2.2,1.4-3.6,2.3
	c-2.1,1.4-3.7,2.9-4.7,3.9c-1.7,0.1-3.3,0-5,0c0,0-2.1-1.4-3.8-0.9c-0.7,0.3-0.6,0.4-3.1,2.5c-1.7,1.4-2.5,1.8-3.4,3.1
	c-0.3,0.6-0.3,0.7-0.9,1.5c-1,1.6-1.8,2.8-2.4,3.5c-0.1,0.2-0.9,1.8-2.4,2.1c-0.1,0-1.4,0.2-1.7-0.4c-0.3-0.7,0.8-1.9,2.4-4.5
	c1.4-2.6,1.2-2.9,2.6-5.1c1-1.6,1.2-1.5,3.2-4.2c2.8-3.8,2.9-4.8,4.5-6c1-0.8,1.5-0.9,4.2-1.8c3.4-1.2,6.7-2.4,8.6-3.3
	c1.8-0.9,4.4-2.2,7.2-4.5C111.8,395.7,113.6,396.9,114.2,398.6z"/>
<linearGradient id="SVGID_23_" gradientUnits="userSpaceOnUse" x1="606.0088" y1="236.4102" x2="639.6058" y2="196.371" gradientTransform="matrix(0.652 0.7583 0.7583 -0.652 -468.1665 75.2838)">
	<stop  offset="0" style="stop-color:#D3D6D6"/>
	<stop  offset="0.6073" style="stop-color:#ABB0B3"/>
</linearGradient>
<path class="st22" d="M118.8,391.3c0,0.9-0.1,2.4-0.4,4.1c0,0-1.8,9.4-10,16.1c-2.7,2.2-3.3,2.9-4.4,4.3c-0.1,0.1-0.3,0.3-0.5,0.6
	c-0.5,0.5-1.1,1.3-2.6,2.8c-2.3,2.4-3.4,3.5-4.7,4.5c-2.2,2-3,2.5-3.5,2.2c-0.2-0.3-0.2-0.9-0.2-1.2c0.1-1.4,0.9-2.5,1.5-3.2
	c1.7-2.1,2.6-3.2,3.7-4.6c1.8-2.3,1.8-3.1,1.6-3.4c-0.2-0.6-1.1-0.7-1.2-0.7c-0.8-0.1-1,0.3-2.5,1.3c-1.2,0.7-1.2,0.6-2.2,1.3
	c-0.8,0.5-1.2,0.8-1.7,1.3c0,0-1.6,1.6-2.6,4.1c-0.2,0.6-0.2,0.7-0.5,1.8c-0.5,1.9-1.1,3.4-1.5,4.3c-0.1,0.2-0.3,2-1.7,2.9
	c-0.1,0-1.3,0.7-1.7,0.2c-0.5-0.5,0.3-2,1.2-5.1c0.9-2.9,0.5-3.2,1.3-5.8c0.6-2,0.8-1.9,2.1-5.2c1.7-4.6,1.6-5.6,2.9-7.3
	c0.8-1.1,1.3-1.3,3.6-3.1c0.7-0.6,3-2.3,7.4-6.1c2.1-1.8,6-5.8,11.6-15.3c-2.3,2.7-2.1,7-0.3,8.9C114.9,392.3,117,392.5,118.8,391.3
	z"/>
<linearGradient id="SVGID_24_" gradientUnits="userSpaceOnUse" x1="568.963" y1="263.0185" x2="599.6171" y2="226.4864" gradientTransform="matrix(0.3207 0.9472 0.9472 -0.3207 -321.0601 -70.8886)">
	<stop  offset="0" style="stop-color:#D3D6D6"/>
	<stop  offset="0.6073" style="stop-color:#ABB0B3"/>
</linearGradient>
<path class="st23" d="M113.3,403.7c-0.6,0.7-2.5,3.1-4.8,2.8c-2-0.3-2.7-2.5-4.3-3.4c-1.8-1-4.9-0.4-10.5,5.8c0,0-2.1-1.6-3.8-1.4
	c-0.7,0.1-0.5,0.3-3.3,2c-1.9,1.2-2.7,1.5-3.7,2.6c-0.4,0.5-0.5,0.7-1,1.4c-1,1.4-2,2.6-2.7,3.2c0,0.1-0.9,1.7-2.5,1.8
	c-0.1,0-1.4,0.2-1.7-0.5c-0.3-0.8,0.9-1.7,2.7-4.2c1.7-2.4,1.5-2.8,3-4.7c1.2-1.6,1.3-1.3,3.5-3.8c3.1-3.4,3.3-4.3,5-5.4
	c0.3-0.2,0.5-0.2,0.7-0.3c1.8-0.8,3.7-0.8,3.7-0.8c2.2-0.6,5.2-1.5,8.6-3.1c2-0.9,3.4-1.8,4.1-2.2c2.3-1.4,5.4-3.6,8.7-6.9
	C115.3,387.7,117.7,398.1,113.3,403.7z"/>
<linearGradient id="SVGID_25_" gradientUnits="userSpaceOnUse" x1="84.0411" y1="419.2661" x2="84.0411" y2="419.2661" gradientTransform="matrix(-0.8449 0.535 0.535 0.8449 -43.8066 -20.8651)">
	<stop  offset="0" style="stop-color:#363233"/>
	<stop  offset="1" style="stop-color:#000000"/>
</linearGradient>
<path class="st24" d="M109.5,378.3"/>
<linearGradient id="SVGID_26_" gradientUnits="userSpaceOnUse" x1="288.1781" y1="417.2894" x2="288.1781" y2="417.2894">
	<stop  offset="0" style="stop-color:#969696"/>
	<stop  offset="0.3463" style="stop-color:#D3D6D6"/>
	<stop  offset="1" style="stop-color:#9A9F9C"/>
</linearGradient>
<path class="st25" d="M288.2,417.3"/>
<linearGradient id="SVGID_27_" gradientUnits="userSpaceOnUse" x1="204.35" y1="425.7897" x2="204.35" y2="425.7897" gradientTransform="matrix(0.7825 -0.6226 0.6226 0.7825 -160.1626 135.6992)">
	<stop  offset="0" style="stop-color:#D3D6D6"/>
	<stop  offset="0.6073" style="stop-color:#BDC2C7"/>
	<stop  offset="0.878" style="stop-color:#ABABAB"/>
</linearGradient>
<path class="st26" d="M264.9,341.7"/>
</svg>
