<?xml version="1.0" encoding="utf-8"?>
<!-- Generator: Adobe Illustrator 22.1.0, SVG Export Plug-In . SVG Version: 6.00 Build 0)  -->
<svg version="1.1" id="Layer_1" xmlns="http://www.w3.org/2000/svg" xmlns:xlink="http://www.w3.org/1999/xlink" x="0px" y="0px"
	 viewBox="0 0 432 576" style="enable-background:new 0 0 432 576;" xml:space="preserve">
<style type="text/css">
	.st0{fill:url(#SVGID_1_);}
	.st1{fill:url(#SVGID_2_);}
	.st2{fill:url(#SVGID_3_);}
	.st3{fill:url(#SVGID_4_);}
	.st4{fill:url(#SVGID_5_);}
	.st5{fill:url(#SVGID_6_);}
	.st6{fill:url(#SVGID_7_);}
	.st7{fill:url(#SVGID_8_);}
	.st8{fill:url(#SVGID_9_);}
	.st9{fill:url(#SVGID_10_);}
	.st10{fill:url(#SVGID_11_);}
	.st11{fill:url(#SVGID_12_);}
	.st12{fill:url(#SVGID_13_);}
	.st13{fill:url(#SVGID_14_);}
	.st14{fill:url(#SVGID_15_);}
	.st15{fill:url(#SVGID_16_);}
	.st16{fill:url(#SVGID_17_);}
	.st17{fill:url(#SVGID_18_);}
	.st18{fill:url(#SVGID_19_);}
	.st19{fill:url(#SVGID_20_);}
	.st20{fill:url(#SVGID_21_);}
	.st21{fill:url(#SVGID_22_);}
	.st22{fill:url(#SVGID_23_);}
	.st23{fill:url(#SVGID_24_);}
	.st24{fill:url(#SVGID_25_);}
</style>
<linearGradient id="SVGID_1_" gradientUnits="userSpaceOnUse" x1="559.2155" y1="286.7958" x2="587.5261" y2="253.0566" gradientTransform="matrix(-0.1841 0.9829 -0.9829 -0.1841 656.7912 -131.552)">
	<stop  offset="0" style="stop-color:#D3D6D6"/>
	<stop  offset="0.6073" style="stop-color:#ABB0B3"/>
</linearGradient>
<path class="st0" d="M269.5,367.3c3.3,2.8,6.2,4.5,8.4,5.5c0.7,0.3,2,1,3.8,1.6c3.1,1.1,5.8,1.6,7.8,1.9c0,0,1.6-0.2,3.3,0.3
	c0.2,0.1,0.4,0.1,0.6,0.2c1.6,0.8,1.8,1.7,5,4.6c2.2,2.1,2.3,1.8,3.5,3.2c1.6,1.7,1.4,2.2,3.2,4.2c1.8,2.2,3,2.9,2.9,3.7
	c-0.1,0.7-1.3,0.8-1.4,0.7c-1.4,0.1-2.3-1.3-2.4-1.4c-0.6-0.6-1.6-1.5-2.7-2.8c-0.6-0.7-0.7-0.8-1.1-1.2c-1-1-1.7-1.2-3.5-2.1
	c-2.6-1.3-2.5-1.5-3.1-1.5c-1.5,0-3.1,1.9-3.1,1.9c-5.6-5.3-8.3-5.4-9.8-4.2c-1.3,1.1-1.6,3.4-3.3,4c-1.9,0.7-3.9-1.4-4.5-2.1
	C268.6,379.1,269.4,368.6,269.5,367.3z"/>
<linearGradient id="SVGID_2_" gradientUnits="userSpaceOnUse" x1="356.6335" y1="205.725" x2="356.6335" y2="205.725" gradientTransform="matrix(2.887784e-03 -1 1 2.887784e-03 -89.5245 530.0394)">
	<stop  offset="0" style="stop-color:#ABABAB"/>
	<stop  offset="0.3463" style="stop-color:#D3D6D6"/>
	<stop  offset="0.8171" style="stop-color:#BDC2C7"/>
	<stop  offset="1" style="stop-color:#ABABAB"/>
</linearGradient>
<path class="st1" d="M117.2,174"/>
<linearGradient id="SVGID_3_" gradientUnits="userSpaceOnUse" x1="300.8607" y1="163.4844" x2="358.3071" y2="163.4844" gradientTransform="matrix(-0.9906 0.1365 0.1365 0.9906 487.8835 8.9521)">
	<stop  offset="7.317073e-03" style="stop-color:#AAAAAA"/>
	<stop  offset="0.2244" style="stop-color:#AEAEAE"/>
	<stop  offset="0.4431" style="stop-color:#BABABA"/>
	<stop  offset="0.6625" style="stop-color:#CECECE"/>
	<stop  offset="0.8813" style="stop-color:#EAEAEA"/>
	<stop  offset="0.9317" style="stop-color:#F2F2F2"/>
</linearGradient>
<path class="st2" d="M199.3,211.3c-0.1-1.2-0.5-4.7,0.5-9c0.7-3,1.5-4.2,3.2-10.1c0.2-0.7,0.4-1.5,0.7-2.6c0.2-0.9,0.4-1.5,0.4-1.7
	c0.2-1.1,0.7-2.8,1.6-5.8c-11.3,8.4-20.5,15.3-27.2,20.3c-2.8,2.1-5.7,4.2-6.4,7.8c-0.8,4,1.5,6.8-0.3,10.8
	c-0.7,1.6-1.7,2.5-3.3,3.9c-6.1,5.3-10.9,4.8-11.4,6.9c-0.8,3.4,11.3,12.3,26.3,13.8c16.1,1.5,32.2-5.9,32-11
	c-0.1-2.8-5-2.5-10.3-9.3C203.6,223.4,200,218.4,199.3,211.3z"/>
<linearGradient id="SVGID_4_" gradientUnits="userSpaceOnUse" x1="-52.2463" y1="324.8448" x2="0.1037" y2="262.4565" gradientTransform="matrix(0.7597 -0.153 -0.1778 -0.8573 296.0642 523.6686)">
	<stop  offset="0" style="stop-color:#D3D6D6"/>
	<stop  offset="0.6073" style="stop-color:#BDC2C7"/>
	<stop  offset="0.878" style="stop-color:#9C9C9C"/>
</linearGradient>
<path class="st3" d="M217.1,231.9c-1.1,0.6-2.7,1.6-4.4,3c-1.9,1.6-3.3,2.6-4.3,4.4c-1.2,2-1.5,3.7-2,5.8c-0.6,3.1-0.5,5.7-0.4,7.6
	c0.1,0.9,0.2,2.2,0.5,4.4c0,0,0.3,1.8,0.6,3.5c1.1,5.3,3.3,9.9,5.3,17.6c0.3,1,0.5,2,1,3.9c1.6,7,2.6,12.1,2.9,13.3
	c0.8,4.1,2.5,10.8,6.3,21.3c0.8,0.8,2.2,2.1,4.2,2.7c4.1,1.3,8.4-1,10.6-3.6c2.8-3.4,2.5-7.8,1.8-16.5c-0.3-4.9-1.1-8.6-2-12.8
	c-2.2-10.5-3-10.2-3.8-16.4c-0.7-4.7-0.2-4.6-1.1-14.1c-0.5-5.5-0.6-8.3-1.5-11.4c-1-3.3-3-9.7-8.3-12.1
	C220.2,231.9,218.3,231.8,217.1,231.9z"/>
<linearGradient id="SVGID_5_" gradientUnits="userSpaceOnUse" x1="11.174" y1="229.2493" x2="-32.7736" y2="305.3689" gradientTransform="matrix(-0.7422 -0.4956 0.5293 -0.7884 -29.1649 561.5494)">
	<stop  offset="0" style="stop-color:#D3D6D6"/>
	<stop  offset="0.6073" style="stop-color:#BDC2C7"/>
	<stop  offset="0.878" style="stop-color:#ABABAB"/>
</linearGradient>
<path class="st4" d="M149.7,324.6c-0.3-2.1-1.5-10.4-7.3-14.2c-1.6-1.1-3.1-1.5-4.1-1.7c-1.2,2.8-2.5,5.7-3.9,8.6
	c-1.7,3.6-3.4,7-5,10.2c-1.8,4.6-1.6,3.2-7.4,15c-2.9,5.8-5.3,11.2-8.4,18.1c-3.4,7.7-8.7,18.8-16.3,31.9c-1.3,2.2,2.8,6.2,1.4,10.3
	c-0.5,1.3-1.1,2.2-0.9,2.6c0.5,0.9,4.8-2.1,9-5.2c4.9-5.4,8.1-9.6,10-12.4c0.5-0.7,2.6-3.8,5.1-7.6c2-3.1,2.8-4.3,6-8.9
	c5.2-7.6,10-15.8,15.3-23.3c2.1-3.1,4.6-6.5,6-11.7C150.7,331.1,150.1,326.9,149.7,324.6z"/>
<linearGradient id="SVGID_6_" gradientUnits="userSpaceOnUse" x1="-116.7315" y1="301.732" x2="-64.7275" y2="301.732" gradientTransform="matrix(2.325930e-02 -0.9997 1.1353 2.641227e-02 -102.6425 291.6534)">
	<stop  offset="0" style="stop-color:#ABABAB"/>
	<stop  offset="0.3463" style="stop-color:#D3D6D6"/>
	<stop  offset="0.8171" style="stop-color:#BDC2C7"/>
	<stop  offset="1" style="stop-color:#ABABAB"/>
</linearGradient>
<path class="st5" d="M187.1,411.2c0.5,0.4,1,0.7,1.6,1c8.9,4.5,16.8,3.7,37.3,1.9c3.1-0.3,10.9-0.9,26.6-2.1
	c3.6-0.3,8.1-0.6,11.2-0.9c7.6-0.6,13.9-1.1,18-1.4c1.3-0.3,3.2-0.8,5.2-1.7c1-0.5,5.2-2.6,7.6-6.2c3.8-5.8,2.2-13.9-2.5-18.8
	c-2.9-3-6.5-4.1-12.7-6.1c-4-1.3-5.9-1.5-11.9-2.7c-8.9-1.8-10.1-2.6-18.2-4.4c-7.2-1.6-12.3-2.4-20.2-3.6
	c-23.5-3.6-30.4-2.9-36.7-0.1c-0.9,0.4-1.7,0.7-2.6,1.3C176.1,375.9,174.8,402,187.1,411.2z"/>
<linearGradient id="SVGID_7_" gradientUnits="userSpaceOnUse" x1="566.2294" y1="233.0922" x2="592.0645" y2="202.3031" gradientTransform="matrix(0.2359 0.9718 0.9718 -0.2359 -257.6476 -111.1555)">
	<stop  offset="0" style="stop-color:#D3D6D6"/>
	<stop  offset="0.6073" style="stop-color:#ABB0B3"/>
</linearGradient>
<path class="st6" d="M110.5,391.5c0.3,2.7-2.7,5.3-4.5,6.2c-0.7,0.3-0.6,0.1-2.9,0.9c-1.1,0.4-2.5,0.9-4,1.5c-2.3,0.9-4.2,2-5.4,2.8
	c-1.7-0.2-3.2-0.6-4.9-0.9c0,0-1.8-1.7-3.6-1.6c-0.8,0.1-0.6,0.3-3.5,1.7c-2,1-2.8,1.2-3.9,2.3c-0.4,0.5-0.5,0.6-1.2,1.3
	c-1.3,1.3-2.3,2.3-3.1,2.9c-0.1,0.2-1.2,1.5-2.7,1.5c-0.1-0.1-1.4,0-1.6-0.7c-0.2-0.7,1.2-1.6,3.2-3.8c1.9-2.2,1.7-2.5,3.5-4.4
	c1.3-1.4,1.5-1.2,3.9-3.3c3.5-3,3.8-4,5.6-4.8c1.1-0.5,1.6-0.6,4.5-0.9c3.6-0.5,7.1-1.1,9.1-1.6c1.9-0.5,4.7-1.3,7.9-2.9
	C108.7,388.3,110.3,389.8,110.5,391.5z"/>
<linearGradient id="SVGID_8_" gradientUnits="userSpaceOnUse" x1="600.6035" y1="241.3619" x2="633.1249" y2="202.6045" gradientTransform="matrix(0.4956 0.8686 0.8686 -0.4956 -401.611 -29.1335)">
	<stop  offset="0" style="stop-color:#D3D6D6"/>
	<stop  offset="0.6073" style="stop-color:#ABB0B3"/>
</linearGradient>
<path class="st7" d="M116.4,385.5c-0.2,0.8-0.5,2.2-1.2,3.8c0,0-3.5,8.6-12.9,13.3c-3.1,1.6-3.8,2.1-5.2,3.2
	c-0.1,0.1-0.3,0.3-0.6,0.5c-0.6,0.4-1.4,1-3.1,2.1c-2.8,1.8-4,2.6-5.5,3.4c-2.6,1.5-3.5,1.8-3.8,1.4c-0.2-0.3-0.1-0.9,0.1-1.2
	c0.4-1.3,1.3-2.2,2-2.8c2.1-1.6,3.2-2.5,4.5-3.7c2.2-1.8,2.4-2.6,2.3-2.9c-0.1-0.6-0.9-0.9-1-0.9c-0.7-0.2-1,0.1-2.7,0.7
	c-1.3,0.4-1.3,0.3-2.4,0.8c-0.8,0.3-1.3,0.6-1.9,0.9c0,0-1.9,1.2-3.3,3.4c-0.3,0.5-0.4,0.6-0.9,1.6c-0.9,1.7-1.7,3-2.3,3.8
	c-0.1,0.2-0.7,1.8-2.3,2.4c-0.1,0-1.4,0.4-1.7-0.1c-0.4-0.6,0.7-1.8,2.2-4.6c1.4-2.6,1.1-2.9,2.4-5.2c1-1.8,1.2-1.6,3-4.5
	c2.6-4,2.7-5,4.2-6.3c0.9-0.9,1.5-1,4.2-2.3c0.8-0.4,3.4-1.6,8.5-4.4c2.4-1.3,7-4.4,14.3-12.2c-2.8,2.1-3.4,6.2-2,8.3
	C112.3,385.7,114.4,386.2,116.4,385.5z"/>
<linearGradient id="SVGID_9_" gradientUnits="userSpaceOnUse" x1="561.665" y1="265.6147" x2="591.8367" y2="229.6575" gradientTransform="matrix(0.1343 0.9909 0.9909 -0.1343 -229.3506 -144.6022)">
	<stop  offset="0" style="stop-color:#D3D6D6"/>
	<stop  offset="0.6073" style="stop-color:#ABB0B3"/>
</linearGradient>
<path class="st8" d="M108.6,396.1c-0.7,0.6-3.1,2.5-5.2,1.8c-1.9-0.7-2.1-2.9-3.6-4c-1.6-1.3-4.8-1.3-11.4,3.5c0,0-1.7-1.9-3.4-2
	c-0.7,0-0.6,0.1-3.6,1.3c-2.1,0.8-3,0.9-4.1,1.8c-0.5,0.4-0.6,0.5-1.3,1.1c-1.3,1.1-2.5,2-3.2,2.5c-0.1,0.1-1.2,1.4-2.8,1.2
	c-0.1,0-1.4-0.1-1.5-0.8c-0.1-0.8,1.2-1.4,3.5-3.4c2.2-1.9,2-2.3,3.9-3.9c1.4-1.3,1.5-1,4.1-2.9c3.7-2.6,4.1-3.5,5.9-4.1
	c0.3-0.1,0.5-0.1,0.7-0.2c1.9-0.4,3.8-0.1,3.8-0.1c2.3-0.1,5.4-0.5,9-1.4c2.1-0.5,3.7-1.1,4.5-1.3c2.5-0.9,6-2.4,9.9-4.9
	C113.7,381.5,114,391.7,108.6,396.1z"/>
<linearGradient id="SVGID_10_" gradientUnits="userSpaceOnUse" x1="79.6941" y1="413.6414" x2="79.6941" y2="413.6414" gradientTransform="matrix(-0.9313 0.3642 0.3642 0.9313 33.2943 -42.6734)">
	<stop  offset="0" style="stop-color:#363233"/>
	<stop  offset="1" style="stop-color:#000000"/>
</linearGradient>
<path class="st9" d="M109.7,371.6"/>
<linearGradient id="SVGID_11_" gradientUnits="userSpaceOnUse" x1="163.478" y1="295.2724" x2="163.8769" y2="433.4095" gradientTransform="matrix(-2.483458e-02 -0.9997 0.6656 -1.492597e-02 -47.9476 547.0801)">
	<stop  offset="0" style="stop-color:#363233"/>
	<stop  offset="1" style="stop-color:#000000"/>
</linearGradient>
<path class="st10" d="M149,398.9c3.8,8.1,9,11.3,13.5,14.2c2.1,1.3,7.7,4.6,27.4,5.4c16.4,0.6,27.5-1.1,31-1.7
	c5.6-1,10.4-2.1,13.9-3.1c0.3-2,0.8-4.8,1.1-8.3c0.7-6.5,1.8-16.4-0.1-27.8c-0.6-3.6-1.8-9-4.1-15.1c-7.3-1.5-13.2-2.5-17.4-3.1
	c-3.5-0.5-6.8-1-13.4-2c-4.9-0.8-5.9-1-7.2-1.2c-0.6-0.1-1-0.1-1-0.1c-1.1-0.2-3.3-2.5-7.7-10.7c-2.1-2.4-6-6-11.1-7.1
	c-10.9-2.4-22.7,7.4-27.2,23.4C143.4,373.2,143.9,388,149,398.9z"/>
<linearGradient id="SVGID_12_" gradientUnits="userSpaceOnUse" x1="218.4805" y1="300.632" x2="267.7235" y2="300.632" gradientTransform="matrix(-1.0321 0 0 0.9975 449.2229 -0.1248)">
	<stop  offset="0" style="stop-color:#363233"/>
	<stop  offset="1" style="stop-color:#000000"/>
</linearGradient>
<path class="st11" d="M223.7,233.4c0,3.6-0.1,8.8-0.2,15.1c-0.5,18.3-0.9,35.7-4.2,57.4c-2,13.6-4.4,24.1-5.8,30.1
	c-2.5,10.7-5.1,19.9-7.3,27.5c-2.5,1.5-5.6,3.1-9.2,4.4c-9.6,3.5-18.4,3.7-24,3.3c4.8-18.9,9.1-41.1,11.4-66.1
	c2.1-23.2,2-44.2,0.9-62.5c2.7-0.3,7.3-1.2,12.1-4c6.3-3.6,9.3-8.3,10.5-10.6C213.1,229.9,218.4,231.6,223.7,233.4z"/>
<linearGradient id="SVGID_13_" gradientUnits="userSpaceOnUse" x1="-25.496" y1="313.3393" x2="30.1294" y2="247.0475" gradientTransform="matrix(-0.8758 9.713518e-02 -0.1043 -0.9945 178.4761 564.3519)">
	<stop  offset="0" style="stop-color:#D3D6D6"/>
	<stop  offset="0.6073" style="stop-color:#BDC2C7"/>
	<stop  offset="0.878" style="stop-color:#9C9C9C"/>
</linearGradient>
<path class="st12" d="M132.8,234.7c-5.2,4.6-4.7,12.6-4.5,17.1c0.2,3.9,1.1,7.2,2.7,13.9c2.6,11.5,3.1,11.2,4.1,17
	c1.4,7.5,0.5,7.5,2,20.6c0.6,5.3,1.2,9.9,2.7,15.8c2.5,10.5,3.8,15.7,8.1,18.8c3.3,2.3,8.8,3.5,12.8,0.5c1.9-1.4,3-3.4,3.5-4.6
	c0.2-13.8-0.4-22.1-1.1-27.3c-0.1-1.6-1-7.9-1.8-16.7c-0.2-2.5-0.3-3.7-0.4-5c-0.6-9.8,0-16-0.8-22.6c-0.3-2.2-0.6-4.4-0.6-4.4
	c-0.5-2.7-0.9-4.2-1.2-5.3c-0.6-2.3-1.5-5.4-3.3-8.9c-1.6-3-3.3-5-4.3-6.2c-1.9-2.2-2.9-3.4-4.6-4.3c-1.2-0.7-3.7-1.8-7.7-1.4
	C136.8,232.3,134.7,233,132.8,234.7z"/>
<linearGradient id="SVGID_14_" gradientUnits="userSpaceOnUse" x1="149.0068" y1="301.0675" x2="215.979" y2="301.0675" gradientTransform="matrix(1.0321 0 0 0.9975 -16.7574 -0.1248)">
	<stop  offset="0" style="stop-color:#363233"/>
	<stop  offset="1" style="stop-color:#000000"/>
</linearGradient>
<path class="st13" d="M140.9,231.9c2.1,5.6,2.3,10.2,2.1,13.2c0,0.5-1,4.7-3,13.2c-2.6,10.9-2.6,9.2-2.8,11.3
	c-0.5,5.1,0.6,6.6,2.9,23c0.2,1.2,0.2,1.2,0.4,3.2c0.2,1.8,3.6,21.5,5.1,35.2c0.4,4.2,0.7,8,1.1,15.5c0.5,8.6,0.8,15.9,0.9,21.3
	c4.4,1.7,9.7,3.3,15.8,4c19.6,2.6,35.4-4.3,42.9-8.2c-0.9-17.8-2.7-37.5-6.1-58.8c-3.6-23-8.4-43.8-13.6-62.1
	c-2.8-0.3-7.7-1.2-12.7-4c-6.6-3.6-9.8-8.3-11.1-10.6C155.4,229.4,148.2,230.6,140.9,231.9z"/>
<linearGradient id="SVGID_15_" gradientUnits="userSpaceOnUse" x1="222.2921" y1="382.4668" x2="222.2921" y2="382.4668" gradientTransform="matrix(1 0 0 -1 0 576)">
	<stop  offset="7.317073e-03" style="stop-color:#AAAAAA"/>
	<stop  offset="0.9317" style="stop-color:#F2F2F2"/>
</linearGradient>
<path class="st14" d="M222.3,193.5"/>
<linearGradient id="SVGID_16_" gradientUnits="userSpaceOnUse" x1="-8.123" y1="257.2903" x2="-53.0255" y2="335.0638" gradientTransform="matrix(0.7657 -0.4585 -0.4606 -0.7689 411.3778 547.8634)">
	<stop  offset="0" style="stop-color:#D3D6D6"/>
	<stop  offset="0.6073" style="stop-color:#BDC2C7"/>
	<stop  offset="0.878" style="stop-color:#ABABAB"/>
</linearGradient>
<path class="st15" d="M222.4,315.5c1.1,4.9,3.5,8,5.5,10.9c5.1,7,9.6,14.6,14.5,21.7c3,4.3,3.8,5.5,5.7,8.4c2.4,3.6,4.4,6.5,4.9,7.1
	c1.9,2.6,4.9,6.6,9.7,11.6c4.3,3,8.7,5.8,9.3,5c0.3-0.4-0.4-1.2-0.8-2.4c-1.2-3.7,3.5-7.4,2.3-9.4c-7.1-12.2-11.9-22.6-14.9-29.7
	c-2.7-6.4-4.9-11.4-7.5-16.8c-5.3-11-5.2-9.6-6.7-13.9c-1.5-3-3-6.2-4.6-9.5c-1.3-2.7-2.4-5.4-3.5-8c-1.1,0.1-2.7,0.5-4.5,1.5
	c-6.5,3.4-8.5,11-9,13C222.3,306.8,221.4,310.7,222.4,315.5z"/>
<linearGradient id="SVGID_17_" gradientUnits="userSpaceOnUse" x1="562.3605" y1="262.0769" x2="590.3873" y2="228.6758" gradientTransform="matrix(-0.2846 0.9587 -0.9587 -0.2846 683.3657 -96.721)">
	<stop  offset="0" style="stop-color:#D3D6D6"/>
	<stop  offset="0.6073" style="stop-color:#ABB0B3"/>
</linearGradient>
<path class="st16" d="M268.8,370.3c3.1,2.1,5.9,3.2,7.7,3.9c2,0.7,5.4,1.6,8.9,2.4c2.8,0.6,3.3,0.6,4.4,1.3c1.8,1.1,2,2.2,5.3,6
	c2.3,2.7,2.5,2.5,3.7,4.2c1.6,2.3,1.5,2.6,3.2,5.4c1.9,2.8,3.2,3.9,3,4.7c-0.2,0.8-1.5,0.6-1.6,0.7c-1.5-0.1-2.5-1.7-2.6-1.9
	c-0.7-0.8-1.7-1.9-2.9-3.6c-0.7-0.9-0.7-1-1.1-1.6c-1.1-1.3-1.9-1.7-3.8-3c-2.8-1.9-2.7-2.1-3.4-2.3c-1.7-0.2-3.7,1.7-3.7,1.7
	c-1.7,0.3-3.3,0.6-5,0.8c-1.2-1-3-2.4-5.2-3.6c-1.5-0.8-2.8-1.5-3.9-2c-2.2-1-2.2-0.8-2.8-1.2c-1.8-1.2-4.6-4.3-4.2-7.6
	C265.2,372.4,266.8,370.9,268.8,370.3z"/>
<linearGradient id="SVGID_18_" gradientUnits="userSpaceOnUse" x1="602.7418" y1="271.9604" x2="639.8788" y2="227.7024" gradientTransform="matrix(-0.5388 0.8425 -0.8425 -0.5388 823.01 -7.5441)">
	<stop  offset="0" style="stop-color:#D3D6D6"/>
	<stop  offset="0.6073" style="stop-color:#ABB0B3"/>
</linearGradient>
<path class="st17" d="M264.4,365.7c1.5-2.5,1.1-7.3-1.6-10c6.8,9.7,11.2,13.6,13.6,15.3c4.9,3.6,7.4,5.2,8.2,5.7
	c2.6,1.7,3.1,1.8,4,2.9c1.5,1.7,1.5,2.9,3.9,7.7c1.7,3.5,1.9,3.3,2.8,5.5c1.2,2.8,0.9,3.2,2.1,6.3c1.3,3.3,2.4,4.9,1.9,5.5
	c-0.3,0.6-1.6,0-1.7,0.1c-1.5-0.7-2-2.7-2.1-2.9c-0.5-1-1.3-2.5-2.1-4.6c-0.4-1.2-0.5-1.3-0.8-1.9c-1.3-2.7-3.1-4.2-3.1-4.2
	c-0.6-0.5-1-0.8-1.9-1.2c-1.1-0.6-1.1-0.5-2.4-1.1c-1.6-0.8-1.9-1.2-2.6-1c-0.1,0-0.9,0.3-1.1,1c-0.1,0.4,0,1.3,2.1,3.6
	c1.2,1.4,2.3,2.6,4.3,4.6c0.7,0.7,1.6,1.8,1.9,3.4c0.1,0.4,0.2,1,0,1.4c-0.4,0.5-1.2,0-3.7-1.9c-1.4-1-2.6-2-5.3-4.3
	c-1.7-1.4-2.4-2.2-3-2.7c-0.3-0.3-0.5-0.5-0.6-0.6c-1.4-1.4-2-2.1-5-4.1c-9-6.2-12.1-16.5-12.1-16.5c-0.6-1.9-0.8-3.6-1-4.6
	C261.2,368.1,263.3,367.5,264.4,365.7z"/>
<linearGradient id="SVGID_19_" gradientUnits="userSpaceOnUse" x1="45.1903" y1="421.0701" x2="45.1903" y2="421.0701" gradientTransform="matrix(0.9118 0.4107 -0.4107 0.9118 389.3407 -42.9966)">
	<stop  offset="0" style="stop-color:#363233"/>
	<stop  offset="1" style="stop-color:#000000"/>
</linearGradient>
<path class="st18" d="M257.6,359.5"/>
<linearGradient id="SVGID_20_" gradientUnits="userSpaceOnUse" x1="224.2706" y1="427.0216" x2="224.2706" y2="427.0216" gradientTransform="matrix(0.8531 0.5217 0.5217 -0.8531 -161.6147 461.7052)">
	<stop  offset="7.317073e-03" style="stop-color:#AAAAAA"/>
	<stop  offset="0.9317" style="stop-color:#F2F2F2"/>
</linearGradient>
<path class="st19" d="M252.5,214.4"/>
<linearGradient id="SVGID_21_" gradientUnits="userSpaceOnUse" x1="164.4942" y1="305.3961" x2="164.4942" y2="305.3961" gradientTransform="matrix(0.2854 -0.9584 0.9584 0.2854 -140.5255 434.306)">
	<stop  offset="0" style="stop-color:#ABABAB"/>
	<stop  offset="0.3463" style="stop-color:#D3D6D6"/>
	<stop  offset="0.8171" style="stop-color:#BDC2C7"/>
	<stop  offset="1" style="stop-color:#ABABAB"/>
</linearGradient>
<path class="st20" d="M199.1,363.8"/>
<linearGradient id="SVGID_22_" gradientUnits="userSpaceOnUse" x1="623.6898" y1="470.9149" x2="633.0223" y2="417.9873" gradientTransform="matrix(5.577878e-02 -1.0486 1.4406 7.663304e-02 -429.4807 1033.7394)">
	<stop  offset="0" style="stop-color:#969696"/>
	<stop  offset="0.3463" style="stop-color:#D3D6D6"/>
	<stop  offset="1" style="stop-color:#9A9F9C"/>
</linearGradient>
<path class="st21" d="M213.4,420.7c6.8,1.8,12.3,2.3,16,2.4c4.4,0.1,5.4-0.3,11.2-0.2c1.4,0,7.3,0.1,14.8,1.1
	c12.3,1.6,14.3,3.6,18.6,2.4c4.1-1.2,6.1-4.2,7.9-7c1.5-2.3,2.1-4.5,3.1-9c2.2-9.4,0.8-10.8,0.1-11.3c-2.3-1.9-6.5-1.9-7.7-1.9
	c-3.7,0-6.2,1.2-7.7,1.8c-3.8,1.5-11,1.6-25.3,1.8c-4.8,0.1-6.2,0-9.8,0c-2,0-3.5,0-5.8,0c-7,0-15.1,0.3-16.7,0.3
	c-4.4,2.4-6.8,6.4-6.2,10.6C206.7,417.4,212.8,420.4,213.4,420.7z"/>
<linearGradient id="SVGID_23_" gradientUnits="userSpaceOnUse" x1="288.1781" y1="417.2894" x2="288.1781" y2="417.2894">
	<stop  offset="0" style="stop-color:#969696"/>
	<stop  offset="0.3463" style="stop-color:#D3D6D6"/>
	<stop  offset="1" style="stop-color:#9A9F9C"/>
</linearGradient>
<path class="st22" d="M288.2,417.3"/>
<linearGradient id="SVGID_24_" gradientUnits="userSpaceOnUse" x1="204.35" y1="425.7897" x2="204.35" y2="425.7897" gradientTransform="matrix(0.7825 -0.6226 0.6226 0.7825 -160.1626 135.6992)">
	<stop  offset="0" style="stop-color:#D3D6D6"/>
	<stop  offset="0.6073" style="stop-color:#BDC2C7"/>
	<stop  offset="0.878" style="stop-color:#ABABAB"/>
</linearGradient>
<path class="st23" d="M264.9,341.7"/>
<linearGradient id="SVGID_25_" gradientUnits="userSpaceOnUse" x1="315.8965" y1="151.2915" x2="356.6425" y2="117.1016" gradientTransform="matrix(-0.9906 0.1365 0.1365 0.9906 487.8835 8.9521)">
	<stop  offset="7.317073e-03" style="stop-color:#B0B0AE"/>
	<stop  offset="0.9317" style="stop-color:#D9D9D9"/>
</linearGradient>
<path class="st24" d="M166.9,158.4c7.4-2.5,13.6-2,15-1.9c5.4,0.4,12.2,1,17.5,6.3c5.5,5.5,6,12.5,6.2,14.5
	c0.2,2.3,0.6,8.6-3.5,13.9c-2.9,3.8-6.9,5.7-8.5,6.4c-2.1,1-4,1.4-5.4,1.7c0.4,1.5,0.9,4.2,0,7.1c-1,3.2-3.2,4.9-6.8,7.7
	c-2.5,1.9-5.9,3.5-12.7,6.6c-3.4,1.6-5.4,2.4-7.6,1.6c-1.6-0.6-2.5-1.8-3.2-2.8c-1.6-2.1-1.5-3.4-2.9-7.7c-1.8-5.3-1.6-6-2.5-7.2
	c-1.3-1.6-2.2-1.8-2.4-3c-0.2-1.4,0.9-2,2.5-5.4c1-2.1,1.5-3.1,1.3-4.2c-0.3-1.8-1.8-2-2.9-3.8c-0.4-0.7-0.9-1.8-0.2-7.2
	c0.6-4.6,0.9-6.9,2.1-10.1c0.9-2.2,1.7-4.5,3.8-6.7C160,160.8,163.7,159.5,166.9,158.4z"/>
</svg>
