<?xml version="1.0" encoding="utf-8"?>
<!-- Generator: Adobe Illustrator 22.1.0, SVG Export Plug-In . SVG Version: 6.00 Build 0)  -->
<svg version="1.1" id="Layer_1" xmlns="http://www.w3.org/2000/svg" xmlns:xlink="http://www.w3.org/1999/xlink" x="0px" y="0px"
	 viewBox="0 0 432 576" style="enable-background:new 0 0 432 576;" xml:space="preserve">
<style type="text/css">
	.st0{fill:url(#SVGID_1_);}
	.st1{fill:url(#SVGID_2_);}
	.st2{fill:url(#SVGID_3_);}
	.st3{fill:url(#SVGID_4_);}
	.st4{fill:url(#SVGID_5_);}
	.st5{fill:url(#SVGID_6_);}
	.st6{fill:url(#SVGID_7_);}
	.st7{fill:url(#SVGID_8_);}
	.st8{fill:url(#SVGID_9_);}
	.st9{fill:url(#SVGID_10_);}
	.st10{fill:url(#SVGID_11_);}
	.st11{fill:url(#SVGID_12_);}
	.st12{fill:url(#SVGID_13_);}
	.st13{fill:url(#SVGID_14_);}
	.st14{fill:url(#SVGID_15_);}
	.st15{fill:url(#SVGID_16_);}
	.st16{fill:url(#SVGID_17_);}
	.st17{fill:url(#SVGID_18_);}
	.st18{fill:url(#SVGID_19_);}
	.st19{fill:url(#SVGID_20_);}
	.st20{fill:url(#SVGID_21_);}
	.st21{fill:url(#SVGID_22_);}
	.st22{fill:url(#SVGID_23_);}
	.st23{fill:url(#SVGID_24_);}
	.st24{fill:url(#SVGID_25_);}
	.st25{fill:url(#SVGID_26_);}
	.st26{fill:url(#SVGID_27_);}
	.st27{fill:url(#SVGID_28_);}
	.st28{fill:url(#SVGID_29_);}
	.st29{fill:url(#SVGID_30_);}
</style>
<linearGradient id="SVGID_1_" gradientUnits="userSpaceOnUse" x1="486.1963" y1="68.9422" x2="486.1963" y2="107.531" gradientTransform="matrix(4.862980e-02 -0.9988 -0.9988 -4.862980e-02 452.1218 855.7451)">
	<stop  offset="0" style="stop-color:#9C9A9C"/>
	<stop  offset="0.3463" style="stop-color:#D3D6D6"/>
	<stop  offset="1" style="stop-color:#C5C8C9"/>
</linearGradient>
<path class="st0" d="M372.1,373c1.2,0.3,2.7,0.7,4.3,1.2c1.7,0.6,3.1,1.3,3.8,1.7c0.2,0.1,0.4,0.2,0.5,0.3c0,0,0.1,0,0.1,0
	c0.1,0,12.9,6.9,20.5,1.1c3.6-2.7,4.4-7,5.3-11.7c0.8-4,1.8-9.4-0.9-11.7c-2.3-2-6.4-0.7-14.1,1.7c-4.7,1.5-5.9,2.4-9.6,3.5
	c-5.5,1.6-10.2,1.9-13.4,1.9c0.6,0.8,1.3,1.9,1.9,3.1C372.1,367.7,372.2,371.1,372.1,373z"/>
<linearGradient id="SVGID_2_" gradientUnits="userSpaceOnUse" x1="17.0902" y1="278.2912" x2="-28.4695" y2="278.2912" gradientTransform="matrix(-0.7498 -0.6616 -0.6616 0.7498 383.7857 79.8287)">
	<stop  offset="0" style="stop-color:#ABABAB"/>
	<stop  offset="0.3463" style="stop-color:#D3D6D6"/>
	<stop  offset="0.8171" style="stop-color:#BDC2C7"/>
	<stop  offset="1" style="stop-color:#ABABAB"/>
</linearGradient>
<path class="st1" d="M192.9,334c0.5-0.1,1-0.2,1.4-0.4c7.4-2.7,10.8-7.9,19.7-21c1.3-1.9,4.8-7,11.8-16.9c1.6-2.2,3.6-5.1,4.9-7.1
	c3.4-4.9,6.2-8.8,8-11.5c0.4-0.9,1.1-2.3,1.4-4.1c0.2-0.9,0.8-4.6-0.4-8.1c-2.4-6.6-11-8.5-13.8-9.2c-2.2-0.5-5.7-1.2-9.7,0
	c-3.1,0.9-4.5,2.3-9.9,7.5c-10,9.4-15.4,14-18.3,16.5c-2.5,2.1-1.9,1.4-4.6,3.7c-14,11.9-17,16.3-18.2,21.7
	c-0.2,0.8-0.3,1.4-0.4,2.3C163.9,320.5,180.7,336,192.9,334z"/>
<linearGradient id="SVGID_3_" gradientUnits="userSpaceOnUse" x1="159.8561" y1="388.2227" x2="160.1783" y2="276.6797" gradientTransform="matrix(-0.7636 -0.6457 -0.6457 0.7636 503.666 188.6695)">
	<stop  offset="0" style="stop-color:#363233"/>
	<stop  offset="1" style="stop-color:#000000"/>
</linearGradient>
<path class="st2" d="M143.3,390.5c6.3,1.9,13-0.4,16.4-1.6c16-5.8,23.8-21.8,25-24.2c1-2.1,3.2-7,7-14.1c0.9-1.7,2.1-3.9,3.8-6.6
	c4.2-7,7.4-10.8,10.8-15.8c2.5-3.5,6-8.8,10-15.6c-1-1.5-2.4-3.6-4.4-6c-3.7-4.5-9.1-11.4-18.1-16.2c-2.9-1.5-7.3-3.6-13.3-4.9
	c-7.3,6.4-13,11.6-17,15.5c-3.3,3.2-6.5,6.2-12.9,12c-5.8,5.3-6.1,5.5-8,7.4c-4.5,4.3-18.2,20-18.2,20
	C122.1,366.3,130.6,386.7,143.3,390.5z"/>
<linearGradient id="SVGID_4_" gradientUnits="userSpaceOnUse" x1="251.2116" y1="212.9884" x2="211.9094" y2="212.9884" gradientTransform="matrix(0.8327 -0.5537 -0.5537 -0.8327 179.8748 630.1646)">
	<stop  offset="0" style="stop-color:#ABABAB"/>
	<stop  offset="0.3463" style="stop-color:#D3D6D6"/>
	<stop  offset="0.8171" style="stop-color:#BDC2C7"/>
	<stop  offset="1" style="stop-color:#ABABAB"/>
</linearGradient>
<path class="st3" d="M214.7,287.8c1.5,12.8,5.9,21.3,9.8,26.8c3.7,5.2,4.4,4.1,19.2,18.6c0,0,9.2,9.1,19.6,20.4
	c6.5,7.1,4.7,5.6,10.4,11.8c0.2,0.2,1.7,2,2.5,3c1.2,1.6,2.7,4.2,3.7,8.5c0.7,0.2,4.9,1.6,9.1-0.6c3.7-2,6-6,5.9-10.6
	c-0.9-1.6-2.4-3.9-4.1-6.5c-5.4-8.6-8.9-13.8-10.2-16.1c-2.5-4.2-6.1-10.6-13.8-25.9c-8.6-17-8.5-17.9-13.1-26.5
	c-3.5-6.7-9.2-16.7-16.9-28.5C229.4,270.6,222,279.1,214.7,287.8z"/>
<linearGradient id="SVGID_5_" gradientUnits="userSpaceOnUse" x1="497.733" y1="148.9061" x2="497.733" y2="191.0589" gradientTransform="matrix(0.9991 -4.222538e-02 -4.222538e-02 -0.9991 -199.6692 556.6064)">
	<stop  offset="0" style="stop-color:#ABABAB"/>
	<stop  offset="0.3463" style="stop-color:#D3D6D6"/>
	<stop  offset="1" style="stop-color:#C5C8C9"/>
</linearGradient>
<path class="st4" d="M264.6,350c-0.3,2.3-0.9,5.4-2.4,8.9c-1.3,3-2.9,5.5-4.2,7.2c-2.1,4.9-2.3,8.9-2.3,11.4c0.1,4.1,1.1,5.5,1.5,6
	c0.6,0.8,1.9,1.9,6.9,2.8c7.5,1.3,13.5,0.3,15.2,0c4.1-0.8,3.9-1.3,7-1.6c5-0.6,6.5,0.7,12.6,1.5c10.7,1.3,12.5-1.9,21.2-1.4
	c0.9,0,3.1,0.2,4.7-1.2c0.9-0.8,1.7-2.3,1.4-3.4c-0.6-2-4.2-2.4-7.5-2.9c0,0-8.4-1.3-16.2-3.8c-4.9-1.6-10.6-3.5-15.1-8.7
	c-2.5-2.8-3.6-5.4-4-6.2c-2.4-5.7-1.8-11-1.3-13.3C276.1,346.7,270.4,348.4,264.6,350z"/>
<linearGradient id="SVGID_6_" gradientUnits="userSpaceOnUse" x1="173.5759" y1="74.6163" x2="173.5759" y2="74.6163" gradientTransform="matrix(2.887784e-03 -1 -1 -2.887784e-03 485.2705 530.4949)">
	<stop  offset="0" style="stop-color:#ABABAB"/>
	<stop  offset="0.3463" style="stop-color:#D3D6D6"/>
	<stop  offset="0.8171" style="stop-color:#BDC2C7"/>
	<stop  offset="1" style="stop-color:#ABABAB"/>
</linearGradient>
<path class="st5" d="M411.2,356.7"/>
<linearGradient id="SVGID_7_" gradientUnits="userSpaceOnUse" x1="-18.3643" y1="252.514" x2="-63.924" y2="252.514" gradientTransform="matrix(2.887784e-03 -1 -1 -2.887784e-03 485.8716 322.3607)">
	<stop  offset="0" style="stop-color:#ABABAB"/>
	<stop  offset="0.3463" style="stop-color:#D3D6D6"/>
	<stop  offset="0.8171" style="stop-color:#BDC2C7"/>
	<stop  offset="1" style="stop-color:#ABABAB"/>
</linearGradient>
<path class="st6" d="M194.6,382c0.4,0.3,0.8,0.6,1.2,0.8c6.9,3.8,13,2.9,28.8,1c2.3-0.3,8.4-1,20.5-2.3c2.7-0.3,6.2-0.7,8.6-1
	c5.9-0.7,10.7-1.2,13.9-1.6c1-0.3,2.5-0.7,4-1.6c0.8-0.4,4-2.4,5.8-5.6c3.4-6.2-0.9-13.9-2.2-16.4c-1.1-2-2.9-5.1-6.4-7.3
	c-2.7-1.7-4.7-1.8-12.2-2.5c-13.7-1.3-20.7-2.3-24.5-2.9c-3.2-0.5-2.3-0.5-5.8-1c-18.2-2.7-23.5-2-28.3,0.6c-0.7,0.4-1.3,0.7-2,1.2
	C185.6,351.3,185,374.2,194.6,382z"/>
<linearGradient id="SVGID_8_" gradientUnits="userSpaceOnUse" x1="166.8194" y1="373.5737" x2="167.1448" y2="260.9224" gradientTransform="matrix(2.887784e-03 -1 -1 -2.887784e-03 485.2705 530.4949)">
	<stop  offset="0" style="stop-color:#363233"/>
	<stop  offset="1" style="stop-color:#000000"/>
</linearGradient>
<path class="st7" d="M114.7,379.5c3.5,6.6,9.1,9.9,11.8,11.5c14.7,8.5,32,4.2,34.6,3.6c2.3-0.6,7.4-2,15.3-3.7
	c1.9-0.4,4.4-0.9,7.5-1.4c8.1-1.3,13-1.3,19-1.9c4.3-0.4,10.6-1.1,18.4-2.4c0.5-1.7,1.2-4.2,1.8-7.2c1.1-5.7,2.9-14.3,0.8-24.3
	c-0.7-3.2-2-7.9-4.8-13.3c-9.6-1.5-17.3-2.5-22.8-3.1c-4.6-0.5-8.9-1-17.5-2.1c-7.8-1-8.1-1.1-10.8-1.4c-6.2-0.7-27-1.1-27-1.1
	c-5.4-0.1-13.2-0.8-22.9-3.6c-3.9,12-5.2,22.1-5.6,29.1C111.6,371.7,113,376.4,114.7,379.5z"/>
<linearGradient id="SVGID_9_" gradientUnits="userSpaceOnUse" x1="244.9609" y1="159.3899" x2="205.6587" y2="159.3899" gradientTransform="matrix(5.040251e-02 -0.9987 -0.9987 -5.040251e-02 466.4582 601.1664)">
	<stop  offset="0" style="stop-color:#ABABAB"/>
	<stop  offset="0.3463" style="stop-color:#D3D6D6"/>
	<stop  offset="0.8171" style="stop-color:#BDC2C7"/>
	<stop  offset="1" style="stop-color:#ABABAB"/>
</linearGradient>
<path class="st8" d="M265.2,378.4c11.2,6.4,20.6,7.9,27.4,8.1c6.4,0.1,5.9-1.1,26.4-4.4c0,0,12.8-2,28-3.6c9.6-1,7.3-0.4,15.7-1.3
	c0.3,0,2.6-0.2,3.9-0.2c2,0,5,0.3,9,2.1c0.6-0.4,4.2-3,4.9-7.7c0.6-4.2-1.3-8.4-5-11c-1.8-0.2-4.5-0.4-7.7-0.6
	c-10.1-0.8-16.4-1.1-19-1.4c-4.9-0.5-12.1-1.4-29-4.3c-18.8-3.2-19.4-3.8-29.1-5.3c-7.5-1.2-18.9-2.6-33-3.4
	C260.1,356.4,262.6,367.4,265.2,378.4z"/>
<linearGradient id="SVGID_10_" gradientUnits="userSpaceOnUse" x1="191.9011" y1="170.2653" x2="191.9011" y2="170.2653">
	<stop  offset="7.317073e-03" style="stop-color:#AAAAAA"/>
	<stop  offset="0.9317" style="stop-color:#F2F2F2"/>
</linearGradient>
<path class="st9" d="M191.9,170.3"/>
<linearGradient id="SVGID_11_" gradientUnits="userSpaceOnUse" x1="238.401" y1="130.5194" x2="238.401" y2="130.5194">
	<stop  offset="7.317073e-03" style="stop-color:#AAAAAA"/>
	<stop  offset="0.9317" style="stop-color:#F2F2F2"/>
</linearGradient>
<path class="st10" d="M238.4,130.5"/>
<linearGradient id="SVGID_12_" gradientUnits="userSpaceOnUse" x1="543.7377" y1="365.4632" x2="581.9655" y2="411.0212" gradientTransform="matrix(-5.456308e-02 0.9985 -0.9985 -5.456308e-02 465.3276 -155.194)">
	<stop  offset="0" style="stop-color:#D3D6D6"/>
	<stop  offset="0.6073" style="stop-color:#BDC2C7"/>
</linearGradient>
<path class="st11" d="M74.3,372.3c-1.9,2.7-4.3,6.2-7.2,10.2c-3.1,4.4-7.2,10-11.9,12.2c-1.2,0.5-2.5,0.9-2.5,0.9
	c-2.8,0.9-5.3,0.9-6.9,0.8c-5.6,0.1-8.4-0.3-8.5-1.1c-0.1-0.5,1-1.2,3.1-1.9c0,0-1.7-2.5-3.7-3.1c-0.9-0.2-0.8,0.1-4.5,0.4
	c-2.5,0.3-3.5,0.2-5.1,0.8c-0.6,0.2-0.7,0.3-1.7,0.8c-1.8,0.8-3.3,1.5-4.3,1.8c-0.2,0.1-1.7,1.2-3.5,0.5c-0.2,0-1.7-0.5-1.7-1.3
	c-0.1-0.8,1.7-1.3,4.6-2.7c2.8-1.5,2.6-1.9,5.1-3.2c1.9-0.9,2-0.7,5.4-2c4.8-1.8,5.3-2.5,7.6-2.7c1.4-0.1,2,0.1,5.3,0.8
	c2.6,0.5,8.2,2,10.7,1.9c2.2-0.1,6.6-1.3,11.9-10.3C69.1,374.4,71.6,373.3,74.3,372.3z"/>
<linearGradient id="SVGID_13_" gradientUnits="userSpaceOnUse" x1="549.7476" y1="383.0506" x2="577.8222" y2="416.5088" gradientTransform="matrix(-4.332769e-02 0.9643 -0.999 -4.488681e-02 461.8197 -138.5581)">
	<stop  offset="0" style="stop-color:#D3D6D6"/>
	<stop  offset="0.6073" style="stop-color:#BDC2C7"/>
</linearGradient>
<path class="st12" d="M63.1,384c-1.4,1.7-2.7,3.1-3.7,4c0,0-4.1,3.9-7.7,5.3c-0.1,0.1-0.2,0.1-0.2,0.1c-0.2,0-0.4,0.1-0.6,0.2
	c-0.8,0.3-2.2,0.8-3.8,1.4c-0.8,0.3-1.7,0.5-2.8,0.8c-1.5,0.4-2.7,0.6-4.1,0.7c-1,0.1-1.8,0.1-5.1-0.1c-3.6-0.3-5.4-0.5-7.2-0.7
	c-3.4-0.5-4.5-0.7-4.6-1.4c-0.1-0.4,0.3-0.8,0.6-1.1c1-0.9,2.4-1.1,3.4-1.1c2.9-0.1,4.5-0.1,6.4-0.2c3.2-0.3,3.7-0.7,3.8-1.2
	c0.3-0.6-0.4-1.5-0.5-1.6c-0.6-0.6-1.1-0.6-3-1.2c-1.5-0.4-1.4-0.6-2.8-0.9c-1-0.3-1.6-0.4-2.4-0.5c0,0-2.5-0.2-5.1,0.8
	c-0.6,0.2-0.7,0.3-1.7,0.8c-1.7,0.8-3.2,1.5-4.2,1.8c-0.2,0.1-1.7,1.1-3.5,0.5c-0.2-0.1-1.7-0.5-1.7-1.3c0-0.8,1.7-1.2,4.6-2.6
	c2.8-1.4,2.6-1.8,5.1-3.1c1.9-0.8,1.9-0.6,5.3-1.9c4.8-1.8,5.3-2.5,7.6-2.7c1.4-0.1,1.9,0.2,5.3,0.8c4.2,0.8,8.3,1.5,10.7,1.8
	c2.3,0.2,5.7,0.4,9.8,0C61.7,382.5,62.4,383.3,63.1,384z"/>
<linearGradient id="SVGID_14_" gradientUnits="userSpaceOnUse" x1="552.9011" y1="348.0661" x2="584.6205" y2="385.868" gradientTransform="matrix(-0.1573 0.9876 -0.9876 -0.1573 495.6487 -119.89)">
	<stop  offset="0" style="stop-color:#D3D6D6"/>
	<stop  offset="0.6073" style="stop-color:#BDC2C7"/>
</linearGradient>
<path class="st13" d="M69.2,379c-3.2,3.9-5.5,7.1-7.1,9.4c-1.6,2.3-3.2,4.7-5.8,5.1c-1.2,0.1-2.1-0.2-2.8-0.4
	c-1.5-0.3-12.1-2.2-14.1-6.1c0,0-1.4-2.7-3.4-3.5c-0.8-0.3-0.7,0-4.5-0.1c-2.6-0.1-3.6-0.2-5.2,0.2c-0.6,0.1-0.7,0.2-1.7,0.6
	c-1.8,0.7-3.4,1.2-4.4,1.4c-0.2,0-1.8,0.8-3.5,0.1c-0.1-0.1-1.5-0.7-1.5-1.5c0.1-0.8,1.9-1.1,4.9-2.2c2.9-1.2,2.8-1.6,5.4-2.5
	c2-0.7,2-0.4,5.5-1.4c4.9-1.3,5.5-2,7.8-1.9c0.4,0,0.6,0.1,0.9,0.1c2.2,0.3,4.3,1.4,4.3,1.4l0,0c0.8,0.5,1.8,0.9,3.1,1.3
	c1.9,0.4,3.5,0.6,4.8,0.6c1.4-1.8,2.9-3.8,4.4-6c1.9-2.8,3.5-5.6,4.9-8.1C63.9,369.9,66.6,374.4,69.2,379z"/>
<linearGradient id="SVGID_15_" gradientUnits="userSpaceOnUse" x1="482.3904" y1="69.1246" x2="482.3904" y2="110.4371" gradientTransform="matrix(4.862980e-02 -0.9988 -0.9988 -4.862980e-02 452.1218 855.7451)">
	<stop  offset="0" style="stop-color:#ABABAB"/>
	<stop  offset="0.3463" style="stop-color:#D3D6D6"/>
	<stop  offset="1" style="stop-color:#C5C8C9"/>
</linearGradient>
<path class="st14" d="M369.1,377.1c1.2,0.3,2.7,0.7,4.3,1.2c1.7,0.6,3.1,1.3,3.8,1.7c0.3,0.2,0.5,0.3,0.5,0.3
	c1.3,0.7,17.7,8.1,24.9,0.9c3.4-3.4,3.9-9,3.9-10c0.1-1.3,0.1-3.5-0.1-5.5c-0.1-1.4-0.2-2-0.4-2.7c-0.8-2.8-3.1-4.5-3.9-5
	c-7.2-5.1-19.4-0.2-21.3,0.6c-1,0.4-1,0.5-1.8,0.7c-5.9,1.9-11.1,0.8-13.4,0.1C366.9,365.3,368,371.2,369.1,377.1z"/>
<linearGradient id="SVGID_16_" gradientUnits="userSpaceOnUse" x1="156.1028" y1="78.5202" x2="156.1028" y2="78.5202" gradientTransform="matrix(2.887784e-03 -1 -1 -2.887784e-03 485.2705 530.4949)">
	<stop  offset="0" style="stop-color:#ABABAB"/>
	<stop  offset="0.3463" style="stop-color:#D3D6D6"/>
	<stop  offset="0.8171" style="stop-color:#BDC2C7"/>
	<stop  offset="1" style="stop-color:#ABABAB"/>
</linearGradient>
<path class="st15" d="M407.2,374.2"/>
<linearGradient id="SVGID_17_" gradientUnits="userSpaceOnUse" x1="183.1498" y1="235.3983" x2="183.1498" y2="235.3983" gradientTransform="matrix(2.887784e-03 -1 -1 -2.887784e-03 485.2705 530.4949)">
	<stop  offset="0" style="stop-color:#ABABAB"/>
	<stop  offset="0.3463" style="stop-color:#D3D6D6"/>
	<stop  offset="0.8171" style="stop-color:#BDC2C7"/>
	<stop  offset="1" style="stop-color:#ABABAB"/>
</linearGradient>
<path class="st16" d="M250.4,346.7"/>
<linearGradient id="SVGID_18_" gradientUnits="userSpaceOnUse" x1="298.9352" y1="218.9408" x2="351.7647" y2="188.4397" gradientTransform="matrix(-1 0 0 1 501.761 0)">
	<stop  offset="0" style="stop-color:#D3D6D6"/>
	<stop  offset="0.6073" style="stop-color:#BDC2C7"/>
	<stop  offset="0.878" style="stop-color:#8C8C8C"/>
</linearGradient>
<path class="st17" d="M165.5,181c3.3,1.7,6.6,3.4,9.9,5c1,0.9,2.6,2.2,4.6,3.6c4.9,3.3,9.4,4.6,11.4,5.3c13.9,4.3,20.8,6.4,20.8,7.8
	c-0.1,1.5-28.2-8.8-45.7,3.9c-4.3,3.1-6.8,6.8-8.1,8.9c-0.1-13.7-0.1-27.5-0.2-41.2C160.6,176.5,163.1,178.7,165.5,181z"/>
<linearGradient id="SVGID_19_" gradientUnits="userSpaceOnUse" x1="111.8217" y1="215.9023" x2="164.6514" y2="185.4011">
	<stop  offset="0" style="stop-color:#D3D6D6"/>
	<stop  offset="0.6073" style="stop-color:#BDC2C7"/>
	<stop  offset="0.878" style="stop-color:#8C8C8C"/>
</linearGradient>
<path class="st18" d="M141,172.6c0.1,2.1,0.2,4.3,0.2,6.6c0,2.4-0.1,4.7-0.2,6.8c-1,0.9-2.6,2.2-4.6,3.6c-4.9,3.3-9.4,4.6-11.4,5.3
	c-13.9,4.3-20.8,6.4-20.8,7.8c0.1,1.5,27.7-8.6,45.7,3.9c4.5,3.1,7.2,6.8,8.5,8.9c-0.1-13.7-0.1-27.5-0.2-41.2
	C152.5,173.7,146.7,173.2,141,172.6z"/>
<linearGradient id="SVGID_20_" gradientUnits="userSpaceOnUse" x1="330.9189" y1="439.5955" x2="379.5464" y2="439.5955" gradientTransform="matrix(-0.9965 -8.308288e-02 8.308288e-02 -0.9965 473.8111 647.6467)">
	<stop  offset="7.317073e-03" style="stop-color:#AAAAAA"/>
	<stop  offset="0.2244" style="stop-color:#AEAEAE"/>
	<stop  offset="0.4431" style="stop-color:#BABABA"/>
	<stop  offset="0.6625" style="stop-color:#CECECE"/>
	<stop  offset="0.8813" style="stop-color:#EAEAEA"/>
	<stop  offset="0.9317" style="stop-color:#F2F2F2"/>
</linearGradient>
<path class="st19" d="M173.1,183.5c4.4,5.9,6.6,8.8,6.6,10.5c-0.2,3.9-6,6.4-12.5,9.4c-8.5,3.8-16.3,7.3-25,4.4
	c-4.4-1.4-7.4-3.8-9.3-5.6c2.4-1.7,7.1-5.4,7.1-10.1c0-0.5-0.3-2.1-0.9-5.4c-0.7-4.3-1.3-5-1.6-5.4c-1.8-2.3-4.6-1.5-5.3-2.7
	c-0.7-1.3,2.7-6.9,13-13.8c6.2-4.1,15.9-9.4,30-12.7c-0.4,1-1,2.3-1.8,4.1c-1,1.9-1.6,3-2,3.9c-2.1,4.1-3,6.2-3.4,8.4
	c-0.7,4.8,0.7,8.4,0.9,9.1C169.6,179.6,170.4,180.3,173.1,183.5z"/>
<linearGradient id="SVGID_21_" gradientUnits="userSpaceOnUse" x1="345.4938" y1="450.2465" x2="386.2145" y2="484.4153" gradientTransform="matrix(-0.9948 0.1017 -0.1017 -0.9948 554.3868 580.705)">
	<stop  offset="7.317073e-03" style="stop-color:#B0B0AE"/>
	<stop  offset="0.7317" style="stop-color:#CECED3"/>
	<stop  offset="1" style="stop-color:#D4D4D8"/>
</linearGradient>
<path class="st20" d="M127.7,128.8c-2.2,2.1-3.1,4.5-4,6.6c-1.3,3-1.8,5.4-2.5,10c-0.9,5.4-0.4,6.6-0.1,7.2c1,1.9,2.4,2.2,2.7,3.9
	c0.2,1.1-0.3,2.1-1.4,4.2c-1.8,3.3-2.8,3.9-2.7,5.3c0.1,1.2,1.1,1.4,2.3,3.1c0.9,1.2,0.7,1.9,2.3,7.3c1.2,4.3,1.1,5.6,2.6,7.8
	c0.7,1,1.5,2.3,3.1,2.9c2.1,0.9,4.1,0.2,7.6-1.3c6.9-2.9,10.3-4.3,12.9-6.1c3.6-2.7,6-4.3,7.1-7.5c1-2.8,0.5-5.5,0.2-7.1
	c1.4-0.2,3.4-0.6,5.5-1.6c1.6-0.7,5.7-2.4,8.7-6.1c4.2-5.2,4.1-11.5,3.9-13.8c-0.1-2-0.4-9-5.7-14.7c-5.2-5.5-11.9-6.3-17.3-7
	c-1.4-0.2-7.6-0.8-15.1,1.3C134.5,124.5,130.7,125.6,127.7,128.8z"/>
<linearGradient id="SVGID_22_" gradientUnits="userSpaceOnUse" x1="236.2253" y1="271.4785" x2="281.4949" y2="271.4785" gradientTransform="matrix(-1.0321 0 0 0.9975 447.1907 -0.1248)">
	<stop  offset="0" style="stop-color:#363233"/>
	<stop  offset="1" style="stop-color:#000000"/>
</linearGradient>
<path class="st21" d="M195.4,195.4c1.1,5.6,2,10.1,2.6,13.3c1.2,6.5,1.6,8.9,2.7,14.9c2.4,12.3,2.4,10.4,2.6,12.7
	c0.4,5.7-0.6,7.4-2.6,25.9c-0.1,1.3-0.1,1.3-0.4,3.6c-2.7,25.3-4.9,28.5-4.6,39.7c0.2,6.5,1.1,11.8,2.8,21.6
	c1,5.8,2.1,10.6,2.9,14.1c-5.3,2.7-12.1,5.6-20.3,7.6c-9.5,2.4-18,3-24.5,2.9c0.1-5.1,0.9-70.2,0.9-75.3c0.1-4.2,0.8-66.4,0.9-70.6
	c2.6-0.4,7-1.4,11.6-4.5c6-4.1,8.9-9.4,10.1-11.9c2.5,1.3,5.4,2.6,8.6,3.8C191.1,194.2,193.3,194.9,195.4,195.4z"/>
<linearGradient id="SVGID_23_" gradientUnits="userSpaceOnUse" x1="75.6917" y1="218.6645" x2="133.8295" y2="287.9505" gradientTransform="matrix(0.9882 0.1532 -0.1532 0.9882 40.0916 -12.3776)">
	<stop  offset="0" style="stop-color:#D3D6D6"/>
	<stop  offset="0.6073" style="stop-color:#BDC2C7"/>
	<stop  offset="0.878" style="stop-color:#9C9C9C"/>
</linearGradient>
<path class="st22" d="M116.9,197.3c-1.6,0.3-4,0.7-6.8,1.7c-3.1,1.1-5.1,1.7-7.3,3.5c-2.4,1.9-3.6,3.9-5.1,6.2
	c-2.2,3.6-3.3,6.7-4.1,9.2c-0.4,1.2-0.9,2.7-1.5,5.6c0,0-0.5,2.2-0.9,4.5c-1.1,7-0.7,13.6-1.8,23.7c-0.1,1.4-0.3,2.6-0.6,5.3
	c-1.2,9.2-2.4,15.7-2.7,17.4c-0.9,5.5-2,14.2-2.3,28.7c0.6,1.4,1.7,3.5,3.8,5.1c4.4,3.4,10.6,2.5,14.5,0.2c5-3,6.6-8.3,9.9-19.3
	c1.8-6.1,2.7-11.1,3.6-16.5c2.2-13.8,1.1-13.7,2.9-21.6c1.4-6,1.9-5.7,5.2-17.6c1.9-7,3.2-10.4,3.5-14.4c0.3-4.4,0.9-13.2-4.4-18.3
	C120.7,198.6,118.4,197.8,116.9,197.3z"/>
<linearGradient id="SVGID_24_" gradientUnits="userSpaceOnUse" x1="127.5987" y1="367.549" x2="85.2384" y2="294.1786" gradientTransform="matrix(-0.9206 -0.3905 -0.3905 0.9206 307.0266 65.7933)">
	<stop  offset="0" style="stop-color:#D3D6D6"/>
	<stop  offset="0.6073" style="stop-color:#BDC2C7"/>
	<stop  offset="0.878" style="stop-color:#ABABAB"/>
</linearGradient>
<path class="st23" d="M105.9,294.2c-0.8-1.8-4.1-9.4-11.7-12.1c-2.1-0.7-3.9-0.9-5.1-0.9c-0.8,2.8-1.7,5.8-2.6,8.9
	c-1.2,3.7-2.4,7.2-3.6,10.5c-1.1,4.7-1.2,3.3-5.2,15.5c-2,5.9-3.6,11.6-5.6,18.6c-2.2,7.9-5.8,19.4-11.7,33.1c-1.1,4,0.8,8.1,4,9.5
	c2.4,1.1,5.4,0.4,7.6-1.7c5.5-7.8,8.3-12.8,9.9-15.7c2-3.7,4.2-8,4.2-8c1.7-3.3,2.4-4.5,5-9.6c4.2-8.2,7.9-16.8,12.4-24.8
	c1.8-3.3,3.9-6.9,4.3-12.1C108.2,300.2,106.5,296.2,105.9,294.2z"/>
<linearGradient id="SVGID_25_" gradientUnits="userSpaceOnUse" x1="126.1111" y1="271.4785" x2="171.3807" y2="271.4785" gradientTransform="matrix(1.0321 0 0 0.9975 -16.7252 -0.1248)">
	<stop  offset="0" style="stop-color:#363233"/>
	<stop  offset="1" style="stop-color:#000000"/>
</linearGradient>
<path class="st24" d="M121.5,195.4c-1.1,5.6-2,10.1-2.6,13.3c-1.2,6.5-1.6,8.9-2.7,14.9c-2.4,12.3-2.4,10.4-2.6,12.7
	c-0.4,5.7,0.6,7.4,2.6,25.9c0.1,1.3,0.1,1.3,0.4,3.6c2.7,25.3,4.9,28.5,4.6,39.7c-0.2,6.5-1.1,11.8-2.8,21.6
	c-1,5.8-2.1,10.6-2.9,14.1c5.3,2.7,12.1,5.6,20.3,7.6c9.5,2.4,18,3,24.5,2.9c-0.1-5.1-0.9-70.2-0.9-75.3c-0.1-4.2-0.8-66.4-0.9-70.6
	c-2.6-0.4-7-1.4-11.6-4.5c-6-4.1-8.9-9.4-10.1-11.9c-2.5,1.3-5.4,2.6-8.6,3.8C125.7,194.2,123.5,194.9,121.5,195.4z"/>
<linearGradient id="SVGID_26_" gradientUnits="userSpaceOnUse" x1="527.2803" y1="245.7469" x2="565.5081" y2="291.3049" gradientTransform="matrix(0.5842 0.8116 -0.8116 0.5842 65.8774 -236.9307)">
	<stop  offset="0" style="stop-color:#D3D6D6"/>
	<stop  offset="0.6073" style="stop-color:#BDC2C7"/>
</linearGradient>
<path class="st25" d="M180.1,335.8c0.2,3.3,0.6,7.5,0.8,12.5c0.4,5.4,0.7,12.3-1.6,17c-0.6,1.2-1.4,2.3-1.4,2.3
	c-1.6,2.5-3.5,4.1-4.8,5c-4.3,3.6-6.7,5-7.3,4.5c-0.4-0.3,0.1-1.5,1.2-3.4c0,0-2.9-0.9-4.8-0.1c-0.8,0.4-0.6,0.6-3.2,3.2
	c-1.7,1.8-2.6,2.4-3.4,3.9c-0.3,0.5-0.3,0.7-0.8,1.7c-0.9,1.8-1.6,3.2-2.2,4.1c-0.1,0.2-0.6,2-2.4,2.6c-0.2,0.1-1.7,0.7-2.1,0.1
	c-0.6-0.6,0.5-2.1,1.9-5c1.3-2.9,0.8-3.1,2-5.7c0.9-1.9,1.1-1.8,2.9-4.9c2.6-4.4,2.5-5.3,4.2-6.9c1-1,1.6-1.2,4.7-2.7
	c2.4-1.2,7.6-3.6,9.5-5.2c1.6-1.5,4.3-5.1,2.8-15.5C177.3,340.7,178.6,338.4,180.1,335.8z"/>
<linearGradient id="SVGID_27_" gradientUnits="userSpaceOnUse" x1="533.9007" y1="263.1826" x2="561.9753" y2="296.6408" gradientTransform="matrix(0.5715 0.7779 -0.8059 0.5921 73.588 -221.778)">
	<stop  offset="0" style="stop-color:#D3D6D6"/>
	<stop  offset="0.6073" style="stop-color:#BDC2C7"/>
</linearGradient>
<path class="st26" d="M178.7,352c0,2.2-0.2,4.1-0.4,5.4c0,0-0.7,5.6-2.7,8.9c0,0.1-0.1,0.2-0.1,0.2c-0.2,0.1-0.2,0.3-0.3,0.5
	c-0.4,0.7-1.2,2-2.1,3.5c-0.4,0.7-1,1.5-1.7,2.4c-0.9,1.3-1.7,2.2-2.7,3.1c-0.7,0.7-1.3,1.2-4,3.1c-3,2-4.5,3-6.1,3.9
	c-3,1.7-4,2.3-4.4,1.8c-0.3-0.3-0.3-0.8-0.2-1.2c0.2-1.4,1.2-2.3,2-3c2.2-1.9,3.4-2.9,4.9-4.2c2.3-2.3,2.4-2.9,2.2-3.3
	c-0.2-0.7-1.2-0.9-1.4-0.9c-0.9-0.1-1.3,0.2-3.1,1c-1.4,0.6-1.5,0.4-2.8,1c-1,0.4-1.5,0.7-2.2,1.1c0,0-2.1,1.4-3.4,3.9
	c-0.3,0.5-0.3,0.7-0.8,1.7c-0.8,1.7-1.6,3.2-2.1,4c-0.1,0.2-0.7,1.9-2.4,2.6c-0.2,0-1.7,0.7-2.1,0.1c-0.5-0.7,0.6-2,1.9-4.9
	c1.3-2.8,0.9-3,2.1-5.6c0.9-1.8,1.1-1.7,2.9-4.8c2.6-4.4,2.5-5.3,4.2-6.9c1-1,1.6-1,4.7-2.7c3.8-2,7.4-4.1,9.5-5.3
	c1.9-1.3,4.7-3.2,7.6-6.2C176.7,351.7,177.8,351.9,178.7,352z"/>
<linearGradient id="SVGID_28_" gradientUnits="userSpaceOnUse" x1="524.5766" y1="231.1762" x2="555.895" y2="268.5002" gradientTransform="matrix(0.4974 0.8676 -0.8676 0.4974 111.6407 -228.4776)">
	<stop  offset="0" style="stop-color:#D3D6D6"/>
	<stop  offset="0.6073" style="stop-color:#BDC2C7"/>
</linearGradient>
<path class="st27" d="M176,343.2c3.4,5.4,4.4,10.1,4.7,12.9c0.6,5.1-0.6,6.9-1.3,7.6c-0.9,0.8-1.8,1.2-2.4,1.4
	c-1.4,0.7-10.8,5.9-14.8,4.1c0,0-2.8-1.3-4.8-0.6c-0.8,0.3-0.5,0.4-3.6,2.7c-2.1,1.5-2.9,2.1-3.9,3.4c-0.4,0.5-0.4,0.6-0.9,1.6
	c-0.9,1.7-1.9,3-2.6,3.8c-0.2,0.1-0.9,1.8-2.7,2.3c-0.1,0-1.6,0.4-2.1-0.2c-0.5-0.7,0.8-2,2.4-4.8c1.5-2.7,1.2-3,2.6-5.4
	c1.1-1.8,1.3-1.6,3.4-4.5c3-4.1,3-5,4.9-6.4c0.3-0.3,0.5-0.3,0.8-0.5c1.9-1.1,4.2-1.6,4.2-1.6c1-0.1,2-0.4,3.2-1
	c1.7-0.9,3.1-1.7,4.1-2.5C170.1,351.4,173.1,347.3,176,343.2z"/>
<linearGradient id="SVGID_29_" gradientUnits="userSpaceOnUse" x1="193.8614" y1="196.1178" x2="251.9991" y2="265.4038" gradientTransform="matrix(-0.9882 0.1532 0.1532 0.9882 391.1249 -12.3776)">
	<stop  offset="0" style="stop-color:#D3D6D6"/>
	<stop  offset="0.6073" style="stop-color:#BDC2C7"/>
	<stop  offset="0.878" style="stop-color:#9C9C9C"/>
</linearGradient>
<path class="st28" d="M188.2,196.3c-5.3,5.2-4.7,13.9-4.4,18.3c0.3,4,1.6,7.5,3.5,14.4c3.3,11.9,3.8,11.6,5.2,17.6
	c1.8,7.9,0.7,7.8,2.9,21.6c0.9,5.5,1.8,10.4,3.6,16.5c3.3,11,4.9,16.3,9.9,19.3c3.9,2.3,10.1,3.2,14.5-0.2c2.1-1.6,3.2-3.7,3.8-5.1
	c-0.3-14.4-1.4-23.2-2.3-28.7c-0.3-1.7-1.5-8.2-2.7-17.4c-0.3-2.6-0.5-3.9-0.6-5.3c-1.1-10.1-0.7-16.8-1.8-23.7
	c-0.4-2.3-0.9-4.5-0.9-4.5c-0.6-2.8-1.1-4.4-1.5-5.6c-0.8-2.4-1.9-5.6-4.1-9.2c-1.5-2.3-2.7-4.3-5.1-6.2c-2.2-1.8-4.2-2.4-7.3-3.5
	c-2.8-0.9-5.2-1.4-6.8-1.7C192.6,193.6,190.3,194.4,188.2,196.3z"/>
<linearGradient id="SVGID_30_" gradientUnits="userSpaceOnUse" x1="23.1771" y1="310.6915" x2="-18.7835" y2="238.0135" gradientTransform="matrix(-0.8475 -0.5309 -0.5309 0.8475 347.0214 89.1336)">
	<stop  offset="0" style="stop-color:#D3D6D6"/>
	<stop  offset="0.6073" style="stop-color:#BDC2C7"/>
	<stop  offset="0.878" style="stop-color:#ABABAB"/>
</linearGradient>
<path class="st29" d="M228.1,284.6c-19.5-0.6-23.7,3.2-24.8,5.2c-0.4,0.6-2,3.7-2.2,4c-0.9,1.6-2.2,4.1-4.2,8
	c-2.9,5.5-5.4,10.9-8.5,17.4c-3.4,7.5-8.8,18.2-16.8,30.8c-1.7,3.8-0.5,8.1,2.5,10c2.2,1.4,5.3,1.3,7.8-0.5
	c6.7-6.8,10.2-11.3,12.3-13.9c2.6-3.3,5.4-7.2,5.4-7.2c2.2-3,3.1-4.1,6.5-8.7c5.4-7.5,10.4-15.3,16.2-22.5c2.3-2.9,4.9-6.1,6.2-11.3
	C229.4,290.9,228.4,286.7,228.1,284.6z"/>
</svg>
