<?xml version="1.0" encoding="utf-8"?>
<!-- Generator: Adobe Illustrator 22.1.0, SVG Export Plug-In . SVG Version: 6.00 Build 0)  -->
<svg version="1.1" id="Layer_1" xmlns="http://www.w3.org/2000/svg" xmlns:xlink="http://www.w3.org/1999/xlink" x="0px" y="0px"
	 viewBox="0 0 432 576" style="enable-background:new 0 0 432 576;" xml:space="preserve">
<style type="text/css">
	.st0{fill:url(#SVGID_1_);}
	.st1{fill:url(#SVGID_2_);}
	.st2{fill:url(#SVGID_3_);}
	.st3{fill:url(#SVGID_4_);}
	.st4{fill:url(#SVGID_5_);}
	.st5{fill:url(#SVGID_6_);}
	.st6{fill:url(#SVGID_7_);}
	.st7{fill:url(#SVGID_8_);}
	.st8{fill:url(#SVGID_9_);}
	.st9{fill:url(#SVGID_10_);}
	.st10{fill:url(#SVGID_11_);}
	.st11{fill:url(#SVGID_12_);}
	.st12{fill:url(#SVGID_13_);}
	.st13{fill:url(#SVGID_14_);}
	.st14{fill:url(#SVGID_15_);}
	.st15{fill:url(#SVGID_16_);}
	.st16{fill:url(#SVGID_17_);}
	.st17{fill:url(#SVGID_18_);}
	.st18{fill:url(#SVGID_19_);}
	.st19{fill:url(#SVGID_20_);}
	.st20{fill:url(#SVGID_21_);}
	.st21{fill:url(#SVGID_22_);}
</style>
<linearGradient id="SVGID_1_" gradientUnits="userSpaceOnUse" x1="488.7697" y1="112.0201" x2="488.7697" y2="150.6089" gradientTransform="matrix(4.862980e-02 -0.9988 -0.9988 -4.862980e-02 452.1218 855.7451)">
	<stop  offset="0" style="stop-color:#9C9A9C"/>
	<stop  offset="0.3463" style="stop-color:#D3D6D6"/>
	<stop  offset="1" style="stop-color:#C5C8C9"/>
</linearGradient>
<path class="st0" d="M329.2,368.4c1.2,0.3,2.7,0.7,4.3,1.2c1.7,0.6,3.1,1.3,3.8,1.7c0.2,0.1,0.4,0.2,0.5,0.3c0,0,0.1,0,0.1,0
	c0.1,0,12.9,6.9,20.5,1.1c3.6-2.7,4.4-7,5.3-11.7c0.8-4,1.8-9.4-0.9-11.7c-2.3-2-6.4-0.7-14.1,1.7c-4.7,1.5-5.9,2.4-9.6,3.5
	c-5.5,1.6-10.2,1.9-13.4,1.9c0.6,0.8,1.3,1.9,1.9,3.1C329.2,363,329.3,366.4,329.2,368.4z"/>
<linearGradient id="SVGID_2_" gradientUnits="userSpaceOnUse" x1="52.3453" y1="303.1776" x2="6.7856" y2="303.1776" gradientTransform="matrix(-0.7498 -0.6616 -0.6616 0.7498 383.7857 79.8287)">
	<stop  offset="0" style="stop-color:#ABABAB"/>
	<stop  offset="0.3463" style="stop-color:#D3D6D6"/>
	<stop  offset="0.8171" style="stop-color:#BDC2C7"/>
	<stop  offset="1" style="stop-color:#ABABAB"/>
</linearGradient>
<path class="st1" d="M150,329.3c0.5-0.1,1-0.2,1.4-0.4c7.4-2.7,10.8-7.9,19.7-21c1.3-1.9,4.8-7,11.8-16.9c1.6-2.2,3.6-5.1,4.9-7.1
	c3.4-4.9,6.2-8.8,8-11.5c0.4-0.9,1.1-2.3,1.4-4.1c0.2-0.9,0.8-4.6-0.4-8.1c-2.4-6.6-11-8.5-13.8-9.2c-2.2-0.5-5.7-1.2-9.7,0
	c-3.1,0.9-4.5,2.3-9.9,7.5c-10,9.4-15.4,14-18.3,16.5c-2.5,2.1-1.9,1.4-4.6,3.7c-14,11.9-17,16.3-18.2,21.7
	c-0.2,0.8-0.3,1.4-0.4,2.3C121,315.8,137.8,331.4,150,329.3z"/>
<linearGradient id="SVGID_3_" gradientUnits="userSpaceOnUse" x1="195.6281" y1="412.36" x2="195.9503" y2="300.8171" gradientTransform="matrix(-0.7636 -0.6457 -0.6457 0.7636 503.666 188.6695)">
	<stop  offset="0" style="stop-color:#363233"/>
	<stop  offset="1" style="stop-color:#000000"/>
</linearGradient>
<path class="st2" d="M100.4,385.9c6.3,1.9,13-0.4,16.4-1.6c16-5.8,23.8-21.8,25-24.2c1-2.1,3.2-7,7-14.1c0.9-1.7,2.1-3.9,3.8-6.6
	c4.2-7,7.4-10.8,10.8-15.8c2.5-3.5,6-8.8,10-15.6c-1-1.5-2.4-3.6-4.4-6c-3.7-4.5-9.1-11.4-18.1-16.2c-2.9-1.5-7.3-3.6-13.3-4.9
	c-7.3,6.4-13,11.6-17,15.5c-3.3,3.2-6.5,6.2-12.9,12c-5.8,5.3-6.1,5.5-8,7.4c-4.5,4.3-18.2,20-18.2,20
	C79.2,361.7,87.7,382.1,100.4,385.9z"/>
<linearGradient id="SVGID_4_" gradientUnits="userSpaceOnUse" x1="218.0703" y1="240.6295" x2="178.7681" y2="240.6295" gradientTransform="matrix(0.8327 -0.5537 -0.5537 -0.8327 179.8748 630.1646)">
	<stop  offset="0" style="stop-color:#ABABAB"/>
	<stop  offset="0.3463" style="stop-color:#D3D6D6"/>
	<stop  offset="0.8171" style="stop-color:#BDC2C7"/>
	<stop  offset="1" style="stop-color:#ABABAB"/>
</linearGradient>
<path class="st3" d="M171.8,283.1c1.5,12.8,5.9,21.3,9.8,26.8c3.7,5.2,4.4,4.1,19.2,18.6c0,0,9.2,9.1,19.6,20.4
	c6.5,7.1,4.7,5.6,10.4,11.8c0.2,0.2,1.7,2,2.5,3c1.2,1.6,2.7,4.2,3.7,8.5c0.7,0.2,4.9,1.6,9.1-0.6c3.7-2,6-6,5.9-10.6
	c-0.9-1.6-2.4-3.9-4.1-6.5c-5.4-8.6-8.9-13.8-10.2-16.1c-2.5-4.2-6.1-10.6-13.8-25.9c-8.6-17-8.5-17.9-13.1-26.5
	c-3.5-6.7-9.2-16.7-16.9-28.5C186.5,265.9,179.1,274.5,171.8,283.1z"/>
<linearGradient id="SVGID_5_" gradientUnits="userSpaceOnUse" x1="455.0665" y1="155.3789" x2="455.0665" y2="197.5317" gradientTransform="matrix(0.9991 -4.222538e-02 -4.222538e-02 -0.9991 -199.6692 556.6064)">
	<stop  offset="0" style="stop-color:#ABABAB"/>
	<stop  offset="0.3463" style="stop-color:#D3D6D6"/>
	<stop  offset="1" style="stop-color:#C5C8C9"/>
</linearGradient>
<path class="st4" d="M221.7,345.3c-0.3,2.3-0.9,5.4-2.4,8.9c-1.3,3-2.9,5.5-4.2,7.2c-2.1,4.9-2.3,8.9-2.3,11.4
	c0.1,4.1,1.1,5.5,1.5,6c0.6,0.8,1.9,1.9,6.9,2.8c7.5,1.3,13.5,0.3,15.2,0c4.1-0.8,3.9-1.3,7-1.6c5-0.6,6.5,0.7,12.6,1.5
	c10.7,1.3,12.5-1.9,21.2-1.4c0.9,0,3.1,0.2,4.7-1.2c0.9-0.8,1.7-2.3,1.4-3.4c-0.6-2-4.2-2.4-7.5-2.9c0,0-8.4-1.3-16.2-3.8
	c-4.9-1.6-10.6-3.5-15.1-8.7c-2.5-2.8-3.6-5.4-4-6.2c-2.4-5.7-1.8-11-1.3-13.3C233.2,342.1,227.5,343.7,221.7,345.3z"/>
<linearGradient id="SVGID_6_" gradientUnits="userSpaceOnUse" x1="178.1172" y1="117.5304" x2="178.1172" y2="117.5304" gradientTransform="matrix(2.887784e-03 -1 -1 -2.887784e-03 485.2705 530.4949)">
	<stop  offset="0" style="stop-color:#ABABAB"/>
	<stop  offset="0.3463" style="stop-color:#D3D6D6"/>
	<stop  offset="0.8171" style="stop-color:#BDC2C7"/>
	<stop  offset="1" style="stop-color:#ABABAB"/>
</linearGradient>
<path class="st5" d="M368.3,352"/>
<linearGradient id="SVGID_7_" gradientUnits="userSpaceOnUse" x1="-13.823" y1="295.4282" x2="-59.3827" y2="295.4282" gradientTransform="matrix(2.887784e-03 -1 -1 -2.887784e-03 485.8716 322.3607)">
	<stop  offset="0" style="stop-color:#ABABAB"/>
	<stop  offset="0.3463" style="stop-color:#D3D6D6"/>
	<stop  offset="0.8171" style="stop-color:#BDC2C7"/>
	<stop  offset="1" style="stop-color:#ABABAB"/>
</linearGradient>
<path class="st6" d="M151.7,377.3c0.4,0.3,0.8,0.6,1.2,0.8c6.9,3.8,13,2.9,28.8,1c2.3-0.3,8.4-1,20.5-2.3c2.7-0.3,6.2-0.7,8.6-1
	c5.9-0.7,10.7-1.2,13.9-1.6c1-0.3,2.5-0.7,4-1.6c0.8-0.4,4-2.4,5.8-5.6c3.4-6.2-0.9-13.9-2.2-16.4c-1.1-2-2.9-5.1-6.4-7.3
	c-2.7-1.7-4.7-1.8-12.2-2.5c-13.7-1.3-20.7-2.3-24.5-2.9c-3.2-0.5-2.3-0.5-5.8-1c-18.2-2.7-23.5-2-28.3,0.6c-0.7,0.4-1.3,0.7-2,1.2
	C142.7,346.6,142.1,369.5,151.7,377.3z"/>
<linearGradient id="SVGID_8_" gradientUnits="userSpaceOnUse" x1="171.3607" y1="416.4881" x2="171.6861" y2="303.8367" gradientTransform="matrix(2.887784e-03 -1 -1 -2.887784e-03 485.2705 530.4949)">
	<stop  offset="0" style="stop-color:#363233"/>
	<stop  offset="1" style="stop-color:#000000"/>
</linearGradient>
<path class="st7" d="M71.8,374.8c3.5,6.6,9.1,9.9,11.8,11.5c14.7,8.5,32,4.2,34.6,3.6c2.3-0.6,7.4-2,15.3-3.7
	c1.9-0.4,4.4-0.9,7.5-1.4c8.1-1.3,13-1.3,19-1.9c4.3-0.4,10.6-1.1,18.4-2.4c0.5-1.7,1.2-4.2,1.8-7.2c1.1-5.7,2.9-14.3,0.8-24.3
	c-0.7-3.2-2-7.9-4.8-13.3c-9.6-1.5-17.3-2.5-22.8-3.1c-4.6-0.5-8.9-1-17.5-2.1c-7.8-1-8.1-1.1-10.8-1.4c-6.2-0.7-27-1.1-27-1.1
	c-5.4-0.1-13.2-0.8-22.9-3.6c-3.9,12-5.2,22.1-5.6,29.1C68.7,367,70.1,371.7,71.8,374.8z"/>
<linearGradient id="SVGID_9_" gradientUnits="userSpaceOnUse" x1="247.4579" y1="202.4728" x2="208.1557" y2="202.4728" gradientTransform="matrix(5.040251e-02 -0.9987 -0.9987 -5.040251e-02 466.4582 601.1664)">
	<stop  offset="0" style="stop-color:#ABABAB"/>
	<stop  offset="0.3463" style="stop-color:#D3D6D6"/>
	<stop  offset="0.8171" style="stop-color:#BDC2C7"/>
	<stop  offset="1" style="stop-color:#ABABAB"/>
</linearGradient>
<path class="st8" d="M222.3,373.7c11.2,6.4,20.6,7.9,27.4,8.1c6.4,0.1,5.9-1.1,26.4-4.4c0,0,12.8-2,28-3.6c9.6-1,7.3-0.4,15.7-1.3
	c0.3,0,2.6-0.2,3.9-0.2c2,0,5,0.3,9,2.1c0.6-0.4,4.2-3,4.9-7.7c0.6-4.2-1.3-8.4-5-11c-1.8-0.2-4.5-0.4-7.7-0.6
	c-10.1-0.8-16.4-1.1-19-1.4c-4.9-0.5-12.1-1.4-29-4.3c-18.8-3.2-19.4-3.8-29.1-5.3c-7.5-1.2-18.9-2.6-33-3.4
	C217.2,351.7,219.7,362.7,222.3,373.7z"/>
<linearGradient id="SVGID_10_" gradientUnits="userSpaceOnUse" x1="74.0453" y1="182.5888" x2="122.7217" y2="182.5888" gradientTransform="matrix(0.9959 -9.021870e-02 9.021870e-02 0.9959 -20.6026 10.8645)">
	<stop  offset="7.317073e-03" style="stop-color:#AAAAAA"/>
	<stop  offset="0.2244" style="stop-color:#AEAEAE"/>
	<stop  offset="0.4431" style="stop-color:#BABABA"/>
	<stop  offset="0.6625" style="stop-color:#CECECE"/>
	<stop  offset="0.8813" style="stop-color:#EAEAEA"/>
	<stop  offset="0.9317" style="stop-color:#F2F2F2"/>
</linearGradient>
<path class="st9" d="M81.3,181.3c0.3-0.7,1.6-4.4,0.8-9.1c-0.4-2.3-1.4-4.3-3.4-8.4c-0.5-0.9-1.1-2-2.1-3.9c-0.8-1.7-1.4-3.1-1.8-4
	c14.1,3.2,23.9,8.4,30.1,12.5c10.4,6.8,13.8,12.4,13.1,13.7c-0.7,1.3-3.4,0.5-5.3,2.8c-0.3,0.4-0.8,1.1-1.5,5.5
	c-0.5,3.2-0.8,4.8-0.8,5.4c0,4.7,4.7,8.4,7.1,10.1c-1.8,1.7-4.9,4.2-9.2,5.7c-8.6,2.9-16.4-0.5-25-4.3c-6.6-2.9-12.4-5.4-12.6-9.3
	c-0.1-1.7,2.1-4.6,6.5-10.5C79.8,184,80.5,183.3,81.3,181.3z"/>
<linearGradient id="SVGID_11_" gradientUnits="userSpaceOnUse" x1="94.5784" y1="170.5882" x2="135.3242" y2="136.3984" gradientTransform="matrix(0.9959 -9.021870e-02 9.021870e-02 0.9959 -20.6026 10.8645)">
	<stop  offset="7.317073e-03" style="stop-color:#B0B0AE"/>
	<stop  offset="0.8137" style="stop-color:#E9E9E9"/>
	<stop  offset="0.9317" style="stop-color:#F2F2F2"/>
</linearGradient>
<path class="st10" d="M107.2,123.4c-7.8-0.7-13.7,1.1-15.1,1.5c-5.2,1.7-11.6,3.7-15.7,10.1c-4.1,6.6-3.1,13.5-2.8,15.5
	c0.3,2.3,1.3,8.5,6.5,12.8c3.7,3.1,8,4,9.8,4.3c2.3,0.5,4.2,0.5,5.6,0.5c-0.1,1.6,0,4.3,1.6,6.9c1.7,2.9,4.2,4,8.4,5.9
	c2.9,1.3,6.5,2.1,13.8,3.6c3.7,0.7,5.8,1.1,7.7-0.2c1.4-0.9,2-2.3,2.5-3.4c1.1-2.4,0.7-3.6,1.1-8.1c0.5-5.5,0.2-6.2,0.8-7.6
	c0.9-1.9,1.8-2.2,1.7-3.5c-0.1-1.4-1.3-1.8-3.6-4.7c-1.4-1.8-2.1-2.7-2.2-3.8c-0.1-1.8,1.3-2.4,1.9-4.4c0.2-0.8,0.4-2-1.5-7.1
	c-1.6-4.4-2.5-6.6-4.4-9.3c-1.3-1.9-2.7-4-5.2-5.7C114.4,124.2,110.5,123.7,107.2,123.4z"/>
<linearGradient id="SVGID_12_" gradientUnits="userSpaceOnUse" x1="149" y1="165.6" x2="149" y2="165.6">
	<stop  offset="7.317073e-03" style="stop-color:#AAAAAA"/>
	<stop  offset="0.9317" style="stop-color:#F2F2F2"/>
</linearGradient>
<path class="st11" d="M149,165.6"/>
<linearGradient id="SVGID_13_" gradientUnits="userSpaceOnUse" x1="96.2" y1="173.8" x2="96.2" y2="173.8">
	<stop  offset="7.317073e-03" style="stop-color:#AAAAAA"/>
	<stop  offset="0.9317" style="stop-color:#F2F2F2"/>
</linearGradient>
<path class="st12" d="M96.2,173.8"/>
<linearGradient id="SVGID_14_" gradientUnits="userSpaceOnUse" x1="63.0397" y1="261.0276" x2="132.0315" y2="261.0276" gradientTransform="matrix(0.9959 -9.021870e-02 9.262332e-02 1.0225 -20.8694 7.9182)">
	<stop  offset="0" style="stop-color:#363233"/>
	<stop  offset="1" style="stop-color:#000000"/>
</linearGradient>
<path class="st13" d="M74.8,191c1.7,1.8,4.8,4.6,9.6,6.2c3.7,1.2,6.8,1,10.1,0.8c3.8-0.2,9.7-1.1,16.5-3.9
	c3.1,3.3,6.9,7.9,10.5,13.9c1,1.7,4.2,7.2,7,15.3c1.3,3.8,3.1,9.8,4.3,18.4c1.8,13.5,0.1,18,0.2,38.3c0,3.5,0.3,9.5,0.8,21.5
	c0.6,15.1,1.3,27.5,1.8,36.2c-7.1,2.2-16.5,4.3-27.6,4.9c-14.8,0.7-27-1.5-35.5-3.8c0.6-2.7,1.4-6.7,2-11.6c0.6-5,1.9-17.2,0.3-33.5
	c-0.5-5.2-1.2-8.8-2.3-15.3c-4.6-25.6-7.8-28.9-9.1-44.3c-1.5-17.8,1.6-26.2,2.7-28.8C68.6,198.6,72.2,193.9,74.8,191z"/>
<linearGradient id="SVGID_15_" gradientUnits="userSpaceOnUse" x1="61.8163" y1="227.2268" x2="116.9439" y2="292.9254" gradientTransform="matrix(0.9882 0.1532 -0.1532 0.9882 40.0916 -12.3776)">
	<stop  offset="0" style="stop-color:#D3D6D6"/>
	<stop  offset="0.6073" style="stop-color:#BDC2C7"/>
	<stop  offset="0.878" style="stop-color:#9C9C9C"/>
</linearGradient>
<path class="st14" d="M100.7,204.6c-1.6,0.3-4,0.7-6.8,1.6c-3.1,1-5.1,1.6-7.3,3.3c-2.4,1.8-3.6,3.7-5.1,5.9
	c-2.2,3.4-3.3,6.4-4.1,8.7c-0.4,1.1-0.9,2.6-1.5,5.3c0,0-0.5,2.1-0.9,4.3c-1.1,6.6-0.7,12.9-1.8,22.5c-0.1,1.3-0.3,2.5-0.6,5
	c-1.2,8.7-2.4,14.9-2.7,16.5c-0.9,5.2-2,13.5-2.3,27.2c0.6,1.3,1.7,3.3,3.8,4.8c4.4,3.2,10.6,2.4,14.5,0.2c5-2.8,6.6-7.9,9.9-18.3
	c1.8-5.8,2.7-10.5,3.6-15.7c2.2-13.1,1.1-13,2.9-20.5c1.4-5.7,1.9-5.4,5.2-16.7c1.9-6.6,3.2-9.9,3.5-13.7c0.3-4.2,0.9-12.5-4.4-17.4
	C104.5,205.8,102.2,205,100.7,204.6z"/>
<linearGradient id="SVGID_16_" gradientUnits="userSpaceOnUse" x1="125.1873" y1="365.7651" x2="84.1545" y2="294.6941" gradientTransform="matrix(0.9206 -0.3905 0.3905 0.9206 -129.6591 65.7933)">
	<stop  offset="0" style="stop-color:#D3D6D6"/>
	<stop  offset="0.6073" style="stop-color:#BDC2C7"/>
	<stop  offset="0.878" style="stop-color:#ABABAB"/>
</linearGradient>
<path class="st15" d="M67.8,306.6c0.4,5,2.5,8.4,4.3,11.5c4.5,7.6,8.2,15.7,12.4,23.5c2.6,4.8,3.3,6,5,9.1c0,0,2.2,4.1,4.2,7.6
	c1.6,2.8,4.4,7.5,9.9,14.9c2.2,2,5.2,2.6,7.6,1.6c3.2-1.3,5.1-5.2,4-9c-5.9-13-9.5-23.9-11.7-31.4c-2-6.6-3.6-12-5.6-17.6
	c-4-11.6-4.1-10.2-5.2-14.7c-1.2-3.2-2.4-6.5-3.6-10c-0.9-2.9-1.8-5.7-2.6-8.4c-1.2,0-3,0.2-5.1,0.9c-7.6,2.6-10.9,9.8-11.7,11.5
	C69.1,298,67.4,301.8,67.8,306.6z"/>
<linearGradient id="SVGID_17_" gradientUnits="userSpaceOnUse" x1="540.9156" y1="364.35" x2="578.7144" y2="409.3967" gradientTransform="matrix(5.456308e-02 0.9985 0.9985 -5.456308e-02 -287.9601 -155.194)">
	<stop  offset="0" style="stop-color:#D3D6D6"/>
	<stop  offset="0.6073" style="stop-color:#BDC2C7"/>
</linearGradient>
<path class="st16" d="M109.1,373.2c5.3,8.6,9.7,9.7,11.9,9.8c2.5,0.1,8.1-1.3,10.7-1.8c3.3-0.7,3.9-0.9,5.3-0.8
	c2.3,0.2,2.8,0.9,7.6,2.6c3.4,1.2,3.5,1,5.4,1.9c2.5,1.2,2.3,1.6,5.1,3c2.9,1.4,4.7,1.8,4.6,2.6c0,0.7-1.5,1.2-1.7,1.2
	c-1.8,0.6-3.3-0.4-3.5-0.5c-1-0.3-2.5-0.9-4.3-1.7c-1-0.5-1.1-0.6-1.7-0.8c-1.6-0.6-2.6-0.5-5.1-0.8c-3.7-0.3-3.6-0.6-4.5-0.4
	c-2,0.5-3.7,2.9-3.7,2.9c2.1,0.7,3.2,1.3,3.1,1.8c-0.1,0.7-2.9,1.1-8.5,1c-1.6,0.1-4.1,0.1-6.9-0.8c0,0-1.3-0.4-2.5-0.9
	c-4.7-2.1-8.8-7.4-11.9-11.6c-2.9-3.8-5.3-7.1-7.2-9.7C104,371.2,106.5,372.2,109.1,373.2z"/>
<linearGradient id="SVGID_18_" gradientUnits="userSpaceOnUse" x1="546.7148" y1="381.5498" x2="574.6696" y2="414.8652" gradientTransform="matrix(4.332769e-02 0.9643 0.999 -4.488681e-02 -284.4522 -138.5581)">
	<stop  offset="0" style="stop-color:#D3D6D6"/>
	<stop  offset="0.6073" style="stop-color:#BDC2C7"/>
</linearGradient>
<path class="st17" d="M114.6,379.1c4.1,0.4,7.5,0.2,9.8,0c2.4-0.3,6.5-0.9,10.7-1.7c3.4-0.6,3.9-0.9,5.3-0.8
	c2.3,0.2,2.8,0.9,7.6,2.6c3.4,1.2,3.4,1,5.3,1.8c2.5,1.2,2.3,1.6,5.1,2.9c2.9,1.4,4.6,1.7,4.6,2.5c0,0.7-1.5,1.1-1.7,1.2
	c-1.8,0.5-3.3-0.4-3.5-0.5c-1-0.3-2.5-0.9-4.2-1.7c-1-0.5-1.1-0.6-1.7-0.8c-2.6-1-5.1-0.8-5.1-0.8c-0.8,0.1-1.4,0.2-2.4,0.5
	c-1.4,0.3-1.3,0.5-2.8,0.9c-1.9,0.5-2.4,0.5-3,1.1c-0.1,0.1-0.8,0.9-0.5,1.5c0.1,0.4,0.6,0.8,3.8,1.1c1.9,0.1,3.5,0.1,6.4,0.2
	c1,0,2.4,0.1,3.4,1c0.3,0.2,0.7,0.6,0.6,1c-0.1,0.6-1.2,0.8-4.6,1.3c-1.8,0.2-3.6,0.4-7.2,0.7c-3.3,0.2-4.1,0.2-5.1,0.1
	c-1.4-0.1-2.6-0.3-4.1-0.7c-1.1-0.3-2-0.5-2.8-0.8c-1.6-0.5-3-1-3.8-1.3c-0.2-0.1-0.4-0.2-0.6-0.2c0,0-0.1,0-0.2-0.1
	c-3.6-1.3-7.7-5-7.7-5c-1-0.9-2.3-2.2-3.7-3.8C113.2,380.7,113.9,379.9,114.6,379.1z"/>
<linearGradient id="SVGID_19_" gradientUnits="userSpaceOnUse" x1="550.0139" y1="347.0652" x2="581.5469" y2="384.6449" gradientTransform="matrix(0.1573 0.9876 0.9876 -0.1573 -318.2811 -119.89)">
	<stop  offset="0" style="stop-color:#D3D6D6"/>
	<stop  offset="0.6073" style="stop-color:#BDC2C7"/>
</linearGradient>
<path class="st18" d="M114.4,363.7c1.4,2.4,3,5,4.9,7.7c1.5,2.1,3,4,4.4,5.7c1.3,0,2.9-0.2,4.8-0.6c1.3-0.3,2.3-0.7,3.1-1.2l0,0
	c0,0,2.1-1,4.3-1.3c0.3,0,0.5-0.1,0.9-0.1c2.3-0.1,2.9,0.6,7.8,1.8c3.5,0.9,3.5,0.6,5.5,1.3c2.6,0.9,2.5,1.3,5.4,2.4
	c3,1.1,4.8,1.3,4.9,2.1c0,0.7-1.4,1.3-1.5,1.4c-1.7,0.7-3.3-0.1-3.5-0.1c-1-0.2-2.6-0.6-4.4-1.3c-1-0.4-1.1-0.5-1.7-0.6
	c-1.6-0.4-2.6-0.3-5.2-0.2c-3.8,0.1-3.7-0.2-4.5,0.1c-2,0.7-3.4,3.3-3.4,3.3c-2,3.7-12.6,5.5-14.1,5.8c-0.7,0.2-1.6,0.5-2.8,0.4
	c-2.6-0.3-4.2-2.6-5.8-4.8c-1.6-2.2-3.9-5.2-7.1-8.9C109,372.2,111.7,367.9,114.4,363.7z"/>
<linearGradient id="SVGID_20_" gradientUnits="userSpaceOnUse" x1="484.9639" y1="112.2026" x2="484.9639" y2="153.515" gradientTransform="matrix(4.862980e-02 -0.9988 -0.9988 -4.862980e-02 452.1218 855.7451)">
	<stop  offset="0" style="stop-color:#ABABAB"/>
	<stop  offset="0.3463" style="stop-color:#D3D6D6"/>
	<stop  offset="1" style="stop-color:#C5C8C9"/>
</linearGradient>
<path class="st19" d="M326.2,372.4c1.2,0.3,2.7,0.7,4.3,1.2c1.7,0.6,3.1,1.3,3.8,1.7c0.3,0.2,0.5,0.3,0.5,0.3
	c1.3,0.7,17.7,8.1,24.9,0.9c3.4-3.4,3.9-9,3.9-10c0.1-1.3,0.1-3.5-0.1-5.5c-0.1-1.4-0.2-2-0.4-2.7c-0.8-2.8-3.1-4.5-3.9-5
	c-7.2-5.1-19.4-0.2-21.3,0.6c-1,0.4-1,0.5-1.8,0.7c-5.9,1.9-11.1,0.8-13.4,0.1C324,360.6,325.1,366.5,326.2,372.4z"/>
<linearGradient id="SVGID_21_" gradientUnits="userSpaceOnUse" x1="160.6442" y1="121.4344" x2="160.6442" y2="121.4344" gradientTransform="matrix(2.887784e-03 -1 -1 -2.887784e-03 485.2705 530.4949)">
	<stop  offset="0" style="stop-color:#ABABAB"/>
	<stop  offset="0.3463" style="stop-color:#D3D6D6"/>
	<stop  offset="0.8171" style="stop-color:#BDC2C7"/>
	<stop  offset="1" style="stop-color:#ABABAB"/>
</linearGradient>
<path class="st20" d="M364.3,369.5"/>
<linearGradient id="SVGID_22_" gradientUnits="userSpaceOnUse" x1="187.6911" y1="278.3125" x2="187.6911" y2="278.3125" gradientTransform="matrix(2.887784e-03 -1 -1 -2.887784e-03 485.2705 530.4949)">
	<stop  offset="0" style="stop-color:#ABABAB"/>
	<stop  offset="0.3463" style="stop-color:#D3D6D6"/>
	<stop  offset="0.8171" style="stop-color:#BDC2C7"/>
	<stop  offset="1" style="stop-color:#ABABAB"/>
</linearGradient>
<path class="st21" d="M207.5,342"/>
</svg>
