<?xml version="1.0" encoding="utf-8"?>
<!-- Generator: Adobe Illustrator 22.1.0, SVG Export Plug-In . SVG Version: 6.00 Build 0)  -->
<svg version="1.1" id="Layer_1" xmlns="http://www.w3.org/2000/svg" xmlns:xlink="http://www.w3.org/1999/xlink" x="0px" y="0px"
	 viewBox="0 0 576 432" style="enable-background:new 0 0 576 432;" xml:space="preserve">
<style type="text/css">
	.st0{fill:url(#SVGID_1_);}
	.st1{fill:url(#SVGID_2_);}
	.st2{fill:url(#SVGID_3_);}
	.st3{fill:url(#SVGID_4_);}
	.st4{fill:url(#SVGID_5_);}
	.st5{fill:url(#SVGID_6_);}
	.st6{fill:url(#SVGID_7_);}
	.st7{fill:url(#SVGID_8_);}
	.st8{fill:url(#SVGID_9_);}
	.st9{fill:url(#SVGID_10_);}
	.st10{fill:url(#SVGID_11_);}
	.st11{fill:url(#SVGID_12_);}
	.st12{fill:url(#SVGID_13_);}
	.st13{fill:url(#SVGID_14_);}
	.st14{fill:url(#SVGID_15_);}
	.st15{fill:url(#SVGID_16_);}
</style>
<linearGradient id="SVGID_1_" gradientUnits="userSpaceOnUse" x1="158.0073" y1="142.2249" x2="206.6617" y2="142.2249" gradientTransform="matrix(-0.4262 0.9046 -0.9046 -0.4262 618.1718 86.1367)">
	<stop  offset="7.317073e-03" style="stop-color:#AAAAAA"/>
	<stop  offset="0.2244" style="stop-color:#AEAEAE"/>
	<stop  offset="0.4431" style="stop-color:#BABABA"/>
	<stop  offset="0.6625" style="stop-color:#CECECE"/>
	<stop  offset="0.8813" style="stop-color:#EAEAEA"/>
	<stop  offset="0.9317" style="stop-color:#F2F2F2"/>
</linearGradient>
<path class="st0" d="M420.3,180.8c0.5,0.6,3,3.6,7.4,5.3c2.1,0.8,4.5,1,9,1.3c1.1,0.1,2.3,0.1,4.4,0.2c1.9,0.1,3.4,0.3,4.4,0.5
	c-9.8,10.5-19.3,16.3-26,19.6c-11.1,5.5-17.7,5.6-18.5,4.4c-0.8-1.2,1.3-3.2,0.2-6c-0.2-0.5-0.6-1.3-4-4.1c-2.5-2.1-3.8-3.2-4.3-3.5
	c-4-2.3-9.7-0.2-12.3,1c-0.6-2.4-1.2-6.3-0.3-10.8c1.9-8.9,8.7-13.9,16.3-19.4c5.9-4.3,10.9-7.9,14.4-6.2c1.5,0.8,2.9,4.1,5.8,10.9
	C418.7,178.2,418.9,179.2,420.3,180.8z"/>
<linearGradient id="SVGID_2_" gradientUnits="userSpaceOnUse" x1="178.5781" y1="130.3447" x2="219.324" y2="96.1548" gradientTransform="matrix(-0.4262 0.9046 -0.9046 -0.4262 618.1718 86.1367)">
	<stop  offset="7.317073e-03" style="stop-color:#B0B0AE"/>
	<stop  offset="1" style="stop-color:#E5E6E6"/>
</linearGradient>
<path class="st1" d="M457.1,232.5c4.5-6.3,6-12.4,6.3-13.8c1.2-5.3,2.7-11.9-0.8-18.6c-3.6-6.9-10.1-9.5-11.9-10.2
	c-2.1-0.8-8-3.1-14.3-0.9c-4.5,1.6-7.5,4.9-8.7,6.2c-1.5,1.7-2.6,3.4-3.2,4.6c-1.3-0.9-3.7-2.2-6.8-2.1c-3.4,0-5.6,1.6-9.4,4.2
	c-2.6,1.8-5.1,4.6-10.1,10.1c-2.5,2.8-3.9,4.5-3.8,6.7c0.1,1.7,1,2.9,1.7,3.9c1.5,2.2,2.8,2.4,6.5,5.1c4.5,3.3,5.3,3.3,6.1,4.6
	c1.2,1.7,1,2.7,2.2,3.2c1.3,0.6,2.2-0.2,5.9-0.7c2.3-0.3,3.4-0.5,4.4,0c1.6,0.8,1.4,2.3,2.8,3.9c0.5,0.6,1.5,1.4,6.8,2.3
	c4.6,0.8,6.9,1.2,10.2,1c2.3-0.2,4.8-0.3,7.6-1.6C452.8,238.4,455.1,235.2,457.1,232.5z"/>
<linearGradient id="SVGID_3_" gradientUnits="userSpaceOnUse" x1="199.8969" y1="85.1254" x2="199.8969" y2="85.1254" gradientTransform="matrix(0.2045 0.9789 -0.9789 0.2045 525.0074 -49.0906)">
	<stop  offset="7.317073e-03" style="stop-color:#AAAAAA"/>
	<stop  offset="0.9317" style="stop-color:#F2F2F2"/>
</linearGradient>
<path class="st2" d="M482.6,164"/>
<linearGradient id="SVGID_4_" gradientUnits="userSpaceOnUse" x1="147.0636" y1="93.2921" x2="147.0636" y2="93.2921" gradientTransform="matrix(0.2045 0.9789 -0.9789 0.2045 525.0074 -49.0906)">
	<stop  offset="7.317073e-03" style="stop-color:#AAAAAA"/>
	<stop  offset="0.9317" style="stop-color:#F2F2F2"/>
</linearGradient>
<path class="st3" d="M463.8,113.9"/>
<linearGradient id="SVGID_5_" gradientUnits="userSpaceOnUse" x1="-17.9526" y1="361.5903" x2="-63.4848" y2="361.5903" gradientTransform="matrix(0.8193 0.5734 -0.5734 0.8193 464.2839 -80.7609)">
	<stop  offset="0" style="stop-color:#ABABAB"/>
	<stop  offset="0.3463" style="stop-color:#D3D6D6"/>
	<stop  offset="0.8171" style="stop-color:#BDC2C7"/>
	<stop  offset="1" style="stop-color:#ABABAB"/>
</linearGradient>
<path class="st4" d="M229.9,149.5c-0.5,0.1-0.9,0.3-1.4,0.5c-7,3.5-9.8,9-17.2,23c-1.1,2.1-4,7.5-9.8,18.2c-1.3,2.4-3,5.5-4.1,7.6
	c-2.8,5.2-5.1,9.5-6.6,12.3c-0.4,1-0.8,2.4-1,4.2c-0.1,0.9-0.3,4.6,1.3,7.9c3.1,6.4,11.9,7.3,14.7,7.5c2.3,0.2,5.8,0.6,9.7-1.1
	c2.9-1.3,4.2-2.9,9-8.6c8.9-10.5,13.7-15.7,16.3-18.5c2.3-2.4,1.7-1.6,4.1-4.2c12.6-13.4,15-18.2,15.7-23.6c0.1-0.8,0.2-1.4,0.2-2.4
	C260.2,159.6,241.8,146,229.9,149.5z"/>
<linearGradient id="SVGID_6_" gradientUnits="userSpaceOnUse" x1="128.9508" y1="300.9809" x2="197.2453" y2="300.9809" gradientTransform="matrix(0.8193 0.5734 -0.5734 0.8193 293.7614 -200.1021)">
	<stop  offset="0" style="stop-color:#363233"/>
	<stop  offset="1" style="stop-color:#000000"/>
</linearGradient>
<path class="st5" d="M287.1,92.2c-2.2-1.2-19.8-10.5-34-2.9c-4.2,2.3-7.4,5.7-9.5,8c-5.8,6.2-8.5,12.5-9.6,15.2
	c-2.3,5.5-3,10.1-3.5,12.8c-0.6,3.5-0.8,6.6-0.9,8.9c-0.7,1.6-1.8,4-3.2,6.9c-3.5,7.3-6.3,11.6-9.3,16.7c-2.2,3.8-5.2,9.3-8.5,16.5
	c1.1,1.4,2.7,3.4,4.8,5.6c4,4.2,10.1,10.5,19.4,14.6c3,1.3,7.6,2.9,13.7,3.6c6.7-7,12-12.8,15.6-16.9c3.1-3.5,5.9-6.7,11.7-13.2
	c5.2-5.8,5.5-6.1,7.3-8.1c10.3-11.7,16.3-21.5,16.3-21.5c3-5.1,6.8-12.7,9.6-23C305.5,111,300.1,99.2,287.1,92.2z"/>
<linearGradient id="SVGID_7_" gradientUnits="userSpaceOnUse" x1="383.1508" y1="386.3264" x2="343.9458" y2="386.3264" gradientTransform="matrix(0.7023 0.7119 -0.7119 0.7023 187.323 -279.7821)">
	<stop  offset="0" style="stop-color:#ABABAB"/>
	<stop  offset="0.3463" style="stop-color:#D3D6D6"/>
	<stop  offset="0.8171" style="stop-color:#BDC2C7"/>
	<stop  offset="1" style="stop-color:#ABABAB"/>
</linearGradient>
<path class="st6" d="M195.8,204.4c-12.3,4-19.8,9.8-24.4,14.7c-4.4,4.7-3.1,5.1-14.6,22.4c0,0-7.2,10.8-16.2,23
	c-5.7,7.7-4.6,5.7-9.7,12.5c-0.2,0.3-1.6,2.1-2.5,3.1c-1.3,1.5-3.6,3.5-7.6,5.2c-0.1,0.7-0.7,5,2.4,8.8c3.5,4.3,8.8,4.1,9.4,4
	c1.9-1.2,4.6-3.1,7.8-5.5c6.4-5,8.5-8.3,13.9-13.1c3.7-3.3,9.2-8,22.7-18.5c12-9.3,15-11.2,19.6-14.8c0,0,2-1.5,4-3.1
	c4.4-3.5,12.5-10.5,22.6-20c-0.4-1.9-2.1-9.1-8.9-14.3C206.2,202.9,197.4,204.1,195.8,204.4z"/>
<linearGradient id="SVGID_8_" gradientUnits="userSpaceOnUse" x1="275.0338" y1="293.8083" x2="233.3051" y2="221.5321" gradientTransform="matrix(0.9985 -5.524063e-02 5.524063e-02 0.9985 112.3599 40.1938)">
	<stop  offset="0" style="stop-color:#D3D6D6"/>
	<stop  offset="0.6073" style="stop-color:#BDC2C7"/>
	<stop  offset="0.878" style="stop-color:#ABABAB"/>
</linearGradient>
<path class="st7" d="M364.4,250.2c-1.3,5-0.5,9,0.2,12.6c1.6,8.9,2.4,18,3.8,27c1.3,8.5,1.1,7.2,2.9,19.4c1,6.2,1.9,12.4,2.9,18.5
	c1.8,2.7,4.9,4,8,3.5c3.5-0.6,6.3-3.5,6.8-7.3c-1.1-14.6-0.8-26.4-0.4-34.4c0.4-7.1,0.7-12.8,0.7-19c0.1-12.6-0.4-11.3,0.1-16
	c0.4-0.9,2.5-6.3,0-11c-3.6-6.8-14.5-7.5-18.8-3.6c-0.2,0.2-0.3,0.3-0.7,0.7C368.5,242.3,365.6,245.4,364.4,250.2z"/>
<linearGradient id="SVGID_9_" gradientUnits="userSpaceOnUse" x1="293.103" y1="447.8317" x2="293.103" y2="447.8317" gradientTransform="matrix(0.6542 0.7563 -0.7563 0.6542 281.9365 -210.6293)">
	<stop  offset="0" style="stop-color:#ABABAB"/>
	<stop  offset="0.3463" style="stop-color:#D3D6D6"/>
	<stop  offset="0.8171" style="stop-color:#BDC2C7"/>
	<stop  offset="1" style="stop-color:#ABABAB"/>
</linearGradient>
<path class="st8" d="M135,304"/>
<linearGradient id="SVGID_10_" gradientUnits="userSpaceOnUse" x1="198.3393" y1="381.4873" x2="198.3393" y2="381.4873" gradientTransform="matrix(4.902260e-03 1 -1 4.902260e-03 568.6117 -22.3111)">
	<stop  offset="0" style="stop-color:#ABABAB"/>
	<stop  offset="0.3463" style="stop-color:#D3D6D6"/>
	<stop  offset="0.8171" style="stop-color:#BDC2C7"/>
	<stop  offset="1" style="stop-color:#ABABAB"/>
</linearGradient>
<path class="st9" d="M188.1,177.9"/>
<linearGradient id="SVGID_11_" gradientUnits="userSpaceOnUse" x1="146.2022" y1="219.8924" x2="214.512" y2="219.8924" gradientTransform="matrix(-0.4262 0.9046 -0.9287 -0.4376 619.1119 86.5797)">
	<stop  offset="0" style="stop-color:#363233"/>
	<stop  offset="1" style="stop-color:#000000"/>
</linearGradient>
<path class="st10" d="M415.2,170.4c-2.4,0.5-6.4,1.8-10.2,5.2c-2.9,2.6-4.3,5.3-5.8,8.3c-1.7,3.4-4,8.9-5,16.2
	c-9.2,0.5-17.3,0.4-23.8,0c-5.2-0.3-7.9-0.4-11.1-1c-2-0.4-11.1-2.2-22.5-8.7c-2.4-1.4-2.7-1.7-4.6-3.1c-1.4-1-2.5-1.7-5.4-3.7
	c-9.3-6-12.2-8.1-16.6-10.8c-5-3-8.7-4.8-18-9c-9.5-4.3-21-9.5-34.3-15.3c1.7-7.2,4.6-16.4,9.8-26.2c6.8-13.1,15-22.5,21.3-28.7
	c2,1.9,5,4.6,9,7.6c11.7,8.7,23,13,32.6,16.6c0.9,0.3,5.4,1.9,14.5,5c3.9,1.3,9,3,15.7,5.4c9.8,3.4,14,4.9,19.9,7.7
	c8.6,4.1,15,7.2,21.3,13.4C405.6,152.7,411.4,159.4,415.2,170.4z"/>
<linearGradient id="SVGID_12_" gradientUnits="userSpaceOnUse" x1="146.4633" y1="187.9501" x2="202.9399" y2="255.2563" gradientTransform="matrix(0.9996 -2.995535e-02 2.995535e-02 0.9996 196.1587 -1.0676)">
	<stop  offset="0" style="stop-color:#D3D6D6"/>
	<stop  offset="0.6073" style="stop-color:#BDC2C7"/>
	<stop  offset="0.878" style="stop-color:#9C9C9C"/>
</linearGradient>
<path class="st11" d="M379.5,158.6c-1.6,0.6-3.8,1.5-6.4,2.9c-2.8,1.6-4.7,2.6-6.6,4.7c-2,2.2-2.9,4.4-3.9,6.9
	c-1.5,3.8-2,7.1-2.4,9.6c-0.2,1.2-0.4,2.8-0.5,5.6c0,0-0.1,2.3-0.1,4.5c0.1,6.9,1.7,13.1,2.4,23.1c0.1,1.3,0.2,2.6,0.3,5.1
	c0.4,9,0.4,15.5,0.4,17.2c0,5.4,0.5,14,2.7,27.9c0.8,1.2,2.2,3,4.6,4.2c4.9,2.4,10.9,0.4,14.3-2.5c4.4-3.7,5.1-9.3,6.4-20.3
	c0.7-6.2,0.7-11.1,0.6-16.5c-0.2-13.6-1.3-13.4-0.9-21.3c0.3-6.1,0.9-5.8,2.1-17.9c0.7-7.1,1.3-10.6,0.9-14.6
	c-0.5-4.3-1.4-12.8-7.5-16.7C383.5,159.1,381.1,158.7,379.5,158.6z"/>
<linearGradient id="SVGID_13_" gradientUnits="userSpaceOnUse" x1="641.0846" y1="220.6333" x2="677.061" y2="263.5082" gradientTransform="matrix(1.274212e-02 0.9999 0.9999 -1.274212e-02 144.1641 -322.5111)">
	<stop  offset="0" style="stop-color:#D3D6D6"/>
	<stop  offset="0.6073" style="stop-color:#BDC2C7"/>
</linearGradient>
<path class="st12" d="M372.4,316.2c6,14.2,11.2,15.6,13.3,15.6c1.9,0.1,7.9-1,10.8-1.5c3.3-0.6,3.9-0.8,5.3-0.6
	c2.3,0.3,2.8,1.1,7.5,3.1c3.3,1.4,3.5,1.2,5.3,2.3c2.4,1.4,2.2,1.8,5,3.5c2.8,1.6,4.6,2.2,4.5,3c0,0.8-1.6,1.2-1.8,1.2
	c-1.8,0.6-3.3-0.6-3.5-0.7c-1-0.4-2.5-1.1-4.2-2c-1-0.6-1.1-0.7-1.7-0.9c-1.6-0.7-2.6-0.7-5.1-1.1c-3.7-0.5-3.6-0.8-4.5-0.6
	c-2,0.5-3.8,3-3.8,3c2.1,0.8,3.1,1.5,3,2.1c-0.1,0.8-2.9,1.1-8.5,0.7c-1.6,0-4.1-0.1-6.9-1.2c-0.9-0.3-1.7-0.7-2.5-1.1
	C374.5,335.6,372.7,320.9,372.4,316.2z"/>
<linearGradient id="SVGID_14_" gradientUnits="userSpaceOnUse" x1="646.1858" y1="235.642" x2="674.3552" y2="269.2131" gradientTransform="matrix(2.947360e-03 0.9653 1 -3.053406e-03 147.6947 -302.5264)">
	<stop  offset="0" style="stop-color:#D3D6D6"/>
	<stop  offset="0.6073" style="stop-color:#BDC2C7"/>
</linearGradient>
<path class="st13" d="M379.4,327.4c4.1,0.6,7.5,0.5,9.8,0.4c2.4-0.2,6.5-0.7,10.8-1.4c3.4-0.5,3.9-0.8,5.3-0.6
	c2.3,0.3,2.8,1.1,7.5,3.1c3.3,1.4,3.4,1.2,5.2,2.2c2.4,1.4,2.2,1.8,5,3.4c2.8,1.6,4.5,2,4.5,2.9c0,0.8-1.5,1.1-1.8,1.2
	c-1.8,0.5-3.3-0.6-3.5-0.7c-1-0.4-2.5-1.1-4.1-2c-1-0.6-1.1-0.7-1.7-0.9c-2.6-1.2-5.1-1.1-5.1-1.1c-0.8,0.1-1.4,0.2-2.4,0.4
	c-1.4,0.3-1.3,0.5-2.8,0.9c-1.9,0.5-2.4,0.4-3,1.1c-0.1,0.1-0.8,0.9-0.6,1.6c0.1,0.4,0.6,0.9,3.7,1.4c1.9,0.2,3.5,0.3,6.4,0.5
	c1,0,2.4,0.2,3.4,1.2c0.3,0.2,0.7,0.7,0.6,1.1c-0.1,0.6-1.2,0.8-4.7,1.2c-1.8,0.1-3.6,0.3-7.2,0.4c-3.3,0.1-4.1,0-5.1-0.1
	c-1.4-0.2-2.6-0.4-4.1-0.9c-1.1-0.4-2-0.6-2.8-1c-1.6-0.6-3-1.2-3.7-1.6c-0.2-0.1-0.4-0.2-0.6-0.2c0,0-0.1,0-0.2-0.1
	c-3.5-1.6-7.5-5.7-7.5-5.7c-1-1-2.2-2.5-3.5-4.3C377.9,329,378.6,328.2,379.4,327.4z"/>
<linearGradient id="SVGID_15_" gradientUnits="userSpaceOnUse" x1="639.3357" y1="198.086" x2="671.5208" y2="236.4428" gradientTransform="matrix(0.1158 0.9933 0.9933 -0.1158 104.3981 -295.3456)">
	<stop  offset="0" style="stop-color:#D3D6D6"/>
	<stop  offset="0.6073" style="stop-color:#BDC2C7"/>
</linearGradient>
<path class="st14" d="M379.9,310.7c1.3,2.7,2.8,5.5,4.6,8.5c1.4,2.3,2.8,4.5,4.1,6.4c1.3,0.1,2.9-0.1,4.8-0.4
	c1.3-0.3,2.3-0.7,3.2-1.2c0,0,2.1-1,4.4-1.2c0.3,0,0.5-0.1,0.9-0.1c2.3,0,2.9,0.8,7.7,2.3c3.5,1.1,3.5,0.8,5.4,1.6
	c2.6,1.1,2.4,1.5,5.3,2.8c2.9,1.3,4.7,1.6,4.8,2.5c0,0.8-1.5,1.3-1.6,1.5c-1.7,0.7-3.3-0.3-3.5-0.3c-1-0.3-2.6-0.8-4.3-1.6
	c-1-0.5-1.1-0.6-1.7-0.7c-1.6-0.5-2.6-0.4-5.2-0.4c-3.8-0.1-3.7-0.4-4.5-0.1c-2,0.7-3.5,3.4-3.5,3.4c-2.2,3.9-12.8,5.4-14.3,5.7
	c-0.7,0.2-1.6,0.5-2.8,0.3c-2.8-0.4-4.5-3.5-5.6-5.4c-1.5-2.7-5.1-9.3-2.5-16.8C376.6,314.3,378.4,312.1,379.9,310.7z"/>
<g id="Foot">
	
		<linearGradient id="SVGID_16_" gradientUnits="userSpaceOnUse" x1="484.9466" y1="-421.4224" x2="484.9466" y2="-375.5307" gradientTransform="matrix(0.4781 0.8784 0.8784 -0.4781 242.8243 -304.5322)">
		<stop  offset="0" style="stop-color:#ABABAB"/>
		<stop  offset="0.3463" style="stop-color:#D3D6D6"/>
		<stop  offset="1" style="stop-color:#C5C8C9"/>
	</linearGradient>
	<path class="st15" d="M126.9,281.6c-1.5,1.4-4.6,3.8-9.1,5c-3.4,0.9-6.2,0.8-8.1,0.5c-5.3,0.3-9.1,1.9-11.2,3
		c-3.6,1.9-4.4,3.4-4.6,4c-0.4,0.9-0.9,2.5,0.5,7.5c2.1,7.3,5.6,12.3,6.7,13.6c2.5,3.4,2.9,2.9,4.5,5.5c3.3,5.1,1.7,7.4,4.2,12
		c1.6,3,4,4.6,8.6,8.2c4.9,3.7,7.4,5.6,10.5,4.9c2-0.5,4.6-2.3,4.5-4.6c-0.1-1.9-2-3.7-4.7-4.1c-1.6-4.4-2.7-8.2-3.4-10.9
		c-2-7.9-1.9-11-1.5-12.6c0.1-0.2,0.1-0.4,0.2-0.6c1.3-4.2,3.2-7,4.4-8.7c4.2-5.9,11.2-10.8,12.1-11.4c-1,0.4-4.1,1.4-7.3,0
		C129.1,291,126.6,286.5,126.9,281.6z"/>
</g>
</svg>
