<?xml version="1.0" encoding="utf-8"?>
<!-- Generator: Adobe Illustrator 22.1.0, SVG Export Plug-In . SVG Version: 6.00 Build 0)  -->
<svg version="1.1" id="Layer_1" xmlns="http://www.w3.org/2000/svg" xmlns:xlink="http://www.w3.org/1999/xlink" x="0px" y="0px"
	 viewBox="0 0 576 432" style="enable-background:new 0 0 576 432;" xml:space="preserve">
<style type="text/css">
	.st0{fill:url(#SVGID_1_);}
	.st1{fill:url(#SVGID_2_);}
	.st2{fill:url(#SVGID_3_);}
	.st3{fill:url(#SVGID_4_);}
	.st4{fill:url(#SVGID_5_);}
	.st5{fill:url(#SVGID_6_);}
	.st6{fill:url(#SVGID_7_);}
	.st7{fill:url(#SVGID_8_);}
	.st8{fill:url(#SVGID_9_);}
	.st9{fill:url(#SVGID_10_);}
	.st10{fill:url(#SVGID_11_);}
	.st11{fill:url(#SVGID_12_);}
	.st12{fill:url(#SVGID_13_);}
	.st13{fill:url(#SVGID_14_);}
	.st14{fill:url(#SVGID_15_);}
	.st15{fill:url(#SVGID_16_);}
</style>
<linearGradient id="SVGID_1_" gradientUnits="userSpaceOnUse" x1="140.9742" y1="140.8408" x2="189.6286" y2="140.8408" gradientTransform="matrix(0.2045 0.9789 -0.9789 0.2045 525.0074 -49.0906)">
	<stop  offset="7.317073e-03" style="stop-color:#AAAAAA"/>
	<stop  offset="0.2244" style="stop-color:#AEAEAE"/>
	<stop  offset="0.4431" style="stop-color:#BABABA"/>
	<stop  offset="0.6625" style="stop-color:#CECECE"/>
	<stop  offset="0.8813" style="stop-color:#EAEAEA"/>
	<stop  offset="0.9317" style="stop-color:#F2F2F2"/>
</linearGradient>
<path class="st0" d="M421.9,128.8c0.8,0.2,4.6,1.1,9.2-0.2c2.2-0.6,4.1-1.9,7.9-4.4c0.9-0.6,1.9-1.4,3.7-2.5c1.6-1,2.9-1.8,3.8-2.3
	c-1.5,14.3-5.6,24.7-8.9,31.3c-5.6,11.1-10.7,15.1-12.1,14.6c-1.4-0.5-0.9-3.4-3.4-4.9c-0.4-0.3-1.2-0.7-5.6-0.9
	c-3.3-0.2-4.9-0.3-5.5-0.2c-4.6,0.6-7.8,5.7-9.2,8.2c-1.9-1.6-4.8-4.3-6.7-8.5c-3.9-8.2-1.4-16.3,1.4-25.3
	c2.1-6.9,3.9-12.9,7.8-13.6c1.7-0.3,4.8,1.5,11.2,5.2C419.1,127.6,419.8,128.2,421.9,128.8z"/>
<linearGradient id="SVGID_2_" gradientUnits="userSpaceOnUse" x1="161.545" y1="128.9607" x2="202.2909" y2="94.7708" gradientTransform="matrix(0.2045 0.9789 -0.9789 0.2045 525.0074 -49.0906)">
	<stop  offset="7.317073e-03" style="stop-color:#B0B0AE"/>
	<stop  offset="1" style="stop-color:#E5E6E6"/>
</linearGradient>
<path class="st1" d="M482.4,147.8c-0.2-7.8-2.7-13.5-3.3-14.8c-2.2-4.9-5-11.1-11.9-14.4c-7-3.3-13.8-1.5-15.7-1
	c-2.2,0.6-8.3,2.3-12,7.9c-2.6,4-3,8.4-3.1,10.2c-0.2,2.3,0,4.3,0.2,5.6c-1.6,0.1-4.3,0.5-6.7,2.4c-2.7,2-3.5,4.7-4.9,9
	c-1,3-1.3,6.7-1.9,14.2c-0.3,3.7-0.4,5.9,1,7.6c1.1,1.3,2.5,1.8,3.7,2.1c2.5,0.8,3.7,0.2,8.2,0.2c5.6-0.1,6.2-0.6,7.6-0.1
	c2,0.7,2.4,1.5,3.7,1.3c1.4-0.3,1.6-1.5,4.2-4.1c1.6-1.6,2.4-2.4,3.5-2.6c1.8-0.3,2.5,1,4.6,1.4c0.8,0.1,2,0.2,6.8-2.3
	c4.2-2.1,6.2-3.2,8.7-5.4c1.8-1.5,3.7-3.1,5.1-5.8C482.5,155.1,482.5,151.2,482.4,147.8z"/>
<linearGradient id="SVGID_3_" gradientUnits="userSpaceOnUse" x1="207.0049" y1="123.1183" x2="207.0049" y2="123.1183" gradientTransform="matrix(0.2045 0.9789 -0.9789 0.2045 525.0074 -49.0906)">
	<stop  offset="7.317073e-03" style="stop-color:#AAAAAA"/>
	<stop  offset="0.9317" style="stop-color:#F2F2F2"/>
</linearGradient>
<path class="st2" d="M446.8,178.7"/>
<linearGradient id="SVGID_4_" gradientUnits="userSpaceOnUse" x1="154.1715" y1="131.285" x2="154.1715" y2="131.285" gradientTransform="matrix(0.2045 0.9789 -0.9789 0.2045 525.0074 -49.0906)">
	<stop  offset="7.317073e-03" style="stop-color:#AAAAAA"/>
	<stop  offset="0.9317" style="stop-color:#F2F2F2"/>
</linearGradient>
<path class="st3" d="M428,128.7"/>
<linearGradient id="SVGID_5_" gradientUnits="userSpaceOnUse" x1="18.6078" y1="411.1029" x2="-26.9244" y2="411.1029" gradientTransform="matrix(0.9994 3.343391e-02 -3.343391e-02 0.9994 267.4589 -155.5941)">
	<stop  offset="0" style="stop-color:#ABABAB"/>
	<stop  offset="0.3463" style="stop-color:#D3D6D6"/>
	<stop  offset="0.8171" style="stop-color:#BDC2C7"/>
	<stop  offset="1" style="stop-color:#ABABAB"/>
</linearGradient>
<path class="st4" d="M231.5,215.9c-0.3,0.4-0.6,0.8-0.9,1.2c-4,6.8-3.3,12.9-1.9,28.7c0.2,2.4,0.7,8.4,1.7,20.6
	c0.2,2.7,0.5,6.2,0.7,8.7c0.5,5.9,0.9,10.7,1.2,13.9c0.2,1,0.7,2.5,1.5,4.1c0.4,0.8,2.2,4,5.4,5.9c6.1,3.6,14-0.4,16.4-1.7
	c2-1,5.2-2.7,7.5-6.2c1.8-2.7,1.9-4.7,2.9-12.1c1.7-13.6,2.9-20.7,3.6-24.4c0.6-3.2,0.5-2.3,1.2-5.7c3.3-18.1,2.7-23.4,0.3-28.3
	c-0.4-0.7-0.6-1.3-1.2-2.1C262.5,207.9,239.7,206.6,231.5,215.9z"/>
<linearGradient id="SVGID_6_" gradientUnits="userSpaceOnUse" x1="165.5112" y1="350.4934" x2="233.8056" y2="350.4934" gradientTransform="matrix(0.9994 3.343391e-02 -3.343391e-02 0.9994 59.4401 -162.5529)">
	<stop  offset="0" style="stop-color:#363233"/>
	<stop  offset="1" style="stop-color:#000000"/>
</linearGradient>
<path class="st5" d="M248.2,136.7c-2.5,0.2-22.4,2-30.1,16.1c-2.3,4.2-3,8.8-3.6,11.9c-1.5,8.4-0.3,15.1,0.3,18
	c1.1,5.8,3,10.1,4.1,12.6c1.4,3.3,2.9,5.9,4.1,7.9c0.3,1.7,0.7,4.3,1.1,7.5c1,8,1,13.1,1.4,19.1c0.2,4.4,0.7,10.7,1.9,18.4
	c1.7,0.6,4.1,1.3,7.1,2c5.7,1.3,14.2,3.3,24.2,1.6c3.2-0.6,8-1.7,13.4-4.4c1.8-9.5,3-17.2,3.8-22.7c0.7-4.6,1.3-8.8,2.6-17.4
	c1.2-7.7,1.3-8.1,1.7-10.8c2.2-15.4,1.9-27,1.9-27c-0.3-5.9-1.2-14.4-4.5-24.5C273.9,142.5,262.9,135.6,248.2,136.7z"/>
<linearGradient id="SVGID_7_" gradientUnits="userSpaceOnUse" x1="386.1112" y1="381.2057" x2="346.9061" y2="381.2057" gradientTransform="matrix(-0.1922 0.9814 -0.9814 -0.1922 634.8493 -16.4755)">
	<stop  offset="0" style="stop-color:#ABABAB"/>
	<stop  offset="0.3463" style="stop-color:#D3D6D6"/>
	<stop  offset="0.8171" style="stop-color:#BDC2C7"/>
	<stop  offset="1" style="stop-color:#ABABAB"/>
</linearGradient>
<path class="st6" d="M244.2,267.3c-10.2-7.9-19.2-10.8-25.9-11.9c-6.3-1-6,0.3-26.8,0.6c0,0-13,0.2-28.2-0.4
	c-9.6-0.4-7.3-0.6-15.7-1c-0.3,0-2.6-0.2-3.9-0.4c-2-0.3-4.9-1-8.6-3.3c-0.7,0.3-4.6,2.4-5.9,6.9c-1.2,4,0.1,8.5,3.3,11.6
	c1.7,0.4,4.4,1,7.6,1.7c9.9,2.2,16.1,3.5,18.6,4.1c4.8,1.2,11.7,3.1,28.1,8.3c14.5,4.7,17.7,6,23.2,7.8c0,0,2.4,0.8,4.8,1.5
	c5.4,1.7,15.7,4.4,29.2,7.4c1.3-1.4,6.3-6.8,6.8-15.4C251.2,275,245.2,268.5,244.2,267.3z"/>
<linearGradient id="SVGID_8_" gradientUnits="userSpaceOnUse" x1="286.9177" y1="257.2083" x2="246.2302" y2="186.7355" gradientTransform="matrix(0.9985 -5.524063e-02 5.524063e-02 0.9985 112.3599 40.1938)">
	<stop  offset="0" style="stop-color:#D3D6D6"/>
	<stop  offset="0.6073" style="stop-color:#BDC2C7"/>
	<stop  offset="0.878" style="stop-color:#ABABAB"/>
</linearGradient>
<path class="st7" d="M374.8,214.8c-1.3,4.8-0.5,8.8,0.2,12.3c1.6,8.7,2.4,17.5,3.8,26.3c1.3,8.3,1.1,7,2.9,18.8c1,6,1.9,12.1,2.9,18
	c1.8,2.6,4.9,3.9,8,3.5c3.5-0.6,6.3-3.4,6.8-7.1c-1.1-14.2-0.8-25.7-0.4-33.5c0.4-6.9,0.7-12.5,0.7-18.5c0.1-12.2-0.4-11,0.1-15.6
	c0.4-0.9,2.5-6.1,0-10.7c-3.6-6.7-14.5-7.3-18.8-3.5c-0.2,0.2-0.3,0.3-0.7,0.7C378.9,207.2,376,210.1,374.8,214.8z"/>
<linearGradient id="SVGID_9_" gradientUnits="userSpaceOnUse" x1="293.3828" y1="434.9471" x2="293.3828" y2="434.9471" gradientTransform="matrix(4.902260e-03 1 -1 4.902260e-03 568.6117 -22.3111)">
	<stop  offset="0" style="stop-color:#ABABAB"/>
	<stop  offset="0.3463" style="stop-color:#D3D6D6"/>
	<stop  offset="0.8171" style="stop-color:#BDC2C7"/>
	<stop  offset="1" style="stop-color:#ABABAB"/>
</linearGradient>
<path class="st8" d="M135.1,273.2"/>
<linearGradient id="SVGID_10_" gradientUnits="userSpaceOnUse" x1="212.8926" y1="417.295" x2="212.8926" y2="417.295" gradientTransform="matrix(4.902260e-03 1 -1 4.902260e-03 568.6117 -22.3111)">
	<stop  offset="0" style="stop-color:#ABABAB"/>
	<stop  offset="0.3463" style="stop-color:#D3D6D6"/>
	<stop  offset="0.8171" style="stop-color:#BDC2C7"/>
	<stop  offset="1" style="stop-color:#ABABAB"/>
</linearGradient>
<path class="st9" d="M152.4,192.6"/>
<linearGradient id="SVGID_11_" gradientUnits="userSpaceOnUse" x1="129.1691" y1="218.5443" x2="197.4789" y2="218.5443" gradientTransform="matrix(0.2045 0.9789 -1.0049 0.21 526.0248 -49.3032)">
	<stop  offset="0" style="stop-color:#363233"/>
	<stop  offset="1" style="stop-color:#000000"/>
</linearGradient>
<path class="st10" d="M411.6,123.4c-1.6,1.9-4,5.3-5,10.2c-0.8,3.8-0.2,6.8,0.4,10.1c0.7,3.8,2.2,9.5,5.8,16
	c-7.1,5.9-13.6,10.7-19,14.4c-4.3,2.9-6.6,4.4-9.5,5.9c-1.8,0.9-10.2,5-23.2,6.6c-2.8,0.3-3.2,0.3-5.6,0.3c-1.7,0-3,0.1-6.5,0.3
	c-11,0.8-14.7,0.9-19.7,1.4c-5.8,0.6-9.9,1.4-19.8,3.6c-10.1,2.3-22.5,5.1-36.6,8.4c-3-6.8-6.2-15.9-8-26.8
	c-2.4-14.6-1.6-27-0.3-35.7c2.7,0.3,6.8,0.7,11.8,0.7c14.6-0.1,26.2-3.5,36-6.4c0.9-0.3,5.5-1.7,14.6-4.8c3.9-1.3,9-3,15.8-5.2
	c9.8-3.2,14.1-4.5,20.5-5.8c9.4-1.9,16.3-3.3,25.1-2.2C393.3,115.1,401.9,117,411.6,123.4z"/>
<linearGradient id="SVGID_12_" gradientUnits="userSpaceOnUse" x1="158.5564" y1="154.6444" x2="213.6841" y2="220.343" gradientTransform="matrix(0.9996 -2.995535e-02 2.995535e-02 0.9996 196.1587 -1.0676)">
	<stop  offset="0" style="stop-color:#D3D6D6"/>
	<stop  offset="0.6073" style="stop-color:#BDC2C7"/>
	<stop  offset="0.878" style="stop-color:#9C9C9C"/>
</linearGradient>
<path class="st11" d="M389.9,125.7c-1.6,0.6-3.8,1.4-6.4,2.8c-2.8,1.5-4.7,2.6-6.6,4.6c-2,2.2-2.9,4.3-3.9,6.7
	c-1.5,3.7-2,6.9-2.4,9.3c-0.2,1.1-0.4,2.7-0.5,5.4c0,0-0.1,2.2-0.1,4.4c0.1,6.7,1.7,12.8,2.4,22.5c0.1,1.3,0.2,2.5,0.3,5
	c0.4,8.7,0.4,15.1,0.4,16.8c0,5.2,0.5,13.6,2.7,27.1c0.8,1.2,2.2,2.9,4.6,4.1c4.9,2.3,10.9,0.4,14.3-2.4c4.4-3.6,5.1-9,6.4-19.8
	c0.7-6.1,0.7-10.8,0.6-16.1c-0.2-13.3-1.3-13-0.9-20.7c0.3-5.9,0.9-5.7,2.1-17.4c0.7-6.9,1.3-10.3,0.9-14.2
	c-0.5-4.2-1.4-12.4-7.5-16.3C393.9,126.2,391.5,125.8,389.9,125.7z"/>
<linearGradient id="SVGID_13_" gradientUnits="userSpaceOnUse" x1="603.6447" y1="231.8371" x2="639.3338" y2="274.3695" gradientTransform="matrix(1.274212e-02 0.9999 0.9999 -1.274212e-02 144.1641 -322.5111)">
	<stop  offset="0" style="stop-color:#D3D6D6"/>
	<stop  offset="0.6073" style="stop-color:#BDC2C7"/>
</linearGradient>
<path class="st12" d="M382.8,279c6,13.8,11.2,15.1,13.3,15.2c1.9,0.1,7.9-0.9,10.8-1.4c3.3-0.6,3.9-0.8,5.3-0.6
	c2.3,0.3,2.8,1.1,7.5,3.1c3.3,1.4,3.5,1.2,5.3,2.2c2.4,1.4,2.2,1.8,5,3.4c2.8,1.6,4.6,2.1,4.5,2.9c0,0.7-1.6,1.2-1.8,1.2
	c-1.8,0.6-3.3-0.6-3.5-0.7c-1-0.4-2.5-1.1-4.2-2c-1-0.6-1.1-0.7-1.7-0.9c-1.6-0.7-2.6-0.6-5.1-1.1c-3.7-0.5-3.6-0.8-4.5-0.6
	c-2,0.4-3.8,2.9-3.8,2.9c2.1,0.8,3.1,1.5,3,2c-0.1,0.7-2.9,1-8.5,0.7c-1.6,0-4.1-0.1-6.9-1.1c-0.9-0.3-1.7-0.7-2.5-1.1
	C384.9,297.8,383.2,283.6,382.8,279z"/>
<linearGradient id="SVGID_14_" gradientUnits="userSpaceOnUse" x1="607.1928" y1="246.2626" x2="635.2675" y2="279.7209" gradientTransform="matrix(2.947360e-03 0.9653 1 -3.053406e-03 147.6947 -302.5264)">
	<stop  offset="0" style="stop-color:#D3D6D6"/>
	<stop  offset="0.6073" style="stop-color:#BDC2C7"/>
</linearGradient>
<path class="st13" d="M389.8,289.9c4.1,0.6,7.5,0.5,9.8,0.4c2.4-0.2,6.5-0.7,10.8-1.3c3.4-0.5,3.9-0.8,5.3-0.6
	c2.3,0.3,2.8,1.1,7.5,3.1c3.3,1.4,3.4,1.2,5.2,2.1c2.4,1.4,2.2,1.8,5,3.3c2.8,1.6,4.5,2,4.5,2.8c0,0.7-1.5,1.1-1.8,1.2
	c-1.8,0.5-3.3-0.6-3.5-0.7c-1-0.4-2.5-1.1-4.1-2c-1-0.6-1.1-0.7-1.7-0.9c-2.6-1.2-5.1-1.1-5.1-1.1c-0.8,0.1-1.4,0.2-2.4,0.4
	c-1.4,0.3-1.3,0.5-2.8,0.8c-1.9,0.4-2.4,0.4-3,1c-0.1,0.1-0.8,0.9-0.6,1.6c0.1,0.4,0.6,0.9,3.7,1.3c1.9,0.2,3.5,0.3,6.4,0.5
	c1,0,2.4,0.2,3.4,1.2c0.3,0.2,0.7,0.7,0.6,1.1c-0.1,0.6-1.2,0.8-4.7,1.2c-1.8,0.1-3.6,0.3-7.2,0.4c-3.3,0.1-4.1,0-5.1-0.1
	c-1.4-0.2-2.6-0.4-4.1-0.9c-1.1-0.4-2-0.6-2.8-1c-1.6-0.6-3-1.2-3.7-1.5c-0.2-0.1-0.4-0.2-0.6-0.2c0,0-0.1,0-0.2-0.1
	c-3.5-1.5-7.5-5.6-7.5-5.6c-1-1-2.2-2.4-3.5-4.2C388.3,291.5,389.1,290.7,389.8,289.9z"/>
<linearGradient id="SVGID_15_" gradientUnits="userSpaceOnUse" x1="603.2993" y1="213.0361" x2="635.3039" y2="251.1779" gradientTransform="matrix(0.1158 0.9933 0.9933 -0.1158 104.3981 -295.3456)">
	<stop  offset="0" style="stop-color:#D3D6D6"/>
	<stop  offset="0.6073" style="stop-color:#BDC2C7"/>
</linearGradient>
<path class="st14" d="M390.3,273.6c1.3,2.6,2.8,5.4,4.6,8.3c1.4,2.3,2.8,4.3,4.1,6.2c1.3,0.1,2.9-0.1,4.8-0.4
	c1.3-0.3,2.3-0.6,3.2-1.1c0,0,2.1-1,4.4-1.2c0.3,0,0.5-0.1,0.9-0.1c2.3,0,2.9,0.8,7.7,2.2c3.5,1.1,3.5,0.8,5.4,1.6
	c2.6,1.1,2.4,1.5,5.3,2.8c2.9,1.3,4.7,1.6,4.8,2.4c0,0.7-1.5,1.3-1.6,1.4c-1.7,0.7-3.3-0.2-3.5-0.3c-1-0.3-2.6-0.7-4.3-1.6
	c-1-0.5-1.1-0.6-1.7-0.7c-1.6-0.5-2.6-0.4-5.2-0.4c-3.8-0.1-3.7-0.4-4.5-0.1c-2,0.7-3.5,3.3-3.5,3.3c-2.2,3.8-12.8,5.3-14.3,5.5
	c-0.7,0.2-1.6,0.5-2.8,0.3c-2.8-0.4-4.5-3.4-5.6-5.3c-1.5-2.6-5.1-9.1-2.5-16.4C387,277.2,388.8,275.1,390.3,273.6z"/>
<g id="Foot">
	
		<linearGradient id="SVGID_16_" gradientUnits="userSpaceOnUse" x1="482.4744" y1="-408.7745" x2="482.4744" y2="-368.6089" gradientTransform="matrix(-0.2083 0.9781 0.9781 0.2083 599.9937 -119.0721)">
		<stop  offset="0" style="stop-color:#ABABAB"/>
		<stop  offset="0.3463" style="stop-color:#D3D6D6"/>
		<stop  offset="1" style="stop-color:#C5C8C9"/>
	</linearGradient>
	<path class="st15" d="M140.8,254.2c-2.2-0.9-5-2.3-8-4.5c-2.6-2-4.6-4.2-5.9-5.9c-4.2-3.2-8.1-4.5-10.4-5c-4-0.9-5.6-0.3-6.1,0
		c-0.9,0.4-2.3,1.3-4.5,6c-3.2,6.9-3.7,13-3.8,14.7c-0.3,4.2,0.3,4.1-0.1,7.1c-0.8,6-3.5,6.7-4.6,11.8c-0.7,3.3,0,6.1,1.2,11.8
		c1.3,6,2,9.1,4.8,10.5c1.8,0.9,5,1.3,6.4-0.6c1.1-1.5,0.9-4.1-0.9-6.2c1.6-4.4,3.3-8,4.5-10.5c4.1-8.4,6.3-10.1,7.6-10.9
		c2.8-1.7,5.4-2.1,7-2.3c5.2-0.7,10.9,0.7,12,1c0.5-2.3,0.8-5,1-8C141.2,259.8,141.1,256.8,140.8,254.2z"/>
</g>
</svg>
